<?xml version="1.0" encoding="UTF-8" standalone="no"?>
<!DOCTYPE svg PUBLIC "-//W3C//DTD SVG 1.1//EN"
 "http://www.w3.org/Graphics/SVG/1.1/DTD/svg11.dtd">
<!-- Generated by graphviz version 13.1.2 (20250808.2320)
 -->
<!-- Title: Extended PBP Tree Pages: 1 -->
<svg width="2813pt" height="679pt"
 viewBox="0.00 0.00 2813.00 679.00" xmlns="http://www.w3.org/2000/svg" xmlns:xlink="http://www.w3.org/1999/xlink">
<g id="graph0" class="graph" transform="scale(2.08333 2.08333) rotate(0) translate(4 322)">
<title>Extended PBP Tree</title>
<polygon fill="white" stroke="none" points="-4,4 -4,-322 1346,-322 1346,4 -4,4"/>
<!-- e0 -->
<g id="node1" class="node">
<title>e0</title>
<polygon fill="#ffe6e6" stroke="black" points="698,-36 628,-36 628,0 698,0 698,-36"/>
<text xml:space="preserve" text-anchor="start" x="636" y="-20.15" font-family="Courier New" font-size="8.00">(4,3) B+ ε=0</text>
<text xml:space="preserve" text-anchor="start" x="636" y="-10.4" font-family="Courier New" font-size="8.00">c|dd</text>
</g>
<!-- e1 -->
<g id="node2" class="node">
<title>e1</title>
<polygon fill="#e6ffe6" stroke="black" points="737.25,-130 680.75,-130 680.75,-94 737.25,-94 737.25,-130"/>
<text xml:space="preserve" text-anchor="start" x="688.75" y="-114.15" font-family="Courier New" font-size="8.00">(2,2) ε=0</text>
<text xml:space="preserve" text-anchor="start" x="688.75" y="-104.4" font-family="Courier New" font-size="8.00">s|d</text>
</g>
<!-- e1&#45;&gt;e0 -->
<g id="edge1" class="edge">
<title>e1&#45;&gt;e0</title>
<path fill="none" stroke="blue" d="M700.35,-93.7C693.67,-80.33 684.29,-61.59 676.61,-46.22"/>
<polygon fill="blue" stroke="blue" points="679.89,-44.96 672.29,-37.58 673.63,-48.09 679.89,-44.96"/>
</g>
<!-- e7 -->
<g id="node8" class="node">
<title>e7</title>
<polygon fill="#ffe6e6" stroke="black" points="974,-36 904,-36 904,0 974,0 974,-36"/>
<text xml:space="preserve" text-anchor="start" x="912" y="-20.15" font-family="Courier New" font-size="8.00">(5,2) B+ ε=1</text>
<text xml:space="preserve" text-anchor="start" x="912" y="-10.4" font-family="Courier New" font-size="8.00">c|rd</text>
</g>
<!-- e1&#45;&gt;e7 -->
<g id="edge7" class="edge">
<title>e1&#45;&gt;e7</title>
<path fill="none" stroke="blue" d="M737.66,-99.53C776.57,-83.97 846.55,-55.98 892.89,-37.44"/>
<polygon fill="blue" stroke="blue" points="894.16,-40.7 902.15,-33.74 891.56,-34.2 894.16,-40.7"/>
</g>
<!-- e11 -->
<g id="node12" class="node">
<title>e11</title>
<polygon fill="#ffe6e6" stroke="black" points="790,-36 720,-36 720,0 790,0 790,-36"/>
<text xml:space="preserve" text-anchor="start" x="728" y="-20.15" font-family="Courier New" font-size="8.00">(4,3) B+ ε=1</text>
<text xml:space="preserve" text-anchor="start" x="728" y="-10.4" font-family="Courier New" font-size="8.00">.|.d</text>
</g>
<!-- e1&#45;&gt;e11 -->
<g id="edge11" class="edge">
<title>e1&#45;&gt;e11</title>
<path fill="none" stroke="blue" d="M717.65,-93.7C724.33,-80.33 733.71,-61.59 741.39,-46.22"/>
<polygon fill="blue" stroke="blue" points="744.37,-48.09 745.71,-37.58 738.11,-44.96 744.37,-48.09"/>
</g>
<!-- e12 -->
<g id="node13" class="node">
<title>e12</title>
<polygon fill="#ffe6f3" stroke="black" points="882,-36 812,-36 812,0 882,0 882,-36"/>
<text xml:space="preserve" text-anchor="start" x="820" y="-20.15" font-family="Courier New" font-size="8.00">(3,4) B&#45; ε=1</text>
<text xml:space="preserve" text-anchor="start" x="820" y="-10.4" font-family="Courier New" font-size="8.00">.|.d</text>
</g>
<!-- e1&#45;&gt;e12 -->
<g id="edge12" class="edge">
<title>e1&#45;&gt;e12</title>
<path fill="none" stroke="blue" d="M734.96,-93.7C756.64,-79.24 787.77,-58.49 811.71,-42.52"/>
<polygon fill="blue" stroke="blue" points="813.52,-45.53 819.9,-37.07 809.64,-39.7 813.52,-45.53"/>
</g>
<!-- e2 -->
<g id="node3" class="node">
<title>e2</title>
<polygon fill="#ffe6e6" stroke="black" points="560,-224 490,-224 490,-188 560,-188 560,-224"/>
<text xml:space="preserve" text-anchor="start" x="498" y="-208.15" font-family="Courier New" font-size="8.00">(2,1) B+ ε=0</text>
<text xml:space="preserve" text-anchor="start" x="498" y="-198.4" font-family="Courier New" font-size="8.00">|d</text>
</g>
<!-- e2&#45;&gt;e1 -->
<g id="edge2" class="edge">
<title>e2&#45;&gt;e1</title>
<path fill="none" stroke="blue" d="M559.61,-187.7C591.08,-171.96 637.46,-148.77 670.18,-132.41"/>
<polygon fill="blue" stroke="blue" points="671.55,-135.64 678.93,-128.03 668.42,-129.38 671.55,-135.64"/>
</g>
<!-- e3 -->
<g id="node4" class="node">
<title>e3</title>
<polygon fill="#e6ffe6" stroke="black" points="415.25,-318 358.75,-318 358.75,-282 415.25,-282 415.25,-318"/>
<text xml:space="preserve" text-anchor="start" x="366.75" y="-301.77" font-family="Courier New" font-size="8.00">(0,0) ε=0</text>
</g>
<!-- e3&#45;&gt;e2 -->
<g id="edge3" class="edge">
<title>e3&#45;&gt;e2</title>
<path fill="none" stroke="blue" d="M412.96,-281.7C434.64,-267.24 465.77,-246.49 489.71,-230.52"/>
<polygon fill="blue" stroke="blue" points="491.52,-233.53 497.9,-225.07 487.64,-227.7 491.52,-233.53"/>
</g>
<!-- e6 -->
<g id="node7" class="node">
<title>e6</title>
<polygon fill="#ffe6f3" stroke="black" points="882,-224 812,-224 812,-188 882,-188 882,-224"/>
<text xml:space="preserve" text-anchor="start" x="820" y="-208.15" font-family="Courier New" font-size="8.00">(1,2) B&#45; ε=0</text>
<text xml:space="preserve" text-anchor="start" x="820" y="-198.4" font-family="Courier New" font-size="8.00">|d</text>
</g>
<!-- e3&#45;&gt;e6 -->
<g id="edge6" class="edge">
<title>e3&#45;&gt;e6</title>
<path fill="none" stroke="blue" d="M415.43,-293.31C492.43,-277.91 705.6,-235.28 800.45,-216.31"/>
<polygon fill="blue" stroke="blue" points="801.08,-219.75 810.2,-214.36 799.7,-212.89 801.08,-219.75"/>
</g>
<!-- e15 -->
<g id="node16" class="node">
<title>e15</title>
<polygon fill="#ffe6f3" stroke="black" points="238,-224 168,-224 168,-188 238,-188 238,-224"/>
<text xml:space="preserve" text-anchor="start" x="176" y="-208.15" font-family="Courier New" font-size="8.00">(2,1) B&#45; ε=1</text>
<text xml:space="preserve" text-anchor="start" x="176" y="-198.4" font-family="Courier New" font-size="8.00">|r</text>
</g>
<!-- e3&#45;&gt;e15 -->
<g id="edge15" class="edge">
<title>e3&#45;&gt;e15</title>
<path fill="none" stroke="blue" d="M358.25,-284.62C328.76,-269.88 282.45,-246.73 248.08,-229.54"/>
<polygon fill="blue" stroke="blue" points="249.69,-226.43 239.18,-225.09 246.56,-232.69 249.69,-226.43"/>
</g>
<!-- e19 -->
<g id="node20" class="node">
<title>e19</title>
<polygon fill="#ffe6e6" stroke="black" points="376,-224 306,-224 306,-188 376,-188 376,-224"/>
<text xml:space="preserve" text-anchor="start" x="314" y="-208.15" font-family="Courier New" font-size="8.00">(3,0) B+ ε=1</text>
<text xml:space="preserve" text-anchor="start" x="314" y="-198.4" font-family="Courier New" font-size="8.00">|r</text>
</g>
<!-- e3&#45;&gt;e19 -->
<g id="edge19" class="edge">
<title>e3&#45;&gt;e19</title>
<path fill="none" stroke="blue" d="M378.35,-281.7C371.67,-268.33 362.29,-249.59 354.61,-234.22"/>
<polygon fill="blue" stroke="blue" points="357.89,-232.96 350.29,-225.58 351.63,-236.09 357.89,-232.96"/>
</g>
<!-- e23 -->
<g id="node24" class="node">
<title>e23</title>
<polygon fill="#ffe6e6" stroke="black" points="468,-224 398,-224 398,-188 468,-188 468,-224"/>
<text xml:space="preserve" text-anchor="start" x="406" y="-208.15" font-family="Courier New" font-size="8.00">(1,2) B+ ε=1</text>
<text xml:space="preserve" text-anchor="start" x="406" y="-198.4" font-family="Courier New" font-size="8.00">|s</text>
</g>
<!-- e3&#45;&gt;e23 -->
<g id="edge23" class="edge">
<title>e3&#45;&gt;e23</title>
<path fill="none" stroke="blue" d="M395.65,-281.7C402.33,-268.33 411.71,-249.59 419.39,-234.22"/>
<polygon fill="blue" stroke="blue" points="422.37,-236.09 423.71,-225.58 416.11,-232.96 422.37,-236.09"/>
</g>
<!-- e4 -->
<g id="node5" class="node">
<title>e4</title>
<polygon fill="#ffe6f3" stroke="black" points="1158,-36 1088,-36 1088,0 1158,0 1158,-36"/>
<text xml:space="preserve" text-anchor="start" x="1096" y="-20.15" font-family="Courier New" font-size="8.00">(3,4) B&#45; ε=0</text>
<text xml:space="preserve" text-anchor="start" x="1096" y="-10.4" font-family="Courier New" font-size="8.00">c|dd</text>
</g>
<!-- e5 -->
<g id="node6" class="node">
<title>e5</title>
<polygon fill="#e6ffe6" stroke="black" points="1151.25,-130 1094.75,-130 1094.75,-94 1151.25,-94 1151.25,-130"/>
<text xml:space="preserve" text-anchor="start" x="1102.75" y="-114.15" font-family="Courier New" font-size="8.00">(2,2) ε=0</text>
<text xml:space="preserve" text-anchor="start" x="1102.75" y="-104.4" font-family="Courier New" font-size="8.00">c|d</text>
</g>
<!-- e5&#45;&gt;e4 -->
<g id="edge4" class="edge">
<title>e5&#45;&gt;e4</title>
<path fill="none" stroke="blue" d="M1123,-93.7C1123,-80.72 1123,-62.66 1123,-47.56"/>
<polygon fill="blue" stroke="blue" points="1126.5,-47.74 1123,-37.74 1119.5,-47.74 1126.5,-47.74"/>
</g>
<!-- e8 -->
<g id="node9" class="node">
<title>e8</title>
<polygon fill="#ffe6f3" stroke="black" points="1250,-36 1180,-36 1180,0 1250,0 1250,-36"/>
<text xml:space="preserve" text-anchor="start" x="1188" y="-20.15" font-family="Courier New" font-size="8.00">(4,3) B&#45; ε=1</text>
<text xml:space="preserve" text-anchor="start" x="1188" y="-10.4" font-family="Courier New" font-size="8.00">c|rd</text>
</g>
<!-- e5&#45;&gt;e8 -->
<g id="edge8" class="edge">
<title>e5&#45;&gt;e8</title>
<path fill="none" stroke="blue" d="M1140.3,-93.7C1154.31,-79.69 1174.23,-59.77 1189.97,-44.03"/>
<polygon fill="blue" stroke="blue" points="1192.11,-46.84 1196.7,-37.3 1187.16,-41.89 1192.11,-46.84"/>
</g>
<!-- e9 -->
<g id="node10" class="node">
<title>e9</title>
<polygon fill="#ffe6e6" stroke="black" points="1342,-36 1272,-36 1272,0 1342,0 1342,-36"/>
<text xml:space="preserve" text-anchor="start" x="1280" y="-20.15" font-family="Courier New" font-size="8.00">(3,4) B+ ε=1</text>
<text xml:space="preserve" text-anchor="start" x="1280" y="-10.4" font-family="Courier New" font-size="8.00">c|sd</text>
</g>
<!-- e5&#45;&gt;e9 -->
<g id="edge9" class="edge">
<title>e5&#45;&gt;e9</title>
<path fill="none" stroke="blue" d="M1151.75,-96.62C1181.24,-81.88 1227.55,-58.73 1261.92,-41.54"/>
<polygon fill="blue" stroke="blue" points="1263.44,-44.69 1270.82,-37.09 1260.31,-38.43 1263.44,-44.69"/>
</g>
<!-- e10 -->
<g id="node11" class="node">
<title>e10</title>
<polygon fill="#ffe6f3" stroke="black" points="1066,-36 996,-36 996,0 1066,0 1066,-36"/>
<text xml:space="preserve" text-anchor="start" x="1004" y="-20.15" font-family="Courier New" font-size="8.00">(2,5) B&#45; ε=1</text>
<text xml:space="preserve" text-anchor="start" x="1004" y="-10.4" font-family="Courier New" font-size="8.00">c|sd</text>
</g>
<!-- e5&#45;&gt;e10 -->
<g id="edge10" class="edge">
<title>e5&#45;&gt;e10</title>
<path fill="none" stroke="blue" d="M1105.7,-93.7C1091.69,-79.69 1071.77,-59.77 1056.03,-44.03"/>
<polygon fill="blue" stroke="blue" points="1058.84,-41.89 1049.3,-37.3 1053.89,-46.84 1058.84,-41.89"/>
</g>
<!-- e6&#45;&gt;e5 -->
<g id="edge5" class="edge">
<title>e6&#45;&gt;e5</title>
<path fill="none" stroke="blue" d="M882.24,-193.25C933.79,-176.07 1029.5,-144.17 1083.41,-126.2"/>
<polygon fill="blue" stroke="blue" points="1084.44,-129.54 1092.82,-123.06 1082.22,-122.9 1084.44,-129.54"/>
</g>
<!-- e13 -->
<g id="node14" class="node">
<title>e13</title>
<polygon fill="#ffe6e6" stroke="black" points="146,-36 76,-36 76,0 146,0 146,-36"/>
<text xml:space="preserve" text-anchor="start" x="84" y="-20.15" font-family="Courier New" font-size="8.00">(4,3) B+ ε=1</text>
<text xml:space="preserve" text-anchor="start" x="84" y="-10.4" font-family="Courier New" font-size="8.00">c|sr</text>
</g>
<!-- e14 -->
<g id="node15" class="node">
<title>e14</title>
<polygon fill="#e6ffe6" stroke="black" points="231.25,-130 174.75,-130 174.75,-94 231.25,-94 231.25,-130"/>
<text xml:space="preserve" text-anchor="start" x="182.75" y="-114.15" font-family="Courier New" font-size="8.00">(2,2) ε=0</text>
<text xml:space="preserve" text-anchor="start" x="182.75" y="-104.4" font-family="Courier New" font-size="8.00">c|r</text>
</g>
<!-- e14&#45;&gt;e13 -->
<g id="edge13" class="edge">
<title>e14&#45;&gt;e13</title>
<path fill="none" stroke="blue" d="M185.7,-93.7C171.69,-79.69 151.77,-59.77 136.03,-44.03"/>
<polygon fill="blue" stroke="blue" points="138.84,-41.89 129.3,-37.3 133.89,-46.84 138.84,-41.89"/>
</g>
<!-- e16 -->
<g id="node17" class="node">
<title>e16</title>
<polygon fill="#ffe6f3" stroke="black" points="238,-36 168,-36 168,0 238,0 238,-36"/>
<text xml:space="preserve" text-anchor="start" x="176" y="-20.15" font-family="Courier New" font-size="8.00">(3,4) B&#45; ε=1</text>
<text xml:space="preserve" text-anchor="start" x="176" y="-10.4" font-family="Courier New" font-size="8.00">c|sr</text>
</g>
<!-- e14&#45;&gt;e16 -->
<g id="edge16" class="edge">
<title>e14&#45;&gt;e16</title>
<path fill="none" stroke="blue" d="M203,-93.7C203,-80.72 203,-62.66 203,-47.56"/>
<polygon fill="blue" stroke="blue" points="206.5,-47.74 203,-37.74 199.5,-47.74 206.5,-47.74"/>
</g>
<!-- e15&#45;&gt;e14 -->
<g id="edge14" class="edge">
<title>e15&#45;&gt;e14</title>
<path fill="none" stroke="blue" d="M203,-187.7C203,-174.72 203,-156.66 203,-141.56"/>
<polygon fill="blue" stroke="blue" points="206.5,-141.74 203,-131.74 199.5,-141.74 206.5,-141.74"/>
</g>
<!-- e17 -->
<g id="node18" class="node">
<title>e17</title>
<polygon fill="#ffe6e6" stroke="black" points="330,-36 260,-36 260,0 330,0 330,-36"/>
<text xml:space="preserve" text-anchor="start" x="268" y="-20.15" font-family="Courier New" font-size="8.00">(5,2) B+ ε=1</text>
<text xml:space="preserve" text-anchor="start" x="268" y="-10.4" font-family="Courier New" font-size="8.00">.|.r</text>
</g>
<!-- e18 -->
<g id="node19" class="node">
<title>e18</title>
<polygon fill="#e6ffe6" stroke="black" points="369.25,-130 312.75,-130 312.75,-94 369.25,-94 369.25,-130"/>
<text xml:space="preserve" text-anchor="start" x="320.75" y="-114.15" font-family="Courier New" font-size="8.00">(2,2) ε=0</text>
<text xml:space="preserve" text-anchor="start" x="320.75" y="-104.4" font-family="Courier New" font-size="8.00">s|r</text>
</g>
<!-- e18&#45;&gt;e17 -->
<g id="edge17" class="edge">
<title>e18&#45;&gt;e17</title>
<path fill="none" stroke="blue" d="M332.35,-93.7C325.67,-80.33 316.29,-61.59 308.61,-46.22"/>
<polygon fill="blue" stroke="blue" points="311.89,-44.96 304.29,-37.58 305.63,-48.09 311.89,-44.96"/>
</g>
<!-- e20 -->
<g id="node21" class="node">
<title>e20</title>
<polygon fill="#ffe6f3" stroke="black" points="422,-36 352,-36 352,0 422,0 422,-36"/>
<text xml:space="preserve" text-anchor="start" x="360" y="-20.15" font-family="Courier New" font-size="8.00">(4,3) B&#45; ε=1</text>
<text xml:space="preserve" text-anchor="start" x="360" y="-10.4" font-family="Courier New" font-size="8.00">.|.r</text>
</g>
<!-- e18&#45;&gt;e20 -->
<g id="edge20" class="edge">
<title>e18&#45;&gt;e20</title>
<path fill="none" stroke="blue" d="M349.65,-93.7C356.33,-80.33 365.71,-61.59 373.39,-46.22"/>
<polygon fill="blue" stroke="blue" points="376.37,-48.09 377.71,-37.58 370.11,-44.96 376.37,-48.09"/>
</g>
<!-- e19&#45;&gt;e18 -->
<g id="edge18" class="edge">
<title>e19&#45;&gt;e18</title>
<path fill="none" stroke="blue" d="M341,-187.7C341,-174.72 341,-156.66 341,-141.56"/>
<polygon fill="blue" stroke="blue" points="344.5,-141.74 341,-131.74 337.5,-141.74 344.5,-141.74"/>
</g>
<!-- e21 -->
<g id="node22" class="node">
<title>e21</title>
<polygon fill="#ffe6e6" stroke="black" points="514,-36 444,-36 444,0 514,0 514,-36"/>
<text xml:space="preserve" text-anchor="start" x="452" y="-20.15" font-family="Courier New" font-size="8.00">(3,4) B+ ε=1</text>
<text xml:space="preserve" text-anchor="start" x="452" y="-10.4" font-family="Courier New" font-size="8.00">.|.s</text>
</g>
<!-- e22 -->
<g id="node23" class="node">
<title>e22</title>
<polygon fill="#e6ffe6" stroke="black" points="507.25,-130 450.75,-130 450.75,-94 507.25,-94 507.25,-130"/>
<text xml:space="preserve" text-anchor="start" x="458.75" y="-114.15" font-family="Courier New" font-size="8.00">(2,2) ε=0</text>
<text xml:space="preserve" text-anchor="start" x="458.75" y="-104.4" font-family="Courier New" font-size="8.00">.|.</text>
</g>
<!-- e22&#45;&gt;e21 -->
<g id="edge21" class="edge">
<title>e22&#45;&gt;e21</title>
<path fill="none" stroke="blue" d="M479,-93.7C479,-80.72 479,-62.66 479,-47.56"/>
<polygon fill="blue" stroke="blue" points="482.5,-47.74 479,-37.74 475.5,-47.74 482.5,-47.74"/>
</g>
<!-- e24 -->
<g id="node25" class="node">
<title>e24</title>
<polygon fill="#ffe6f3" stroke="black" points="606,-36 536,-36 536,0 606,0 606,-36"/>
<text xml:space="preserve" text-anchor="start" x="544" y="-20.15" font-family="Courier New" font-size="8.00">(2,5) B&#45; ε=1</text>
<text xml:space="preserve" text-anchor="start" x="544" y="-10.4" font-family="Courier New" font-size="8.00">.|.s</text>
</g>
<!-- e22&#45;&gt;e24 -->
<g id="edge24" class="edge">
<title>e22&#45;&gt;e24</title>
<path fill="none" stroke="blue" d="M496.3,-93.7C510.31,-79.69 530.23,-59.77 545.97,-44.03"/>
<polygon fill="blue" stroke="blue" points="548.11,-46.84 552.7,-37.3 543.16,-41.89 548.11,-46.84"/>
</g>
<!-- e23&#45;&gt;e22 -->
<g id="edge22" class="edge">
<title>e23&#45;&gt;e22</title>
<path fill="none" stroke="blue" d="M441.65,-187.7C448.33,-174.33 457.71,-155.59 465.39,-140.22"/>
<polygon fill="blue" stroke="blue" points="468.37,-142.09 469.71,-131.58 462.11,-138.96 468.37,-142.09"/>
</g>
<!-- gp_M_0 -->
<g id="node26" class="node">
<title>gp_M_0</title>
<text xml:space="preserve" text-anchor="middle" x="27" y="-295.55" font-family="Helvetica,sans-Serif" font-size="11.00" fill="#333333">Mp(0)</text>
</g>
<!-- gp_M_0&#45;&gt;e3 -->
<!-- gp_B_1 -->
<g id="node27" class="node">
<title>gp_B_1</title>
<text xml:space="preserve" text-anchor="middle" x="27" y="-201.55" font-family="Helvetica,sans-Serif" font-size="11.00" fill="#333333">O(3)</text>
</g>
<!-- gp_M_0&#45;&gt;gp_B_1 -->
<!-- gp_B_1&#45;&gt;e2 -->
<!-- gp_M_2 -->
<g id="node28" class="node">
<title>gp_M_2</title>
<text xml:space="preserve" text-anchor="middle" x="27" y="-107.55" font-family="Helvetica,sans-Serif" font-size="11.00" fill="#333333">Mp(4)</text>
</g>
<!-- gp_B_1&#45;&gt;gp_M_2 -->
<!-- gp_M_2&#45;&gt;e1 -->
<!-- gp_B_3 -->
<g id="node29" class="node">
<title>gp_B_3</title>
<text xml:space="preserve" text-anchor="middle" x="27" y="-13.55" font-family="Helvetica,sans-Serif" font-size="11.00" fill="#333333">O(7)</text>
</g>
<!-- gp_M_2&#45;&gt;gp_B_3 -->
<!-- gp_B_3&#45;&gt;e0 -->
</g>
</svg>
