<?xml version="1.0" encoding="UTF-8" standalone="no"?>
<!DOCTYPE svg PUBLIC "-//W3C//DTD SVG 1.1//EN"
 "http://www.w3.org/Graphics/SVG/1.1/DTD/svg11.dtd">
<!-- Generated by graphviz version 13.1.2 (20250808.2320)
 -->
<!-- Title: Extended PBP Tree Pages: 1 -->
<svg width="3789pt" height="679pt"
 viewBox="0.00 0.00 3789.00 679.00" xmlns="http://www.w3.org/2000/svg" xmlns:xlink="http://www.w3.org/1999/xlink">
<g id="graph0" class="graph" transform="scale(2.08333 2.08333) rotate(0) translate(4 322)">
<title>Extended PBP Tree</title>
<polygon fill="white" stroke="none" points="-4,4 -4,-322 1814.88,-322 1814.88,4 -4,4"/>
<!-- e0 -->
<g id="node1" class="node">
<title>e0</title>
<polygon fill="#ffe6e6" stroke="black" points="1239,-36 1169,-36 1169,0 1239,0 1239,-36"/>
<text xml:space="preserve" text-anchor="start" x="1177" y="-20.15" font-family="Courier New" font-size="8.00">(3,2) B+ ε=0</text>
<text xml:space="preserve" text-anchor="start" x="1177" y="-10.4" font-family="Courier New" font-size="8.00">c|d</text>
</g>
<!-- e1 -->
<g id="node2" class="node">
<title>e1</title>
<polygon fill="#e6ffe6" stroke="black" points="1094.25,-130 1037.75,-130 1037.75,-94 1094.25,-94 1094.25,-130"/>
<text xml:space="preserve" text-anchor="start" x="1045.75" y="-114.15" font-family="Courier New" font-size="8.00">(1,1) ε=0</text>
<text xml:space="preserve" text-anchor="start" x="1045.75" y="-104.4" font-family="Courier New" font-size="8.00">s|</text>
</g>
<!-- e1&#45;&gt;e0 -->
<g id="edge1" class="edge">
<title>e1&#45;&gt;e0</title>
<path fill="none" stroke="blue" d="M1091.96,-93.7C1113.64,-79.24 1144.77,-58.49 1168.71,-42.52"/>
<polygon fill="blue" stroke="blue" points="1170.52,-45.53 1176.9,-37.07 1166.64,-39.7 1170.52,-45.53"/>
</g>
<!-- e11 -->
<g id="node12" class="node">
<title>e11</title>
<polygon fill="#ffe6e6" stroke="black" points="1147,-36 1077,-36 1077,0 1147,0 1147,-36"/>
<text xml:space="preserve" text-anchor="start" x="1085" y="-20.15" font-family="Courier New" font-size="8.00">(4,1) B+ ε=1</text>
<text xml:space="preserve" text-anchor="start" x="1085" y="-10.4" font-family="Courier New" font-size="8.00">c|r</text>
</g>
<!-- e1&#45;&gt;e11 -->
<g id="edge11" class="edge">
<title>e1&#45;&gt;e11</title>
<path fill="none" stroke="blue" d="M1074.65,-93.7C1081.33,-80.33 1090.71,-61.59 1098.39,-46.22"/>
<polygon fill="blue" stroke="blue" points="1101.37,-48.09 1102.71,-37.58 1095.11,-44.96 1101.37,-48.09"/>
</g>
<!-- e19 -->
<g id="node20" class="node">
<title>e19</title>
<polygon fill="#ffe6e6" stroke="black" points="1331,-36 1261,-36 1261,0 1331,0 1331,-36"/>
<text xml:space="preserve" text-anchor="start" x="1269" y="-20.15" font-family="Courier New" font-size="8.00">(3,2) B+ ε=1</text>
<text xml:space="preserve" text-anchor="start" x="1269" y="-10.4" font-family="Courier New" font-size="8.00">.|.</text>
</g>
<!-- e1&#45;&gt;e19 -->
<g id="edge19" class="edge">
<title>e1&#45;&gt;e19</title>
<path fill="none" stroke="blue" d="M1094.66,-99.53C1133.57,-83.97 1203.55,-55.98 1249.89,-37.44"/>
<polygon fill="blue" stroke="blue" points="1251.16,-40.7 1259.15,-33.74 1248.56,-34.2 1251.16,-40.7"/>
</g>
<!-- e20 -->
<g id="node21" class="node">
<title>e20</title>
<polygon fill="#ffe6f3" stroke="black" points="1055,-36 985,-36 985,0 1055,0 1055,-36"/>
<text xml:space="preserve" text-anchor="start" x="993" y="-20.15" font-family="Courier New" font-size="8.00">(2,3) B&#45; ε=1</text>
<text xml:space="preserve" text-anchor="start" x="993" y="-10.4" font-family="Courier New" font-size="8.00">.|.</text>
</g>
<!-- e1&#45;&gt;e20 -->
<g id="edge20" class="edge">
<title>e1&#45;&gt;e20</title>
<path fill="none" stroke="blue" d="M1057.35,-93.7C1050.67,-80.33 1041.29,-61.59 1033.61,-46.22"/>
<polygon fill="blue" stroke="blue" points="1036.89,-44.96 1029.29,-37.58 1030.63,-48.09 1036.89,-44.96"/>
</g>
<!-- e2 -->
<g id="node3" class="node">
<title>e2</title>
<polygon fill="#ffe6e6" stroke="black" points="872,-224 802,-224 802,-188 872,-188 872,-224"/>
<text xml:space="preserve" text-anchor="start" x="810" y="-207.78" font-family="Courier New" font-size="8.00">(1,0) B+ ε=1</text>
</g>
<!-- e2&#45;&gt;e1 -->
<g id="edge2" class="edge">
<title>e2&#45;&gt;e1</title>
<path fill="none" stroke="blue" d="M872.28,-190.83C914.15,-174.01 983.74,-146.05 1027.12,-128.62"/>
<polygon fill="blue" stroke="blue" points="1028.18,-131.97 1036.15,-124.99 1025.57,-125.47 1028.18,-131.97"/>
</g>
<!-- e8 -->
<g id="node9" class="node">
<title>e8</title>
<polygon fill="#e6ffe6" stroke="black" points="1564.12,-130 1479.88,-130 1479.88,-94 1564.12,-94 1564.12,-130"/>
<text xml:space="preserve" text-anchor="start" x="1487.88" y="-114.15" font-family="Courier New" font-size="8.00">(1,1) ε=1 ℘={0}</text>
<text xml:space="preserve" text-anchor="start" x="1487.88" y="-104.4" font-family="Courier New" font-size="8.00">s|</text>
</g>
<!-- e2&#45;&gt;e8 -->
<g id="edge8" class="edge">
<title>e2&#45;&gt;e8</title>
<path fill="none" stroke="blue" d="M872.39,-200.25C984.72,-185.16 1333.79,-138.28 1468.35,-120.21"/>
<polygon fill="blue" stroke="blue" points="1468.61,-123.7 1478.06,-118.9 1467.68,-116.76 1468.61,-123.7"/>
</g>
<!-- e3 -->
<g id="node4" class="node">
<title>e3</title>
<polygon fill="#e6ffe6" stroke="black" points="543.25,-318 486.75,-318 486.75,-282 543.25,-282 543.25,-318"/>
<text xml:space="preserve" text-anchor="start" x="494.75" y="-301.77" font-family="Courier New" font-size="8.00">(0,0) ε=0</text>
</g>
<!-- e3&#45;&gt;e2 -->
<g id="edge3" class="edge">
<title>e3&#45;&gt;e2</title>
<path fill="none" stroke="blue" d="M543.58,-290.84C599.42,-274.88 723.45,-239.44 791,-220.14"/>
<polygon fill="blue" stroke="blue" points="791.62,-223.6 800.28,-217.49 789.7,-216.87 791.62,-223.6"/>
</g>
<!-- e6 -->
<g id="node7" class="node">
<title>e6</title>
<polygon fill="#ffe6f3" stroke="black" points="550,-224 480,-224 480,-188 550,-188 550,-224"/>
<text xml:space="preserve" text-anchor="start" x="488" y="-207.78" font-family="Courier New" font-size="8.00">(0,1) B&#45; ε=1</text>
</g>
<!-- e3&#45;&gt;e6 -->
<g id="edge6" class="edge">
<title>e3&#45;&gt;e6</title>
<path fill="none" stroke="blue" d="M515,-281.7C515,-268.72 515,-250.66 515,-235.56"/>
<polygon fill="blue" stroke="blue" points="518.5,-235.74 515,-225.74 511.5,-235.74 518.5,-235.74"/>
</g>
<!-- e4 -->
<g id="node5" class="node">
<title>e4</title>
<polygon fill="#ffe6f3" stroke="black" points="391,-36 321,-36 321,0 391,0 391,-36"/>
<text xml:space="preserve" text-anchor="start" x="329" y="-20.15" font-family="Courier New" font-size="8.00">(2,3) B&#45; ε=0</text>
<text xml:space="preserve" text-anchor="start" x="329" y="-10.4" font-family="Courier New" font-size="8.00">c|d</text>
</g>
<!-- e5 -->
<g id="node6" class="node">
<title>e5</title>
<polygon fill="#e6ffe6" stroke="black" points="384.25,-130 327.75,-130 327.75,-94 384.25,-94 384.25,-130"/>
<text xml:space="preserve" text-anchor="start" x="335.75" y="-114.15" font-family="Courier New" font-size="8.00">(1,1) ε=0</text>
<text xml:space="preserve" text-anchor="start" x="335.75" y="-104.4" font-family="Courier New" font-size="8.00">c|</text>
</g>
<!-- e5&#45;&gt;e4 -->
<g id="edge4" class="edge">
<title>e5&#45;&gt;e4</title>
<path fill="none" stroke="blue" d="M356,-93.7C356,-80.72 356,-62.66 356,-47.56"/>
<polygon fill="blue" stroke="blue" points="359.5,-47.74 356,-37.74 352.5,-47.74 359.5,-47.74"/>
</g>
<!-- e12 -->
<g id="node13" class="node">
<title>e12</title>
<polygon fill="#ffe6f3" stroke="black" points="483,-36 413,-36 413,0 483,0 483,-36"/>
<text xml:space="preserve" text-anchor="start" x="421" y="-20.15" font-family="Courier New" font-size="8.00">(3,2) B&#45; ε=1</text>
<text xml:space="preserve" text-anchor="start" x="421" y="-10.4" font-family="Courier New" font-size="8.00">c|r</text>
</g>
<!-- e5&#45;&gt;e12 -->
<g id="edge12" class="edge">
<title>e5&#45;&gt;e12</title>
<path fill="none" stroke="blue" d="M373.3,-93.7C387.31,-79.69 407.23,-59.77 422.97,-44.03"/>
<polygon fill="blue" stroke="blue" points="425.11,-46.84 429.7,-37.3 420.16,-41.89 425.11,-46.84"/>
</g>
<!-- e15 -->
<g id="node16" class="node">
<title>e15</title>
<polygon fill="#ffe6e6" stroke="black" points="207,-36 137,-36 137,0 207,0 207,-36"/>
<text xml:space="preserve" text-anchor="start" x="145" y="-20.15" font-family="Courier New" font-size="8.00">(2,3) B+ ε=1</text>
<text xml:space="preserve" text-anchor="start" x="145" y="-10.4" font-family="Courier New" font-size="8.00">c|s</text>
</g>
<!-- e5&#45;&gt;e15 -->
<g id="edge15" class="edge">
<title>e5&#45;&gt;e15</title>
<path fill="none" stroke="blue" d="M327.25,-96.62C297.76,-81.88 251.45,-58.73 217.08,-41.54"/>
<polygon fill="blue" stroke="blue" points="218.69,-38.43 208.18,-37.09 215.56,-44.69 218.69,-38.43"/>
</g>
<!-- e16 -->
<g id="node17" class="node">
<title>e16</title>
<polygon fill="#ffe6f3" stroke="black" points="299,-36 229,-36 229,0 299,0 299,-36"/>
<text xml:space="preserve" text-anchor="start" x="237" y="-20.15" font-family="Courier New" font-size="8.00">(1,4) B&#45; ε=1</text>
<text xml:space="preserve" text-anchor="start" x="237" y="-10.4" font-family="Courier New" font-size="8.00">c|s</text>
</g>
<!-- e5&#45;&gt;e16 -->
<g id="edge16" class="edge">
<title>e5&#45;&gt;e16</title>
<path fill="none" stroke="blue" d="M338.7,-93.7C324.69,-79.69 304.77,-59.77 289.03,-44.03"/>
<polygon fill="blue" stroke="blue" points="291.84,-41.89 282.3,-37.3 286.89,-46.84 291.84,-41.89"/>
</g>
<!-- e6&#45;&gt;e5 -->
<g id="edge5" class="edge">
<title>e6&#45;&gt;e5</title>
<path fill="none" stroke="blue" d="M485.09,-187.7C459.46,-172.86 422.36,-151.4 394.51,-135.28"/>
<polygon fill="blue" stroke="blue" points="396.42,-132.34 386.01,-130.37 392.91,-138.4 396.42,-132.34"/>
</g>
<!-- e10 -->
<g id="node11" class="node">
<title>e10</title>
<polygon fill="#e6ffe6" stroke="black" points="716.12,-130 631.88,-130 631.88,-94 716.12,-94 716.12,-130"/>
<text xml:space="preserve" text-anchor="start" x="639.88" y="-114.15" font-family="Courier New" font-size="8.00">(1,1) ε=1 ℘={0}</text>
<text xml:space="preserve" text-anchor="start" x="639.88" y="-104.4" font-family="Courier New" font-size="8.00">c|</text>
</g>
<!-- e6&#45;&gt;e10 -->
<g id="edge10" class="edge">
<title>e6&#45;&gt;e10</title>
<path fill="none" stroke="blue" d="M544.91,-187.7C570.14,-173.09 606.48,-152.07 634.18,-136.04"/>
<polygon fill="blue" stroke="blue" points="635.74,-139.18 642.65,-131.14 632.24,-133.12 635.74,-139.18"/>
</g>
<!-- e7 -->
<g id="node8" class="node">
<title>e7</title>
<polygon fill="#ffe6e6" stroke="black" points="1810.88,-36 1713.12,-36 1713.12,0 1810.88,0 1810.88,-36"/>
<text xml:space="preserve" text-anchor="start" x="1721.12" y="-20.15" font-family="Courier New" font-size="8.00">(3,2) B+ ε=0 ℘={0}</text>
<text xml:space="preserve" text-anchor="start" x="1721.12" y="-10.4" font-family="Courier New" font-size="8.00">c|d</text>
</g>
<!-- e8&#45;&gt;e7 -->
<g id="edge7" class="edge">
<title>e8&#45;&gt;e7</title>
<path fill="none" stroke="blue" d="M1564.35,-94.76C1603.68,-79.69 1662.5,-57.14 1705.75,-40.56"/>
<polygon fill="blue" stroke="blue" points="1706.9,-43.87 1714.98,-37.02 1704.39,-37.34 1706.9,-43.87"/>
</g>
<!-- e13 -->
<g id="node14" class="node">
<title>e13</title>
<polygon fill="#ffe6e6" stroke="black" points="1450.88,-36 1353.12,-36 1353.12,0 1450.88,0 1450.88,-36"/>
<text xml:space="preserve" text-anchor="start" x="1361.12" y="-20.15" font-family="Courier New" font-size="8.00">(4,1) B+ ε=1 ℘={0}</text>
<text xml:space="preserve" text-anchor="start" x="1361.12" y="-10.4" font-family="Courier New" font-size="8.00">c|r</text>
</g>
<!-- e8&#45;&gt;e13 -->
<g id="edge13" class="edge">
<title>e8&#45;&gt;e13</title>
<path fill="none" stroke="blue" d="M1499.43,-93.7C1480.82,-79.43 1454.23,-59.04 1433.52,-43.16"/>
<polygon fill="blue" stroke="blue" points="1435.74,-40.45 1425.67,-37.15 1431.48,-46.01 1435.74,-40.45"/>
</g>
<!-- e21 -->
<g id="node22" class="node">
<title>e21</title>
<polygon fill="#ffe6e6" stroke="black" points="1570.88,-36 1473.12,-36 1473.12,0 1570.88,0 1570.88,-36"/>
<text xml:space="preserve" text-anchor="start" x="1481.12" y="-20.15" font-family="Courier New" font-size="8.00">(3,2) B+ ε=1 ℘={0}</text>
<text xml:space="preserve" text-anchor="start" x="1481.12" y="-10.4" font-family="Courier New" font-size="8.00">.|.</text>
</g>
<!-- e8&#45;&gt;e21 -->
<g id="edge21" class="edge">
<title>e8&#45;&gt;e21</title>
<path fill="none" stroke="blue" d="M1522,-93.7C1522,-80.72 1522,-62.66 1522,-47.56"/>
<polygon fill="blue" stroke="blue" points="1525.5,-47.74 1522,-37.74 1518.5,-47.74 1525.5,-47.74"/>
</g>
<!-- e22 -->
<g id="node23" class="node">
<title>e22</title>
<polygon fill="#ffe6f3" stroke="black" points="1690.88,-36 1593.12,-36 1593.12,0 1690.88,0 1690.88,-36"/>
<text xml:space="preserve" text-anchor="start" x="1601.12" y="-20.15" font-family="Courier New" font-size="8.00">(2,3) B&#45; ε=1 ℘={0}</text>
<text xml:space="preserve" text-anchor="start" x="1601.12" y="-10.4" font-family="Courier New" font-size="8.00">.|.</text>
</g>
<!-- e8&#45;&gt;e22 -->
<g id="edge22" class="edge">
<title>e8&#45;&gt;e22</title>
<path fill="none" stroke="blue" d="M1544.57,-93.7C1563.18,-79.43 1589.77,-59.04 1610.48,-43.16"/>
<polygon fill="blue" stroke="blue" points="1612.52,-46.01 1618.33,-37.15 1608.26,-40.45 1612.52,-46.01"/>
</g>
<!-- e9 -->
<g id="node10" class="node">
<title>e9</title>
<polygon fill="#ffe6f3" stroke="black" points="842.88,-36 745.12,-36 745.12,0 842.88,0 842.88,-36"/>
<text xml:space="preserve" text-anchor="start" x="753.12" y="-20.15" font-family="Courier New" font-size="8.00">(2,3) B&#45; ε=0 ℘={0}</text>
<text xml:space="preserve" text-anchor="start" x="753.12" y="-10.4" font-family="Courier New" font-size="8.00">c|d</text>
</g>
<!-- e10&#45;&gt;e9 -->
<g id="edge9" class="edge">
<title>e10&#45;&gt;e9</title>
<path fill="none" stroke="blue" d="M696.57,-93.7C715.18,-79.43 741.77,-59.04 762.48,-43.16"/>
<polygon fill="blue" stroke="blue" points="764.52,-46.01 770.33,-37.15 760.26,-40.45 764.52,-46.01"/>
</g>
<!-- e14 -->
<g id="node15" class="node">
<title>e14</title>
<polygon fill="#ffe6f3" stroke="black" points="962.88,-36 865.12,-36 865.12,0 962.88,0 962.88,-36"/>
<text xml:space="preserve" text-anchor="start" x="873.12" y="-20.15" font-family="Courier New" font-size="8.00">(3,2) B&#45; ε=1 ℘={0}</text>
<text xml:space="preserve" text-anchor="start" x="873.12" y="-10.4" font-family="Courier New" font-size="8.00">c|r</text>
</g>
<!-- e10&#45;&gt;e14 -->
<g id="edge14" class="edge">
<title>e10&#45;&gt;e14</title>
<path fill="none" stroke="blue" d="M716.35,-94.76C755.68,-79.69 814.5,-57.14 857.75,-40.56"/>
<polygon fill="blue" stroke="blue" points="858.9,-43.87 866.98,-37.02 856.39,-37.34 858.9,-43.87"/>
</g>
<!-- e17 -->
<g id="node18" class="node">
<title>e17</title>
<polygon fill="#ffe6e6" stroke="black" points="602.88,-36 505.12,-36 505.12,0 602.88,0 602.88,-36"/>
<text xml:space="preserve" text-anchor="start" x="513.12" y="-20.15" font-family="Courier New" font-size="8.00">(2,3) B+ ε=1 ℘={0}</text>
<text xml:space="preserve" text-anchor="start" x="513.12" y="-10.4" font-family="Courier New" font-size="8.00">c|s</text>
</g>
<!-- e10&#45;&gt;e17 -->
<g id="edge17" class="edge">
<title>e10&#45;&gt;e17</title>
<path fill="none" stroke="blue" d="M651.43,-93.7C632.82,-79.43 606.23,-59.04 585.52,-43.16"/>
<polygon fill="blue" stroke="blue" points="587.74,-40.45 577.67,-37.15 583.48,-46.01 587.74,-40.45"/>
</g>
<!-- e18 -->
<g id="node19" class="node">
<title>e18</title>
<polygon fill="#ffe6f3" stroke="black" points="722.88,-36 625.12,-36 625.12,0 722.88,0 722.88,-36"/>
<text xml:space="preserve" text-anchor="start" x="633.12" y="-20.15" font-family="Courier New" font-size="8.00">(1,4) B&#45; ε=1 ℘={0}</text>
<text xml:space="preserve" text-anchor="start" x="633.12" y="-10.4" font-family="Courier New" font-size="8.00">c|s</text>
</g>
<!-- e10&#45;&gt;e18 -->
<g id="edge18" class="edge">
<title>e10&#45;&gt;e18</title>
<path fill="none" stroke="blue" d="M674,-93.7C674,-80.72 674,-62.66 674,-47.56"/>
<polygon fill="blue" stroke="blue" points="677.5,-47.74 674,-37.74 670.5,-47.74 677.5,-47.74"/>
</g>
<!-- gp_B_0 -->
<g id="node24" class="node">
<title>gp_B_0</title>
<text xml:space="preserve" text-anchor="middle" x="27" y="-201.55" font-family="Helvetica,sans-Serif" font-size="11.00" fill="#333333">O(1)</text>
</g>
<!-- gp_B_0&#45;&gt;e2 -->
<!-- gp_M_0 -->
<g id="node25" class="node">
<title>gp_M_0</title>
<text xml:space="preserve" text-anchor="middle" x="88" y="-295.55" font-family="Helvetica,sans-Serif" font-size="11.00" fill="#333333">Mp(0)</text>
</g>
<!-- gp_B_0&#45;&gt;gp_M_0 -->
<!-- gp_M_0&#45;&gt;e3 -->
<!-- gp_M_1 -->
<g id="node26" class="node">
<title>gp_M_1</title>
<text xml:space="preserve" text-anchor="middle" x="88" y="-107.55" font-family="Helvetica,sans-Serif" font-size="11.00" fill="#333333">Mp(2)</text>
</g>
<!-- gp_M_0&#45;&gt;gp_M_1 -->
<!-- gp_M_1&#45;&gt;e1 -->
<!-- gp_B_2 -->
<g id="node27" class="node">
<title>gp_B_2</title>
<text xml:space="preserve" text-anchor="middle" x="88" y="-13.55" font-family="Helvetica,sans-Serif" font-size="11.00" fill="#333333">O(5)</text>
</g>
<!-- gp_M_1&#45;&gt;gp_B_2 -->
<!-- gp_B_2&#45;&gt;e0 -->
</g>
</svg>
