<?xml version="1.0" encoding="UTF-8" standalone="no"?>
<!DOCTYPE svg PUBLIC "-//W3C//DTD SVG 1.1//EN"
 "http://www.w3.org/Graphics/SVG/1.1/DTD/svg11.dtd">
<!-- Generated by graphviz version 13.1.2 (20250808.2320)
 -->
<!-- Title: Extended PBP Tree Pages: 1 -->
<svg width="7323pt" height="682pt"
 viewBox="0.00 0.00 7323.00 682.00" xmlns="http://www.w3.org/2000/svg" xmlns:xlink="http://www.w3.org/1999/xlink">
<g id="graph0" class="graph" transform="scale(2.08333 2.08333) rotate(0) translate(4 323.25)">
<title>Extended PBP Tree</title>
<polygon fill="white" stroke="none" points="-4,4 -4,-323.25 3510.88,-323.25 3510.88,4 -4,4"/>
<!-- e0 -->
<g id="node1" class="node">
<title>e0</title>
<polygon fill="#ffe6e6" stroke="black" points="2455,-37.25 2385,-37.25 2385,0 2455,0 2455,-37.25"/>
<text xml:space="preserve" text-anchor="start" x="2393" y="-25.65" font-family="Courier New" font-size="8.00">(5,2) B+ ε=0</text>
<text xml:space="preserve" text-anchor="start" x="2393" y="-15.9" font-family="Courier New" font-size="8.00">c|r</text>
<text xml:space="preserve" text-anchor="start" x="2393" y="-6.15" font-family="Courier New" font-size="8.00"> |d</text>
</g>
<!-- e1 -->
<g id="node2" class="node">
<title>e1</title>
<polygon fill="#e6ffe6" stroke="black" points="2126.25,-131.25 2069.75,-131.25 2069.75,-95.25 2126.25,-95.25 2126.25,-131.25"/>
<text xml:space="preserve" text-anchor="start" x="2077.75" y="-115.4" font-family="Courier New" font-size="8.00">(1,1) ε=0</text>
<text xml:space="preserve" text-anchor="start" x="2077.75" y="-105.65" font-family="Courier New" font-size="8.00">s|</text>
</g>
<!-- e1&#45;&gt;e0 -->
<g id="edge1" class="edge">
<title>e1&#45;&gt;e0</title>
<path fill="none" stroke="blue" d="M2126.49,-105.51C2175.05,-93.82 2277.06,-68.31 2373.86,-37.09"/>
<polygon fill="blue" stroke="blue" points="2374.85,-40.45 2383.28,-34.02 2372.69,-33.79 2374.85,-40.45"/>
</g>
<!-- e15 -->
<g id="node16" class="node">
<title>e15</title>
<polygon fill="#ffe6e6" stroke="black" points="2363,-37.25 2293,-37.25 2293,0 2363,0 2363,-37.25"/>
<text xml:space="preserve" text-anchor="start" x="2301" y="-25.65" font-family="Courier New" font-size="8.00">(4,3) B+ ε=0</text>
<text xml:space="preserve" text-anchor="start" x="2301" y="-15.9" font-family="Courier New" font-size="8.00">.|.</text>
<text xml:space="preserve" text-anchor="start" x="2301" y="-6.15" font-family="Courier New" font-size="8.00"> |d</text>
</g>
<!-- e1&#45;&gt;e15 -->
<g id="edge15" class="edge">
<title>e1&#45;&gt;e15</title>
<path fill="none" stroke="blue" d="M2126.66,-100.71C2165.57,-85.04 2235.55,-56.86 2281.89,-38.19"/>
<polygon fill="blue" stroke="blue" points="2283.18,-41.45 2291.15,-34.47 2280.57,-34.95 2283.18,-41.45"/>
</g>
<!-- e16 -->
<g id="node17" class="node">
<title>e16</title>
<polygon fill="#ffe6f3" stroke="black" points="2547,-37.25 2477,-37.25 2477,0 2547,0 2547,-37.25"/>
<text xml:space="preserve" text-anchor="start" x="2485" y="-25.65" font-family="Courier New" font-size="8.00">(3,4) B&#45; ε=0</text>
<text xml:space="preserve" text-anchor="start" x="2485" y="-15.9" font-family="Courier New" font-size="8.00">.|.</text>
<text xml:space="preserve" text-anchor="start" x="2485" y="-6.15" font-family="Courier New" font-size="8.00"> |d</text>
</g>
<!-- e1&#45;&gt;e16 -->
<g id="edge16" class="edge">
<title>e1&#45;&gt;e16</title>
<path fill="none" stroke="blue" d="M2126.55,-108.08C2187.28,-98.85 2333.74,-74.77 2465.84,-36.98"/>
<polygon fill="blue" stroke="blue" points="2466.45,-40.44 2475.08,-34.3 2464.5,-33.72 2466.45,-40.44"/>
</g>
<!-- e19 -->
<g id="node20" class="node">
<title>e19</title>
<polygon fill="#ffe6e6" stroke="black" points="1903,-37.25 1833,-37.25 1833,0 1903,0 1903,-37.25"/>
<text xml:space="preserve" text-anchor="start" x="1841" y="-25.65" font-family="Courier New" font-size="8.00">(6,1) B+ ε=1</text>
<text xml:space="preserve" text-anchor="start" x="1841" y="-15.9" font-family="Courier New" font-size="8.00">c|r</text>
<text xml:space="preserve" text-anchor="start" x="1841" y="-6.15" font-family="Courier New" font-size="8.00"> |r</text>
</g>
<!-- e1&#45;&gt;e19 -->
<g id="edge19" class="edge">
<title>e1&#45;&gt;e19</title>
<path fill="none" stroke="blue" d="M2069.34,-100.71C2030.43,-85.04 1960.45,-56.86 1914.11,-38.19"/>
<polygon fill="blue" stroke="blue" points="1915.43,-34.95 1904.85,-34.47 1912.82,-41.45 1915.43,-34.95"/>
</g>
<!-- e31 -->
<g id="node32" class="node">
<title>e31</title>
<polygon fill="#ffe6e6" stroke="black" points="1995,-37.25 1925,-37.25 1925,0 1995,0 1995,-37.25"/>
<text xml:space="preserve" text-anchor="start" x="1933" y="-25.65" font-family="Courier New" font-size="8.00">(5,2) B+ ε=1</text>
<text xml:space="preserve" text-anchor="start" x="1933" y="-15.9" font-family="Courier New" font-size="8.00">.|.</text>
<text xml:space="preserve" text-anchor="start" x="1933" y="-6.15" font-family="Courier New" font-size="8.00"> |r</text>
</g>
<!-- e1&#45;&gt;e31 -->
<g id="edge31" class="edge">
<title>e1&#45;&gt;e31</title>
<path fill="none" stroke="blue" d="M2072.04,-94.83C2050.63,-80.46 2020.02,-59.91 1996.2,-43.92"/>
<polygon fill="blue" stroke="blue" points="1998.29,-41.11 1988.04,-38.44 1994.39,-46.92 1998.29,-41.11"/>
</g>
<!-- e32 -->
<g id="node33" class="node">
<title>e32</title>
<polygon fill="#ffe6f3" stroke="black" points="2087,-37.25 2017,-37.25 2017,0 2087,0 2087,-37.25"/>
<text xml:space="preserve" text-anchor="start" x="2025" y="-25.65" font-family="Courier New" font-size="8.00">(4,3) B&#45; ε=1</text>
<text xml:space="preserve" text-anchor="start" x="2025" y="-15.9" font-family="Courier New" font-size="8.00">.|.</text>
<text xml:space="preserve" text-anchor="start" x="2025" y="-6.15" font-family="Courier New" font-size="8.00"> |r</text>
</g>
<!-- e1&#45;&gt;e32 -->
<g id="edge32" class="edge">
<title>e1&#45;&gt;e32</title>
<path fill="none" stroke="blue" d="M2089.35,-94.83C2082.75,-81.54 2073.53,-62.98 2065.9,-47.62"/>
<polygon fill="blue" stroke="blue" points="2069.18,-46.36 2061.6,-38.96 2062.91,-49.47 2069.18,-46.36"/>
</g>
<!-- e35 -->
<g id="node36" class="node">
<title>e35</title>
<polygon fill="#ffe6e6" stroke="black" points="2179,-37.25 2109,-37.25 2109,0 2179,0 2179,-37.25"/>
<text xml:space="preserve" text-anchor="start" x="2117" y="-25.65" font-family="Courier New" font-size="8.00">(3,4) B+ ε=1</text>
<text xml:space="preserve" text-anchor="start" x="2117" y="-15.9" font-family="Courier New" font-size="8.00">.|.</text>
<text xml:space="preserve" text-anchor="start" x="2117" y="-6.15" font-family="Courier New" font-size="8.00"> |s</text>
</g>
<!-- e1&#45;&gt;e35 -->
<g id="edge35" class="edge">
<title>e1&#45;&gt;e35</title>
<path fill="none" stroke="blue" d="M2106.65,-94.83C2113.25,-81.54 2122.47,-62.98 2130.1,-47.62"/>
<polygon fill="blue" stroke="blue" points="2133.09,-49.47 2134.4,-38.96 2126.82,-46.36 2133.09,-49.47"/>
</g>
<!-- e36 -->
<g id="node37" class="node">
<title>e36</title>
<polygon fill="#ffe6f3" stroke="black" points="2271,-37.25 2201,-37.25 2201,0 2271,0 2271,-37.25"/>
<text xml:space="preserve" text-anchor="start" x="2209" y="-25.65" font-family="Courier New" font-size="8.00">(2,5) B&#45; ε=1</text>
<text xml:space="preserve" text-anchor="start" x="2209" y="-15.9" font-family="Courier New" font-size="8.00">.|.</text>
<text xml:space="preserve" text-anchor="start" x="2209" y="-6.15" font-family="Courier New" font-size="8.00"> |s</text>
</g>
<!-- e1&#45;&gt;e36 -->
<g id="edge36" class="edge">
<title>e1&#45;&gt;e36</title>
<path fill="none" stroke="blue" d="M2123.96,-94.83C2145.37,-80.46 2175.98,-59.91 2199.8,-43.92"/>
<polygon fill="blue" stroke="blue" points="2201.61,-46.92 2207.96,-38.44 2197.71,-41.11 2201.61,-46.92"/>
</g>
<!-- e2 -->
<g id="node3" class="node">
<title>e2</title>
<polygon fill="#ffe6e6" stroke="black" points="1586,-225.25 1516,-225.25 1516,-189.25 1586,-189.25 1586,-225.25"/>
<text xml:space="preserve" text-anchor="start" x="1524" y="-209.03" font-family="Courier New" font-size="8.00">(1,0) B+ ε=1</text>
</g>
<!-- e2&#45;&gt;e1 -->
<g id="edge2" class="edge">
<title>e2&#45;&gt;e1</title>
<path fill="none" stroke="blue" d="M1586.47,-200.28C1684.03,-183.87 1955.95,-138.14 2058.33,-120.92"/>
<polygon fill="blue" stroke="blue" points="2058.62,-124.42 2067.9,-119.31 2057.46,-117.52 2058.62,-124.42"/>
</g>
<!-- e8 -->
<g id="node9" class="node">
<title>e8</title>
<polygon fill="#e6ffe6" stroke="black" points="3020.12,-131.25 2935.88,-131.25 2935.88,-95.25 3020.12,-95.25 3020.12,-131.25"/>
<text xml:space="preserve" text-anchor="start" x="2943.88" y="-115.4" font-family="Courier New" font-size="8.00">(1,1) ε=1 ℘={0}</text>
<text xml:space="preserve" text-anchor="start" x="2943.88" y="-105.65" font-family="Courier New" font-size="8.00">s|</text>
</g>
<!-- e2&#45;&gt;e8 -->
<g id="edge8" class="edge">
<title>e2&#45;&gt;e8</title>
<path fill="none" stroke="blue" d="M1586.27,-203.98C1777.79,-191.63 2692.56,-132.65 2924.47,-117.7"/>
<polygon fill="blue" stroke="blue" points="2924.36,-121.22 2934.11,-117.08 2923.9,-114.23 2924.36,-121.22"/>
</g>
<!-- e3 -->
<g id="node4" class="node">
<title>e3</title>
<polygon fill="#e6ffe6" stroke="black" points="939.25,-319.25 882.75,-319.25 882.75,-283.25 939.25,-283.25 939.25,-319.25"/>
<text xml:space="preserve" text-anchor="start" x="890.75" y="-303.02" font-family="Courier New" font-size="8.00">(0,0) ε=0</text>
</g>
<!-- e3&#45;&gt;e2 -->
<g id="edge3" class="edge">
<title>e3&#45;&gt;e2</title>
<path fill="none" stroke="blue" d="M939.74,-296.12C1040.71,-281.6 1379.76,-232.87 1504.46,-214.94"/>
<polygon fill="blue" stroke="blue" points="1504.95,-218.41 1514.35,-213.52 1503.95,-211.48 1504.95,-218.41"/>
</g>
<!-- e6 -->
<g id="node7" class="node">
<title>e6</title>
<polygon fill="#ffe6f3" stroke="black" points="946,-225.25 876,-225.25 876,-189.25 946,-189.25 946,-225.25"/>
<text xml:space="preserve" text-anchor="start" x="884" y="-209.03" font-family="Courier New" font-size="8.00">(0,1) B&#45; ε=1</text>
</g>
<!-- e3&#45;&gt;e6 -->
<g id="edge6" class="edge">
<title>e3&#45;&gt;e6</title>
<path fill="none" stroke="blue" d="M911,-282.95C911,-269.97 911,-251.91 911,-236.81"/>
<polygon fill="blue" stroke="blue" points="914.5,-236.99 911,-226.99 907.5,-236.99 914.5,-236.99"/>
</g>
<!-- e4 -->
<g id="node5" class="node">
<title>e4</title>
<polygon fill="#ffe6f3" stroke="black" points="759,-37.25 689,-37.25 689,0 759,0 759,-37.25"/>
<text xml:space="preserve" text-anchor="start" x="697" y="-25.65" font-family="Courier New" font-size="8.00">(4,3) B&#45; ε=0</text>
<text xml:space="preserve" text-anchor="start" x="697" y="-15.9" font-family="Courier New" font-size="8.00">c|r</text>
<text xml:space="preserve" text-anchor="start" x="697" y="-6.15" font-family="Courier New" font-size="8.00"> |d</text>
</g>
<!-- e5 -->
<g id="node6" class="node">
<title>e5</title>
<polygon fill="#e6ffe6" stroke="black" points="568.25,-131.25 511.75,-131.25 511.75,-95.25 568.25,-95.25 568.25,-131.25"/>
<text xml:space="preserve" text-anchor="start" x="519.75" y="-115.4" font-family="Courier New" font-size="8.00">(1,1) ε=0</text>
<text xml:space="preserve" text-anchor="start" x="519.75" y="-105.65" font-family="Courier New" font-size="8.00">c|</text>
</g>
<!-- e5&#45;&gt;e4 -->
<g id="edge4" class="edge">
<title>e5&#45;&gt;e4</title>
<path fill="none" stroke="blue" d="M568.75,-97.78C598.06,-83.02 643.98,-59.91 678.28,-42.64"/>
<polygon fill="blue" stroke="blue" points="679.81,-45.79 687.17,-38.16 676.67,-39.53 679.81,-45.79"/>
</g>
<!-- e11 -->
<g id="node12" class="node">
<title>e11</title>
<polygon fill="#ffe6e6" stroke="black" points="851,-37.25 781,-37.25 781,0 851,0 851,-37.25"/>
<text xml:space="preserve" text-anchor="start" x="789" y="-25.65" font-family="Courier New" font-size="8.00">(3,4) B+ ε=0</text>
<text xml:space="preserve" text-anchor="start" x="789" y="-15.9" font-family="Courier New" font-size="8.00">c|s</text>
<text xml:space="preserve" text-anchor="start" x="789" y="-6.15" font-family="Courier New" font-size="8.00"> |d</text>
</g>
<!-- e5&#45;&gt;e11 -->
<g id="edge11" class="edge">
<title>e5&#45;&gt;e11</title>
<path fill="none" stroke="blue" d="M568.48,-103.47C610.22,-90.5 690.65,-65.09 769.98,-37.15"/>
<polygon fill="blue" stroke="blue" points="770.97,-40.51 779.23,-33.88 768.63,-33.92 770.97,-40.51"/>
</g>
<!-- e12 -->
<g id="node13" class="node">
<title>e12</title>
<polygon fill="#ffe6f3" stroke="black" points="207,-37.25 137,-37.25 137,0 207,0 207,-37.25"/>
<text xml:space="preserve" text-anchor="start" x="145" y="-25.65" font-family="Courier New" font-size="8.00">(2,5) B&#45; ε=0</text>
<text xml:space="preserve" text-anchor="start" x="145" y="-15.9" font-family="Courier New" font-size="8.00">c|s</text>
<text xml:space="preserve" text-anchor="start" x="145" y="-6.15" font-family="Courier New" font-size="8.00"> |d</text>
</g>
<!-- e5&#45;&gt;e12 -->
<g id="edge12" class="edge">
<title>e5&#45;&gt;e12</title>
<path fill="none" stroke="blue" d="M511.66,-107.01C456.87,-96.59 332.57,-71.54 218.17,-37.04"/>
<polygon fill="blue" stroke="blue" points="219.53,-33.79 208.94,-34.22 217.48,-40.48 219.53,-33.79"/>
</g>
<!-- e20 -->
<g id="node21" class="node">
<title>e20</title>
<polygon fill="#ffe6f3" stroke="black" points="299,-37.25 229,-37.25 229,0 299,0 299,-37.25"/>
<text xml:space="preserve" text-anchor="start" x="237" y="-25.65" font-family="Courier New" font-size="8.00">(5,2) B&#45; ε=1</text>
<text xml:space="preserve" text-anchor="start" x="237" y="-15.9" font-family="Courier New" font-size="8.00">c|r</text>
<text xml:space="preserve" text-anchor="start" x="237" y="-6.15" font-family="Courier New" font-size="8.00"> |r</text>
</g>
<!-- e5&#45;&gt;e20 -->
<g id="edge20" class="edge">
<title>e5&#45;&gt;e20</title>
<path fill="none" stroke="blue" d="M511.52,-103.47C469.78,-90.5 389.35,-65.09 310.02,-37.15"/>
<polygon fill="blue" stroke="blue" points="311.37,-33.92 300.77,-33.88 309.03,-40.51 311.37,-33.92"/>
</g>
<!-- e23 -->
<g id="node24" class="node">
<title>e23</title>
<polygon fill="#ffe6e6" stroke="black" points="391,-37.25 321,-37.25 321,0 391,0 391,-37.25"/>
<text xml:space="preserve" text-anchor="start" x="329" y="-25.65" font-family="Courier New" font-size="8.00">(4,3) B+ ε=1</text>
<text xml:space="preserve" text-anchor="start" x="329" y="-15.9" font-family="Courier New" font-size="8.00">c|s</text>
<text xml:space="preserve" text-anchor="start" x="329" y="-6.15" font-family="Courier New" font-size="8.00"> |r</text>
</g>
<!-- e5&#45;&gt;e23 -->
<g id="edge23" class="edge">
<title>e5&#45;&gt;e23</title>
<path fill="none" stroke="blue" d="M511.25,-97.78C481.94,-83.02 436.02,-59.91 401.72,-42.64"/>
<polygon fill="blue" stroke="blue" points="403.33,-39.53 392.83,-38.16 400.19,-45.79 403.33,-39.53"/>
</g>
<!-- e24 -->
<g id="node25" class="node">
<title>e24</title>
<polygon fill="#ffe6f3" stroke="black" points="483,-37.25 413,-37.25 413,0 483,0 483,-37.25"/>
<text xml:space="preserve" text-anchor="start" x="421" y="-25.65" font-family="Courier New" font-size="8.00">(3,4) B&#45; ε=1</text>
<text xml:space="preserve" text-anchor="start" x="421" y="-15.9" font-family="Courier New" font-size="8.00">c|s</text>
<text xml:space="preserve" text-anchor="start" x="421" y="-6.15" font-family="Courier New" font-size="8.00"> |r</text>
</g>
<!-- e5&#45;&gt;e24 -->
<g id="edge24" class="edge">
<title>e5&#45;&gt;e24</title>
<path fill="none" stroke="blue" d="M522.7,-94.83C508.87,-80.9 489.28,-61.18 473.63,-45.43"/>
<polygon fill="blue" stroke="blue" points="476.45,-43.3 466.92,-38.67 471.48,-48.24 476.45,-43.3"/>
</g>
<!-- e27 -->
<g id="node28" class="node">
<title>e27</title>
<polygon fill="#ffe6e6" stroke="black" points="575,-37.25 505,-37.25 505,0 575,0 575,-37.25"/>
<text xml:space="preserve" text-anchor="start" x="513" y="-25.65" font-family="Courier New" font-size="8.00">(2,5) B+ ε=1</text>
<text xml:space="preserve" text-anchor="start" x="513" y="-15.9" font-family="Courier New" font-size="8.00">c|s</text>
<text xml:space="preserve" text-anchor="start" x="513" y="-6.15" font-family="Courier New" font-size="8.00"> |s</text>
</g>
<!-- e5&#45;&gt;e27 -->
<g id="edge27" class="edge">
<title>e5&#45;&gt;e27</title>
<path fill="none" stroke="blue" d="M540,-94.83C540,-81.93 540,-64.04 540,-48.96"/>
<polygon fill="blue" stroke="blue" points="543.5,-49.11 540,-39.11 536.5,-49.11 543.5,-49.11"/>
</g>
<!-- e28 -->
<g id="node29" class="node">
<title>e28</title>
<polygon fill="#ffe6f3" stroke="black" points="667,-37.25 597,-37.25 597,0 667,0 667,-37.25"/>
<text xml:space="preserve" text-anchor="start" x="605" y="-25.65" font-family="Courier New" font-size="8.00">(1,6) B&#45; ε=1</text>
<text xml:space="preserve" text-anchor="start" x="605" y="-15.9" font-family="Courier New" font-size="8.00">c|s</text>
<text xml:space="preserve" text-anchor="start" x="605" y="-6.15" font-family="Courier New" font-size="8.00"> |s</text>
</g>
<!-- e5&#45;&gt;e28 -->
<g id="edge28" class="edge">
<title>e5&#45;&gt;e28</title>
<path fill="none" stroke="blue" d="M557.3,-94.83C571.13,-80.9 590.72,-61.18 606.37,-45.43"/>
<polygon fill="blue" stroke="blue" points="608.52,-48.24 613.08,-38.67 603.55,-43.3 608.52,-48.24"/>
</g>
<!-- e6&#45;&gt;e5 -->
<g id="edge5" class="edge">
<title>e6&#45;&gt;e5</title>
<path fill="none" stroke="blue" d="M875.76,-197.51C806.23,-180.27 651.82,-141.98 579.19,-123.97"/>
<polygon fill="blue" stroke="blue" points="580.28,-120.63 569.73,-121.62 578.6,-127.43 580.28,-120.63"/>
</g>
<!-- e10 -->
<g id="node11" class="node">
<title>e10</title>
<polygon fill="#e6ffe6" stroke="black" points="1324.12,-131.25 1239.88,-131.25 1239.88,-95.25 1324.12,-95.25 1324.12,-131.25"/>
<text xml:space="preserve" text-anchor="start" x="1247.88" y="-115.4" font-family="Courier New" font-size="8.00">(1,1) ε=1 ℘={0}</text>
<text xml:space="preserve" text-anchor="start" x="1247.88" y="-105.65" font-family="Courier New" font-size="8.00">c|</text>
</g>
<!-- e6&#45;&gt;e10 -->
<g id="edge10" class="edge">
<title>e6&#45;&gt;e10</title>
<path fill="none" stroke="blue" d="M946.24,-197.51C1011.49,-181.33 1151.48,-146.62 1228.5,-127.52"/>
<polygon fill="blue" stroke="blue" points="1229.05,-130.99 1237.92,-125.18 1227.37,-124.19 1229.05,-130.99"/>
</g>
<!-- e7 -->
<g id="node8" class="node">
<title>e7</title>
<polygon fill="#ffe6e6" stroke="black" points="3506.88,-37.25 3409.12,-37.25 3409.12,0 3506.88,0 3506.88,-37.25"/>
<text xml:space="preserve" text-anchor="start" x="3417.12" y="-25.65" font-family="Courier New" font-size="8.00">(5,2) B+ ε=0 ℘={0}</text>
<text xml:space="preserve" text-anchor="start" x="3417.12" y="-15.9" font-family="Courier New" font-size="8.00">c|r</text>
<text xml:space="preserve" text-anchor="start" x="3417.12" y="-6.15" font-family="Courier New" font-size="8.00"> |d</text>
</g>
<!-- e8&#45;&gt;e7 -->
<g id="edge7" class="edge">
<title>e8&#45;&gt;e7</title>
<path fill="none" stroke="blue" d="M3020.34,-106.25C3094.59,-95.4 3253.2,-70.7 3397.84,-37.12"/>
<polygon fill="blue" stroke="blue" points="3398.26,-40.61 3407.2,-34.92 3396.66,-33.8 3398.26,-40.61"/>
</g>
<!-- e17 -->
<g id="node18" class="node">
<title>e17</title>
<polygon fill="#ffe6e6" stroke="black" points="2666.88,-37.25 2569.12,-37.25 2569.12,0 2666.88,0 2666.88,-37.25"/>
<text xml:space="preserve" text-anchor="start" x="2577.12" y="-25.65" font-family="Courier New" font-size="8.00">(4,3) B+ ε=0 ℘={0}</text>
<text xml:space="preserve" text-anchor="start" x="2577.12" y="-15.9" font-family="Courier New" font-size="8.00">.|.</text>
<text xml:space="preserve" text-anchor="start" x="2577.12" y="-6.15" font-family="Courier New" font-size="8.00"> |d</text>
</g>
<!-- e8&#45;&gt;e17 -->
<g id="edge17" class="edge">
<title>e8&#45;&gt;e17</title>
<path fill="none" stroke="blue" d="M2935.63,-102.23C2879.44,-88.82 2776.97,-63.93 2677.88,-37.15"/>
<polygon fill="blue" stroke="blue" points="2679.1,-33.85 2668.53,-34.61 2677.27,-40.61 2679.1,-33.85"/>
</g>
<!-- e18 -->
<g id="node19" class="node">
<title>e18</title>
<polygon fill="#ffe6f3" stroke="black" points="2786.88,-37.25 2689.12,-37.25 2689.12,0 2786.88,0 2786.88,-37.25"/>
<text xml:space="preserve" text-anchor="start" x="2697.12" y="-25.65" font-family="Courier New" font-size="8.00">(3,4) B&#45; ε=0 ℘={0}</text>
<text xml:space="preserve" text-anchor="start" x="2697.12" y="-15.9" font-family="Courier New" font-size="8.00">.|.</text>
<text xml:space="preserve" text-anchor="start" x="2697.12" y="-6.15" font-family="Courier New" font-size="8.00"> |d</text>
</g>
<!-- e8&#45;&gt;e18 -->
<g id="edge18" class="edge">
<title>e8&#45;&gt;e18</title>
<path fill="none" stroke="blue" d="M2935.65,-95.9C2896.69,-80.87 2838.61,-58.45 2795.48,-41.81"/>
<polygon fill="blue" stroke="blue" points="2796.86,-38.59 2786.27,-38.25 2794.34,-45.12 2796.86,-38.59"/>
</g>
<!-- e21 -->
<g id="node22" class="node">
<title>e21</title>
<polygon fill="#ffe6e6" stroke="black" points="2906.88,-37.25 2809.12,-37.25 2809.12,0 2906.88,0 2906.88,-37.25"/>
<text xml:space="preserve" text-anchor="start" x="2817.12" y="-25.65" font-family="Courier New" font-size="8.00">(6,1) B+ ε=1 ℘={0}</text>
<text xml:space="preserve" text-anchor="start" x="2817.12" y="-15.9" font-family="Courier New" font-size="8.00">c|r</text>
<text xml:space="preserve" text-anchor="start" x="2817.12" y="-6.15" font-family="Courier New" font-size="8.00"> |r</text>
</g>
<!-- e8&#45;&gt;e21 -->
<g id="edge21" class="edge">
<title>e8&#45;&gt;e21</title>
<path fill="none" stroke="blue" d="M2955.43,-94.83C2937.06,-80.65 2910.9,-60.46 2890.31,-44.56"/>
<polygon fill="blue" stroke="blue" points="2892.54,-41.87 2882.49,-38.53 2888.26,-47.41 2892.54,-41.87"/>
</g>
<!-- e33 -->
<g id="node34" class="node">
<title>e33</title>
<polygon fill="#ffe6e6" stroke="black" points="3026.88,-37.25 2929.12,-37.25 2929.12,0 3026.88,0 3026.88,-37.25"/>
<text xml:space="preserve" text-anchor="start" x="2937.12" y="-25.65" font-family="Courier New" font-size="8.00">(5,2) B+ ε=1 ℘={0}</text>
<text xml:space="preserve" text-anchor="start" x="2937.12" y="-15.9" font-family="Courier New" font-size="8.00">.|.</text>
<text xml:space="preserve" text-anchor="start" x="2937.12" y="-6.15" font-family="Courier New" font-size="8.00"> |r</text>
</g>
<!-- e8&#45;&gt;e33 -->
<g id="edge33" class="edge">
<title>e8&#45;&gt;e33</title>
<path fill="none" stroke="blue" d="M2978,-94.83C2978,-81.93 2978,-64.04 2978,-48.96"/>
<polygon fill="blue" stroke="blue" points="2981.5,-49.11 2978,-39.11 2974.5,-49.11 2981.5,-49.11"/>
</g>
<!-- e34 -->
<g id="node35" class="node">
<title>e34</title>
<polygon fill="#ffe6f3" stroke="black" points="3146.88,-37.25 3049.12,-37.25 3049.12,0 3146.88,0 3146.88,-37.25"/>
<text xml:space="preserve" text-anchor="start" x="3057.12" y="-25.65" font-family="Courier New" font-size="8.00">(4,3) B&#45; ε=1 ℘={0}</text>
<text xml:space="preserve" text-anchor="start" x="3057.12" y="-15.9" font-family="Courier New" font-size="8.00">.|.</text>
<text xml:space="preserve" text-anchor="start" x="3057.12" y="-6.15" font-family="Courier New" font-size="8.00"> |r</text>
</g>
<!-- e8&#45;&gt;e34 -->
<g id="edge34" class="edge">
<title>e8&#45;&gt;e34</title>
<path fill="none" stroke="blue" d="M3000.57,-94.83C3018.94,-80.65 3045.1,-60.46 3065.69,-44.56"/>
<polygon fill="blue" stroke="blue" points="3067.74,-47.41 3073.51,-38.53 3063.46,-41.87 3067.74,-47.41"/>
</g>
<!-- e37 -->
<g id="node38" class="node">
<title>e37</title>
<polygon fill="#ffe6e6" stroke="black" points="3266.88,-37.25 3169.12,-37.25 3169.12,0 3266.88,0 3266.88,-37.25"/>
<text xml:space="preserve" text-anchor="start" x="3177.12" y="-25.65" font-family="Courier New" font-size="8.00">(3,4) B+ ε=1 ℘={0}</text>
<text xml:space="preserve" text-anchor="start" x="3177.12" y="-15.9" font-family="Courier New" font-size="8.00">.|.</text>
<text xml:space="preserve" text-anchor="start" x="3177.12" y="-6.15" font-family="Courier New" font-size="8.00"> |s</text>
</g>
<!-- e8&#45;&gt;e37 -->
<g id="edge37" class="edge">
<title>e8&#45;&gt;e37</title>
<path fill="none" stroke="blue" d="M3020.35,-95.9C3059.31,-80.87 3117.39,-58.45 3160.52,-41.81"/>
<polygon fill="blue" stroke="blue" points="3161.66,-45.12 3169.73,-38.25 3159.14,-38.59 3161.66,-45.12"/>
</g>
<!-- e38 -->
<g id="node39" class="node">
<title>e38</title>
<polygon fill="#ffe6f3" stroke="black" points="3386.88,-37.25 3289.12,-37.25 3289.12,0 3386.88,0 3386.88,-37.25"/>
<text xml:space="preserve" text-anchor="start" x="3297.12" y="-25.65" font-family="Courier New" font-size="8.00">(2,5) B&#45; ε=1 ℘={0}</text>
<text xml:space="preserve" text-anchor="start" x="3297.12" y="-15.9" font-family="Courier New" font-size="8.00">.|.</text>
<text xml:space="preserve" text-anchor="start" x="3297.12" y="-6.15" font-family="Courier New" font-size="8.00"> |s</text>
</g>
<!-- e8&#45;&gt;e38 -->
<g id="edge38" class="edge">
<title>e8&#45;&gt;e38</title>
<path fill="none" stroke="blue" d="M3020.37,-102.23C3076.56,-88.82 3179.03,-63.93 3278.12,-37.15"/>
<polygon fill="blue" stroke="blue" points="3278.73,-40.61 3287.47,-34.61 3276.9,-33.85 3278.73,-40.61"/>
</g>
<!-- e9 -->
<g id="node10" class="node">
<title>e9</title>
<polygon fill="#ffe6f3" stroke="black" points="1690.88,-37.25 1593.12,-37.25 1593.12,0 1690.88,0 1690.88,-37.25"/>
<text xml:space="preserve" text-anchor="start" x="1601.12" y="-25.65" font-family="Courier New" font-size="8.00">(4,3) B&#45; ε=0 ℘={0}</text>
<text xml:space="preserve" text-anchor="start" x="1601.12" y="-15.9" font-family="Courier New" font-size="8.00">c|r</text>
<text xml:space="preserve" text-anchor="start" x="1601.12" y="-6.15" font-family="Courier New" font-size="8.00"> |d</text>
</g>
<!-- e10&#45;&gt;e9 -->
<g id="edge9" class="edge">
<title>e10&#45;&gt;e9</title>
<path fill="none" stroke="blue" d="M1324.37,-102.23C1380.56,-88.82 1483.03,-63.93 1582.12,-37.15"/>
<polygon fill="blue" stroke="blue" points="1582.73,-40.61 1591.47,-34.61 1580.9,-33.85 1582.73,-40.61"/>
</g>
<!-- e13 -->
<g id="node14" class="node">
<title>e13</title>
<polygon fill="#ffe6e6" stroke="black" points="1810.88,-37.25 1713.12,-37.25 1713.12,0 1810.88,0 1810.88,-37.25"/>
<text xml:space="preserve" text-anchor="start" x="1721.12" y="-25.65" font-family="Courier New" font-size="8.00">(3,4) B+ ε=0 ℘={0}</text>
<text xml:space="preserve" text-anchor="start" x="1721.12" y="-15.9" font-family="Courier New" font-size="8.00">c|s</text>
<text xml:space="preserve" text-anchor="start" x="1721.12" y="-6.15" font-family="Courier New" font-size="8.00"> |d</text>
</g>
<!-- e10&#45;&gt;e13 -->
<g id="edge13" class="edge">
<title>e10&#45;&gt;e13</title>
<path fill="none" stroke="blue" d="M1324.34,-106.25C1398.59,-95.4 1557.2,-70.7 1701.84,-37.12"/>
<polygon fill="blue" stroke="blue" points="1702.26,-40.61 1711.2,-34.92 1700.66,-33.8 1702.26,-40.61"/>
</g>
<!-- e14 -->
<g id="node15" class="node">
<title>e14</title>
<polygon fill="#ffe6f3" stroke="black" points="970.88,-37.25 873.12,-37.25 873.12,0 970.88,0 970.88,-37.25"/>
<text xml:space="preserve" text-anchor="start" x="881.12" y="-25.65" font-family="Courier New" font-size="8.00">(2,5) B&#45; ε=0 ℘={0}</text>
<text xml:space="preserve" text-anchor="start" x="881.12" y="-15.9" font-family="Courier New" font-size="8.00">c|s</text>
<text xml:space="preserve" text-anchor="start" x="881.12" y="-6.15" font-family="Courier New" font-size="8.00"> |d</text>
</g>
<!-- e10&#45;&gt;e14 -->
<g id="edge14" class="edge">
<title>e10&#45;&gt;e14</title>
<path fill="none" stroke="blue" d="M1239.63,-102.23C1183.44,-88.82 1080.97,-63.93 981.88,-37.15"/>
<polygon fill="blue" stroke="blue" points="983.1,-33.85 972.53,-34.61 981.27,-40.61 983.1,-33.85"/>
</g>
<!-- e22 -->
<g id="node23" class="node">
<title>e22</title>
<polygon fill="#ffe6f3" stroke="black" points="1090.88,-37.25 993.12,-37.25 993.12,0 1090.88,0 1090.88,-37.25"/>
<text xml:space="preserve" text-anchor="start" x="1001.12" y="-25.65" font-family="Courier New" font-size="8.00">(5,2) B&#45; ε=1 ℘={0}</text>
<text xml:space="preserve" text-anchor="start" x="1001.12" y="-15.9" font-family="Courier New" font-size="8.00">c|r</text>
<text xml:space="preserve" text-anchor="start" x="1001.12" y="-6.15" font-family="Courier New" font-size="8.00"> |r</text>
</g>
<!-- e10&#45;&gt;e22 -->
<g id="edge22" class="edge">
<title>e10&#45;&gt;e22</title>
<path fill="none" stroke="blue" d="M1239.65,-95.9C1200.69,-80.87 1142.61,-58.45 1099.48,-41.81"/>
<polygon fill="blue" stroke="blue" points="1100.86,-38.59 1090.27,-38.25 1098.34,-45.12 1100.86,-38.59"/>
</g>
<!-- e25 -->
<g id="node26" class="node">
<title>e25</title>
<polygon fill="#ffe6e6" stroke="black" points="1210.88,-37.25 1113.12,-37.25 1113.12,0 1210.88,0 1210.88,-37.25"/>
<text xml:space="preserve" text-anchor="start" x="1121.12" y="-25.65" font-family="Courier New" font-size="8.00">(4,3) B+ ε=1 ℘={0}</text>
<text xml:space="preserve" text-anchor="start" x="1121.12" y="-15.9" font-family="Courier New" font-size="8.00">c|s</text>
<text xml:space="preserve" text-anchor="start" x="1121.12" y="-6.15" font-family="Courier New" font-size="8.00"> |r</text>
</g>
<!-- e10&#45;&gt;e25 -->
<g id="edge25" class="edge">
<title>e10&#45;&gt;e25</title>
<path fill="none" stroke="blue" d="M1259.43,-94.83C1241.06,-80.65 1214.9,-60.46 1194.31,-44.56"/>
<polygon fill="blue" stroke="blue" points="1196.54,-41.87 1186.49,-38.53 1192.26,-47.41 1196.54,-41.87"/>
</g>
<!-- e26 -->
<g id="node27" class="node">
<title>e26</title>
<polygon fill="#ffe6f3" stroke="black" points="1330.88,-37.25 1233.12,-37.25 1233.12,0 1330.88,0 1330.88,-37.25"/>
<text xml:space="preserve" text-anchor="start" x="1241.12" y="-25.65" font-family="Courier New" font-size="8.00">(3,4) B&#45; ε=1 ℘={0}</text>
<text xml:space="preserve" text-anchor="start" x="1241.12" y="-15.9" font-family="Courier New" font-size="8.00">c|s</text>
<text xml:space="preserve" text-anchor="start" x="1241.12" y="-6.15" font-family="Courier New" font-size="8.00"> |r</text>
</g>
<!-- e10&#45;&gt;e26 -->
<g id="edge26" class="edge">
<title>e10&#45;&gt;e26</title>
<path fill="none" stroke="blue" d="M1282,-94.83C1282,-81.93 1282,-64.04 1282,-48.96"/>
<polygon fill="blue" stroke="blue" points="1285.5,-49.11 1282,-39.11 1278.5,-49.11 1285.5,-49.11"/>
</g>
<!-- e29 -->
<g id="node30" class="node">
<title>e29</title>
<polygon fill="#ffe6e6" stroke="black" points="1450.88,-37.25 1353.12,-37.25 1353.12,0 1450.88,0 1450.88,-37.25"/>
<text xml:space="preserve" text-anchor="start" x="1361.12" y="-25.65" font-family="Courier New" font-size="8.00">(2,5) B+ ε=1 ℘={0}</text>
<text xml:space="preserve" text-anchor="start" x="1361.12" y="-15.9" font-family="Courier New" font-size="8.00">c|s</text>
<text xml:space="preserve" text-anchor="start" x="1361.12" y="-6.15" font-family="Courier New" font-size="8.00"> |s</text>
</g>
<!-- e10&#45;&gt;e29 -->
<g id="edge29" class="edge">
<title>e10&#45;&gt;e29</title>
<path fill="none" stroke="blue" d="M1304.57,-94.83C1322.94,-80.65 1349.1,-60.46 1369.69,-44.56"/>
<polygon fill="blue" stroke="blue" points="1371.74,-47.41 1377.51,-38.53 1367.46,-41.87 1371.74,-47.41"/>
</g>
<!-- e30 -->
<g id="node31" class="node">
<title>e30</title>
<polygon fill="#ffe6f3" stroke="black" points="1570.88,-37.25 1473.12,-37.25 1473.12,0 1570.88,0 1570.88,-37.25"/>
<text xml:space="preserve" text-anchor="start" x="1481.12" y="-25.65" font-family="Courier New" font-size="8.00">(1,6) B&#45; ε=1 ℘={0}</text>
<text xml:space="preserve" text-anchor="start" x="1481.12" y="-15.9" font-family="Courier New" font-size="8.00">c|s</text>
<text xml:space="preserve" text-anchor="start" x="1481.12" y="-6.15" font-family="Courier New" font-size="8.00"> |s</text>
</g>
<!-- e10&#45;&gt;e30 -->
<g id="edge30" class="edge">
<title>e10&#45;&gt;e30</title>
<path fill="none" stroke="blue" d="M1324.35,-95.9C1363.31,-80.87 1421.39,-58.45 1464.52,-41.81"/>
<polygon fill="blue" stroke="blue" points="1465.66,-45.12 1473.73,-38.25 1463.14,-38.59 1465.66,-45.12"/>
</g>
<!-- gp_B_0 -->
<g id="node40" class="node">
<title>gp_B_0</title>
<text xml:space="preserve" text-anchor="middle" x="27" y="-202.8" font-family="Helvetica,sans-Serif" font-size="11.00" fill="#333333">O(1)</text>
</g>
<!-- gp_B_0&#45;&gt;e2 -->
<!-- gp_M_0 -->
<g id="node41" class="node">
<title>gp_M_0</title>
<text xml:space="preserve" text-anchor="middle" x="88" y="-296.8" font-family="Helvetica,sans-Serif" font-size="11.00" fill="#333333">Mp(0)</text>
</g>
<!-- gp_B_0&#45;&gt;gp_M_0 -->
<!-- gp_M_0&#45;&gt;e3 -->
<!-- gp_M_1 -->
<g id="node42" class="node">
<title>gp_M_1</title>
<text xml:space="preserve" text-anchor="middle" x="88" y="-108.8" font-family="Helvetica,sans-Serif" font-size="11.00" fill="#333333">Mp(2)</text>
</g>
<!-- gp_M_0&#45;&gt;gp_M_1 -->
<!-- gp_M_1&#45;&gt;e1 -->
<!-- gp_B_3 -->
<g id="node43" class="node">
<title>gp_B_3</title>
<text xml:space="preserve" text-anchor="middle" x="88" y="-14.18" font-family="Helvetica,sans-Serif" font-size="11.00" fill="#333333">O(7)</text>
</g>
<!-- gp_M_1&#45;&gt;gp_B_3 -->
<!-- gp_B_3&#45;&gt;e0 -->
</g>
</svg>
