<?xml version="1.0" encoding="UTF-8" standalone="no"?>
<!DOCTYPE svg PUBLIC "-//W3C//DTD SVG 1.1//EN"
 "http://www.w3.org/Graphics/SVG/1.1/DTD/svg11.dtd">
<!-- Generated by graphviz version 13.1.2 (20250808.2320)
 -->
<!-- Title: Extended PBP Tree Pages: 1 -->
<svg width="1205pt" height="875pt"
 viewBox="0.00 0.00 1205.00 875.00" xmlns="http://www.w3.org/2000/svg" xmlns:xlink="http://www.w3.org/1999/xlink">
<g id="graph0" class="graph" transform="scale(2.08333 2.08333) rotate(0) translate(4 416)">
<title>Extended PBP Tree</title>
<polygon fill="white" stroke="none" points="-4,4 -4,-416 574.25,-416 574.25,4 -4,4"/>
<!-- e0 -->
<g id="node1" class="node">
<title>e0</title>
<polygon fill="#e6f3ff" stroke="black" points="412.25,-36 355.75,-36 355.75,0 412.25,0 412.25,-36"/>
<text xml:space="preserve" text-anchor="start" x="363.75" y="-20.15" font-family="Courier New" font-size="8.00">(2,2) ε=0</text>
<text xml:space="preserve" text-anchor="start" x="363.75" y="-10.4" font-family="Courier New" font-size="8.00">dd|</text>
</g>
<!-- e1 -->
<g id="node2" class="node">
<title>e1</title>
<polygon fill="#fff3e6" stroke="black" points="412.25,-130 355.75,-130 355.75,-94 412.25,-94 412.25,-130"/>
<text xml:space="preserve" text-anchor="start" x="363.75" y="-114.15" font-family="Courier New" font-size="8.00">(2,2) ε=0</text>
<text xml:space="preserve" text-anchor="start" x="363.75" y="-104.4" font-family="Courier New" font-size="8.00">dd|</text>
</g>
<!-- e1&#45;&gt;e0 -->
<g id="edge1" class="edge">
<title>e1&#45;&gt;e0</title>
<path fill="none" stroke="blue" d="M384,-93.7C384,-80.72 384,-62.66 384,-47.56"/>
<polygon fill="blue" stroke="blue" points="387.5,-47.74 384,-37.74 380.5,-47.74 387.5,-47.74"/>
</g>
<!-- e2 -->
<g id="node3" class="node">
<title>e2</title>
<polygon fill="#e6f3ff" stroke="black" points="333.25,-224 276.75,-224 276.75,-188 333.25,-188 333.25,-224"/>
<text xml:space="preserve" text-anchor="start" x="284.75" y="-208.15" font-family="Courier New" font-size="8.00">(1,1) ε=0</text>
<text xml:space="preserve" text-anchor="start" x="284.75" y="-198.4" font-family="Courier New" font-size="8.00">d|</text>
</g>
<!-- e2&#45;&gt;e1 -->
<g id="edge2" class="edge">
<title>e2&#45;&gt;e1</title>
<path fill="none" stroke="blue" d="M319.86,-187.7C331.67,-173.95 348.36,-154.5 361.76,-138.9"/>
<polygon fill="blue" stroke="blue" points="364.36,-141.24 368.22,-131.38 359.05,-136.68 364.36,-141.24"/>
</g>
<!-- e6 -->
<g id="node7" class="node">
<title>e6</title>
<polygon fill="#fff3e6" stroke="black" points="491.25,-130 434.75,-130 434.75,-94 491.25,-94 491.25,-130"/>
<text xml:space="preserve" text-anchor="start" x="442.75" y="-114.15" font-family="Courier New" font-size="8.00">(2,2) ε=1</text>
<text xml:space="preserve" text-anchor="start" x="442.75" y="-104.4" font-family="Courier New" font-size="8.00">cd|</text>
</g>
<!-- e2&#45;&gt;e6 -->
<g id="edge6" class="edge">
<title>e2&#45;&gt;e6</title>
<path fill="none" stroke="blue" d="M333.61,-188.34C359.04,-173.54 396.41,-151.77 424.46,-135.44"/>
<polygon fill="blue" stroke="blue" points="426.15,-138.51 433.03,-130.45 422.62,-132.46 426.15,-138.51"/>
</g>
<!-- e8 -->
<g id="node9" class="node">
<title>e8</title>
<polygon fill="#fff3e6" stroke="black" points="333.25,-130 276.75,-130 276.75,-94 333.25,-94 333.25,-130"/>
<text xml:space="preserve" text-anchor="start" x="284.75" y="-114.15" font-family="Courier New" font-size="8.00">(3,1) ε=1</text>
<text xml:space="preserve" text-anchor="start" x="284.75" y="-104.4" font-family="Courier New" font-size="8.00">rd|</text>
</g>
<!-- e2&#45;&gt;e8 -->
<g id="edge8" class="edge">
<title>e2&#45;&gt;e8</title>
<path fill="none" stroke="blue" d="M305,-187.7C305,-174.72 305,-156.66 305,-141.56"/>
<polygon fill="blue" stroke="blue" points="308.5,-141.74 305,-131.74 301.5,-141.74 308.5,-141.74"/>
</g>
<!-- e3 -->
<g id="node4" class="node">
<title>e3</title>
<polygon fill="#fff3e6" stroke="black" points="333.25,-318 276.75,-318 276.75,-282 333.25,-282 333.25,-318"/>
<text xml:space="preserve" text-anchor="start" x="284.75" y="-302.15" font-family="Courier New" font-size="8.00">(1,1) ε=0</text>
<text xml:space="preserve" text-anchor="start" x="284.75" y="-292.4" font-family="Courier New" font-size="8.00">d|</text>
</g>
<!-- e3&#45;&gt;e2 -->
<g id="edge3" class="edge">
<title>e3&#45;&gt;e2</title>
<path fill="none" stroke="blue" d="M305,-281.7C305,-268.72 305,-250.66 305,-235.56"/>
<polygon fill="blue" stroke="blue" points="308.5,-235.74 305,-225.74 301.5,-235.74 308.5,-235.74"/>
</g>
<!-- e4 -->
<g id="node5" class="node">
<title>e4</title>
<polygon fill="#e6f3ff" stroke="black" points="293.25,-412 236.75,-412 236.75,-376 293.25,-376 293.25,-412"/>
<text xml:space="preserve" text-anchor="start" x="244.75" y="-395.77" font-family="Courier New" font-size="8.00">(0,0) ε=0</text>
</g>
<!-- e4&#45;&gt;e3 -->
<g id="edge4" class="edge">
<title>e4&#45;&gt;e3</title>
<path fill="none" stroke="blue" d="M272.52,-375.7C278.28,-362.46 286.33,-343.95 292.97,-328.66"/>
<polygon fill="blue" stroke="blue" points="296.13,-330.18 296.91,-319.61 289.71,-327.39 296.13,-330.18"/>
</g>
<!-- e12 -->
<g id="node13" class="node">
<title>e12</title>
<polygon fill="#fff3e6" stroke="black" points="452.25,-318 395.75,-318 395.75,-282 452.25,-282 452.25,-318"/>
<text xml:space="preserve" text-anchor="start" x="403.75" y="-302.15" font-family="Courier New" font-size="8.00">(1,1) ε=1</text>
<text xml:space="preserve" text-anchor="start" x="403.75" y="-292.4" font-family="Courier New" font-size="8.00">c|</text>
</g>
<!-- e4&#45;&gt;e12 -->
<g id="edge12" class="edge">
<title>e4&#45;&gt;e12</title>
<path fill="none" stroke="blue" d="M293.43,-376.55C319.15,-361.67 357.26,-339.62 385.67,-323.18"/>
<polygon fill="blue" stroke="blue" points="387.07,-326.41 393.97,-318.37 383.57,-320.35 387.07,-326.41"/>
</g>
<!-- e16 -->
<g id="node17" class="node">
<title>e16</title>
<polygon fill="#fff3e6" stroke="black" points="254.25,-318 197.75,-318 197.75,-282 254.25,-282 254.25,-318"/>
<text xml:space="preserve" text-anchor="start" x="205.75" y="-302.15" font-family="Courier New" font-size="8.00">(2,0) ε=1</text>
<text xml:space="preserve" text-anchor="start" x="205.75" y="-292.4" font-family="Courier New" font-size="8.00">r|</text>
</g>
<!-- e4&#45;&gt;e16 -->
<g id="edge16" class="edge">
<title>e4&#45;&gt;e16</title>
<path fill="none" stroke="blue" d="M257.66,-375.7C252.05,-362.46 244.21,-343.95 237.73,-328.66"/>
<polygon fill="blue" stroke="blue" points="241.02,-327.46 233.89,-319.62 234.57,-330.19 241.02,-327.46"/>
</g>
<!-- e5 -->
<g id="node6" class="node">
<title>e5</title>
<polygon fill="#e6f3ff" stroke="black" points="491.25,-36 434.75,-36 434.75,0 491.25,0 491.25,-36"/>
<text xml:space="preserve" text-anchor="start" x="442.75" y="-20.15" font-family="Courier New" font-size="8.00">(2,2) ε=0</text>
<text xml:space="preserve" text-anchor="start" x="442.75" y="-10.4" font-family="Courier New" font-size="8.00">cd|</text>
</g>
<!-- e6&#45;&gt;e5 -->
<g id="edge5" class="edge">
<title>e6&#45;&gt;e5</title>
<path fill="none" stroke="blue" d="M463,-93.7C463,-80.72 463,-62.66 463,-47.56"/>
<polygon fill="blue" stroke="blue" points="466.5,-47.74 463,-37.74 459.5,-47.74 466.5,-47.74"/>
</g>
<!-- e7 -->
<g id="node8" class="node">
<title>e7</title>
<polygon fill="#e6f3ff" stroke="black" points="333.25,-36 276.75,-36 276.75,0 333.25,0 333.25,-36"/>
<text xml:space="preserve" text-anchor="start" x="284.75" y="-20.15" font-family="Courier New" font-size="8.00">(2,2) ε=0</text>
<text xml:space="preserve" text-anchor="start" x="284.75" y="-10.4" font-family="Courier New" font-size="8.00">rd|</text>
</g>
<!-- e8&#45;&gt;e7 -->
<g id="edge7" class="edge">
<title>e8&#45;&gt;e7</title>
<path fill="none" stroke="blue" d="M305,-93.7C305,-80.72 305,-62.66 305,-47.56"/>
<polygon fill="blue" stroke="blue" points="308.5,-47.74 305,-37.74 301.5,-47.74 308.5,-47.74"/>
</g>
<!-- e9 -->
<g id="node10" class="node">
<title>e9</title>
<polygon fill="#e6f3ff" stroke="black" points="570.25,-36 513.75,-36 513.75,0 570.25,0 570.25,-36"/>
<text xml:space="preserve" text-anchor="start" x="521.75" y="-20.15" font-family="Courier New" font-size="8.00">(2,2) ε=0</text>
<text xml:space="preserve" text-anchor="start" x="521.75" y="-10.4" font-family="Courier New" font-size="8.00">cc|</text>
</g>
<!-- e10 -->
<g id="node11" class="node">
<title>e10</title>
<polygon fill="#fff3e6" stroke="black" points="570.25,-130 513.75,-130 513.75,-94 570.25,-94 570.25,-130"/>
<text xml:space="preserve" text-anchor="start" x="521.75" y="-114.15" font-family="Courier New" font-size="8.00">(2,2) ε=1</text>
<text xml:space="preserve" text-anchor="start" x="521.75" y="-104.4" font-family="Courier New" font-size="8.00">cc|</text>
</g>
<!-- e10&#45;&gt;e9 -->
<g id="edge9" class="edge">
<title>e10&#45;&gt;e9</title>
<path fill="none" stroke="blue" d="M542,-93.7C542,-80.72 542,-62.66 542,-47.56"/>
<polygon fill="blue" stroke="blue" points="545.5,-47.74 542,-37.74 538.5,-47.74 545.5,-47.74"/>
</g>
<!-- e11 -->
<g id="node12" class="node">
<title>e11</title>
<polygon fill="#e6f3ff" stroke="black" points="491.25,-224 434.75,-224 434.75,-188 491.25,-188 491.25,-224"/>
<text xml:space="preserve" text-anchor="start" x="442.75" y="-208.15" font-family="Courier New" font-size="8.00">(1,1) ε=0</text>
<text xml:space="preserve" text-anchor="start" x="442.75" y="-198.4" font-family="Courier New" font-size="8.00">c|</text>
</g>
<!-- e11&#45;&gt;e10 -->
<g id="edge10" class="edge">
<title>e11&#45;&gt;e10</title>
<path fill="none" stroke="blue" d="M477.86,-187.7C489.67,-173.95 506.36,-154.5 519.76,-138.9"/>
<polygon fill="blue" stroke="blue" points="522.36,-141.24 526.22,-131.38 517.05,-136.68 522.36,-141.24"/>
</g>
<!-- e12&#45;&gt;e11 -->
<g id="edge11" class="edge">
<title>e12&#45;&gt;e11</title>
<path fill="none" stroke="blue" d="M431.34,-281.7C436.95,-268.46 444.79,-249.95 451.27,-234.66"/>
<polygon fill="blue" stroke="blue" points="454.43,-236.19 455.11,-225.62 447.98,-233.46 454.43,-236.19"/>
</g>
<!-- e13 -->
<g id="node14" class="node">
<title>e13</title>
<polygon fill="#e6f3ff" stroke="black" points="254.25,-36 197.75,-36 197.75,0 254.25,0 254.25,-36"/>
<text xml:space="preserve" text-anchor="start" x="205.75" y="-20.15" font-family="Courier New" font-size="8.00">(2,2) ε=0</text>
<text xml:space="preserve" text-anchor="start" x="205.75" y="-10.4" font-family="Courier New" font-size="8.00">rc|</text>
</g>
<!-- e14 -->
<g id="node15" class="node">
<title>e14</title>
<polygon fill="#fff3e6" stroke="black" points="254.25,-130 197.75,-130 197.75,-94 254.25,-94 254.25,-130"/>
<text xml:space="preserve" text-anchor="start" x="205.75" y="-114.15" font-family="Courier New" font-size="8.00">(3,1) ε=1</text>
<text xml:space="preserve" text-anchor="start" x="205.75" y="-104.4" font-family="Courier New" font-size="8.00">rc|</text>
</g>
<!-- e14&#45;&gt;e13 -->
<g id="edge13" class="edge">
<title>e14&#45;&gt;e13</title>
<path fill="none" stroke="blue" d="M226,-93.7C226,-80.72 226,-62.66 226,-47.56"/>
<polygon fill="blue" stroke="blue" points="229.5,-47.74 226,-37.74 222.5,-47.74 229.5,-47.74"/>
</g>
<!-- e15 -->
<g id="node16" class="node">
<title>e15</title>
<polygon fill="#e6f3ff" stroke="black" points="254.25,-224 197.75,-224 197.75,-188 254.25,-188 254.25,-224"/>
<text xml:space="preserve" text-anchor="start" x="205.75" y="-208.15" font-family="Courier New" font-size="8.00">(1,1) ε=0</text>
<text xml:space="preserve" text-anchor="start" x="205.75" y="-198.4" font-family="Courier New" font-size="8.00">r|</text>
</g>
<!-- e15&#45;&gt;e14 -->
<g id="edge14" class="edge">
<title>e15&#45;&gt;e14</title>
<path fill="none" stroke="blue" d="M226,-187.7C226,-174.72 226,-156.66 226,-141.56"/>
<polygon fill="blue" stroke="blue" points="229.5,-141.74 226,-131.74 222.5,-141.74 229.5,-141.74"/>
</g>
<!-- e16&#45;&gt;e15 -->
<g id="edge15" class="edge">
<title>e16&#45;&gt;e15</title>
<path fill="none" stroke="blue" d="M226,-281.7C226,-268.72 226,-250.66 226,-235.56"/>
<polygon fill="blue" stroke="blue" points="229.5,-235.74 226,-225.74 222.5,-235.74 229.5,-235.74"/>
</g>
<!-- gp_C_0 -->
<g id="node18" class="node">
<title>gp_C_0</title>
<text xml:space="preserve" text-anchor="middle" x="27" y="-389.55" font-family="Helvetica,sans-Serif" font-size="11.00" fill="#333333">Sp(0)</text>
</g>
<!-- gp_C_0&#45;&gt;e4 -->
<!-- gp_C_1 -->
<g id="node19" class="node">
<title>gp_C_1</title>
<text xml:space="preserve" text-anchor="middle" x="27" y="-201.55" font-family="Helvetica,sans-Serif" font-size="11.00" fill="#333333">Sp(2)</text>
</g>
<!-- gp_C_0&#45;&gt;gp_C_1 -->
<!-- gp_C_1&#45;&gt;e2 -->
<!-- gp_D_1 -->
<g id="node20" class="node">
<title>gp_D_1</title>
<text xml:space="preserve" text-anchor="middle" x="88" y="-295.55" font-family="Helvetica,sans-Serif" font-size="11.00" fill="#333333">SO(2)</text>
</g>
<!-- gp_C_1&#45;&gt;gp_D_1 -->
<!-- gp_D_1&#45;&gt;e3 -->
<!-- gp_C_2 -->
<g id="node21" class="node">
<title>gp_C_2</title>
<text xml:space="preserve" text-anchor="middle" x="149" y="-13.55" font-family="Helvetica,sans-Serif" font-size="11.00" fill="#333333">Sp(4)</text>
</g>
<!-- gp_D_1&#45;&gt;gp_C_2 -->
<!-- gp_C_2&#45;&gt;e0 -->
<!-- gp_D_2 -->
<g id="node22" class="node">
<title>gp_D_2</title>
<text xml:space="preserve" text-anchor="middle" x="149" y="-107.55" font-family="Helvetica,sans-Serif" font-size="11.00" fill="#333333">SO(4)</text>
</g>
<!-- gp_C_2&#45;&gt;gp_D_2 -->
<!-- gp_D_2&#45;&gt;e1 -->
</g>
</svg>
