<?xml version="1.0" encoding="UTF-8" standalone="no"?>
<!DOCTYPE svg PUBLIC "-//W3C//DTD SVG 1.1//EN"
 "http://www.w3.org/Graphics/SVG/1.1/DTD/svg11.dtd">
<!-- Generated by graphviz version 13.1.2 (20250808.2320)
 -->
<!-- Title: Lifting Tree Pages: 1 -->
<svg width="2038pt" height="1264pt"
 viewBox="0.00 0.00 2038.00 1264.00" xmlns="http://www.w3.org/2000/svg" xmlns:xlink="http://www.w3.org/1999/xlink">
<g id="graph0" class="graph" transform="scale(2.08333 2.08333) rotate(0) translate(4 602.5)">
<title>Lifting Tree</title>
<polygon fill="white" stroke="none" points="-4,4 -4,-602.5 974,-602.5 974,4 -4,4"/>
<g id="clust3" class="cluster">
<title>cluster_tw_0</title>
<polygon fill="none" stroke="#999999" stroke-width="0.8" stroke-dasharray="1,5" points="146,-400.75 146,-473.5 299,-473.5 299,-400.75 146,-400.75"/>
</g>
<g id="clust4" class="cluster">
<title>cluster_tw_1</title>
<polygon fill="none" stroke="#999999" stroke-width="0.8" stroke-dasharray="1,5" points="312,-400.75 312,-473.5 631,-473.5 631,-400.75 312,-400.75"/>
</g>
<g id="clust7" class="cluster">
<title>cluster_tw_2</title>
<polygon fill="none" stroke="#999999" stroke-width="0.8" stroke-dasharray="1,5" points="466,-125 466,-197.75 796,-197.75 796,-125 466,-125"/>
</g>
<g id="clust8" class="cluster">
<title>cluster_tw_3</title>
<polygon fill="none" stroke="#999999" stroke-width="0.8" stroke-dasharray="1,5" points="134,-125 134,-197.75 453,-197.75 453,-125 134,-125"/>
</g>
<g id="clust9" class="cluster">
<title>cluster_tw_4</title>
<polygon fill="none" stroke="#999999" stroke-width="0.8" stroke-dasharray="1,5" points="809,-125 809,-197.75 962,-197.75 962,-125 809,-125"/>
</g>
<!-- n0 -->
<g id="node1" class="node">
<title>n0</title>
<polygon fill="#e6f3ff" stroke="black" points="532.75,-47 467.25,-47 467.25,0 532.75,0 532.75,-47"/>
<text xml:space="preserve" text-anchor="start" x="475.25" y="-35.4" font-family="Courier New" font-size="8.00">+&#45;+&#45; | &#45;+&#45;+</text>
<text xml:space="preserve" text-anchor="start" x="475.25" y="-25.65" font-family="Courier New" font-size="8.00">═════</text>
<text xml:space="preserve" text-anchor="start" x="475.25" y="-15.9" font-family="Courier New" font-size="8.00">(2,2)</text>
<text xml:space="preserve" text-anchor="start" x="475.25" y="-6.15" font-family="Courier New" font-size="8.00">dd| &#160;ε=0</text>
</g>
<!-- n1 -->
<g id="node2" class="node">
<title>n1</title>
<polygon fill="#fff3e6" stroke="black" points="530.25,-189.75 473.75,-189.75 473.75,-133 530.25,-133 530.25,-189.75"/>
<text xml:space="preserve" text-anchor="start" x="481.75" y="-178.15" font-family="Courier New" font-size="8.00">&#45;+&#45; | +&#45;+</text>
<text xml:space="preserve" text-anchor="start" x="481.75" y="-168.4" font-family="Courier New" font-size="8.00">+ &#160;&#160;| &#45; &#160;</text>
<text xml:space="preserve" text-anchor="start" x="481.75" y="-158.65" font-family="Courier New" font-size="8.00">═════</text>
<text xml:space="preserve" text-anchor="start" x="481.75" y="-148.9" font-family="Courier New" font-size="8.00">(2,2)</text>
<text xml:space="preserve" text-anchor="start" x="481.75" y="-139.15" font-family="Courier New" font-size="8.00">dd| &#160;ε=0</text>
</g>
<!-- n1&#45;&gt;n0 -->
<g id="edge1" class="edge">
<title>n1&#45;&gt;n0:n</title>
<path fill="none" stroke="blue" d="M501.24,-132.89C500.75,-112.8 500.17,-84.56 500.03,-58.17"/>
<polygon fill="blue" stroke="blue" points="503.53,-58.5 500,-48.51 496.53,-58.52 503.53,-58.5"/>
</g>
<!-- n17 -->
<g id="node18" class="node">
<title>n17</title>
<polygon fill="#f8f8f8" stroke="black" points="702.25,-179.38 645.75,-179.38 645.75,-143.38 702.25,-143.38 702.25,-179.38"/>
<text xml:space="preserve" text-anchor="start" x="653.75" y="-163.53" font-family="Courier New" font-size="8.00">=*= | *=*</text>
<text xml:space="preserve" text-anchor="start" x="653.75" y="-153.78" font-family="Courier New" font-size="8.00">* &#160;&#160;| = &#160;</text>
</g>
<!-- n1&#45;&gt;n17 -->
<g id="edge38" class="edge">
<title>n1&#45;&gt;n17</title>
<path fill="none" stroke="red" d="M517.59,-193.75C527.23,-209.83 541.26,-227.72 559.5,-236.75 582.2,-247.99 593.8,-247.99 616.5,-236.75 638.72,-225.75 654.69,-201.61 664.08,-183.59"/>
<polygon fill="red" stroke="red" points="518.66,-193.5 516.24,-191.44 516.85,-194.56 518.66,-193.5"/>
<polygon fill="red" stroke="red" points="664.99,-184.12 665.42,-180.97 663.12,-183.17 664.99,-184.12"/>
</g>
<!-- n2 -->
<g id="node3" class="node">
<title>n2</title>
<polygon fill="#e6f3ff" stroke="black" points="445,-322.75 391,-322.75 391,-275.75 445,-275.75 445,-322.75"/>
<text xml:space="preserve" text-anchor="start" x="402.25" y="-311.15" font-family="Courier New" font-size="8.00">+&#45; | &#45;+</text>
<text xml:space="preserve" text-anchor="start" x="402.25" y="-301.4" font-family="Courier New" font-size="8.00">═════</text>
<text xml:space="preserve" text-anchor="start" x="402.25" y="-291.65" font-family="Courier New" font-size="8.00">(1,1)</text>
<text xml:space="preserve" text-anchor="start" x="402.25" y="-281.9" font-family="Courier New" font-size="8.00">d| &#160;ε=0</text>
</g>
<!-- n2&#45;&gt;n1 -->
<g id="edge2" class="edge">
<title>n2&#45;&gt;n1:n</title>
<path fill="none" stroke="blue" d="M445.04,-279.86C467.1,-262.7 495.5,-234.84 501.04,-202.05"/>
<polygon fill="blue" stroke="blue" points="504.51,-202.52 501.87,-192.26 497.54,-201.93 504.51,-202.52"/>
</g>
<!-- n6 -->
<g id="node7" class="node">
<title>n6</title>
<polygon fill="#fff3e6" stroke="black" points="616.25,-189.75 559.75,-189.75 559.75,-133 616.25,-133 616.25,-189.75"/>
<text xml:space="preserve" text-anchor="start" x="567.75" y="-178.15" font-family="Courier New" font-size="8.00">&#45;+&#45; | *=*</text>
<text xml:space="preserve" text-anchor="start" x="567.75" y="-168.4" font-family="Courier New" font-size="8.00">+ &#160;&#160;| = &#160;</text>
<text xml:space="preserve" text-anchor="start" x="567.75" y="-158.65" font-family="Courier New" font-size="8.00">═════</text>
<text xml:space="preserve" text-anchor="start" x="567.75" y="-148.9" font-family="Courier New" font-size="8.00">(2,2)</text>
<text xml:space="preserve" text-anchor="start" x="567.75" y="-139.15" font-family="Courier New" font-size="8.00">cd| &#160;ε=1</text>
</g>
<!-- n2&#45;&gt;n6 -->
<g id="edge6" class="edge">
<title>n2&#45;&gt;n6:n</title>
<path fill="none" stroke="blue" d="M445.31,-293.88C490.55,-285.01 577.07,-260.55 587.05,-202.07"/>
<polygon fill="blue" stroke="blue" points="590.53,-202.52 587.87,-192.26 583.55,-201.93 590.53,-202.52"/>
</g>
<!-- n8 -->
<g id="node9" class="node">
<title>n8</title>
<polygon fill="#fff3e6" stroke="black" points="445,-189.75 391,-189.75 391,-133 445,-133 445,-189.75"/>
<text xml:space="preserve" text-anchor="start" x="400" y="-178.15" font-family="Courier New" font-size="8.00">+&#45;+</text>
<text xml:space="preserve" text-anchor="start" x="400" y="-168.4" font-family="Courier New" font-size="8.00">+ &#160;</text>
<text xml:space="preserve" text-anchor="start" x="400" y="-158.65" font-family="Courier New" font-size="8.00">═════</text>
<text xml:space="preserve" text-anchor="start" x="400" y="-148.9" font-family="Courier New" font-size="8.00">(3,1)</text>
<text xml:space="preserve" text-anchor="start" x="400" y="-139.15" font-family="Courier New" font-size="8.00">rd| &#160;ε=1</text>
</g>
<!-- n2&#45;&gt;n8 -->
<g id="edge8" class="edge">
<title>n2&#45;&gt;n8:n</title>
<path fill="none" stroke="blue" d="M418,-275.6C418,-256.56 418,-228.31 418,-201.92"/>
<polygon fill="blue" stroke="blue" points="421.5,-202.26 418,-192.26 414.5,-202.26 421.5,-202.26"/>
</g>
<!-- n3 -->
<g id="node4" class="node">
<title>n3</title>
<polygon fill="#fff3e6" stroke="black" points="374,-465.5 320,-465.5 320,-408.75 374,-408.75 374,-465.5"/>
<text xml:space="preserve" text-anchor="start" x="331.25" y="-453.9" font-family="Courier New" font-size="8.00">&#45;</text>
<text xml:space="preserve" text-anchor="start" x="331.25" y="-444.15" font-family="Courier New" font-size="8.00">+</text>
<text xml:space="preserve" text-anchor="start" x="331.25" y="-434.4" font-family="Courier New" font-size="8.00">═════</text>
<text xml:space="preserve" text-anchor="start" x="331.25" y="-424.65" font-family="Courier New" font-size="8.00">(1,1)</text>
<text xml:space="preserve" text-anchor="start" x="331.25" y="-414.9" font-family="Courier New" font-size="8.00">d| &#160;ε=0</text>
</g>
<!-- n3&#45;&gt;n2 -->
<g id="edge3" class="edge">
<title>n3&#45;&gt;n2:n</title>
<path fill="none" stroke="blue" d="M374.25,-410.97C392.08,-391.98 412.85,-364.1 417.18,-333.95"/>
<polygon fill="blue" stroke="blue" points="420.65,-334.49 417.89,-324.26 413.67,-333.98 420.65,-334.49"/>
</g>
<!-- n12 -->
<g id="node13" class="node">
<title>n12</title>
<polygon fill="#fff3e6" stroke="black" points="457,-465.5 403,-465.5 403,-408.75 457,-408.75 457,-465.5"/>
<text xml:space="preserve" text-anchor="start" x="414.25" y="-453.9" font-family="Courier New" font-size="8.00">=</text>
<text xml:space="preserve" text-anchor="start" x="414.25" y="-444.15" font-family="Courier New" font-size="8.00">+</text>
<text xml:space="preserve" text-anchor="start" x="414.25" y="-434.4" font-family="Courier New" font-size="8.00">═════</text>
<text xml:space="preserve" text-anchor="start" x="414.25" y="-424.65" font-family="Courier New" font-size="8.00">(1,1)</text>
<text xml:space="preserve" text-anchor="start" x="414.25" y="-414.9" font-family="Courier New" font-size="8.00">c| &#160;ε=1</text>
</g>
<!-- n3&#45;&gt;n12 -->
<g id="edge34" class="edge">
<title>n3&#45;&gt;n12</title>
<path fill="none" stroke="green" d="M378.66,-437.12C385.13,-437.12 391.6,-437.12 398.07,-437.12"/>
<polygon fill="green" stroke="green" points="378.75,-436.08 375.75,-437.13 378.75,-438.18 378.75,-436.08"/>
<polygon fill="green" stroke="green" points="398.04,-438.18 401.04,-437.13 398.04,-436.08 398.04,-438.18"/>
</g>
<!-- n20 -->
<g id="node21" class="node">
<title>n20</title>
<polygon fill="#f8f8f8" stroke="black" points="623,-455.12 569,-455.12 569,-419.12 623,-419.12 623,-455.12"/>
<text xml:space="preserve" text-anchor="start" x="593.75" y="-439.27" font-family="Courier New" font-size="8.00">&#45;</text>
<text xml:space="preserve" text-anchor="start" x="593.75" y="-429.52" font-family="Courier New" font-size="8.00">*</text>
</g>
<!-- n3&#45;&gt;n20 -->
<g id="edge35" class="edge">
<title>n3&#45;&gt;n20</title>
<path fill="none" stroke="#9933cc" d="M362.19,-469.48C371.62,-485.56 385.41,-503.45 403.5,-512.5 457.96,-539.74 486.16,-539.97 540.5,-512.5 562.34,-501.46 577.69,-477.32 586.63,-459.32"/>
<polygon fill="#9933cc" stroke="#9933cc" points="363.27,-469.26 360.87,-467.18 361.45,-470.31 363.27,-469.26"/>
<polygon fill="#9933cc" stroke="#9933cc" points="587.53,-459.87 587.89,-456.71 585.64,-458.95 587.53,-459.87"/>
</g>
<!-- n4 -->
<g id="node5" class="node">
<title>n4</title>
<polygon fill="#e6f3ff" stroke="black" points="291,-598.5 237,-598.5 237,-551.5 291,-551.5 291,-598.5"/>
<text xml:space="preserve" text-anchor="start" x="248.25" y="-586.9" font-family="Courier New" font-size="8.00">(triv)</text>
<text xml:space="preserve" text-anchor="start" x="248.25" y="-577.15" font-family="Courier New" font-size="8.00">═════</text>
<text xml:space="preserve" text-anchor="start" x="248.25" y="-567.4" font-family="Courier New" font-size="8.00">(0,0)</text>
<text xml:space="preserve" text-anchor="start" x="248.25" y="-557.65" font-family="Courier New" font-size="8.00"> | &#160;ε=0</text>
</g>
<!-- n4&#45;&gt;n3 -->
<g id="edge4" class="edge">
<title>n4&#45;&gt;n3:n</title>
<path fill="none" stroke="blue" d="M291.18,-555.18C312.93,-537.92 340.65,-510.16 346.06,-477.69"/>
<polygon fill="blue" stroke="blue" points="349.53,-478.27 346.87,-468.01 342.55,-477.68 349.53,-478.27"/>
</g>
<!-- n4&#45;&gt;n12 -->
<g id="edge12" class="edge">
<title>n4&#45;&gt;n12:n</title>
<path fill="none" stroke="blue" d="M291.41,-569.26C335.71,-559.95 419.09,-535.02 429.02,-477.94"/>
<polygon fill="blue" stroke="blue" points="432.51,-478.27 429.87,-468.01 425.53,-477.67 432.51,-478.27"/>
</g>
<!-- n16 -->
<g id="node17" class="node">
<title>n16</title>
<polygon fill="#fff3e6" stroke="black" points="208,-465.5 154,-465.5 154,-408.75 208,-408.75 208,-465.5"/>
<text xml:space="preserve" text-anchor="start" x="165.25" y="-453.9" font-family="Courier New" font-size="8.00">+</text>
<text xml:space="preserve" text-anchor="start" x="165.25" y="-444.15" font-family="Courier New" font-size="8.00">+</text>
<text xml:space="preserve" text-anchor="start" x="165.25" y="-434.4" font-family="Courier New" font-size="8.00">═════</text>
<text xml:space="preserve" text-anchor="start" x="165.25" y="-424.65" font-family="Courier New" font-size="8.00">(2,0)</text>
<text xml:space="preserve" text-anchor="start" x="165.25" y="-414.9" font-family="Courier New" font-size="8.00">r| &#160;ε=1</text>
</g>
<!-- n4&#45;&gt;n16 -->
<g id="edge16" class="edge">
<title>n4&#45;&gt;n16:n</title>
<path fill="none" stroke="blue" d="M236.82,-555.18C215.07,-537.92 187.35,-510.16 181.94,-477.69"/>
<polygon fill="blue" stroke="blue" points="185.45,-477.68 181.13,-468.01 178.47,-478.27 185.45,-477.68"/>
</g>
<!-- n5 -->
<g id="node6" class="node">
<title>n5</title>
<polygon fill="#e6f3ff" stroke="black" points="616,-47 562,-47 562,0 616,0 616,-47"/>
<text xml:space="preserve" text-anchor="start" x="571" y="-35.4" font-family="Courier New" font-size="8.00">+&#45;+&#45;</text>
<text xml:space="preserve" text-anchor="start" x="571" y="-25.65" font-family="Courier New" font-size="8.00">═════</text>
<text xml:space="preserve" text-anchor="start" x="571" y="-15.9" font-family="Courier New" font-size="8.00">(2,2)</text>
<text xml:space="preserve" text-anchor="start" x="571" y="-6.15" font-family="Courier New" font-size="8.00">cd| &#160;ε=0</text>
</g>
<!-- n6&#45;&gt;n1 -->
<g id="edge18" class="edge">
<title>n6&#45;&gt;n1</title>
<path fill="none" stroke="green" d="M555.11,-161.38C548.42,-161.38 541.73,-161.38 535.04,-161.38"/>
<polygon fill="green" stroke="green" points="554.76,-162.43 557.76,-161.38 554.76,-160.33 554.76,-162.43"/>
<polygon fill="green" stroke="green" points="535.07,-160.33 532.07,-161.38 535.07,-162.43 535.07,-160.33"/>
</g>
<!-- n6&#45;&gt;n5 -->
<g id="edge5" class="edge">
<title>n6&#45;&gt;n5:n</title>
<path fill="none" stroke="blue" d="M588.38,-132.88C588.63,-112.79 588.92,-84.56 588.98,-58.17"/>
<polygon fill="blue" stroke="blue" points="592.48,-58.52 589,-48.51 585.48,-58.51 592.48,-58.52"/>
</g>
<!-- n6&#45;&gt;n17 -->
<g id="edge19" class="edge">
<title>n6&#45;&gt;n17</title>
<path fill="none" stroke="#9933cc" d="M621.04,-161.38C627.73,-161.38 634.42,-161.38 641.11,-161.38"/>
<polygon fill="#9933cc" stroke="#9933cc" points="621.07,-160.33 618.07,-161.38 621.07,-162.43 621.07,-160.33"/>
<polygon fill="#9933cc" stroke="#9933cc" points="640.76,-162.43 643.76,-161.38 640.76,-160.33 640.76,-162.43"/>
</g>
<!-- n18 -->
<g id="node19" class="node">
<title>n18</title>
<polygon fill="#f8f8f8" stroke="black" points="788.25,-179.38 731.75,-179.38 731.75,-143.38 788.25,-143.38 788.25,-179.38"/>
<text xml:space="preserve" text-anchor="start" x="739.75" y="-163.53" font-family="Courier New" font-size="8.00">=*= | +&#45;+</text>
<text xml:space="preserve" text-anchor="start" x="739.75" y="-153.78" font-family="Courier New" font-size="8.00">* &#160;&#160;| &#45; &#160;</text>
</g>
<!-- n6&#45;&gt;n18 -->
<g id="edge17" class="edge">
<title>n6&#45;&gt;n18</title>
<path fill="none" stroke="red" d="M603.59,-193.75C613.23,-209.83 627.26,-227.72 645.5,-236.75 668.2,-247.99 679.8,-247.99 702.5,-236.75 724.72,-225.75 740.69,-201.61 750.08,-183.59"/>
<polygon fill="red" stroke="red" points="604.66,-193.5 602.24,-191.44 602.85,-194.56 604.66,-193.5"/>
<polygon fill="red" stroke="red" points="750.99,-184.12 751.42,-180.97 749.12,-183.17 750.99,-184.12"/>
</g>
<!-- n7 -->
<g id="node8" class="node">
<title>n7</title>
<polygon fill="#e6f3ff" stroke="black" points="438,-47 384,-47 384,0 438,0 438,-47"/>
<text xml:space="preserve" text-anchor="start" x="393" y="-35.4" font-family="Courier New" font-size="8.00">&#45;+&#45;+</text>
<text xml:space="preserve" text-anchor="start" x="393" y="-25.65" font-family="Courier New" font-size="8.00">═════</text>
<text xml:space="preserve" text-anchor="start" x="393" y="-15.9" font-family="Courier New" font-size="8.00">(2,2)</text>
<text xml:space="preserve" text-anchor="start" x="393" y="-6.15" font-family="Courier New" font-size="8.00">rd| &#160;ε=0</text>
</g>
<!-- n8&#45;&gt;n7 -->
<g id="edge7" class="edge">
<title>n8&#45;&gt;n7:n</title>
<path fill="none" stroke="blue" d="M415.35,-132.91C413.62,-112.84 411.59,-84.61 411.11,-58.19"/>
<polygon fill="blue" stroke="blue" points="414.61,-58.48 411.01,-48.51 407.61,-58.55 414.61,-58.48"/>
</g>
<!-- n21 -->
<g id="node22" class="node">
<title>n21</title>
<polygon fill="#f8f8f8" stroke="black" points="279,-179.38 225,-179.38 225,-143.38 279,-143.38 279,-179.38"/>
<text xml:space="preserve" text-anchor="start" x="245.25" y="-163.53" font-family="Courier New" font-size="8.00">*=*</text>
<text xml:space="preserve" text-anchor="start" x="245.25" y="-153.78" font-family="Courier New" font-size="8.00">* &#160;</text>
</g>
<!-- n8&#45;&gt;n21 -->
<g id="edge28" class="edge">
<title>n8&#45;&gt;n21</title>
<path fill="none" stroke="red" d="M403.21,-193.71C393.99,-209.79 380.43,-227.68 362.5,-236.75 341.08,-247.58 329.96,-247.49 308.5,-236.75 286.47,-225.73 270.81,-201.59 261.64,-183.58"/>
<polygon fill="red" stroke="red" points="403.95,-194.55 404.5,-191.42 402.12,-193.53 403.95,-194.55"/>
<polygon fill="red" stroke="red" points="262.62,-183.18 260.35,-180.96 260.74,-184.12 262.62,-183.18"/>
</g>
<!-- n22 -->
<g id="node23" class="node">
<title>n22</title>
<polygon fill="#f8f8f8" stroke="black" points="362,-179.38 308,-179.38 308,-143.38 362,-143.38 362,-179.38"/>
<text xml:space="preserve" text-anchor="start" x="328.25" y="-163.53" font-family="Courier New" font-size="8.00">+&#45;+</text>
<text xml:space="preserve" text-anchor="start" x="328.25" y="-153.78" font-family="Courier New" font-size="8.00">* &#160;</text>
</g>
<!-- n8&#45;&gt;n22 -->
<g id="edge29" class="edge">
<title>n8&#45;&gt;n22</title>
<path fill="none" stroke="#9933cc" d="M386.07,-161.38C379.6,-161.38 373.13,-161.38 366.66,-161.38"/>
<polygon fill="#9933cc" stroke="#9933cc" points="386.04,-162.43 389.04,-161.38 386.04,-160.33 386.04,-162.43"/>
<polygon fill="#9933cc" stroke="#9933cc" points="366.75,-160.33 363.75,-161.38 366.75,-162.43 366.75,-160.33"/>
</g>
<!-- n9 -->
<g id="node10" class="node">
<title>n9</title>
<polygon fill="#e6f3ff" stroke="black" points="871,-47 817,-47 817,0 871,0 871,-47"/>
<text xml:space="preserve" text-anchor="start" x="826" y="-35.4" font-family="Courier New" font-size="8.00">*=*=</text>
<text xml:space="preserve" text-anchor="start" x="826" y="-25.65" font-family="Courier New" font-size="8.00">═════</text>
<text xml:space="preserve" text-anchor="start" x="826" y="-15.9" font-family="Courier New" font-size="8.00">(2,2)</text>
<text xml:space="preserve" text-anchor="start" x="826" y="-6.15" font-family="Courier New" font-size="8.00">cc| &#160;ε=0</text>
</g>
<!-- n10 -->
<g id="node11" class="node">
<title>n10</title>
<polygon fill="#fff3e6" stroke="black" points="871,-189.75 817,-189.75 817,-133 871,-133 871,-189.75"/>
<text xml:space="preserve" text-anchor="start" x="826" y="-178.15" font-family="Courier New" font-size="8.00">=*=</text>
<text xml:space="preserve" text-anchor="start" x="826" y="-168.4" font-family="Courier New" font-size="8.00">+ &#160;</text>
<text xml:space="preserve" text-anchor="start" x="826" y="-158.65" font-family="Courier New" font-size="8.00">═════</text>
<text xml:space="preserve" text-anchor="start" x="826" y="-148.9" font-family="Courier New" font-size="8.00">(2,2)</text>
<text xml:space="preserve" text-anchor="start" x="826" y="-139.15" font-family="Courier New" font-size="8.00">cc| &#160;ε=1</text>
</g>
<!-- n10&#45;&gt;n9 -->
<g id="edge9" class="edge">
<title>n10&#45;&gt;n9:n</title>
<path fill="none" stroke="blue" d="M844,-132.88C844,-112.79 844,-84.56 844,-58.17"/>
<polygon fill="blue" stroke="blue" points="847.5,-58.51 844,-48.51 840.5,-58.51 847.5,-58.51"/>
</g>
<!-- n11 -->
<g id="node12" class="node">
<title>n11</title>
<polygon fill="#e6f3ff" stroke="black" points="699,-322.75 645,-322.75 645,-275.75 699,-275.75 699,-322.75"/>
<text xml:space="preserve" text-anchor="start" x="656.25" y="-311.15" font-family="Courier New" font-size="8.00">*=</text>
<text xml:space="preserve" text-anchor="start" x="656.25" y="-301.4" font-family="Courier New" font-size="8.00">═════</text>
<text xml:space="preserve" text-anchor="start" x="656.25" y="-291.65" font-family="Courier New" font-size="8.00">(1,1)</text>
<text xml:space="preserve" text-anchor="start" x="656.25" y="-281.9" font-family="Courier New" font-size="8.00">c| &#160;ε=0</text>
</g>
<!-- n11&#45;&gt;n10 -->
<g id="edge10" class="edge">
<title>n11&#45;&gt;n10:n</title>
<path fill="none" stroke="blue" d="M699.25,-294.06C744.91,-285.42 832.89,-261.25 843.04,-202.19"/>
<polygon fill="blue" stroke="blue" points="846.52,-202.52 843.87,-192.26 839.55,-201.93 846.52,-202.52"/>
</g>
<!-- n12&#45;&gt;n11 -->
<g id="edge11" class="edge">
<title>n12&#45;&gt;n11:n</title>
<path fill="none" stroke="blue" d="M457.05,-411.17C461.83,-407.4 466.92,-403.77 472,-400.75 550.51,-354.12 661.93,-412.69 671.36,-334.18"/>
<polygon fill="blue" stroke="blue" points="674.85,-334.44 671.92,-324.26 667.86,-334.05 674.85,-334.44"/>
</g>
<!-- n12&#45;&gt;n20 -->
<g id="edge37" class="edge">
<title>n12&#45;&gt;n20</title>
<path fill="none" stroke="red" d="M445.19,-469.48C454.62,-485.56 468.41,-503.45 486.5,-512.5 507.96,-523.24 519.08,-523.33 540.5,-512.5 562.34,-501.46 577.69,-477.32 586.63,-459.32"/>
<polygon fill="red" stroke="red" points="446.27,-469.26 443.87,-467.18 444.45,-470.31 446.27,-469.26"/>
<polygon fill="red" stroke="red" points="587.53,-459.87 587.89,-456.71 585.64,-458.95 587.53,-459.87"/>
</g>
<!-- n13 -->
<g id="node14" class="node">
<title>n13</title>
<polygon fill="#e6f3ff" stroke="black" points="202,-47 148,-47 148,0 202,0 202,-47"/>
<text xml:space="preserve" text-anchor="start" x="157" y="-35.4" font-family="Courier New" font-size="8.00">=*=*</text>
<text xml:space="preserve" text-anchor="start" x="157" y="-25.65" font-family="Courier New" font-size="8.00">═════</text>
<text xml:space="preserve" text-anchor="start" x="157" y="-15.9" font-family="Courier New" font-size="8.00">(2,2)</text>
<text xml:space="preserve" text-anchor="start" x="157" y="-6.15" font-family="Courier New" font-size="8.00">rc| &#160;ε=0</text>
</g>
<!-- n14 -->
<g id="node15" class="node">
<title>n14</title>
<polygon fill="#fff3e6" stroke="black" points="196,-189.75 142,-189.75 142,-133 196,-133 196,-189.75"/>
<text xml:space="preserve" text-anchor="start" x="151" y="-178.15" font-family="Courier New" font-size="8.00">*=*</text>
<text xml:space="preserve" text-anchor="start" x="151" y="-168.4" font-family="Courier New" font-size="8.00">+ &#160;</text>
<text xml:space="preserve" text-anchor="start" x="151" y="-158.65" font-family="Courier New" font-size="8.00">═════</text>
<text xml:space="preserve" text-anchor="start" x="151" y="-148.9" font-family="Courier New" font-size="8.00">(3,1)</text>
<text xml:space="preserve" text-anchor="start" x="151" y="-139.15" font-family="Courier New" font-size="8.00">rc| &#160;ε=1</text>
</g>
<!-- n14&#45;&gt;n8 -->
<g id="edge26" class="edge">
<title>n14&#45;&gt;n8</title>
<path fill="none" stroke="green" d="M184.19,-193.73C193.62,-209.81 207.41,-227.7 225.5,-236.75 279.96,-263.99 308.16,-264.22 362.5,-236.75 380.43,-227.68 393.99,-209.79 403.21,-193.71"/>
<polygon fill="green" stroke="green" points="185.27,-193.51 182.87,-191.43 183.45,-194.56 185.27,-193.51"/>
<polygon fill="green" stroke="green" points="403.95,-194.55 404.5,-191.42 402.12,-193.53 403.95,-194.55"/>
</g>
<!-- n14&#45;&gt;n13 -->
<g id="edge13" class="edge">
<title>n14&#45;&gt;n13:n</title>
<path fill="none" stroke="blue" d="M171.27,-132.9C172.76,-112.83 174.5,-84.6 174.91,-58.18"/>
<polygon fill="blue" stroke="blue" points="178.41,-58.54 174.99,-48.51 171.41,-58.48 178.41,-58.54"/>
</g>
<!-- n14&#45;&gt;n21 -->
<g id="edge27" class="edge">
<title>n14&#45;&gt;n21</title>
<path fill="none" stroke="#9933cc" d="M200.66,-161.38C207.13,-161.38 213.6,-161.38 220.07,-161.38"/>
<polygon fill="#9933cc" stroke="#9933cc" points="200.75,-160.33 197.75,-161.38 200.75,-162.43 200.75,-160.33"/>
<polygon fill="#9933cc" stroke="#9933cc" points="220.04,-162.43 223.04,-161.38 220.04,-160.33 220.04,-162.43"/>
</g>
<!-- n14&#45;&gt;n22 -->
<g id="edge25" class="edge">
<title>n14&#45;&gt;n22</title>
<path fill="none" stroke="red" d="M184.19,-193.73C193.62,-209.81 207.41,-227.7 225.5,-236.75 246.96,-247.49 258.08,-247.58 279.5,-236.75 301.34,-225.71 316.69,-201.57 325.63,-183.57"/>
<polygon fill="red" stroke="red" points="185.27,-193.51 182.87,-191.43 183.45,-194.56 185.27,-193.51"/>
<polygon fill="red" stroke="red" points="326.53,-184.12 326.89,-180.96 324.64,-183.2 326.53,-184.12"/>
</g>
<!-- n15 -->
<g id="node16" class="node">
<title>n15</title>
<polygon fill="#e6f3ff" stroke="black" points="202,-322.75 148,-322.75 148,-275.75 202,-275.75 202,-322.75"/>
<text xml:space="preserve" text-anchor="start" x="159.25" y="-311.15" font-family="Courier New" font-size="8.00">=*</text>
<text xml:space="preserve" text-anchor="start" x="159.25" y="-301.4" font-family="Courier New" font-size="8.00">═════</text>
<text xml:space="preserve" text-anchor="start" x="159.25" y="-291.65" font-family="Courier New" font-size="8.00">(1,1)</text>
<text xml:space="preserve" text-anchor="start" x="159.25" y="-281.9" font-family="Courier New" font-size="8.00">r| &#160;ε=0</text>
</g>
<!-- n15&#45;&gt;n14 -->
<g id="edge14" class="edge">
<title>n15&#45;&gt;n14:n</title>
<path fill="none" stroke="blue" d="M173,-275.62C171.47,-256.6 169.56,-228.35 169.1,-201.93"/>
<polygon fill="blue" stroke="blue" points="172.6,-202.23 169.01,-192.26 165.6,-202.29 172.6,-202.23"/>
</g>
<!-- n16&#45;&gt;n15 -->
<g id="edge15" class="edge">
<title>n16&#45;&gt;n15:n</title>
<path fill="none" stroke="blue" d="M178.73,-408.65C177.24,-388.58 175.5,-360.35 175.09,-333.93"/>
<polygon fill="blue" stroke="blue" points="178.59,-334.23 175.01,-324.26 171.59,-334.29 178.59,-334.23"/>
</g>
<!-- n24 -->
<g id="node25" class="node">
<title>n24</title>
<polygon fill="#f8f8f8" stroke="black" points="291,-455.12 237,-455.12 237,-419.12 291,-419.12 291,-455.12"/>
<text xml:space="preserve" text-anchor="start" x="261.75" y="-439.27" font-family="Courier New" font-size="8.00">*</text>
<text xml:space="preserve" text-anchor="start" x="261.75" y="-429.52" font-family="Courier New" font-size="8.00">*</text>
</g>
<!-- n16&#45;&gt;n24 -->
<g id="edge20" class="edge">
<title>n16&#45;&gt;n24</title>
<path fill="none" stroke="red" d="M212.4,-417.1C219.56,-415.32 226.72,-415.43 233.88,-417.44"/>
<polygon fill="red" stroke="red" points="212.25,-416.05 209.68,-417.92 212.86,-418.06 212.25,-416.05"/>
<polygon fill="red" stroke="red" points="233.24,-418.34 236.42,-418.28 233.9,-416.35 233.24,-418.34"/>
</g>
<!-- n16&#45;&gt;n24 -->
<g id="edge21" class="edge">
<title>n16&#45;&gt;n24</title>
<path fill="none" stroke="#9933cc" d="M212.4,-457.15C219.56,-458.93 226.72,-458.82 233.88,-456.81"/>
<polygon fill="#9933cc" stroke="#9933cc" points="212.86,-456.19 209.68,-456.33 212.25,-458.2 212.86,-456.19"/>
<polygon fill="#9933cc" stroke="#9933cc" points="233.9,-457.9 236.42,-455.97 233.24,-455.91 233.9,-457.9"/>
</g>
<!-- n18&#45;&gt;n1 -->
<g id="edge31" class="edge">
<title>n18&#45;&gt;n1</title>
<path fill="none" stroke="#9933cc" d="M750.08,-183.59C740.69,-201.61 724.72,-225.75 702.5,-236.75 645.54,-264.94 616.46,-264.94 559.5,-236.75 541.26,-227.72 527.23,-209.83 517.59,-193.75"/>
<polygon fill="#9933cc" stroke="#9933cc" points="750.99,-184.12 751.42,-180.97 749.12,-183.17 750.99,-184.12"/>
<polygon fill="#9933cc" stroke="#9933cc" points="518.66,-193.5 516.24,-191.44 516.85,-194.56 518.66,-193.5"/>
</g>
<!-- n18&#45;&gt;n17 -->
<g id="edge30" class="edge">
<title>n18&#45;&gt;n17</title>
<path fill="none" stroke="green" d="M727.11,-161.38C720.42,-161.38 713.73,-161.38 707.04,-161.38"/>
<polygon fill="green" stroke="green" points="726.76,-162.43 729.76,-161.38 726.76,-160.33 726.76,-162.43"/>
<polygon fill="green" stroke="green" points="707.07,-160.33 704.07,-161.38 707.07,-162.43 707.07,-160.33"/>
</g>
<!-- n19 -->
<g id="node20" class="node">
<title>n19</title>
<polygon fill="#f8f8f8" stroke="black" points="540,-455.12 486,-455.12 486,-419.12 540,-419.12 540,-455.12"/>
<text xml:space="preserve" text-anchor="start" x="510.75" y="-439.27" font-family="Courier New" font-size="8.00">=</text>
<text xml:space="preserve" text-anchor="start" x="510.75" y="-429.52" font-family="Courier New" font-size="8.00">*</text>
</g>
<!-- n19&#45;&gt;n3 -->
<g id="edge22" class="edge">
<title>n19&#45;&gt;n3</title>
<path fill="none" stroke="red" d="M503.63,-459.32C494.69,-477.32 479.34,-501.46 457.5,-512.5 436.08,-523.33 424.96,-523.24 403.5,-512.5 385.41,-503.45 371.62,-485.56 362.19,-469.48"/>
<polygon fill="red" stroke="red" points="504.53,-459.87 504.89,-456.71 502.64,-458.95 504.53,-459.87"/>
<polygon fill="red" stroke="red" points="363.27,-469.26 360.87,-467.18 361.45,-470.31 363.27,-469.26"/>
</g>
<!-- n19&#45;&gt;n12 -->
<g id="edge24" class="edge">
<title>n19&#45;&gt;n12</title>
<path fill="none" stroke="#9933cc" d="M481.07,-437.12C474.6,-437.12 468.13,-437.12 461.66,-437.12"/>
<polygon fill="#9933cc" stroke="#9933cc" points="481.04,-438.18 484.04,-437.13 481.04,-436.08 481.04,-438.18"/>
<polygon fill="#9933cc" stroke="#9933cc" points="461.75,-436.08 458.75,-437.13 461.75,-438.18 461.75,-436.08"/>
</g>
<!-- n19&#45;&gt;n20 -->
<g id="edge23" class="edge">
<title>n19&#45;&gt;n20</title>
<path fill="none" stroke="green" d="M544.66,-437.12C551.13,-437.12 557.6,-437.12 564.07,-437.12"/>
<polygon fill="green" stroke="green" points="544.75,-436.08 541.75,-437.13 544.75,-438.18 544.75,-436.08"/>
<polygon fill="green" stroke="green" points="564.04,-438.18 567.04,-437.13 564.04,-436.08 564.04,-438.18"/>
</g>
<!-- n21&#45;&gt;n22 -->
<g id="edge36" class="edge">
<title>n21&#45;&gt;n22</title>
<path fill="none" stroke="green" d="M283.66,-161.38C290.13,-161.38 296.6,-161.38 303.07,-161.38"/>
<polygon fill="green" stroke="green" points="283.75,-160.33 280.75,-161.38 283.75,-162.43 283.75,-160.33"/>
<polygon fill="green" stroke="green" points="303.04,-162.43 306.04,-161.38 303.04,-160.33 303.04,-162.43"/>
</g>
<!-- n23 -->
<g id="node24" class="node">
<title>n23</title>
<polygon fill="#f8f8f8" stroke="black" points="954,-179.38 900,-179.38 900,-143.38 954,-143.38 954,-179.38"/>
<text xml:space="preserve" text-anchor="start" x="920.25" y="-163.53" font-family="Courier New" font-size="8.00">&#45;+&#45;</text>
<text xml:space="preserve" text-anchor="start" x="920.25" y="-153.78" font-family="Courier New" font-size="8.00">* &#160;</text>
</g>
<!-- n23&#45;&gt;n10 -->
<g id="edge32" class="edge">
<title>n23&#45;&gt;n10</title>
<path fill="none" stroke="red" d="M896.88,-141.69C889.72,-139.68 882.56,-139.57 875.4,-141.35"/>
<polygon fill="red" stroke="red" points="896.24,-142.59 899.42,-142.53 896.9,-140.6 896.24,-142.59"/>
<polygon fill="red" stroke="red" points="875.25,-140.3 872.68,-142.17 875.86,-142.31 875.25,-140.3"/>
</g>
<!-- n23&#45;&gt;n10 -->
<g id="edge33" class="edge">
<title>n23&#45;&gt;n10</title>
<path fill="none" stroke="#9933cc" d="M896.88,-181.06C889.72,-183.07 882.56,-183.18 875.4,-181.4"/>
<polygon fill="#9933cc" stroke="#9933cc" points="896.9,-182.15 899.42,-180.22 896.24,-180.16 896.9,-182.15"/>
<polygon fill="#9933cc" stroke="#9933cc" points="875.86,-180.44 872.68,-180.58 875.25,-182.45 875.86,-180.44"/>
</g>
<!-- gp_C_0 -->
<g id="node26" class="node">
<title>gp_C_0</title>
<text xml:space="preserve" text-anchor="middle" x="27" y="-570.55" font-family="Helvetica,sans-Serif" font-size="11.00" fill="#333333">Sp(0)</text>
</g>
<!-- gp_C_0&#45;&gt;n4 -->
<!-- gp_C_1 -->
<g id="node27" class="node">
<title>gp_C_1</title>
<text xml:space="preserve" text-anchor="middle" x="27" y="-294.8" font-family="Helvetica,sans-Serif" font-size="11.00" fill="#333333">Sp(2)</text>
</g>
<!-- gp_C_0&#45;&gt;gp_C_1 -->
<!-- gp_C_1&#45;&gt;n2 -->
<!-- gp_D_1 -->
<g id="node28" class="node">
<title>gp_D_1</title>
<text xml:space="preserve" text-anchor="middle" x="98" y="-432.68" font-family="Helvetica,sans-Serif" font-size="11.00" fill="#333333">SO(2)</text>
</g>
<!-- gp_C_1&#45;&gt;gp_D_1 -->
<!-- gp_D_1&#45;&gt;n3 -->
<!-- gp_C_2 -->
<g id="node29" class="node">
<title>gp_C_2</title>
<text xml:space="preserve" text-anchor="middle" x="92" y="-19.05" font-family="Helvetica,sans-Serif" font-size="11.00" fill="#333333">Sp(4)</text>
</g>
<!-- gp_D_1&#45;&gt;gp_C_2 -->
<!-- gp_C_2&#45;&gt;n0 -->
<!-- gp_D_2 -->
<g id="node30" class="node">
<title>gp_D_2</title>
<text xml:space="preserve" text-anchor="middle" x="27" y="-156.93" font-family="Helvetica,sans-Serif" font-size="11.00" fill="#333333">SO(4)</text>
</g>
<!-- gp_C_2&#45;&gt;gp_D_2 -->
<!-- gp_D_2&#45;&gt;n1 -->
</g>
</svg>
