<?xml version="1.0" encoding="UTF-8" standalone="no"?>
<!DOCTYPE svg PUBLIC "-//W3C//DTD SVG 1.1//EN"
 "http://www.w3.org/Graphics/SVG/1.1/DTD/svg11.dtd">
<!-- Generated by graphviz version 13.1.2 (20250808.2320)
 -->
<!-- Title: Lifting Tree Pages: 1 -->
<svg width="1348pt" height="689pt"
 viewBox="0.00 0.00 1348.00 689.00" xmlns="http://www.w3.org/2000/svg" xmlns:xlink="http://www.w3.org/1999/xlink">
<g id="graph0" class="graph" transform="scale(2.08333 2.08333) rotate(0) translate(4 326.75)">
<title>Lifting Tree</title>
<polygon fill="white" stroke="none" points="-4,4 -4,-326.75 643,-326.75 643,4 -4,4"/>
<g id="clust3" class="cluster">
<title>cluster_tw_0</title>
<polygon fill="none" stroke="#999999" stroke-width="0.8" stroke-dasharray="1,5" points="478,-125 478,-197.75 631,-197.75 631,-125 478,-125"/>
</g>
<g id="clust4" class="cluster">
<title>cluster_tw_1</title>
<polygon fill="none" stroke="#999999" stroke-width="0.8" stroke-dasharray="1,5" points="146,-125 146,-197.75 465,-197.75 465,-125 146,-125"/>
</g>
<!-- n0 -->
<g id="node1" class="node">
<title>n0</title>
<polygon fill="#e6f3ff" stroke="black" points="374,-47 320,-47 320,0 374,0 374,-47"/>
<text xml:space="preserve" text-anchor="start" x="331.25" y="-35.4" font-family="Courier New" font-size="8.00">+&#45; | &#45;+</text>
<text xml:space="preserve" text-anchor="start" x="331.25" y="-25.65" font-family="Courier New" font-size="8.00">═════</text>
<text xml:space="preserve" text-anchor="start" x="331.25" y="-15.9" font-family="Courier New" font-size="8.00">(1,1)</text>
<text xml:space="preserve" text-anchor="start" x="331.25" y="-6.15" font-family="Courier New" font-size="8.00">d| &#160;ε=0</text>
</g>
<!-- n1 -->
<g id="node2" class="node">
<title>n1</title>
<polygon fill="#fff3e6" stroke="black" points="457,-189.75 403,-189.75 403,-133 457,-133 457,-189.75"/>
<text xml:space="preserve" text-anchor="start" x="414.25" y="-178.15" font-family="Courier New" font-size="8.00">&#45;</text>
<text xml:space="preserve" text-anchor="start" x="414.25" y="-168.4" font-family="Courier New" font-size="8.00">+</text>
<text xml:space="preserve" text-anchor="start" x="414.25" y="-158.65" font-family="Courier New" font-size="8.00">═════</text>
<text xml:space="preserve" text-anchor="start" x="414.25" y="-148.9" font-family="Courier New" font-size="8.00">(1,1)</text>
<text xml:space="preserve" text-anchor="start" x="414.25" y="-139.15" font-family="Courier New" font-size="8.00">d| &#160;ε=0</text>
</g>
<!-- n1&#45;&gt;n0 -->
<g id="edge1" class="edge">
<title>n1&#45;&gt;n0:n</title>
<path fill="none" stroke="blue" d="M403.74,-132.74C383.41,-110.32 357.42,-79.11 349.44,-58.07"/>
<polygon fill="blue" stroke="blue" points="352.9,-57.49 347.33,-48.48 346.06,-59 352.9,-57.49"/>
</g>
<!-- n2 -->
<g id="node3" class="node">
<title>n2</title>
<polygon fill="#e6f3ff" stroke="black" points="332,-322.75 278,-322.75 278,-275.75 332,-275.75 332,-322.75"/>
<text xml:space="preserve" text-anchor="start" x="289.25" y="-311.15" font-family="Courier New" font-size="8.00">(triv)</text>
<text xml:space="preserve" text-anchor="start" x="289.25" y="-301.4" font-family="Courier New" font-size="8.00">═════</text>
<text xml:space="preserve" text-anchor="start" x="289.25" y="-291.65" font-family="Courier New" font-size="8.00">(0,0)</text>
<text xml:space="preserve" text-anchor="start" x="289.25" y="-281.9" font-family="Courier New" font-size="8.00"> | &#160;ε=0</text>
</g>
<!-- n2&#45;&gt;n1 -->
<g id="edge2" class="edge">
<title>n2&#45;&gt;n1:n</title>
<path fill="none" stroke="blue" d="M332.43,-288.71C366.42,-275.07 420.88,-246.63 428.98,-202.1"/>
<polygon fill="blue" stroke="blue" points="432.45,-202.53 429.86,-192.26 425.48,-201.9 432.45,-202.53"/>
</g>
<!-- n4 -->
<g id="node5" class="node">
<title>n4</title>
<polygon fill="#fff3e6" stroke="black" points="208,-189.75 154,-189.75 154,-133 208,-133 208,-189.75"/>
<text xml:space="preserve" text-anchor="start" x="165.25" y="-178.15" font-family="Courier New" font-size="8.00">=</text>
<text xml:space="preserve" text-anchor="start" x="165.25" y="-168.4" font-family="Courier New" font-size="8.00">+</text>
<text xml:space="preserve" text-anchor="start" x="165.25" y="-158.65" font-family="Courier New" font-size="8.00">═════</text>
<text xml:space="preserve" text-anchor="start" x="165.25" y="-148.9" font-family="Courier New" font-size="8.00">(1,1)</text>
<text xml:space="preserve" text-anchor="start" x="165.25" y="-139.15" font-family="Courier New" font-size="8.00">c| &#160;ε=1</text>
</g>
<!-- n2&#45;&gt;n4 -->
<g id="edge4" class="edge">
<title>n2&#45;&gt;n4:n</title>
<path fill="none" stroke="blue" d="M277.79,-288.64C244.07,-274.94 190.05,-246.41 182.01,-202.05"/>
<polygon fill="blue" stroke="blue" points="185.51,-201.91 181.14,-192.26 178.54,-202.53 185.51,-201.91"/>
</g>
<!-- n6 -->
<g id="node7" class="node">
<title>n6</title>
<polygon fill="#fff3e6" stroke="black" points="540,-189.75 486,-189.75 486,-133 540,-133 540,-189.75"/>
<text xml:space="preserve" text-anchor="start" x="497.25" y="-178.15" font-family="Courier New" font-size="8.00">+</text>
<text xml:space="preserve" text-anchor="start" x="497.25" y="-168.4" font-family="Courier New" font-size="8.00">+</text>
<text xml:space="preserve" text-anchor="start" x="497.25" y="-158.65" font-family="Courier New" font-size="8.00">═════</text>
<text xml:space="preserve" text-anchor="start" x="497.25" y="-148.9" font-family="Courier New" font-size="8.00">(2,0)</text>
<text xml:space="preserve" text-anchor="start" x="497.25" y="-139.15" font-family="Courier New" font-size="8.00">r| &#160;ε=1</text>
</g>
<!-- n2&#45;&gt;n6 -->
<g id="edge6" class="edge">
<title>n2&#45;&gt;n6:n</title>
<path fill="none" stroke="blue" d="M332.19,-296.59C385.82,-291.77 501.01,-273.18 512.13,-202.11"/>
<polygon fill="blue" stroke="blue" points="515.61,-202.5 512.88,-192.26 508.63,-201.96 515.61,-202.5"/>
</g>
<!-- n3 -->
<g id="node4" class="node">
<title>n3</title>
<polygon fill="#e6f3ff" stroke="black" points="208,-47 154,-47 154,0 208,0 208,-47"/>
<text xml:space="preserve" text-anchor="start" x="165.25" y="-35.4" font-family="Courier New" font-size="8.00">*=</text>
<text xml:space="preserve" text-anchor="start" x="165.25" y="-25.65" font-family="Courier New" font-size="8.00">═════</text>
<text xml:space="preserve" text-anchor="start" x="165.25" y="-15.9" font-family="Courier New" font-size="8.00">(1,1)</text>
<text xml:space="preserve" text-anchor="start" x="165.25" y="-6.15" font-family="Courier New" font-size="8.00">c| &#160;ε=0</text>
</g>
<!-- n4&#45;&gt;n1 -->
<g id="edge10" class="edge">
<title>n4&#45;&gt;n1</title>
<path fill="none" stroke="green" d="M196.19,-193.73C205.62,-209.81 219.41,-227.7 237.5,-236.75 291.96,-263.99 320.16,-264.22 374.5,-236.75 392.43,-227.68 405.99,-209.79 415.21,-193.71"/>
<polygon fill="green" stroke="green" points="197.27,-193.51 194.87,-191.43 195.45,-194.56 197.27,-193.51"/>
<polygon fill="green" stroke="green" points="415.95,-194.55 416.5,-191.42 414.12,-193.53 415.95,-194.55"/>
</g>
<!-- n4&#45;&gt;n3 -->
<g id="edge3" class="edge">
<title>n4&#45;&gt;n3:n</title>
<path fill="none" stroke="blue" d="M181,-132.88C181,-112.79 181,-84.56 181,-58.17"/>
<polygon fill="blue" stroke="blue" points="184.5,-58.51 181,-48.51 177.5,-58.51 184.5,-58.51"/>
</g>
<!-- n7 -->
<g id="node8" class="node">
<title>n7</title>
<polygon fill="#f8f8f8" stroke="black" points="291,-179.38 237,-179.38 237,-143.38 291,-143.38 291,-179.38"/>
<text xml:space="preserve" text-anchor="start" x="261.75" y="-163.53" font-family="Courier New" font-size="8.00">=</text>
<text xml:space="preserve" text-anchor="start" x="261.75" y="-153.78" font-family="Courier New" font-size="8.00">*</text>
</g>
<!-- n4&#45;&gt;n7 -->
<g id="edge11" class="edge">
<title>n4&#45;&gt;n7</title>
<path fill="none" stroke="#9933cc" d="M212.66,-161.38C219.13,-161.38 225.6,-161.38 232.07,-161.38"/>
<polygon fill="#9933cc" stroke="#9933cc" points="212.75,-160.33 209.75,-161.38 212.75,-162.43 212.75,-160.33"/>
<polygon fill="#9933cc" stroke="#9933cc" points="232.04,-162.43 235.04,-161.38 232.04,-160.33 232.04,-162.43"/>
</g>
<!-- n8 -->
<g id="node9" class="node">
<title>n8</title>
<polygon fill="#f8f8f8" stroke="black" points="374,-179.38 320,-179.38 320,-143.38 374,-143.38 374,-179.38"/>
<text xml:space="preserve" text-anchor="start" x="344.75" y="-163.53" font-family="Courier New" font-size="8.00">&#45;</text>
<text xml:space="preserve" text-anchor="start" x="344.75" y="-153.78" font-family="Courier New" font-size="8.00">*</text>
</g>
<!-- n4&#45;&gt;n8 -->
<g id="edge9" class="edge">
<title>n4&#45;&gt;n8</title>
<path fill="none" stroke="red" d="M196.19,-193.73C205.62,-209.81 219.41,-227.7 237.5,-236.75 258.96,-247.49 270.08,-247.58 291.5,-236.75 313.34,-225.71 328.69,-201.57 337.63,-183.57"/>
<polygon fill="red" stroke="red" points="197.27,-193.51 194.87,-191.43 195.45,-194.56 197.27,-193.51"/>
<polygon fill="red" stroke="red" points="338.53,-184.12 338.89,-180.96 336.64,-183.2 338.53,-184.12"/>
</g>
<!-- n5 -->
<g id="node6" class="node">
<title>n5</title>
<polygon fill="#e6f3ff" stroke="black" points="540,-47 486,-47 486,0 540,0 540,-47"/>
<text xml:space="preserve" text-anchor="start" x="497.25" y="-35.4" font-family="Courier New" font-size="8.00">=*</text>
<text xml:space="preserve" text-anchor="start" x="497.25" y="-25.65" font-family="Courier New" font-size="8.00">═════</text>
<text xml:space="preserve" text-anchor="start" x="497.25" y="-15.9" font-family="Courier New" font-size="8.00">(1,1)</text>
<text xml:space="preserve" text-anchor="start" x="497.25" y="-6.15" font-family="Courier New" font-size="8.00">r| &#160;ε=0</text>
</g>
<!-- n6&#45;&gt;n5 -->
<g id="edge5" class="edge">
<title>n6&#45;&gt;n5:n</title>
<path fill="none" stroke="blue" d="M513,-132.88C513,-112.79 513,-84.56 513,-58.17"/>
<polygon fill="blue" stroke="blue" points="516.5,-58.51 513,-48.51 509.5,-58.51 516.5,-58.51"/>
</g>
<!-- n9 -->
<g id="node10" class="node">
<title>n9</title>
<polygon fill="#f8f8f8" stroke="black" points="623,-179.38 569,-179.38 569,-143.38 623,-143.38 623,-179.38"/>
<text xml:space="preserve" text-anchor="start" x="593.75" y="-163.53" font-family="Courier New" font-size="8.00">*</text>
<text xml:space="preserve" text-anchor="start" x="593.75" y="-153.78" font-family="Courier New" font-size="8.00">*</text>
</g>
<!-- n6&#45;&gt;n9 -->
<g id="edge7" class="edge">
<title>n6&#45;&gt;n9</title>
<path fill="none" stroke="red" d="M544.4,-141.35C551.56,-139.57 558.72,-139.68 565.88,-141.69"/>
<polygon fill="red" stroke="red" points="544.25,-140.3 541.68,-142.17 544.86,-142.31 544.25,-140.3"/>
<polygon fill="red" stroke="red" points="565.24,-142.59 568.42,-142.53 565.9,-140.6 565.24,-142.59"/>
</g>
<!-- n6&#45;&gt;n9 -->
<g id="edge8" class="edge">
<title>n6&#45;&gt;n9</title>
<path fill="none" stroke="#9933cc" d="M544.4,-181.4C551.56,-183.18 558.72,-183.07 565.88,-181.06"/>
<polygon fill="#9933cc" stroke="#9933cc" points="544.86,-180.44 541.68,-180.58 544.25,-182.45 544.86,-180.44"/>
<polygon fill="#9933cc" stroke="#9933cc" points="565.9,-182.15 568.42,-180.22 565.24,-180.16 565.9,-182.15"/>
</g>
<!-- n7&#45;&gt;n1 -->
<g id="edge12" class="edge">
<title>n7&#45;&gt;n1</title>
<path fill="none" stroke="red" d="M273.64,-183.58C282.81,-201.59 298.47,-225.73 320.5,-236.75 341.96,-247.49 353.08,-247.58 374.5,-236.75 392.43,-227.68 405.99,-209.79 415.21,-193.71"/>
<polygon fill="red" stroke="red" points="274.62,-183.18 272.35,-180.96 272.74,-184.12 274.62,-183.18"/>
<polygon fill="red" stroke="red" points="415.95,-194.55 416.5,-191.42 414.12,-193.53 415.95,-194.55"/>
</g>
<!-- n7&#45;&gt;n8 -->
<g id="edge13" class="edge">
<title>n7&#45;&gt;n8</title>
<path fill="none" stroke="green" d="M295.66,-161.38C302.13,-161.38 308.6,-161.38 315.07,-161.38"/>
<polygon fill="green" stroke="green" points="295.75,-160.33 292.75,-161.38 295.75,-162.43 295.75,-160.33"/>
<polygon fill="green" stroke="green" points="315.04,-162.43 318.04,-161.38 315.04,-160.33 315.04,-162.43"/>
</g>
<!-- n8&#45;&gt;n1 -->
<g id="edge14" class="edge">
<title>n8&#45;&gt;n1</title>
<path fill="none" stroke="#9933cc" d="M378.66,-161.38C385.13,-161.38 391.6,-161.38 398.07,-161.38"/>
<polygon fill="#9933cc" stroke="#9933cc" points="378.75,-160.33 375.75,-161.38 378.75,-162.43 378.75,-160.33"/>
<polygon fill="#9933cc" stroke="#9933cc" points="398.04,-162.43 401.04,-161.38 398.04,-160.33 398.04,-162.43"/>
</g>
<!-- gp_C_0 -->
<g id="node11" class="node">
<title>gp_C_0</title>
<text xml:space="preserve" text-anchor="middle" x="27" y="-294.8" font-family="Helvetica,sans-Serif" font-size="11.00" fill="#333333">Sp(0)</text>
</g>
<!-- gp_C_0&#45;&gt;n2 -->
<!-- gp_C_1 -->
<g id="node12" class="node">
<title>gp_C_1</title>
<text xml:space="preserve" text-anchor="middle" x="98" y="-19.05" font-family="Helvetica,sans-Serif" font-size="11.00" fill="#333333">Sp(2)</text>
</g>
<!-- gp_C_0&#45;&gt;gp_C_1 -->
<!-- gp_C_1&#45;&gt;n0 -->
<!-- gp_D_1 -->
<g id="node13" class="node">
<title>gp_D_1</title>
<text xml:space="preserve" text-anchor="middle" x="98" y="-156.93" font-family="Helvetica,sans-Serif" font-size="11.00" fill="#333333">SO(2)</text>
</g>
<!-- gp_C_1&#45;&gt;gp_D_1 -->
<!-- gp_D_1&#45;&gt;n1 -->
</g>
</svg>
