<?xml version="1.0" encoding="UTF-8" standalone="no"?>
<!DOCTYPE svg PUBLIC "-//W3C//DTD SVG 1.1//EN"
 "http://www.w3.org/Graphics/SVG/1.1/DTD/svg11.dtd">
<!-- Generated by graphviz version 13.1.2 (20250808.2320)
 -->
<!-- Title: Extended PBP Tree Pages: 1 -->
<svg width="748pt" height="483pt"
 viewBox="0.00 0.00 748.00 483.00" xmlns="http://www.w3.org/2000/svg" xmlns:xlink="http://www.w3.org/1999/xlink">
<g id="graph0" class="graph" transform="scale(2.08333 2.08333) rotate(0) translate(4 228)">
<title>Extended PBP Tree</title>
<polygon fill="white" stroke="none" points="-4,4 -4,-228 355.25,-228 355.25,4 -4,4"/>
<!-- e0 -->
<g id="node1" class="node">
<title>e0</title>
<polygon fill="#e6f3ff" stroke="black" points="193.25,-36 136.75,-36 136.75,0 193.25,0 193.25,-36"/>
<text xml:space="preserve" text-anchor="start" x="144.75" y="-20.15" font-family="Courier New" font-size="8.00">(1,1) ε=0</text>
<text xml:space="preserve" text-anchor="start" x="144.75" y="-10.4" font-family="Courier New" font-size="8.00">d|</text>
</g>
<!-- e1 -->
<g id="node2" class="node">
<title>e1</title>
<polygon fill="#fff3e6" stroke="black" points="193.25,-130 136.75,-130 136.75,-94 193.25,-94 193.25,-130"/>
<text xml:space="preserve" text-anchor="start" x="144.75" y="-114.15" font-family="Courier New" font-size="8.00">(1,1) ε=0</text>
<text xml:space="preserve" text-anchor="start" x="144.75" y="-104.4" font-family="Courier New" font-size="8.00">d|</text>
</g>
<!-- e1&#45;&gt;e0 -->
<g id="edge1" class="edge">
<title>e1&#45;&gt;e0</title>
<path fill="none" stroke="blue" d="M165,-93.7C165,-80.72 165,-62.66 165,-47.56"/>
<polygon fill="blue" stroke="blue" points="168.5,-47.74 165,-37.74 161.5,-47.74 168.5,-47.74"/>
</g>
<!-- e2 -->
<g id="node3" class="node">
<title>e2</title>
<polygon fill="#e6f3ff" stroke="black" points="232.25,-224 175.75,-224 175.75,-188 232.25,-188 232.25,-224"/>
<text xml:space="preserve" text-anchor="start" x="183.75" y="-207.78" font-family="Courier New" font-size="8.00">(0,0) ε=0</text>
</g>
<!-- e2&#45;&gt;e1 -->
<g id="edge2" class="edge">
<title>e2&#45;&gt;e1</title>
<path fill="none" stroke="blue" d="M196.66,-187.7C191.05,-174.46 183.21,-155.95 176.73,-140.66"/>
<polygon fill="blue" stroke="blue" points="180.02,-139.46 172.89,-131.62 173.57,-142.19 180.02,-139.46"/>
</g>
<!-- e4 -->
<g id="node5" class="node">
<title>e4</title>
<polygon fill="#fff3e6" stroke="black" points="272.25,-130 215.75,-130 215.75,-94 272.25,-94 272.25,-130"/>
<text xml:space="preserve" text-anchor="start" x="223.75" y="-114.15" font-family="Courier New" font-size="8.00">(1,1) ε=1</text>
<text xml:space="preserve" text-anchor="start" x="223.75" y="-104.4" font-family="Courier New" font-size="8.00">c|</text>
</g>
<!-- e2&#45;&gt;e4 -->
<g id="edge4" class="edge">
<title>e2&#45;&gt;e4</title>
<path fill="none" stroke="blue" d="M211.52,-187.7C217.28,-174.46 225.33,-155.95 231.97,-140.66"/>
<polygon fill="blue" stroke="blue" points="235.13,-142.18 235.91,-131.61 228.71,-139.39 235.13,-142.18"/>
</g>
<!-- e6 -->
<g id="node7" class="node">
<title>e6</title>
<polygon fill="#fff3e6" stroke="black" points="351.25,-130 294.75,-130 294.75,-94 351.25,-94 351.25,-130"/>
<text xml:space="preserve" text-anchor="start" x="302.75" y="-114.15" font-family="Courier New" font-size="8.00">(2,0) ε=1</text>
<text xml:space="preserve" text-anchor="start" x="302.75" y="-104.4" font-family="Courier New" font-size="8.00">r|</text>
</g>
<!-- e2&#45;&gt;e6 -->
<g id="edge6" class="edge">
<title>e2&#45;&gt;e6</title>
<path fill="none" stroke="blue" d="M226.38,-187.7C244.83,-173.43 271.21,-153.04 291.74,-137.16"/>
<polygon fill="blue" stroke="blue" points="293.75,-140.04 299.52,-131.15 289.47,-134.5 293.75,-140.04"/>
</g>
<!-- e3 -->
<g id="node4" class="node">
<title>e3</title>
<polygon fill="#e6f3ff" stroke="black" points="272.25,-36 215.75,-36 215.75,0 272.25,0 272.25,-36"/>
<text xml:space="preserve" text-anchor="start" x="223.75" y="-20.15" font-family="Courier New" font-size="8.00">(1,1) ε=0</text>
<text xml:space="preserve" text-anchor="start" x="223.75" y="-10.4" font-family="Courier New" font-size="8.00">c|</text>
</g>
<!-- e4&#45;&gt;e3 -->
<g id="edge3" class="edge">
<title>e4&#45;&gt;e3</title>
<path fill="none" stroke="blue" d="M244,-93.7C244,-80.72 244,-62.66 244,-47.56"/>
<polygon fill="blue" stroke="blue" points="247.5,-47.74 244,-37.74 240.5,-47.74 247.5,-47.74"/>
</g>
<!-- e5 -->
<g id="node6" class="node">
<title>e5</title>
<polygon fill="#e6f3ff" stroke="black" points="351.25,-36 294.75,-36 294.75,0 351.25,0 351.25,-36"/>
<text xml:space="preserve" text-anchor="start" x="302.75" y="-20.15" font-family="Courier New" font-size="8.00">(1,1) ε=0</text>
<text xml:space="preserve" text-anchor="start" x="302.75" y="-10.4" font-family="Courier New" font-size="8.00">r|</text>
</g>
<!-- e6&#45;&gt;e5 -->
<g id="edge5" class="edge">
<title>e6&#45;&gt;e5</title>
<path fill="none" stroke="blue" d="M323,-93.7C323,-80.72 323,-62.66 323,-47.56"/>
<polygon fill="blue" stroke="blue" points="326.5,-47.74 323,-37.74 319.5,-47.74 326.5,-47.74"/>
</g>
<!-- gp_C_0 -->
<g id="node8" class="node">
<title>gp_C_0</title>
<text xml:space="preserve" text-anchor="middle" x="27" y="-201.55" font-family="Helvetica,sans-Serif" font-size="11.00" fill="#333333">Sp(0)</text>
</g>
<!-- gp_C_0&#45;&gt;e2 -->
<!-- gp_C_1 -->
<g id="node9" class="node">
<title>gp_C_1</title>
<text xml:space="preserve" text-anchor="middle" x="88" y="-13.55" font-family="Helvetica,sans-Serif" font-size="11.00" fill="#333333">Sp(2)</text>
</g>
<!-- gp_C_0&#45;&gt;gp_C_1 -->
<!-- gp_C_1&#45;&gt;e0 -->
<!-- gp_D_1 -->
<g id="node10" class="node">
<title>gp_D_1</title>
<text xml:space="preserve" text-anchor="middle" x="88" y="-107.55" font-family="Helvetica,sans-Serif" font-size="11.00" fill="#333333">SO(2)</text>
</g>
<!-- gp_C_1&#45;&gt;gp_D_1 -->
<!-- gp_D_1&#45;&gt;e1 -->
</g>
</svg>
