<?xml version="1.0" encoding="UTF-8" standalone="no"?>
<!DOCTYPE svg PUBLIC "-//W3C//DTD SVG 1.1//EN"
 "http://www.w3.org/Graphics/SVG/1.1/DTD/svg11.dtd">
<!-- Generated by graphviz version 13.1.2 (20250808.2320)
 -->
<!-- Title: Extended PBP Tree Pages: 1 -->
<svg width="3196pt" height="489pt"
 viewBox="0.00 0.00 3196.00 489.00" xmlns="http://www.w3.org/2000/svg" xmlns:xlink="http://www.w3.org/1999/xlink">
<g id="graph0" class="graph" transform="scale(2.08333 2.08333) rotate(0) translate(4 230.5)">
<title>Extended PBP Tree</title>
<polygon fill="white" stroke="none" points="-4,4 -4,-230.5 1530.25,-230.5 1530.25,4 -4,4"/>
<!-- e0 -->
<g id="node1" class="node">
<title>e0</title>
<polygon fill="#e6f3ff" stroke="black" points="1236.25,-37.25 1179.75,-37.25 1179.75,0 1236.25,0 1236.25,-37.25"/>
<text xml:space="preserve" text-anchor="start" x="1187.75" y="-25.65" font-family="Courier New" font-size="8.00">(4,4) ε=0</text>
<text xml:space="preserve" text-anchor="start" x="1187.75" y="-15.9" font-family="Courier New" font-size="8.00">c|s</text>
<text xml:space="preserve" text-anchor="start" x="1187.75" y="-6.15" font-family="Courier New" font-size="8.00">d|s</text>
</g>
<!-- e1 -->
<g id="node2" class="node">
<title>e1</title>
<polygon fill="#fff3e6" stroke="black" points="1184.25,-132.5 1127.75,-132.5 1127.75,-95.25 1184.25,-95.25 1184.25,-132.5"/>
<text xml:space="preserve" text-anchor="start" x="1135.75" y="-120.9" font-family="Courier New" font-size="8.00">(2,2) ε=0</text>
<text xml:space="preserve" text-anchor="start" x="1135.75" y="-111.15" font-family="Courier New" font-size="8.00">c|</text>
<text xml:space="preserve" text-anchor="start" x="1135.75" y="-101.4" font-family="Courier New" font-size="8.00">d|</text>
</g>
<!-- e1&#45;&gt;e0 -->
<g id="edge1" class="edge">
<title>e1&#45;&gt;e0</title>
<path fill="none" stroke="blue" d="M1166.03,-94.9C1173.51,-81.48 1183.87,-62.9 1192.43,-47.55"/>
<polygon fill="blue" stroke="blue" points="1195.45,-49.31 1197.27,-38.87 1189.34,-45.9 1195.45,-49.31"/>
</g>
<!-- e3 -->
<g id="node4" class="node">
<title>e3</title>
<polygon fill="#e6f3ff" stroke="black" points="1342.12,-37.25 1257.88,-37.25 1257.88,0 1342.12,0 1342.12,-37.25"/>
<text xml:space="preserve" text-anchor="start" x="1265.88" y="-25.65" font-family="Courier New" font-size="8.00">(4,4) ε=1 ℘={0}</text>
<text xml:space="preserve" text-anchor="start" x="1265.88" y="-15.9" font-family="Courier New" font-size="8.00">c|s</text>
<text xml:space="preserve" text-anchor="start" x="1265.88" y="-6.15" font-family="Courier New" font-size="8.00">d|s</text>
</g>
<!-- e1&#45;&gt;e3 -->
<g id="edge3" class="edge">
<title>e1&#45;&gt;e3</title>
<path fill="none" stroke="blue" d="M1183.76,-94.9C1206.28,-80.32 1238.21,-59.64 1262.91,-43.65"/>
<polygon fill="blue" stroke="blue" points="1264.56,-46.75 1271.05,-38.37 1260.75,-40.87 1264.56,-46.75"/>
</g>
<!-- e2 -->
<g id="node3" class="node">
<title>e2</title>
<polygon fill="#e6f3ff" stroke="black" points="730.25,-226.5 673.75,-226.5 673.75,-190.5 730.25,-190.5 730.25,-226.5"/>
<text xml:space="preserve" text-anchor="start" x="681.75" y="-210.28" font-family="Courier New" font-size="8.00">(0,0) ε=0</text>
</g>
<!-- e2&#45;&gt;e1 -->
<g id="edge2" class="edge">
<title>e2&#45;&gt;e1</title>
<path fill="none" stroke="blue" d="M730.74,-201.64C809.08,-185.65 1026.45,-141.31 1116.32,-122.97"/>
<polygon fill="blue" stroke="blue" points="1116.8,-126.44 1125.9,-121.02 1115.4,-119.59 1116.8,-126.44"/>
</g>
<!-- e5 -->
<g id="node6" class="node">
<title>e5</title>
<polygon fill="#fff3e6" stroke="black" points="1434.25,-132.5 1377.75,-132.5 1377.75,-95.25 1434.25,-95.25 1434.25,-132.5"/>
<text xml:space="preserve" text-anchor="start" x="1385.75" y="-120.9" font-family="Courier New" font-size="8.00">(3,1) ε=0</text>
<text xml:space="preserve" text-anchor="start" x="1385.75" y="-111.15" font-family="Courier New" font-size="8.00">r|</text>
<text xml:space="preserve" text-anchor="start" x="1385.75" y="-101.4" font-family="Courier New" font-size="8.00">d|</text>
</g>
<!-- e2&#45;&gt;e5 -->
<g id="edge5" class="edge">
<title>e2&#45;&gt;e5</title>
<path fill="none" stroke="blue" d="M730.47,-203.75C840.6,-189.26 1238.9,-136.86 1366.43,-120.08"/>
<polygon fill="blue" stroke="blue" points="1366.6,-123.59 1376.06,-118.81 1365.69,-116.65 1366.6,-123.59"/>
</g>
<!-- e8 -->
<g id="node9" class="node">
<title>e8</title>
<polygon fill="#fff3e6" stroke="black" points="224.25,-132.5 167.75,-132.5 167.75,-95.25 224.25,-95.25 224.25,-132.5"/>
<text xml:space="preserve" text-anchor="start" x="175.75" y="-120.9" font-family="Courier New" font-size="8.00">(1,3) ε=0</text>
<text xml:space="preserve" text-anchor="start" x="175.75" y="-111.15" font-family="Courier New" font-size="8.00">s|</text>
<text xml:space="preserve" text-anchor="start" x="175.75" y="-101.4" font-family="Courier New" font-size="8.00">d|</text>
</g>
<!-- e2&#45;&gt;e8 -->
<g id="edge8" class="edge">
<title>e2&#45;&gt;e8</title>
<path fill="none" stroke="blue" d="M673.35,-202.25C587.86,-186.61 334.49,-140.23 235.89,-122.18"/>
<polygon fill="blue" stroke="blue" points="236.61,-118.75 226.14,-120.39 235.35,-125.64 236.61,-118.75"/>
</g>
<!-- e11 -->
<g id="node12" class="node">
<title>e11</title>
<polygon fill="#fff3e6" stroke="black" points="408.25,-132.5 351.75,-132.5 351.75,-95.25 408.25,-95.25 408.25,-132.5"/>
<text xml:space="preserve" text-anchor="start" x="359.75" y="-120.9" font-family="Courier New" font-size="8.00">(3,1) ε=1</text>
<text xml:space="preserve" text-anchor="start" x="359.75" y="-111.15" font-family="Courier New" font-size="8.00">r|</text>
<text xml:space="preserve" text-anchor="start" x="359.75" y="-101.4" font-family="Courier New" font-size="8.00">c|</text>
</g>
<!-- e2&#45;&gt;e11 -->
<g id="edge11" class="edge">
<title>e2&#45;&gt;e11</title>
<path fill="none" stroke="blue" d="M673.42,-199.28C615.66,-182.66 484.93,-145.06 419.23,-126.16"/>
<polygon fill="blue" stroke="blue" points="420.54,-122.9 409.97,-123.49 418.61,-129.62 420.54,-122.9"/>
</g>
<!-- e14 -->
<g id="node15" class="node">
<title>e14</title>
<polygon fill="#fff3e6" stroke="black" points="592.25,-132.5 535.75,-132.5 535.75,-95.25 592.25,-95.25 592.25,-132.5"/>
<text xml:space="preserve" text-anchor="start" x="543.75" y="-120.9" font-family="Courier New" font-size="8.00">(1,3) ε=1</text>
<text xml:space="preserve" text-anchor="start" x="543.75" y="-111.15" font-family="Courier New" font-size="8.00">s|</text>
<text xml:space="preserve" text-anchor="start" x="543.75" y="-101.4" font-family="Courier New" font-size="8.00">c|</text>
</g>
<!-- e2&#45;&gt;e14 -->
<g id="edge14" class="edge">
<title>e2&#45;&gt;e14</title>
<path fill="none" stroke="blue" d="M676.04,-190.08C654.63,-175.71 624.02,-155.16 600.2,-139.17"/>
<polygon fill="blue" stroke="blue" points="602.29,-136.36 592.04,-133.69 598.39,-142.17 602.29,-136.36"/>
</g>
<!-- e17 -->
<g id="node18" class="node">
<title>e17</title>
<polygon fill="#fff3e6" stroke="black" points="730.25,-132.5 673.75,-132.5 673.75,-95.25 730.25,-95.25 730.25,-132.5"/>
<text xml:space="preserve" text-anchor="start" x="681.75" y="-120.9" font-family="Courier New" font-size="8.00">(4,0) ε=1</text>
<text xml:space="preserve" text-anchor="start" x="681.75" y="-111.15" font-family="Courier New" font-size="8.00">r|</text>
<text xml:space="preserve" text-anchor="start" x="681.75" y="-101.4" font-family="Courier New" font-size="8.00">r|</text>
</g>
<!-- e2&#45;&gt;e17 -->
<g id="edge17" class="edge">
<title>e2&#45;&gt;e17</title>
<path fill="none" stroke="blue" d="M702,-190.08C702,-177.18 702,-159.29 702,-144.21"/>
<polygon fill="blue" stroke="blue" points="705.5,-144.36 702,-134.36 698.5,-144.36 705.5,-144.36"/>
</g>
<!-- e20 -->
<g id="node21" class="node">
<title>e20</title>
<polygon fill="#fff3e6" stroke="black" points="868.25,-132.5 811.75,-132.5 811.75,-95.25 868.25,-95.25 868.25,-132.5"/>
<text xml:space="preserve" text-anchor="start" x="819.75" y="-120.9" font-family="Courier New" font-size="8.00">(2,2) ε=1</text>
<text xml:space="preserve" text-anchor="start" x="819.75" y="-111.15" font-family="Courier New" font-size="8.00">s|</text>
<text xml:space="preserve" text-anchor="start" x="819.75" y="-101.4" font-family="Courier New" font-size="8.00">r|</text>
</g>
<!-- e2&#45;&gt;e20 -->
<g id="edge20" class="edge">
<title>e2&#45;&gt;e20</title>
<path fill="none" stroke="blue" d="M727.96,-190.08C749.37,-175.71 779.98,-155.16 803.8,-139.17"/>
<polygon fill="blue" stroke="blue" points="805.61,-142.17 811.96,-133.69 801.71,-136.36 805.61,-142.17"/>
</g>
<!-- e23 -->
<g id="node24" class="node">
<title>e23</title>
<polygon fill="#fff3e6" stroke="black" points="1052.25,-132.5 995.75,-132.5 995.75,-95.25 1052.25,-95.25 1052.25,-132.5"/>
<text xml:space="preserve" text-anchor="start" x="1003.75" y="-120.9" font-family="Courier New" font-size="8.00">(0,4) ε=1</text>
<text xml:space="preserve" text-anchor="start" x="1003.75" y="-111.15" font-family="Courier New" font-size="8.00">s|</text>
<text xml:space="preserve" text-anchor="start" x="1003.75" y="-101.4" font-family="Courier New" font-size="8.00">s|</text>
</g>
<!-- e2&#45;&gt;e23 -->
<g id="edge23" class="edge">
<title>e2&#45;&gt;e23</title>
<path fill="none" stroke="blue" d="M730.58,-199.28C788.34,-182.66 919.07,-145.06 984.77,-126.16"/>
<polygon fill="blue" stroke="blue" points="985.39,-129.62 994.03,-123.49 983.46,-122.9 985.39,-129.62"/>
</g>
<!-- e4 -->
<g id="node5" class="node">
<title>e4</title>
<polygon fill="#e6f3ff" stroke="black" points="1526.25,-37.25 1469.75,-37.25 1469.75,0 1526.25,0 1526.25,-37.25"/>
<text xml:space="preserve" text-anchor="start" x="1477.75" y="-25.65" font-family="Courier New" font-size="8.00">(4,4) ε=0</text>
<text xml:space="preserve" text-anchor="start" x="1477.75" y="-15.9" font-family="Courier New" font-size="8.00">r|s</text>
<text xml:space="preserve" text-anchor="start" x="1477.75" y="-6.15" font-family="Courier New" font-size="8.00">d|s</text>
</g>
<!-- e5&#45;&gt;e4 -->
<g id="edge4" class="edge">
<title>e5&#45;&gt;e4</title>
<path fill="none" stroke="blue" d="M1423.74,-94.9C1437.61,-80.83 1457.08,-61.1 1472.61,-45.36"/>
<polygon fill="blue" stroke="blue" points="1474.72,-48.2 1479.25,-38.63 1469.74,-43.29 1474.72,-48.2"/>
</g>
<!-- e6 -->
<g id="node7" class="node">
<title>e6</title>
<polygon fill="#e6f3ff" stroke="black" points="1448.12,-37.25 1363.88,-37.25 1363.88,0 1448.12,0 1448.12,-37.25"/>
<text xml:space="preserve" text-anchor="start" x="1371.88" y="-25.65" font-family="Courier New" font-size="8.00">(4,4) ε=1 ℘={0}</text>
<text xml:space="preserve" text-anchor="start" x="1371.88" y="-15.9" font-family="Courier New" font-size="8.00">r|s</text>
<text xml:space="preserve" text-anchor="start" x="1371.88" y="-6.15" font-family="Courier New" font-size="8.00">d|s</text>
</g>
<!-- e5&#45;&gt;e6 -->
<g id="edge6" class="edge">
<title>e5&#45;&gt;e6</title>
<path fill="none" stroke="blue" d="M1406,-94.9C1406,-81.87 1406,-63.96 1406,-48.89"/>
<polygon fill="blue" stroke="blue" points="1409.5,-49.06 1406,-39.06 1402.5,-49.06 1409.5,-49.06"/>
</g>
<!-- e7 -->
<g id="node8" class="node">
<title>e7</title>
<polygon fill="#e6f3ff" stroke="black" points="132.25,-37.25 75.75,-37.25 75.75,0 132.25,0 132.25,-37.25"/>
<text xml:space="preserve" text-anchor="start" x="83.75" y="-25.65" font-family="Courier New" font-size="8.00">(4,4) ε=0</text>
<text xml:space="preserve" text-anchor="start" x="83.75" y="-15.9" font-family="Courier New" font-size="8.00">.|.</text>
<text xml:space="preserve" text-anchor="start" x="83.75" y="-6.15" font-family="Courier New" font-size="8.00">d|s</text>
</g>
<!-- e8&#45;&gt;e7 -->
<g id="edge7" class="edge">
<title>e8&#45;&gt;e7</title>
<path fill="none" stroke="blue" d="M178.26,-94.9C164.39,-80.83 144.92,-61.1 129.39,-45.36"/>
<polygon fill="blue" stroke="blue" points="132.26,-43.29 122.75,-38.63 127.28,-48.2 132.26,-43.29"/>
</g>
<!-- e9 -->
<g id="node10" class="node">
<title>e9</title>
<polygon fill="#e6f3ff" stroke="black" points="238.12,-37.25 153.88,-37.25 153.88,0 238.12,0 238.12,-37.25"/>
<text xml:space="preserve" text-anchor="start" x="161.88" y="-25.65" font-family="Courier New" font-size="8.00">(4,4) ε=1 ℘={0}</text>
<text xml:space="preserve" text-anchor="start" x="161.88" y="-15.9" font-family="Courier New" font-size="8.00">.|.</text>
<text xml:space="preserve" text-anchor="start" x="161.88" y="-6.15" font-family="Courier New" font-size="8.00">d|s</text>
</g>
<!-- e8&#45;&gt;e9 -->
<g id="edge9" class="edge">
<title>e8&#45;&gt;e9</title>
<path fill="none" stroke="blue" d="M196,-94.9C196,-81.87 196,-63.96 196,-48.89"/>
<polygon fill="blue" stroke="blue" points="199.5,-49.06 196,-39.06 192.5,-49.06 199.5,-49.06"/>
</g>
<!-- e10 -->
<g id="node11" class="node">
<title>e10</title>
<polygon fill="#e6f3ff" stroke="black" points="316.25,-37.25 259.75,-37.25 259.75,0 316.25,0 316.25,-37.25"/>
<text xml:space="preserve" text-anchor="start" x="267.75" y="-25.65" font-family="Courier New" font-size="8.00">(4,4) ε=0</text>
<text xml:space="preserve" text-anchor="start" x="267.75" y="-15.9" font-family="Courier New" font-size="8.00">r|s</text>
<text xml:space="preserve" text-anchor="start" x="267.75" y="-6.15" font-family="Courier New" font-size="8.00">c|s</text>
</g>
<!-- e11&#45;&gt;e10 -->
<g id="edge10" class="edge">
<title>e11&#45;&gt;e10</title>
<path fill="none" stroke="blue" d="M362.26,-94.9C348.39,-80.83 328.92,-61.1 313.39,-45.36"/>
<polygon fill="blue" stroke="blue" points="316.26,-43.29 306.75,-38.63 311.28,-48.2 316.26,-43.29"/>
</g>
<!-- e12 -->
<g id="node13" class="node">
<title>e12</title>
<polygon fill="#e6f3ff" stroke="black" points="422.12,-37.25 337.88,-37.25 337.88,0 422.12,0 422.12,-37.25"/>
<text xml:space="preserve" text-anchor="start" x="345.88" y="-25.65" font-family="Courier New" font-size="8.00">(4,4) ε=1 ℘={0}</text>
<text xml:space="preserve" text-anchor="start" x="345.88" y="-15.9" font-family="Courier New" font-size="8.00">r|s</text>
<text xml:space="preserve" text-anchor="start" x="345.88" y="-6.15" font-family="Courier New" font-size="8.00">c|s</text>
</g>
<!-- e11&#45;&gt;e12 -->
<g id="edge12" class="edge">
<title>e11&#45;&gt;e12</title>
<path fill="none" stroke="blue" d="M380,-94.9C380,-81.87 380,-63.96 380,-48.89"/>
<polygon fill="blue" stroke="blue" points="383.5,-49.06 380,-39.06 376.5,-49.06 383.5,-49.06"/>
</g>
<!-- e13 -->
<g id="node14" class="node">
<title>e13</title>
<polygon fill="#e6f3ff" stroke="black" points="500.25,-37.25 443.75,-37.25 443.75,0 500.25,0 500.25,-37.25"/>
<text xml:space="preserve" text-anchor="start" x="451.75" y="-25.65" font-family="Courier New" font-size="8.00">(4,4) ε=0</text>
<text xml:space="preserve" text-anchor="start" x="451.75" y="-15.9" font-family="Courier New" font-size="8.00">.|.</text>
<text xml:space="preserve" text-anchor="start" x="451.75" y="-6.15" font-family="Courier New" font-size="8.00">c|s</text>
</g>
<!-- e14&#45;&gt;e13 -->
<g id="edge13" class="edge">
<title>e14&#45;&gt;e13</title>
<path fill="none" stroke="blue" d="M546.26,-94.9C532.39,-80.83 512.92,-61.1 497.39,-45.36"/>
<polygon fill="blue" stroke="blue" points="500.26,-43.29 490.75,-38.63 495.28,-48.2 500.26,-43.29"/>
</g>
<!-- e15 -->
<g id="node16" class="node">
<title>e15</title>
<polygon fill="#e6f3ff" stroke="black" points="606.12,-37.25 521.88,-37.25 521.88,0 606.12,0 606.12,-37.25"/>
<text xml:space="preserve" text-anchor="start" x="529.88" y="-25.65" font-family="Courier New" font-size="8.00">(4,4) ε=1 ℘={0}</text>
<text xml:space="preserve" text-anchor="start" x="529.88" y="-15.9" font-family="Courier New" font-size="8.00">.|.</text>
<text xml:space="preserve" text-anchor="start" x="529.88" y="-6.15" font-family="Courier New" font-size="8.00">c|s</text>
</g>
<!-- e14&#45;&gt;e15 -->
<g id="edge15" class="edge">
<title>e14&#45;&gt;e15</title>
<path fill="none" stroke="blue" d="M564,-94.9C564,-81.87 564,-63.96 564,-48.89"/>
<polygon fill="blue" stroke="blue" points="567.5,-49.06 564,-39.06 560.5,-49.06 567.5,-49.06"/>
</g>
<!-- e16 -->
<g id="node17" class="node">
<title>e16</title>
<polygon fill="#e6f3ff" stroke="black" points="684.25,-37.25 627.75,-37.25 627.75,0 684.25,0 684.25,-37.25"/>
<text xml:space="preserve" text-anchor="start" x="635.75" y="-25.65" font-family="Courier New" font-size="8.00">(4,4) ε=0</text>
<text xml:space="preserve" text-anchor="start" x="635.75" y="-15.9" font-family="Courier New" font-size="8.00">r|s</text>
<text xml:space="preserve" text-anchor="start" x="635.75" y="-6.15" font-family="Courier New" font-size="8.00">r|s</text>
</g>
<!-- e17&#45;&gt;e16 -->
<g id="edge16" class="edge">
<title>e17&#45;&gt;e16</title>
<path fill="none" stroke="blue" d="M693.13,-94.9C686.51,-81.48 677.35,-62.9 669.78,-47.55"/>
<polygon fill="blue" stroke="blue" points="673.07,-46.33 665.51,-38.91 666.8,-49.42 673.07,-46.33"/>
</g>
<!-- e18 -->
<g id="node19" class="node">
<title>e18</title>
<polygon fill="#e6f3ff" stroke="black" points="790.12,-37.25 705.88,-37.25 705.88,0 790.12,0 790.12,-37.25"/>
<text xml:space="preserve" text-anchor="start" x="713.88" y="-25.65" font-family="Courier New" font-size="8.00">(4,4) ε=1 ℘={0}</text>
<text xml:space="preserve" text-anchor="start" x="713.88" y="-15.9" font-family="Courier New" font-size="8.00">r|s</text>
<text xml:space="preserve" text-anchor="start" x="713.88" y="-6.15" font-family="Courier New" font-size="8.00">r|s</text>
</g>
<!-- e17&#45;&gt;e18 -->
<g id="edge18" class="edge">
<title>e17&#45;&gt;e18</title>
<path fill="none" stroke="blue" d="M710.87,-94.9C717.49,-81.48 726.65,-62.9 734.22,-47.55"/>
<polygon fill="blue" stroke="blue" points="737.2,-49.42 738.49,-38.91 730.93,-46.33 737.2,-49.42"/>
</g>
<!-- e19 -->
<g id="node20" class="node">
<title>e19</title>
<polygon fill="#e6f3ff" stroke="black" points="868.25,-37.25 811.75,-37.25 811.75,0 868.25,0 868.25,-37.25"/>
<text xml:space="preserve" text-anchor="start" x="819.75" y="-25.65" font-family="Courier New" font-size="8.00">(4,4) ε=0</text>
<text xml:space="preserve" text-anchor="start" x="819.75" y="-15.9" font-family="Courier New" font-size="8.00">.|.</text>
<text xml:space="preserve" text-anchor="start" x="819.75" y="-6.15" font-family="Courier New" font-size="8.00">r|s</text>
</g>
<!-- e20&#45;&gt;e19 -->
<g id="edge19" class="edge">
<title>e20&#45;&gt;e19</title>
<path fill="none" stroke="blue" d="M840,-94.9C840,-81.87 840,-63.96 840,-48.89"/>
<polygon fill="blue" stroke="blue" points="843.5,-49.06 840,-39.06 836.5,-49.06 843.5,-49.06"/>
</g>
<!-- e21 -->
<g id="node22" class="node">
<title>e21</title>
<polygon fill="#e6f3ff" stroke="black" points="974.12,-37.25 889.88,-37.25 889.88,0 974.12,0 974.12,-37.25"/>
<text xml:space="preserve" text-anchor="start" x="897.88" y="-25.65" font-family="Courier New" font-size="8.00">(4,4) ε=1 ℘={0}</text>
<text xml:space="preserve" text-anchor="start" x="897.88" y="-15.9" font-family="Courier New" font-size="8.00">.|.</text>
<text xml:space="preserve" text-anchor="start" x="897.88" y="-6.15" font-family="Courier New" font-size="8.00">r|s</text>
</g>
<!-- e20&#45;&gt;e21 -->
<g id="edge21" class="edge">
<title>e20&#45;&gt;e21</title>
<path fill="none" stroke="blue" d="M857.74,-94.9C871.61,-80.83 891.08,-61.1 906.61,-45.36"/>
<polygon fill="blue" stroke="blue" points="908.72,-48.2 913.25,-38.63 903.74,-43.29 908.72,-48.2"/>
</g>
<!-- e22 -->
<g id="node23" class="node">
<title>e22</title>
<polygon fill="#e6f3ff" stroke="black" points="1052.25,-37.25 995.75,-37.25 995.75,0 1052.25,0 1052.25,-37.25"/>
<text xml:space="preserve" text-anchor="start" x="1003.75" y="-25.65" font-family="Courier New" font-size="8.00">(4,4) ε=0</text>
<text xml:space="preserve" text-anchor="start" x="1003.75" y="-15.9" font-family="Courier New" font-size="8.00">.|.</text>
<text xml:space="preserve" text-anchor="start" x="1003.75" y="-6.15" font-family="Courier New" font-size="8.00">.|.</text>
</g>
<!-- e23&#45;&gt;e22 -->
<g id="edge22" class="edge">
<title>e23&#45;&gt;e22</title>
<path fill="none" stroke="blue" d="M1024,-94.9C1024,-81.87 1024,-63.96 1024,-48.89"/>
<polygon fill="blue" stroke="blue" points="1027.5,-49.06 1024,-39.06 1020.5,-49.06 1027.5,-49.06"/>
</g>
<!-- e24 -->
<g id="node25" class="node">
<title>e24</title>
<polygon fill="#e6f3ff" stroke="black" points="1158.12,-37.25 1073.88,-37.25 1073.88,0 1158.12,0 1158.12,-37.25"/>
<text xml:space="preserve" text-anchor="start" x="1081.88" y="-25.65" font-family="Courier New" font-size="8.00">(4,4) ε=1 ℘={0}</text>
<text xml:space="preserve" text-anchor="start" x="1081.88" y="-15.9" font-family="Courier New" font-size="8.00">.|.</text>
<text xml:space="preserve" text-anchor="start" x="1081.88" y="-6.15" font-family="Courier New" font-size="8.00">.|.</text>
</g>
<!-- e23&#45;&gt;e24 -->
<g id="edge24" class="edge">
<title>e23&#45;&gt;e24</title>
<path fill="none" stroke="blue" d="M1041.74,-94.9C1055.61,-80.83 1075.08,-61.1 1090.61,-45.36"/>
<polygon fill="blue" stroke="blue" points="1092.72,-48.2 1097.25,-38.63 1087.74,-43.29 1092.72,-48.2"/>
</g>
<!-- gp_C_0 -->
<g id="node26" class="node">
<title>gp_C_0</title>
<text xml:space="preserve" text-anchor="middle" x="27" y="-204.05" font-family="Helvetica,sans-Serif" font-size="11.00" fill="#333333">Sp(0)</text>
</g>
<!-- gp_C_0&#45;&gt;e2 -->
<!-- gp_D_2 -->
<g id="node27" class="node">
<title>gp_D_2</title>
<text xml:space="preserve" text-anchor="middle" x="27" y="-109.42" font-family="Helvetica,sans-Serif" font-size="11.00" fill="#333333">SO(4)</text>
</g>
<!-- gp_C_0&#45;&gt;gp_D_2 -->
<!-- gp_D_2&#45;&gt;e1 -->
<!-- gp_C_4 -->
<g id="node28" class="node">
<title>gp_C_4</title>
<text xml:space="preserve" text-anchor="middle" x="27" y="-14.18" font-family="Helvetica,sans-Serif" font-size="11.00" fill="#333333">Sp(8)</text>
</g>
<!-- gp_D_2&#45;&gt;gp_C_4 -->
<!-- gp_C_4&#45;&gt;e0 -->
</g>
</svg>
