<?xml version="1.0" encoding="UTF-8" standalone="no"?>
<!DOCTYPE svg PUBLIC "-//W3C//DTD SVG 1.1//EN"
 "http://www.w3.org/Graphics/SVG/1.1/DTD/svg11.dtd">
<!-- Generated by graphviz version 13.1.2 (20250808.2320)
 -->
<!-- Title: Extended PBP Tree Pages: 1 -->
<svg width="1571pt" height="679pt"
 viewBox="0.00 0.00 1571.00 679.00" xmlns="http://www.w3.org/2000/svg" xmlns:xlink="http://www.w3.org/1999/xlink">
<g id="graph0" class="graph" transform="scale(2.08333 2.08333) rotate(0) translate(4 322)">
<title>Extended PBP Tree</title>
<polygon fill="white" stroke="none" points="-4,4 -4,-322 750.25,-322 750.25,4 -4,4"/>
<!-- e0 -->
<g id="node1" class="node">
<title>e0</title>
<polygon fill="#fff3e6" stroke="black" points="509.25,-36 452.75,-36 452.75,0 509.25,0 509.25,-36"/>
<text xml:space="preserve" text-anchor="start" x="460.75" y="-20.15" font-family="Courier New" font-size="8.00">(2,2) ε=0</text>
<text xml:space="preserve" text-anchor="start" x="460.75" y="-10.4" font-family="Courier New" font-size="8.00">dd|</text>
</g>
<!-- e1 -->
<g id="node2" class="node">
<title>e1</title>
<polygon fill="#e6f3ff" stroke="black" points="390.25,-130 333.75,-130 333.75,-94 390.25,-94 390.25,-130"/>
<text xml:space="preserve" text-anchor="start" x="341.75" y="-114.15" font-family="Courier New" font-size="8.00">(1,1) ε=0</text>
<text xml:space="preserve" text-anchor="start" x="341.75" y="-104.4" font-family="Courier New" font-size="8.00">d|</text>
</g>
<!-- e1&#45;&gt;e0 -->
<g id="edge1" class="edge">
<title>e1&#45;&gt;e0</title>
<path fill="none" stroke="blue" d="M384.38,-93.7C402.83,-79.43 429.21,-59.04 449.74,-43.16"/>
<polygon fill="blue" stroke="blue" points="451.75,-46.04 457.52,-37.15 447.47,-40.5 451.75,-46.04"/>
</g>
<!-- e4 -->
<g id="node5" class="node">
<title>e4</title>
<polygon fill="#fff3e6" stroke="black" points="588.25,-36 531.75,-36 531.75,0 588.25,0 588.25,-36"/>
<text xml:space="preserve" text-anchor="start" x="539.75" y="-20.15" font-family="Courier New" font-size="8.00">(2,2) ε=1</text>
<text xml:space="preserve" text-anchor="start" x="539.75" y="-10.4" font-family="Courier New" font-size="8.00">cd|</text>
</g>
<!-- e1&#45;&gt;e4 -->
<g id="edge4" class="edge">
<title>e1&#45;&gt;e4</title>
<path fill="none" stroke="blue" d="M390.37,-97.82C424.68,-81.88 482.6,-54.97 521.06,-37.09"/>
<polygon fill="blue" stroke="blue" points="522.4,-40.33 529.99,-32.94 519.45,-33.98 522.4,-40.33"/>
</g>
<!-- e5 -->
<g id="node6" class="node">
<title>e5</title>
<polygon fill="#fff3e6" stroke="black" points="351.25,-36 294.75,-36 294.75,0 351.25,0 351.25,-36"/>
<text xml:space="preserve" text-anchor="start" x="302.75" y="-20.15" font-family="Courier New" font-size="8.00">(3,1) ε=1</text>
<text xml:space="preserve" text-anchor="start" x="302.75" y="-10.4" font-family="Courier New" font-size="8.00">rd|</text>
</g>
<!-- e1&#45;&gt;e5 -->
<g id="edge5" class="edge">
<title>e1&#45;&gt;e5</title>
<path fill="none" stroke="blue" d="M354.66,-93.7C349.05,-80.46 341.21,-61.95 334.73,-46.66"/>
<polygon fill="blue" stroke="blue" points="338.02,-45.46 330.89,-37.62 331.57,-48.19 338.02,-45.46"/>
</g>
<!-- e6 -->
<g id="node7" class="node">
<title>e6</title>
<polygon fill="#fff3e6" stroke="black" points="430.25,-36 373.75,-36 373.75,0 430.25,0 430.25,-36"/>
<text xml:space="preserve" text-anchor="start" x="381.75" y="-20.15" font-family="Courier New" font-size="8.00">(1,3) ε=1</text>
<text xml:space="preserve" text-anchor="start" x="381.75" y="-10.4" font-family="Courier New" font-size="8.00">sd|</text>
</g>
<!-- e1&#45;&gt;e6 -->
<g id="edge6" class="edge">
<title>e1&#45;&gt;e6</title>
<path fill="none" stroke="blue" d="M369.52,-93.7C375.28,-80.46 383.33,-61.95 389.97,-46.66"/>
<polygon fill="blue" stroke="blue" points="393.13,-48.18 393.91,-37.61 386.71,-45.39 393.13,-48.18"/>
</g>
<!-- e2 -->
<g id="node3" class="node">
<title>e2</title>
<polygon fill="#fff3e6" stroke="black" points="311.25,-224 254.75,-224 254.75,-188 311.25,-188 311.25,-224"/>
<text xml:space="preserve" text-anchor="start" x="262.75" y="-208.15" font-family="Courier New" font-size="8.00">(1,1) ε=0</text>
<text xml:space="preserve" text-anchor="start" x="262.75" y="-198.4" font-family="Courier New" font-size="8.00">d|</text>
</g>
<!-- e2&#45;&gt;e1 -->
<g id="edge2" class="edge">
<title>e2&#45;&gt;e1</title>
<path fill="none" stroke="blue" d="M297.86,-187.7C309.67,-173.95 326.36,-154.5 339.76,-138.9"/>
<polygon fill="blue" stroke="blue" points="342.36,-141.24 346.22,-131.38 337.05,-136.68 342.36,-141.24"/>
</g>
<!-- e3 -->
<g id="node4" class="node">
<title>e3</title>
<polygon fill="#e6f3ff" stroke="black" points="271.25,-318 214.75,-318 214.75,-282 271.25,-282 271.25,-318"/>
<text xml:space="preserve" text-anchor="start" x="222.75" y="-301.77" font-family="Courier New" font-size="8.00">(0,0) ε=0</text>
</g>
<!-- e3&#45;&gt;e2 -->
<g id="edge3" class="edge">
<title>e3&#45;&gt;e2</title>
<path fill="none" stroke="blue" d="M250.52,-281.7C256.28,-268.46 264.33,-249.95 270.97,-234.66"/>
<polygon fill="blue" stroke="blue" points="274.13,-236.18 274.91,-225.61 267.71,-233.39 274.13,-236.18"/>
</g>
<!-- e9 -->
<g id="node10" class="node">
<title>e9</title>
<polygon fill="#fff3e6" stroke="black" points="529.25,-224 472.75,-224 472.75,-188 529.25,-188 529.25,-224"/>
<text xml:space="preserve" text-anchor="start" x="480.75" y="-208.15" font-family="Courier New" font-size="8.00">(1,1) ε=1</text>
<text xml:space="preserve" text-anchor="start" x="480.75" y="-198.4" font-family="Courier New" font-size="8.00">c|</text>
</g>
<!-- e3&#45;&gt;e9 -->
<g id="edge9" class="edge">
<title>e3&#45;&gt;e9</title>
<path fill="none" stroke="blue" d="M271.6,-288.8C317.9,-272.29 409.35,-239.68 461.72,-221.01"/>
<polygon fill="blue" stroke="blue" points="462.61,-224.41 470.85,-217.75 460.26,-217.81 462.61,-224.41"/>
</g>
<!-- e12 -->
<g id="node13" class="node">
<title>e12</title>
<polygon fill="#fff3e6" stroke="black" points="232.25,-224 175.75,-224 175.75,-188 232.25,-188 232.25,-224"/>
<text xml:space="preserve" text-anchor="start" x="183.75" y="-208.15" font-family="Courier New" font-size="8.00">(2,0) ε=1</text>
<text xml:space="preserve" text-anchor="start" x="183.75" y="-198.4" font-family="Courier New" font-size="8.00">r|</text>
</g>
<!-- e3&#45;&gt;e12 -->
<g id="edge12" class="edge">
<title>e3&#45;&gt;e12</title>
<path fill="none" stroke="blue" d="M235.66,-281.7C230.05,-268.46 222.21,-249.95 215.73,-234.66"/>
<polygon fill="blue" stroke="blue" points="219.02,-233.46 211.89,-225.62 212.57,-236.19 219.02,-233.46"/>
</g>
<!-- e7 -->
<g id="node8" class="node">
<title>e7</title>
<polygon fill="#fff3e6" stroke="black" points="667.25,-36 610.75,-36 610.75,0 667.25,0 667.25,-36"/>
<text xml:space="preserve" text-anchor="start" x="618.75" y="-20.15" font-family="Courier New" font-size="8.00">(2,2) ε=1</text>
<text xml:space="preserve" text-anchor="start" x="618.75" y="-10.4" font-family="Courier New" font-size="8.00">cc|</text>
</g>
<!-- e8 -->
<g id="node9" class="node">
<title>e8</title>
<polygon fill="#e6f3ff" stroke="black" points="667.25,-130 610.75,-130 610.75,-94 667.25,-94 667.25,-130"/>
<text xml:space="preserve" text-anchor="start" x="618.75" y="-114.15" font-family="Courier New" font-size="8.00">(1,1) ε=0</text>
<text xml:space="preserve" text-anchor="start" x="618.75" y="-104.4" font-family="Courier New" font-size="8.00">c|</text>
</g>
<!-- e8&#45;&gt;e7 -->
<g id="edge7" class="edge">
<title>e8&#45;&gt;e7</title>
<path fill="none" stroke="blue" d="M639,-93.7C639,-80.72 639,-62.66 639,-47.56"/>
<polygon fill="blue" stroke="blue" points="642.5,-47.74 639,-37.74 635.5,-47.74 642.5,-47.74"/>
</g>
<!-- e13 -->
<g id="node14" class="node">
<title>e13</title>
<polygon fill="#fff3e6" stroke="black" points="746.25,-36 689.75,-36 689.75,0 746.25,0 746.25,-36"/>
<text xml:space="preserve" text-anchor="start" x="697.75" y="-20.15" font-family="Courier New" font-size="8.00">(1,3) ε=1</text>
<text xml:space="preserve" text-anchor="start" x="697.75" y="-10.4" font-family="Courier New" font-size="8.00">sc|</text>
</g>
<!-- e8&#45;&gt;e13 -->
<g id="edge13" class="edge">
<title>e8&#45;&gt;e13</title>
<path fill="none" stroke="blue" d="M653.86,-93.7C665.67,-79.95 682.36,-60.5 695.76,-44.9"/>
<polygon fill="blue" stroke="blue" points="698.36,-47.24 702.22,-37.38 693.05,-42.68 698.36,-47.24"/>
</g>
<!-- e9&#45;&gt;e8 -->
<g id="edge8" class="edge">
<title>e9&#45;&gt;e8</title>
<path fill="none" stroke="blue" d="M526.96,-187.7C548.64,-173.24 579.77,-152.49 603.71,-136.52"/>
<polygon fill="blue" stroke="blue" points="605.52,-139.53 611.9,-131.07 601.64,-133.7 605.52,-139.53"/>
</g>
<!-- e10 -->
<g id="node11" class="node">
<title>e10</title>
<polygon fill="#fff3e6" stroke="black" points="193.25,-36 136.75,-36 136.75,0 193.25,0 193.25,-36"/>
<text xml:space="preserve" text-anchor="start" x="144.75" y="-20.15" font-family="Courier New" font-size="8.00">(3,1) ε=1</text>
<text xml:space="preserve" text-anchor="start" x="144.75" y="-10.4" font-family="Courier New" font-size="8.00">rc|</text>
</g>
<!-- e11 -->
<g id="node12" class="node">
<title>e11</title>
<polygon fill="#e6f3ff" stroke="black" points="232.25,-130 175.75,-130 175.75,-94 232.25,-94 232.25,-130"/>
<text xml:space="preserve" text-anchor="start" x="183.75" y="-114.15" font-family="Courier New" font-size="8.00">(1,1) ε=0</text>
<text xml:space="preserve" text-anchor="start" x="183.75" y="-104.4" font-family="Courier New" font-size="8.00">r|</text>
</g>
<!-- e11&#45;&gt;e10 -->
<g id="edge10" class="edge">
<title>e11&#45;&gt;e10</title>
<path fill="none" stroke="blue" d="M196.66,-93.7C191.05,-80.46 183.21,-61.95 176.73,-46.66"/>
<polygon fill="blue" stroke="blue" points="180.02,-45.46 172.89,-37.62 173.57,-48.19 180.02,-45.46"/>
</g>
<!-- e14 -->
<g id="node15" class="node">
<title>e14</title>
<polygon fill="#fff3e6" stroke="black" points="272.25,-36 215.75,-36 215.75,0 272.25,0 272.25,-36"/>
<text xml:space="preserve" text-anchor="start" x="223.75" y="-20.15" font-family="Courier New" font-size="8.00">(2,2) ε=1</text>
<text xml:space="preserve" text-anchor="start" x="223.75" y="-10.4" font-family="Courier New" font-size="8.00">sr|</text>
</g>
<!-- e11&#45;&gt;e14 -->
<g id="edge14" class="edge">
<title>e11&#45;&gt;e14</title>
<path fill="none" stroke="blue" d="M211.52,-93.7C217.28,-80.46 225.33,-61.95 231.97,-46.66"/>
<polygon fill="blue" stroke="blue" points="235.13,-48.18 235.91,-37.61 228.71,-45.39 235.13,-48.18"/>
</g>
<!-- e12&#45;&gt;e11 -->
<g id="edge11" class="edge">
<title>e12&#45;&gt;e11</title>
<path fill="none" stroke="blue" d="M204,-187.7C204,-174.72 204,-156.66 204,-141.56"/>
<polygon fill="blue" stroke="blue" points="207.5,-141.74 204,-131.74 200.5,-141.74 207.5,-141.74"/>
</g>
<!-- gp_C_0 -->
<g id="node16" class="node">
<title>gp_C_0</title>
<text xml:space="preserve" text-anchor="middle" x="27" y="-295.55" font-family="Helvetica,sans-Serif" font-size="11.00" fill="#333333">Sp(0)</text>
</g>
<!-- gp_C_0&#45;&gt;e3 -->
<!-- gp_C_1 -->
<g id="node17" class="node">
<title>gp_C_1</title>
<text xml:space="preserve" text-anchor="middle" x="27" y="-107.55" font-family="Helvetica,sans-Serif" font-size="11.00" fill="#333333">Sp(2)</text>
</g>
<!-- gp_C_0&#45;&gt;gp_C_1 -->
<!-- gp_C_1&#45;&gt;e1 -->
<!-- gp_D_1 -->
<g id="node18" class="node">
<title>gp_D_1</title>
<text xml:space="preserve" text-anchor="middle" x="88" y="-201.55" font-family="Helvetica,sans-Serif" font-size="11.00" fill="#333333">SO(2)</text>
</g>
<!-- gp_C_1&#45;&gt;gp_D_1 -->
<!-- gp_D_1&#45;&gt;e2 -->
<!-- gp_D_2 -->
<g id="node19" class="node">
<title>gp_D_2</title>
<text xml:space="preserve" text-anchor="middle" x="88" y="-13.55" font-family="Helvetica,sans-Serif" font-size="11.00" fill="#333333">SO(4)</text>
</g>
<!-- gp_D_1&#45;&gt;gp_D_2 -->
<!-- gp_D_2&#45;&gt;e0 -->
</g>
</svg>
