<?xml version="1.0" encoding="UTF-8" standalone="no"?>
<!DOCTYPE svg PUBLIC "-//W3C//DTD SVG 1.1//EN"
 "http://www.w3.org/Graphics/SVG/1.1/DTD/svg11.dtd">
<!-- Generated by graphviz version 13.1.2 (20250808.2320)
 -->
<!-- Title: Lifting Tree Pages: 1 -->
<svg width="3100pt" height="1020pt"
 viewBox="0.00 0.00 3100.00 1020.00" xmlns="http://www.w3.org/2000/svg" xmlns:xlink="http://www.w3.org/1999/xlink">
<g id="graph0" class="graph" transform="scale(2.08333 2.08333) rotate(0) translate(4 485.5)">
<title>Lifting Tree</title>
<polygon fill="white" stroke="none" points="-4,4 -4,-485.5 1484,-485.5 1484,4 -4,4"/>
<g id="clust3" class="cluster">
<title>cluster_tw_0</title>
<polygon fill="none" stroke="#999999" stroke-width="0.8" stroke-dasharray="1,5" points="816,-283.75 816,-356.5 969,-356.5 969,-283.75 816,-283.75"/>
</g>
<g id="clust4" class="cluster">
<title>cluster_tw_1</title>
<polygon fill="none" stroke="#999999" stroke-width="0.8" stroke-dasharray="1,5" points="229,-283.75 229,-356.5 548,-356.5 548,-283.75 229,-283.75"/>
</g>
<g id="clust6" class="cluster">
<title>cluster_tw_2</title>
<polygon fill="none" stroke="#999999" stroke-width="0.8" stroke-dasharray="1,5" points="644,-8 644,-80.75 974,-80.75 974,-8 644,-8"/>
</g>
<g id="clust7" class="cluster">
<title>cluster_tw_3</title>
<polygon fill="none" stroke="#999999" stroke-width="0.8" stroke-dasharray="1,5" points="1319,-8 1319,-80.75 1472,-80.75 1472,-8 1319,-8"/>
</g>
<g id="clust8" class="cluster">
<title>cluster_tw_4</title>
<polygon fill="none" stroke="#999999" stroke-width="0.8" stroke-dasharray="1,5" points="312,-8 312,-80.75 631,-80.75 631,-8 312,-8"/>
</g>
<g id="clust9" class="cluster">
<title>cluster_tw_5</title>
<polygon fill="none" stroke="#999999" stroke-width="0.8" stroke-dasharray="1,5" points="987,-8 987,-80.75 1306,-80.75 1306,-8 987,-8"/>
</g>
<g id="clust10" class="cluster">
<title>cluster_tw_6</title>
<polygon fill="none" stroke="#999999" stroke-width="0.8" stroke-dasharray="1,5" points="146,-8 146,-80.75 299,-80.75 299,-8 146,-8"/>
</g>
<!-- n0 -->
<g id="node1" class="node">
<title>n0</title>
<polygon fill="#fff3e6" stroke="black" points="708.25,-72.75 651.75,-72.75 651.75,-16 708.25,-16 708.25,-72.75"/>
<text xml:space="preserve" text-anchor="start" x="659.75" y="-61.15" font-family="Courier New" font-size="8.00">&#45;+&#45; | +&#45;+</text>
<text xml:space="preserve" text-anchor="start" x="659.75" y="-51.4" font-family="Courier New" font-size="8.00">+ &#160;&#160;| &#45; &#160;</text>
<text xml:space="preserve" text-anchor="start" x="659.75" y="-41.65" font-family="Courier New" font-size="8.00">═════</text>
<text xml:space="preserve" text-anchor="start" x="659.75" y="-31.9" font-family="Courier New" font-size="8.00">(2,2)</text>
<text xml:space="preserve" text-anchor="start" x="659.75" y="-22.15" font-family="Courier New" font-size="8.00">dd| &#160;ε=0</text>
</g>
<!-- n15 -->
<g id="node16" class="node">
<title>n15</title>
<polygon fill="#f8f8f8" stroke="black" points="880.25,-62.38 823.75,-62.38 823.75,-26.38 880.25,-26.38 880.25,-62.38"/>
<text xml:space="preserve" text-anchor="start" x="831.75" y="-46.52" font-family="Courier New" font-size="8.00">=*= | *=*</text>
<text xml:space="preserve" text-anchor="start" x="831.75" y="-36.77" font-family="Courier New" font-size="8.00">* &#160;&#160;| = &#160;</text>
</g>
<!-- n0&#45;&gt;n15 -->
<g id="edge44" class="edge">
<title>n0&#45;&gt;n15</title>
<path fill="none" stroke="red" d="M695.59,-76.75C705.23,-92.83 719.26,-110.72 737.5,-119.75 760.2,-130.99 771.8,-130.99 794.5,-119.75 816.72,-108.75 832.69,-84.61 842.08,-66.59"/>
<polygon fill="red" stroke="red" points="696.66,-76.5 694.24,-74.44 694.85,-77.56 696.66,-76.5"/>
<polygon fill="red" stroke="red" points="842.99,-67.12 843.42,-63.97 841.12,-66.17 842.99,-67.12"/>
</g>
<!-- n1 -->
<g id="node2" class="node">
<title>n1</title>
<polygon fill="#e6f3ff" stroke="black" points="665,-205.75 611,-205.75 611,-158.75 665,-158.75 665,-205.75"/>
<text xml:space="preserve" text-anchor="start" x="622.25" y="-194.15" font-family="Courier New" font-size="8.00">+&#45; | &#45;+</text>
<text xml:space="preserve" text-anchor="start" x="622.25" y="-184.4" font-family="Courier New" font-size="8.00">═════</text>
<text xml:space="preserve" text-anchor="start" x="622.25" y="-174.65" font-family="Courier New" font-size="8.00">(1,1)</text>
<text xml:space="preserve" text-anchor="start" x="622.25" y="-164.9" font-family="Courier New" font-size="8.00">d| &#160;ε=0</text>
</g>
<!-- n1&#45;&gt;n0 -->
<g id="edge1" class="edge">
<title>n1&#45;&gt;n0:n</title>
<path fill="none" stroke="blue" d="M652.69,-158.35C663.33,-139.8 676.36,-112.34 679.36,-85.01"/>
<polygon fill="blue" stroke="blue" points="682.85,-85.44 679.91,-75.26 675.86,-85.05 682.85,-85.44"/>
</g>
<!-- n4 -->
<g id="node5" class="node">
<title>n4</title>
<polygon fill="#fff3e6" stroke="black" points="794.25,-72.75 737.75,-72.75 737.75,-16 794.25,-16 794.25,-72.75"/>
<text xml:space="preserve" text-anchor="start" x="745.75" y="-61.15" font-family="Courier New" font-size="8.00">&#45;+&#45; | *=*</text>
<text xml:space="preserve" text-anchor="start" x="745.75" y="-51.4" font-family="Courier New" font-size="8.00">+ &#160;&#160;| = &#160;</text>
<text xml:space="preserve" text-anchor="start" x="745.75" y="-41.65" font-family="Courier New" font-size="8.00">═════</text>
<text xml:space="preserve" text-anchor="start" x="745.75" y="-31.9" font-family="Courier New" font-size="8.00">(2,2)</text>
<text xml:space="preserve" text-anchor="start" x="745.75" y="-22.15" font-family="Courier New" font-size="8.00">cd| &#160;ε=1</text>
</g>
<!-- n1&#45;&gt;n4 -->
<g id="edge4" class="edge">
<title>n1&#45;&gt;n4:n</title>
<path fill="none" stroke="blue" d="M665.46,-172.14C700.28,-158.8 756.8,-130.48 765,-85.02"/>
<polygon fill="blue" stroke="blue" points="768.46,-85.53 765.87,-75.26 761.49,-84.91 768.46,-85.53"/>
</g>
<!-- n5 -->
<g id="node6" class="node">
<title>n5</title>
<polygon fill="#fff3e6" stroke="black" points="1049,-72.75 995,-72.75 995,-16 1049,-16 1049,-72.75"/>
<text xml:space="preserve" text-anchor="start" x="1004" y="-61.15" font-family="Courier New" font-size="8.00">+&#45;+</text>
<text xml:space="preserve" text-anchor="start" x="1004" y="-51.4" font-family="Courier New" font-size="8.00">+ &#160;</text>
<text xml:space="preserve" text-anchor="start" x="1004" y="-41.65" font-family="Courier New" font-size="8.00">═════</text>
<text xml:space="preserve" text-anchor="start" x="1004" y="-31.9" font-family="Courier New" font-size="8.00">(3,1)</text>
<text xml:space="preserve" text-anchor="start" x="1004" y="-22.15" font-family="Courier New" font-size="8.00">rd| &#160;ε=1</text>
</g>
<!-- n1&#45;&gt;n5 -->
<g id="edge5" class="edge">
<title>n1&#45;&gt;n5:n</title>
<path fill="none" stroke="blue" d="M665.31,-179.52C748.58,-173.55 995.15,-150.44 1019.98,-84.67"/>
<polygon fill="blue" stroke="blue" points="1023.35,-85.71 1021.72,-75.24 1016.46,-84.43 1023.35,-85.71"/>
</g>
<!-- n6 -->
<g id="node7" class="node">
<title>n6</title>
<polygon fill="#fff3e6" stroke="black" points="623,-72.75 569,-72.75 569,-16 623,-16 623,-72.75"/>
<text xml:space="preserve" text-anchor="start" x="578" y="-61.15" font-family="Courier New" font-size="8.00">=*=</text>
<text xml:space="preserve" text-anchor="start" x="578" y="-51.4" font-family="Courier New" font-size="8.00">= &#160;</text>
<text xml:space="preserve" text-anchor="start" x="578" y="-41.65" font-family="Courier New" font-size="8.00">═════</text>
<text xml:space="preserve" text-anchor="start" x="578" y="-31.9" font-family="Courier New" font-size="8.00">(1,3)</text>
<text xml:space="preserve" text-anchor="start" x="578" y="-22.15" font-family="Courier New" font-size="8.00">sd| &#160;ε=1</text>
</g>
<!-- n1&#45;&gt;n6 -->
<g id="edge6" class="edge">
<title>n1&#45;&gt;n6:n</title>
<path fill="none" stroke="blue" d="M623.31,-158.35C612.67,-139.8 599.64,-112.34 596.64,-85.01"/>
<polygon fill="blue" stroke="blue" points="600.14,-85.05 596.09,-75.26 593.15,-85.44 600.14,-85.05"/>
</g>
<!-- n2 -->
<g id="node3" class="node">
<title>n2</title>
<polygon fill="#fff3e6" stroke="black" points="540,-348.5 486,-348.5 486,-291.75 540,-291.75 540,-348.5"/>
<text xml:space="preserve" text-anchor="start" x="497.25" y="-336.9" font-family="Courier New" font-size="8.00">&#45;</text>
<text xml:space="preserve" text-anchor="start" x="497.25" y="-327.15" font-family="Courier New" font-size="8.00">+</text>
<text xml:space="preserve" text-anchor="start" x="497.25" y="-317.4" font-family="Courier New" font-size="8.00">═════</text>
<text xml:space="preserve" text-anchor="start" x="497.25" y="-307.65" font-family="Courier New" font-size="8.00">(1,1)</text>
<text xml:space="preserve" text-anchor="start" x="497.25" y="-297.9" font-family="Courier New" font-size="8.00">d| &#160;ε=0</text>
</g>
<!-- n2&#45;&gt;n1 -->
<g id="edge2" class="edge">
<title>n2&#45;&gt;n1:n</title>
<path fill="none" stroke="blue" d="M540.43,-308.62C574.5,-293.73 629.11,-263.06 637.03,-217.1"/>
<polygon fill="blue" stroke="blue" points="640.51,-217.52 637.87,-207.26 633.53,-216.92 640.51,-217.52"/>
</g>
<!-- n9 -->
<g id="node10" class="node">
<title>n9</title>
<polygon fill="#fff3e6" stroke="black" points="291,-348.5 237,-348.5 237,-291.75 291,-291.75 291,-348.5"/>
<text xml:space="preserve" text-anchor="start" x="248.25" y="-336.9" font-family="Courier New" font-size="8.00">=</text>
<text xml:space="preserve" text-anchor="start" x="248.25" y="-327.15" font-family="Courier New" font-size="8.00">+</text>
<text xml:space="preserve" text-anchor="start" x="248.25" y="-317.4" font-family="Courier New" font-size="8.00">═════</text>
<text xml:space="preserve" text-anchor="start" x="248.25" y="-307.65" font-family="Courier New" font-size="8.00">(1,1)</text>
<text xml:space="preserve" text-anchor="start" x="248.25" y="-297.9" font-family="Courier New" font-size="8.00">c| &#160;ε=1</text>
</g>
<!-- n2&#45;&gt;n9 -->
<g id="edge39" class="edge">
<title>n2&#45;&gt;n9</title>
<path fill="none" stroke="green" d="M498.21,-352.46C488.99,-368.54 475.43,-386.43 457.5,-395.5 403.16,-422.97 374.96,-422.74 320.5,-395.5 302.41,-386.45 288.62,-368.56 279.19,-352.48"/>
<polygon fill="green" stroke="green" points="498.95,-353.3 499.5,-350.17 497.12,-352.28 498.95,-353.3"/>
<polygon fill="green" stroke="green" points="280.27,-352.26 277.87,-350.18 278.45,-353.31 280.27,-352.26"/>
</g>
<!-- n18 -->
<g id="node19" class="node">
<title>n18</title>
<polygon fill="#f8f8f8" stroke="black" points="457,-338.12 403,-338.12 403,-302.12 457,-302.12 457,-338.12"/>
<text xml:space="preserve" text-anchor="start" x="427.75" y="-322.27" font-family="Courier New" font-size="8.00">&#45;</text>
<text xml:space="preserve" text-anchor="start" x="427.75" y="-312.52" font-family="Courier New" font-size="8.00">*</text>
</g>
<!-- n2&#45;&gt;n18 -->
<g id="edge40" class="edge">
<title>n2&#45;&gt;n18</title>
<path fill="none" stroke="#9933cc" d="M481.07,-320.12C474.6,-320.12 468.13,-320.12 461.66,-320.12"/>
<polygon fill="#9933cc" stroke="#9933cc" points="481.04,-321.18 484.04,-320.13 481.04,-319.08 481.04,-321.18"/>
<polygon fill="#9933cc" stroke="#9933cc" points="461.75,-319.08 458.75,-320.13 461.75,-321.18 461.75,-319.08"/>
</g>
<!-- n3 -->
<g id="node4" class="node">
<title>n3</title>
<polygon fill="#e6f3ff" stroke="black" points="415,-481.5 361,-481.5 361,-434.5 415,-434.5 415,-481.5"/>
<text xml:space="preserve" text-anchor="start" x="372.25" y="-469.9" font-family="Courier New" font-size="8.00">(triv)</text>
<text xml:space="preserve" text-anchor="start" x="372.25" y="-460.15" font-family="Courier New" font-size="8.00">═════</text>
<text xml:space="preserve" text-anchor="start" x="372.25" y="-450.4" font-family="Courier New" font-size="8.00">(0,0)</text>
<text xml:space="preserve" text-anchor="start" x="372.25" y="-440.65" font-family="Courier New" font-size="8.00"> | &#160;ε=0</text>
</g>
<!-- n3&#45;&gt;n2 -->
<g id="edge3" class="edge">
<title>n3&#45;&gt;n2:n</title>
<path fill="none" stroke="blue" d="M415.43,-447.46C449.42,-433.82 503.88,-405.38 511.98,-360.85"/>
<polygon fill="blue" stroke="blue" points="515.45,-361.28 512.86,-351.01 508.48,-360.65 515.45,-361.28"/>
</g>
<!-- n3&#45;&gt;n9 -->
<g id="edge9" class="edge">
<title>n3&#45;&gt;n9:n</title>
<path fill="none" stroke="blue" d="M360.79,-447.39C327.07,-433.69 273.05,-405.16 265.01,-360.8"/>
<polygon fill="blue" stroke="blue" points="268.51,-360.66 264.14,-351.01 261.54,-361.28 268.51,-360.66"/>
</g>
<!-- n12 -->
<g id="node13" class="node">
<title>n12</title>
<polygon fill="#fff3e6" stroke="black" points="878,-348.5 824,-348.5 824,-291.75 878,-291.75 878,-348.5"/>
<text xml:space="preserve" text-anchor="start" x="835.25" y="-336.9" font-family="Courier New" font-size="8.00">+</text>
<text xml:space="preserve" text-anchor="start" x="835.25" y="-327.15" font-family="Courier New" font-size="8.00">+</text>
<text xml:space="preserve" text-anchor="start" x="835.25" y="-317.4" font-family="Courier New" font-size="8.00">═════</text>
<text xml:space="preserve" text-anchor="start" x="835.25" y="-307.65" font-family="Courier New" font-size="8.00">(2,0)</text>
<text xml:space="preserve" text-anchor="start" x="835.25" y="-297.9" font-family="Courier New" font-size="8.00">r| &#160;ε=1</text>
</g>
<!-- n3&#45;&gt;n12 -->
<g id="edge12" class="edge">
<title>n3&#45;&gt;n12:n</title>
<path fill="none" stroke="blue" d="M415.23,-456.55C510.22,-454.29 822.52,-440.79 849.18,-360.7"/>
<polygon fill="blue" stroke="blue" points="852.61,-361.43 850.76,-350.99 845.7,-360.3 852.61,-361.43"/>
</g>
<!-- n4&#45;&gt;n0 -->
<g id="edge16" class="edge">
<title>n4&#45;&gt;n0</title>
<path fill="none" stroke="green" d="M733.11,-44.38C726.42,-44.38 719.73,-44.38 713.04,-44.38"/>
<polygon fill="green" stroke="green" points="732.76,-45.43 735.76,-44.38 732.76,-43.33 732.76,-45.43"/>
<polygon fill="green" stroke="green" points="713.07,-43.33 710.07,-44.38 713.07,-45.43 713.07,-43.33"/>
</g>
<!-- n4&#45;&gt;n15 -->
<g id="edge17" class="edge">
<title>n4&#45;&gt;n15</title>
<path fill="none" stroke="#9933cc" d="M799.04,-44.38C805.73,-44.38 812.42,-44.38 819.11,-44.38"/>
<polygon fill="#9933cc" stroke="#9933cc" points="799.07,-43.33 796.07,-44.38 799.07,-45.43 799.07,-43.33"/>
<polygon fill="#9933cc" stroke="#9933cc" points="818.76,-45.43 821.76,-44.38 818.76,-43.33 818.76,-45.43"/>
</g>
<!-- n16 -->
<g id="node17" class="node">
<title>n16</title>
<polygon fill="#f8f8f8" stroke="black" points="966.25,-62.38 909.75,-62.38 909.75,-26.38 966.25,-26.38 966.25,-62.38"/>
<text xml:space="preserve" text-anchor="start" x="917.75" y="-46.52" font-family="Courier New" font-size="8.00">=*= | +&#45;+</text>
<text xml:space="preserve" text-anchor="start" x="917.75" y="-36.77" font-family="Courier New" font-size="8.00">* &#160;&#160;| &#45; &#160;</text>
</g>
<!-- n4&#45;&gt;n16 -->
<g id="edge15" class="edge">
<title>n4&#45;&gt;n16</title>
<path fill="none" stroke="red" d="M781.59,-76.75C791.23,-92.83 805.26,-110.72 823.5,-119.75 846.2,-130.99 857.8,-130.99 880.5,-119.75 902.72,-108.75 918.69,-84.61 928.08,-66.59"/>
<polygon fill="red" stroke="red" points="782.66,-76.5 780.24,-74.44 780.85,-77.56 782.66,-76.5"/>
<polygon fill="red" stroke="red" points="928.99,-67.12 929.42,-63.97 927.12,-66.17 928.99,-67.12"/>
</g>
<!-- n19 -->
<g id="node20" class="node">
<title>n19</title>
<polygon fill="#f8f8f8" stroke="black" points="1215,-62.38 1161,-62.38 1161,-26.38 1215,-26.38 1215,-62.38"/>
<text xml:space="preserve" text-anchor="start" x="1181.25" y="-46.52" font-family="Courier New" font-size="8.00">*=*</text>
<text xml:space="preserve" text-anchor="start" x="1181.25" y="-36.77" font-family="Courier New" font-size="8.00">* &#160;</text>
</g>
<!-- n5&#45;&gt;n19 -->
<g id="edge31" class="edge">
<title>n5&#45;&gt;n19</title>
<path fill="none" stroke="red" d="M1037.19,-76.73C1046.62,-92.81 1060.41,-110.7 1078.5,-119.75 1099.96,-130.49 1111.08,-130.58 1132.5,-119.75 1154.34,-108.71 1169.69,-84.57 1178.63,-66.57"/>
<polygon fill="red" stroke="red" points="1038.27,-76.51 1035.87,-74.43 1036.45,-77.56 1038.27,-76.51"/>
<polygon fill="red" stroke="red" points="1179.53,-67.12 1179.89,-63.96 1177.64,-66.2 1179.53,-67.12"/>
</g>
<!-- n20 -->
<g id="node21" class="node">
<title>n20</title>
<polygon fill="#f8f8f8" stroke="black" points="1298,-62.38 1244,-62.38 1244,-26.38 1298,-26.38 1298,-62.38"/>
<text xml:space="preserve" text-anchor="start" x="1264.25" y="-46.52" font-family="Courier New" font-size="8.00">+&#45;+</text>
<text xml:space="preserve" text-anchor="start" x="1264.25" y="-36.77" font-family="Courier New" font-size="8.00">* &#160;</text>
</g>
<!-- n5&#45;&gt;n20 -->
<g id="edge32" class="edge">
<title>n5&#45;&gt;n20</title>
<path fill="none" stroke="#9933cc" d="M1037.19,-76.73C1046.62,-92.81 1060.41,-110.7 1078.5,-119.75 1132.96,-146.99 1161.16,-147.22 1215.5,-119.75 1237.34,-108.71 1252.69,-84.57 1261.63,-66.57"/>
<polygon fill="#9933cc" stroke="#9933cc" points="1038.27,-76.51 1035.87,-74.43 1036.45,-77.56 1038.27,-76.51"/>
<polygon fill="#9933cc" stroke="#9933cc" points="1262.53,-67.12 1262.89,-63.96 1260.64,-66.2 1262.53,-67.12"/>
</g>
<!-- n7 -->
<g id="node8" class="node">
<title>n7</title>
<polygon fill="#fff3e6" stroke="black" points="208,-72.75 154,-72.75 154,-16 208,-16 208,-72.75"/>
<text xml:space="preserve" text-anchor="start" x="163" y="-61.15" font-family="Courier New" font-size="8.00">=*=</text>
<text xml:space="preserve" text-anchor="start" x="163" y="-51.4" font-family="Courier New" font-size="8.00">+ &#160;</text>
<text xml:space="preserve" text-anchor="start" x="163" y="-41.65" font-family="Courier New" font-size="8.00">═════</text>
<text xml:space="preserve" text-anchor="start" x="163" y="-31.9" font-family="Courier New" font-size="8.00">(2,2)</text>
<text xml:space="preserve" text-anchor="start" x="163" y="-22.15" font-family="Courier New" font-size="8.00">cc| &#160;ε=1</text>
</g>
<!-- n8 -->
<g id="node9" class="node">
<title>n8</title>
<polygon fill="#e6f3ff" stroke="black" points="291,-205.75 237,-205.75 237,-158.75 291,-158.75 291,-205.75"/>
<text xml:space="preserve" text-anchor="start" x="248.25" y="-194.15" font-family="Courier New" font-size="8.00">*=</text>
<text xml:space="preserve" text-anchor="start" x="248.25" y="-184.4" font-family="Courier New" font-size="8.00">═════</text>
<text xml:space="preserve" text-anchor="start" x="248.25" y="-174.65" font-family="Courier New" font-size="8.00">(1,1)</text>
<text xml:space="preserve" text-anchor="start" x="248.25" y="-164.9" font-family="Courier New" font-size="8.00">c| &#160;ε=0</text>
</g>
<!-- n8&#45;&gt;n7 -->
<g id="edge7" class="edge">
<title>n8&#45;&gt;n7:n</title>
<path fill="none" stroke="blue" d="M236.82,-162.43C215.07,-145.17 187.35,-117.41 181.94,-84.94"/>
<polygon fill="blue" stroke="blue" points="185.45,-84.93 181.13,-75.26 178.47,-85.52 185.45,-84.93"/>
</g>
<!-- n13 -->
<g id="node14" class="node">
<title>n13</title>
<polygon fill="#fff3e6" stroke="black" points="374,-72.75 320,-72.75 320,-16 374,-16 374,-72.75"/>
<text xml:space="preserve" text-anchor="start" x="329" y="-61.15" font-family="Courier New" font-size="8.00">&#45;+&#45;</text>
<text xml:space="preserve" text-anchor="start" x="329" y="-51.4" font-family="Courier New" font-size="8.00">= &#160;</text>
<text xml:space="preserve" text-anchor="start" x="329" y="-41.65" font-family="Courier New" font-size="8.00">═════</text>
<text xml:space="preserve" text-anchor="start" x="329" y="-31.9" font-family="Courier New" font-size="8.00">(1,3)</text>
<text xml:space="preserve" text-anchor="start" x="329" y="-22.15" font-family="Courier New" font-size="8.00">sc| &#160;ε=1</text>
</g>
<!-- n8&#45;&gt;n13 -->
<g id="edge13" class="edge">
<title>n8&#45;&gt;n13:n</title>
<path fill="none" stroke="blue" d="M291.18,-162.43C312.93,-145.17 340.65,-117.41 346.06,-84.94"/>
<polygon fill="blue" stroke="blue" points="349.53,-85.52 346.87,-75.26 342.55,-84.93 349.53,-85.52"/>
</g>
<!-- n9&#45;&gt;n8 -->
<g id="edge8" class="edge">
<title>n9&#45;&gt;n8:n</title>
<path fill="none" stroke="blue" d="M264,-291.63C264,-271.54 264,-243.31 264,-216.92"/>
<polygon fill="blue" stroke="blue" points="267.5,-217.26 264,-207.26 260.5,-217.26 267.5,-217.26"/>
</g>
<!-- n9&#45;&gt;n18 -->
<g id="edge43" class="edge">
<title>n9&#45;&gt;n18</title>
<path fill="none" stroke="red" d="M279.19,-352.48C288.62,-368.56 302.41,-386.45 320.5,-395.5 341.96,-406.24 353.08,-406.33 374.5,-395.5 396.34,-384.46 411.69,-360.32 420.63,-342.32"/>
<polygon fill="red" stroke="red" points="280.27,-352.26 277.87,-350.18 278.45,-353.31 280.27,-352.26"/>
<polygon fill="red" stroke="red" points="421.53,-342.87 421.89,-339.71 419.64,-341.95 421.53,-342.87"/>
</g>
<!-- n10 -->
<g id="node11" class="node">
<title>n10</title>
<polygon fill="#fff3e6" stroke="black" points="1132,-72.75 1078,-72.75 1078,-16 1132,-16 1132,-72.75"/>
<text xml:space="preserve" text-anchor="start" x="1087" y="-61.15" font-family="Courier New" font-size="8.00">*=*</text>
<text xml:space="preserve" text-anchor="start" x="1087" y="-51.4" font-family="Courier New" font-size="8.00">+ &#160;</text>
<text xml:space="preserve" text-anchor="start" x="1087" y="-41.65" font-family="Courier New" font-size="8.00">═════</text>
<text xml:space="preserve" text-anchor="start" x="1087" y="-31.9" font-family="Courier New" font-size="8.00">(3,1)</text>
<text xml:space="preserve" text-anchor="start" x="1087" y="-22.15" font-family="Courier New" font-size="8.00">rc| &#160;ε=1</text>
</g>
<!-- n10&#45;&gt;n5 -->
<g id="edge29" class="edge">
<title>n10&#45;&gt;n5</title>
<path fill="none" stroke="green" d="M1073.07,-44.38C1066.6,-44.38 1060.13,-44.38 1053.66,-44.38"/>
<polygon fill="green" stroke="green" points="1073.04,-45.43 1076.04,-44.38 1073.04,-43.33 1073.04,-45.43"/>
<polygon fill="green" stroke="green" points="1053.75,-43.33 1050.75,-44.38 1053.75,-45.43 1053.75,-43.33"/>
</g>
<!-- n10&#45;&gt;n19 -->
<g id="edge30" class="edge">
<title>n10&#45;&gt;n19</title>
<path fill="none" stroke="#9933cc" d="M1136.66,-44.38C1143.13,-44.38 1149.6,-44.38 1156.07,-44.38"/>
<polygon fill="#9933cc" stroke="#9933cc" points="1136.75,-43.33 1133.75,-44.38 1136.75,-45.43 1136.75,-43.33"/>
<polygon fill="#9933cc" stroke="#9933cc" points="1156.04,-45.43 1159.04,-44.38 1156.04,-43.33 1156.04,-45.43"/>
</g>
<!-- n10&#45;&gt;n20 -->
<g id="edge28" class="edge">
<title>n10&#45;&gt;n20</title>
<path fill="none" stroke="red" d="M1120.19,-76.73C1129.62,-92.81 1143.41,-110.7 1161.5,-119.75 1182.96,-130.49 1194.08,-130.58 1215.5,-119.75 1237.34,-108.71 1252.69,-84.57 1261.63,-66.57"/>
<polygon fill="red" stroke="red" points="1121.27,-76.51 1118.87,-74.43 1119.45,-77.56 1121.27,-76.51"/>
<polygon fill="red" stroke="red" points="1262.53,-67.12 1262.89,-63.96 1260.64,-66.2 1262.53,-67.12"/>
</g>
<!-- n11 -->
<g id="node12" class="node">
<title>n11</title>
<polygon fill="#e6f3ff" stroke="black" points="1132,-205.75 1078,-205.75 1078,-158.75 1132,-158.75 1132,-205.75"/>
<text xml:space="preserve" text-anchor="start" x="1089.25" y="-194.15" font-family="Courier New" font-size="8.00">=*</text>
<text xml:space="preserve" text-anchor="start" x="1089.25" y="-184.4" font-family="Courier New" font-size="8.00">═════</text>
<text xml:space="preserve" text-anchor="start" x="1089.25" y="-174.65" font-family="Courier New" font-size="8.00">(1,1)</text>
<text xml:space="preserve" text-anchor="start" x="1089.25" y="-164.9" font-family="Courier New" font-size="8.00">r| &#160;ε=0</text>
</g>
<!-- n11&#45;&gt;n10 -->
<g id="edge10" class="edge">
<title>n11&#45;&gt;n10:n</title>
<path fill="none" stroke="blue" d="M1105,-158.6C1105,-139.56 1105,-111.31 1105,-84.92"/>
<polygon fill="blue" stroke="blue" points="1108.5,-85.26 1105,-75.26 1101.5,-85.26 1108.5,-85.26"/>
</g>
<!-- n14 -->
<g id="node15" class="node">
<title>n14</title>
<polygon fill="#fff3e6" stroke="black" points="1381,-72.75 1327,-72.75 1327,-16 1381,-16 1381,-72.75"/>
<text xml:space="preserve" text-anchor="start" x="1336" y="-61.15" font-family="Courier New" font-size="8.00">+&#45;+</text>
<text xml:space="preserve" text-anchor="start" x="1336" y="-51.4" font-family="Courier New" font-size="8.00">= &#160;</text>
<text xml:space="preserve" text-anchor="start" x="1336" y="-41.65" font-family="Courier New" font-size="8.00">═════</text>
<text xml:space="preserve" text-anchor="start" x="1336" y="-31.9" font-family="Courier New" font-size="8.00">(2,2)</text>
<text xml:space="preserve" text-anchor="start" x="1336" y="-22.15" font-family="Courier New" font-size="8.00">sr| &#160;ε=1</text>
</g>
<!-- n11&#45;&gt;n14 -->
<g id="edge14" class="edge">
<title>n11&#45;&gt;n14:n</title>
<path fill="none" stroke="blue" d="M1132.12,-181.63C1194.01,-181.01 1341.25,-170.49 1353.22,-85.12"/>
<polygon fill="blue" stroke="blue" points="1356.71,-85.48 1353.9,-75.26 1349.72,-85 1356.71,-85.48"/>
</g>
<!-- n12&#45;&gt;n11 -->
<g id="edge11" class="edge">
<title>n12&#45;&gt;n11:n</title>
<path fill="none" stroke="blue" d="M878.46,-293.72C883.12,-290.09 888.05,-286.62 893,-283.75 976.34,-235.34 1095.04,-300.51 1104.41,-217"/>
<polygon fill="blue" stroke="blue" points="1107.89,-217.43 1104.92,-207.26 1100.9,-217.06 1107.89,-217.43"/>
</g>
<!-- n24 -->
<g id="node25" class="node">
<title>n24</title>
<polygon fill="#f8f8f8" stroke="black" points="961,-338.12 907,-338.12 907,-302.12 961,-302.12 961,-338.12"/>
<text xml:space="preserve" text-anchor="start" x="931.75" y="-322.27" font-family="Courier New" font-size="8.00">*</text>
<text xml:space="preserve" text-anchor="start" x="931.75" y="-312.52" font-family="Courier New" font-size="8.00">*</text>
</g>
<!-- n12&#45;&gt;n24 -->
<g id="edge23" class="edge">
<title>n12&#45;&gt;n24</title>
<path fill="none" stroke="red" d="M882.4,-300.1C889.56,-298.32 896.72,-298.43 903.88,-300.44"/>
<polygon fill="red" stroke="red" points="882.25,-299.05 879.68,-300.92 882.86,-301.06 882.25,-299.05"/>
<polygon fill="red" stroke="red" points="903.24,-301.34 906.42,-301.28 903.9,-299.35 903.24,-301.34"/>
</g>
<!-- n12&#45;&gt;n24 -->
<g id="edge24" class="edge">
<title>n12&#45;&gt;n24</title>
<path fill="none" stroke="#9933cc" d="M882.4,-340.15C889.56,-341.93 896.72,-341.82 903.88,-339.81"/>
<polygon fill="#9933cc" stroke="#9933cc" points="882.86,-339.19 879.68,-339.33 882.25,-341.2 882.86,-339.19"/>
<polygon fill="#9933cc" stroke="#9933cc" points="903.9,-340.9 906.42,-338.97 903.24,-338.91 903.9,-340.9"/>
</g>
<!-- n13&#45;&gt;n6 -->
<g id="edge22" class="edge">
<title>n13&#45;&gt;n6</title>
<path fill="none" stroke="#9933cc" d="M362.19,-76.73C371.62,-92.81 385.41,-110.7 403.5,-119.75 457.96,-146.99 486.16,-147.22 540.5,-119.75 558.43,-110.68 571.99,-92.79 581.21,-76.71"/>
<polygon fill="#9933cc" stroke="#9933cc" points="363.27,-76.51 360.87,-74.43 361.45,-77.56 363.27,-76.51"/>
<polygon fill="#9933cc" stroke="#9933cc" points="581.95,-77.55 582.5,-74.42 580.12,-76.53 581.95,-77.55"/>
</g>
<!-- n21 -->
<g id="node22" class="node">
<title>n21</title>
<polygon fill="#f8f8f8" stroke="black" points="457,-62.38 403,-62.38 403,-26.38 457,-26.38 457,-62.38"/>
<text xml:space="preserve" text-anchor="start" x="423.25" y="-46.52" font-family="Courier New" font-size="8.00">&#45;+&#45;</text>
<text xml:space="preserve" text-anchor="start" x="423.25" y="-36.77" font-family="Courier New" font-size="8.00">&#45; &#160;</text>
</g>
<!-- n13&#45;&gt;n21 -->
<g id="edge21" class="edge">
<title>n13&#45;&gt;n21</title>
<path fill="none" stroke="green" d="M378.66,-44.38C385.13,-44.38 391.6,-44.38 398.07,-44.38"/>
<polygon fill="green" stroke="green" points="378.75,-43.33 375.75,-44.38 378.75,-45.43 378.75,-43.33"/>
<polygon fill="green" stroke="green" points="398.04,-45.43 401.04,-44.38 398.04,-43.33 398.04,-45.43"/>
</g>
<!-- n22 -->
<g id="node23" class="node">
<title>n22</title>
<polygon fill="#f8f8f8" stroke="black" points="540,-62.38 486,-62.38 486,-26.38 540,-26.38 540,-62.38"/>
<text xml:space="preserve" text-anchor="start" x="506.25" y="-46.52" font-family="Courier New" font-size="8.00">=*=</text>
<text xml:space="preserve" text-anchor="start" x="506.25" y="-36.77" font-family="Courier New" font-size="8.00">&#45; &#160;</text>
</g>
<!-- n13&#45;&gt;n22 -->
<g id="edge20" class="edge">
<title>n13&#45;&gt;n22</title>
<path fill="none" stroke="red" d="M362.19,-76.73C371.62,-92.81 385.41,-110.7 403.5,-119.75 424.96,-130.49 436.08,-130.58 457.5,-119.75 479.34,-108.71 494.69,-84.57 503.63,-66.57"/>
<polygon fill="red" stroke="red" points="363.27,-76.51 360.87,-74.43 361.45,-77.56 363.27,-76.51"/>
<polygon fill="red" stroke="red" points="504.53,-67.12 504.89,-63.96 502.64,-66.2 504.53,-67.12"/>
</g>
<!-- n25 -->
<g id="node26" class="node">
<title>n25</title>
<polygon fill="#f8f8f8" stroke="black" points="1464,-62.38 1410,-62.38 1410,-26.38 1464,-26.38 1464,-62.38"/>
<text xml:space="preserve" text-anchor="start" x="1430.25" y="-46.52" font-family="Courier New" font-size="8.00">*=*</text>
<text xml:space="preserve" text-anchor="start" x="1430.25" y="-36.77" font-family="Courier New" font-size="8.00">&#45; &#160;</text>
</g>
<!-- n14&#45;&gt;n25 -->
<g id="edge18" class="edge">
<title>n14&#45;&gt;n25</title>
<path fill="none" stroke="red" d="M1385.4,-24.35C1392.56,-22.57 1399.72,-22.68 1406.88,-24.69"/>
<polygon fill="red" stroke="red" points="1385.25,-23.3 1382.68,-25.17 1385.86,-25.31 1385.25,-23.3"/>
<polygon fill="red" stroke="red" points="1406.24,-25.59 1409.42,-25.53 1406.9,-23.6 1406.24,-25.59"/>
</g>
<!-- n14&#45;&gt;n25 -->
<g id="edge19" class="edge">
<title>n14&#45;&gt;n25</title>
<path fill="none" stroke="green" d="M1385.4,-64.4C1392.56,-66.18 1399.72,-66.07 1406.88,-64.06"/>
<polygon fill="green" stroke="green" points="1385.86,-63.44 1382.68,-63.58 1385.25,-65.45 1385.86,-63.44"/>
<polygon fill="green" stroke="green" points="1406.9,-65.15 1409.42,-63.22 1406.24,-63.16 1406.9,-65.15"/>
</g>
<!-- n16&#45;&gt;n0 -->
<g id="edge34" class="edge">
<title>n16&#45;&gt;n0</title>
<path fill="none" stroke="#9933cc" d="M928.08,-66.59C918.69,-84.61 902.72,-108.75 880.5,-119.75 823.54,-147.94 794.46,-147.94 737.5,-119.75 719.26,-110.72 705.23,-92.83 695.59,-76.75"/>
<polygon fill="#9933cc" stroke="#9933cc" points="928.99,-67.12 929.42,-63.97 927.12,-66.17 928.99,-67.12"/>
<polygon fill="#9933cc" stroke="#9933cc" points="696.66,-76.5 694.24,-74.44 694.85,-77.56 696.66,-76.5"/>
</g>
<!-- n16&#45;&gt;n15 -->
<g id="edge33" class="edge">
<title>n16&#45;&gt;n15</title>
<path fill="none" stroke="green" d="M905.11,-44.38C898.42,-44.38 891.73,-44.38 885.04,-44.38"/>
<polygon fill="green" stroke="green" points="904.76,-45.43 907.76,-44.38 904.76,-43.33 904.76,-45.43"/>
<polygon fill="green" stroke="green" points="885.07,-43.33 882.07,-44.38 885.07,-45.43 885.07,-43.33"/>
</g>
<!-- n17 -->
<g id="node18" class="node">
<title>n17</title>
<polygon fill="#f8f8f8" stroke="black" points="374,-338.12 320,-338.12 320,-302.12 374,-302.12 374,-338.12"/>
<text xml:space="preserve" text-anchor="start" x="344.75" y="-322.27" font-family="Courier New" font-size="8.00">=</text>
<text xml:space="preserve" text-anchor="start" x="344.75" y="-312.52" font-family="Courier New" font-size="8.00">*</text>
</g>
<!-- n17&#45;&gt;n2 -->
<g id="edge25" class="edge">
<title>n17&#45;&gt;n2</title>
<path fill="none" stroke="red" d="M356.64,-342.33C365.81,-360.34 381.47,-384.48 403.5,-395.5 424.96,-406.24 436.08,-406.33 457.5,-395.5 475.43,-386.43 488.99,-368.54 498.21,-352.46"/>
<polygon fill="red" stroke="red" points="357.62,-341.93 355.35,-339.71 355.74,-342.87 357.62,-341.93"/>
<polygon fill="red" stroke="red" points="498.95,-353.3 499.5,-350.17 497.12,-352.28 498.95,-353.3"/>
</g>
<!-- n17&#45;&gt;n9 -->
<g id="edge27" class="edge">
<title>n17&#45;&gt;n9</title>
<path fill="none" stroke="#9933cc" d="M315.07,-320.12C308.6,-320.12 302.13,-320.12 295.66,-320.12"/>
<polygon fill="#9933cc" stroke="#9933cc" points="315.04,-321.18 318.04,-320.13 315.04,-319.08 315.04,-321.18"/>
<polygon fill="#9933cc" stroke="#9933cc" points="295.75,-319.08 292.75,-320.13 295.75,-321.18 295.75,-319.08"/>
</g>
<!-- n17&#45;&gt;n18 -->
<g id="edge26" class="edge">
<title>n17&#45;&gt;n18</title>
<path fill="none" stroke="green" d="M378.66,-320.12C385.13,-320.12 391.6,-320.12 398.07,-320.12"/>
<polygon fill="green" stroke="green" points="378.75,-319.08 375.75,-320.13 378.75,-321.18 378.75,-319.08"/>
<polygon fill="green" stroke="green" points="398.04,-321.18 401.04,-320.13 398.04,-319.08 398.04,-321.18"/>
</g>
<!-- n19&#45;&gt;n20 -->
<g id="edge42" class="edge">
<title>n19&#45;&gt;n20</title>
<path fill="none" stroke="green" d="M1219.66,-44.38C1226.13,-44.38 1232.6,-44.38 1239.07,-44.38"/>
<polygon fill="green" stroke="green" points="1219.75,-43.33 1216.75,-44.38 1219.75,-45.43 1219.75,-43.33"/>
<polygon fill="green" stroke="green" points="1239.04,-45.43 1242.04,-44.38 1239.04,-43.33 1239.04,-45.43"/>
</g>
<!-- n21&#45;&gt;n6 -->
<g id="edge41" class="edge">
<title>n21&#45;&gt;n6</title>
<path fill="none" stroke="red" d="M439.64,-66.58C448.81,-84.59 464.47,-108.73 486.5,-119.75 507.96,-130.49 519.08,-130.58 540.5,-119.75 558.43,-110.68 571.99,-92.79 581.21,-76.71"/>
<polygon fill="red" stroke="red" points="440.62,-66.18 438.35,-63.96 438.74,-67.12 440.62,-66.18"/>
<polygon fill="red" stroke="red" points="581.95,-77.55 582.5,-74.42 580.12,-76.53 581.95,-77.55"/>
</g>
<!-- n22&#45;&gt;n6 -->
<g id="edge37" class="edge">
<title>n22&#45;&gt;n6</title>
<path fill="none" stroke="green" d="M544.66,-44.38C551.13,-44.38 557.6,-44.38 564.07,-44.38"/>
<polygon fill="green" stroke="green" points="544.75,-43.33 541.75,-44.38 544.75,-45.43 544.75,-43.33"/>
<polygon fill="green" stroke="green" points="564.04,-45.43 567.04,-44.38 564.04,-43.33 564.04,-45.43"/>
</g>
<!-- n22&#45;&gt;n21 -->
<g id="edge38" class="edge">
<title>n22&#45;&gt;n21</title>
<path fill="none" stroke="#9933cc" d="M481.07,-44.38C474.6,-44.38 468.13,-44.38 461.66,-44.38"/>
<polygon fill="#9933cc" stroke="#9933cc" points="481.04,-45.43 484.04,-44.38 481.04,-43.33 481.04,-45.43"/>
<polygon fill="#9933cc" stroke="#9933cc" points="461.75,-43.33 458.75,-44.38 461.75,-45.43 461.75,-43.33"/>
</g>
<!-- n23 -->
<g id="node24" class="node">
<title>n23</title>
<polygon fill="#f8f8f8" stroke="black" points="291,-62.38 237,-62.38 237,-26.38 291,-26.38 291,-62.38"/>
<text xml:space="preserve" text-anchor="start" x="257.25" y="-46.52" font-family="Courier New" font-size="8.00">&#45;+&#45;</text>
<text xml:space="preserve" text-anchor="start" x="257.25" y="-36.77" font-family="Courier New" font-size="8.00">* &#160;</text>
</g>
<!-- n23&#45;&gt;n7 -->
<g id="edge35" class="edge">
<title>n23&#45;&gt;n7</title>
<path fill="none" stroke="red" d="M233.88,-24.69C226.72,-22.68 219.56,-22.57 212.4,-24.35"/>
<polygon fill="red" stroke="red" points="233.24,-25.59 236.42,-25.53 233.9,-23.6 233.24,-25.59"/>
<polygon fill="red" stroke="red" points="212.25,-23.3 209.68,-25.17 212.86,-25.31 212.25,-23.3"/>
</g>
<!-- n23&#45;&gt;n7 -->
<g id="edge36" class="edge">
<title>n23&#45;&gt;n7</title>
<path fill="none" stroke="#9933cc" d="M233.88,-64.06C226.72,-66.07 219.56,-66.18 212.4,-64.4"/>
<polygon fill="#9933cc" stroke="#9933cc" points="233.9,-65.15 236.42,-63.22 233.24,-63.16 233.9,-65.15"/>
<polygon fill="#9933cc" stroke="#9933cc" points="212.86,-63.44 209.68,-63.58 212.25,-65.45 212.86,-63.44"/>
</g>
<!-- gp_C_0 -->
<g id="node27" class="node">
<title>gp_C_0</title>
<text xml:space="preserve" text-anchor="middle" x="27" y="-453.55" font-family="Helvetica,sans-Serif" font-size="11.00" fill="#333333">Sp(0)</text>
</g>
<!-- gp_C_0&#45;&gt;n3 -->
<!-- gp_C_1 -->
<g id="node28" class="node">
<title>gp_C_1</title>
<text xml:space="preserve" text-anchor="middle" x="27" y="-177.8" font-family="Helvetica,sans-Serif" font-size="11.00" fill="#333333">Sp(2)</text>
</g>
<!-- gp_C_0&#45;&gt;gp_C_1 -->
<!-- gp_C_1&#45;&gt;n1 -->
<!-- gp_D_1 -->
<g id="node29" class="node">
<title>gp_D_1</title>
<text xml:space="preserve" text-anchor="middle" x="98" y="-315.68" font-family="Helvetica,sans-Serif" font-size="11.00" fill="#333333">SO(2)</text>
</g>
<!-- gp_C_1&#45;&gt;gp_D_1 -->
<!-- gp_D_1&#45;&gt;n2 -->
<!-- gp_D_2 -->
<g id="node30" class="node">
<title>gp_D_2</title>
<text xml:space="preserve" text-anchor="middle" x="98" y="-39.92" font-family="Helvetica,sans-Serif" font-size="11.00" fill="#333333">SO(4)</text>
</g>
<!-- gp_D_1&#45;&gt;gp_D_2 -->
<!-- gp_D_2&#45;&gt;n0 -->
</g>
</svg>
