<?xml version="1.0" encoding="UTF-8" standalone="no"?>
<!DOCTYPE svg PUBLIC "-//W3C//DTD SVG 1.1//EN"
 "http://www.w3.org/Graphics/SVG/1.1/DTD/svg11.dtd">
<!-- Generated by graphviz version 13.1.2 (20250808.2320)
 -->
<!-- Title: Lifting Tree Pages: 1 -->
<svg width="2929pt" height="506pt"
 viewBox="0.00 0.00 2929.00 506.00" xmlns="http://www.w3.org/2000/svg" xmlns:xlink="http://www.w3.org/1999/xlink">
<g id="graph0" class="graph" transform="scale(2.08333 2.08333) rotate(0) translate(4 239)">
<title>Lifting Tree</title>
<polygon fill="white" stroke="none" points="-4,4 -4,-239 1402,-239 1402,4 -4,4"/>
<g id="clust2" class="cluster">
<title>cluster_tw_0</title>
<polygon fill="none" stroke="#999999" stroke-width="0.8" stroke-dasharray="1,5" points="75,-8 75,-110 394,-110 394,-8 75,-8"/>
</g>
<g id="clust3" class="cluster">
<title>cluster_tw_1</title>
<polygon fill="none" stroke="#999999" stroke-width="0.8" stroke-dasharray="1,5" points="1071,-8 1071,-110 1390,-110 1390,-8 1071,-8"/>
</g>
<g id="clust4" class="cluster">
<title>cluster_tw_2</title>
<polygon fill="none" stroke="#999999" stroke-width="0.8" stroke-dasharray="1,5" points="407,-8 407,-110 726,-110 726,-8 407,-8"/>
</g>
<g id="clust5" class="cluster">
<title>cluster_tw_3</title>
<polygon fill="none" stroke="#999999" stroke-width="0.8" stroke-dasharray="1,5" points="739,-8 739,-110 892,-110 892,-8 739,-8"/>
</g>
<g id="clust6" class="cluster">
<title>cluster_tw_4</title>
<polygon fill="none" stroke="#999999" stroke-width="0.8" stroke-dasharray="1,5" points="905,-8 905,-110 1058,-110 1058,-8 905,-8"/>
</g>
<!-- n0 -->
<g id="node1" class="node">
<title>n0</title>
<polygon fill="#fff3e6" stroke="black" points="1133,-102 1079,-102 1079,-16 1133,-16 1133,-102"/>
<text xml:space="preserve" text-anchor="start" x="1090.25" y="-90.4" font-family="Courier New" font-size="8.00">&#45;</text>
<text xml:space="preserve" text-anchor="start" x="1090.25" y="-80.65" font-family="Courier New" font-size="8.00">&#45;</text>
<text xml:space="preserve" text-anchor="start" x="1090.25" y="-70.9" font-family="Courier New" font-size="8.00">+</text>
<text xml:space="preserve" text-anchor="start" x="1090.25" y="-61.15" font-family="Courier New" font-size="8.00">+</text>
<text xml:space="preserve" text-anchor="start" x="1090.25" y="-51.4" font-family="Courier New" font-size="8.00">═════</text>
<text xml:space="preserve" text-anchor="start" x="1090.25" y="-41.65" font-family="Courier New" font-size="8.00">(2,2)</text>
<text xml:space="preserve" text-anchor="start" x="1090.25" y="-31.9" font-family="Courier New" font-size="8.00">c| </text>
<text xml:space="preserve" text-anchor="start" x="1090.25" y="-22.15" font-family="Courier New" font-size="8.00">d| &#160;ε=0</text>
</g>
<!-- n7 -->
<g id="node8" class="node">
<title>n7</title>
<polygon fill="#fff3e6" stroke="black" points="1216,-102 1162,-102 1162,-16 1216,-16 1216,-102"/>
<text xml:space="preserve" text-anchor="start" x="1173.25" y="-90.4" font-family="Courier New" font-size="8.00">=</text>
<text xml:space="preserve" text-anchor="start" x="1173.25" y="-80.65" font-family="Courier New" font-size="8.00">=</text>
<text xml:space="preserve" text-anchor="start" x="1173.25" y="-70.9" font-family="Courier New" font-size="8.00">+</text>
<text xml:space="preserve" text-anchor="start" x="1173.25" y="-61.15" font-family="Courier New" font-size="8.00">+</text>
<text xml:space="preserve" text-anchor="start" x="1173.25" y="-51.4" font-family="Courier New" font-size="8.00">═════</text>
<text xml:space="preserve" text-anchor="start" x="1173.25" y="-41.65" font-family="Courier New" font-size="8.00">(2,2)</text>
<text xml:space="preserve" text-anchor="start" x="1173.25" y="-31.9" font-family="Courier New" font-size="8.00">s| </text>
<text xml:space="preserve" text-anchor="start" x="1173.25" y="-22.15" font-family="Courier New" font-size="8.00">r| &#160;ε=1</text>
</g>
<!-- n0&#45;&gt;n7 -->
<g id="edge13" class="edge">
<title>n0&#45;&gt;n7</title>
<path fill="none" stroke="green" d="M1137.66,-59C1144.13,-59 1150.6,-59 1157.07,-59"/>
<polygon fill="green" stroke="green" points="1137.75,-57.95 1134.75,-59 1137.75,-60.05 1137.75,-57.95"/>
<polygon fill="green" stroke="green" points="1157.04,-60.05 1160.04,-59 1157.04,-57.95 1157.04,-60.05"/>
</g>
<!-- n9 -->
<g id="node10" class="node">
<title>n9</title>
<polygon fill="#f8f8f8" stroke="black" points="1299,-82.5 1245,-82.5 1245,-35.5 1299,-35.5 1299,-82.5"/>
<text xml:space="preserve" text-anchor="start" x="1269.75" y="-70.9" font-family="Courier New" font-size="8.00">=</text>
<text xml:space="preserve" text-anchor="start" x="1269.75" y="-61.15" font-family="Courier New" font-size="8.00">=</text>
<text xml:space="preserve" text-anchor="start" x="1269.75" y="-51.4" font-family="Courier New" font-size="8.00">*</text>
<text xml:space="preserve" text-anchor="start" x="1269.75" y="-41.65" font-family="Courier New" font-size="8.00">*</text>
</g>
<!-- n0&#45;&gt;n9 -->
<g id="edge12" class="edge">
<title>n0&#45;&gt;n9</title>
<path fill="none" stroke="red" d="M1124.07,-106.19C1132.98,-122.78 1145.54,-139.62 1162.5,-149 1183.5,-160.61 1195.54,-160.7 1216.5,-149 1240.09,-135.83 1254.9,-108.05 1263.23,-86.82"/>
<polygon fill="red" stroke="red" points="1125.13,-105.95 1122.82,-103.77 1123.27,-106.92 1125.13,-105.95"/>
<polygon fill="red" stroke="red" points="1264.19,-87.26 1264.27,-84.08 1262.22,-86.51 1264.19,-87.26"/>
</g>
<!-- n10 -->
<g id="node11" class="node">
<title>n10</title>
<polygon fill="#f8f8f8" stroke="black" points="1382,-82.5 1328,-82.5 1328,-35.5 1382,-35.5 1382,-82.5"/>
<text xml:space="preserve" text-anchor="start" x="1352.75" y="-70.9" font-family="Courier New" font-size="8.00">&#45;</text>
<text xml:space="preserve" text-anchor="start" x="1352.75" y="-61.15" font-family="Courier New" font-size="8.00">&#45;</text>
<text xml:space="preserve" text-anchor="start" x="1352.75" y="-51.4" font-family="Courier New" font-size="8.00">*</text>
<text xml:space="preserve" text-anchor="start" x="1352.75" y="-41.65" font-family="Courier New" font-size="8.00">*</text>
</g>
<!-- n0&#45;&gt;n10 -->
<g id="edge14" class="edge">
<title>n0&#45;&gt;n10</title>
<path fill="none" stroke="#9933cc" d="M1124.07,-106.19C1132.98,-122.78 1145.54,-139.62 1162.5,-149 1215.79,-178.46 1246.33,-178.68 1299.5,-149 1323.09,-135.83 1337.9,-108.05 1346.23,-86.82"/>
<polygon fill="#9933cc" stroke="#9933cc" points="1125.13,-105.95 1122.82,-103.77 1123.27,-106.92 1125.13,-105.95"/>
<polygon fill="#9933cc" stroke="#9933cc" points="1347.19,-87.26 1347.27,-84.08 1345.22,-86.51 1347.19,-87.26"/>
</g>
<!-- n1 -->
<g id="node2" class="node">
<title>n1</title>
<polygon fill="#e6f3ff" stroke="black" points="552,-235 498,-235 498,-188 552,-188 552,-235"/>
<text xml:space="preserve" text-anchor="start" x="509.25" y="-223.4" font-family="Courier New" font-size="8.00">(triv)</text>
<text xml:space="preserve" text-anchor="start" x="509.25" y="-213.65" font-family="Courier New" font-size="8.00">═════</text>
<text xml:space="preserve" text-anchor="start" x="509.25" y="-203.9" font-family="Courier New" font-size="8.00">(0,0)</text>
<text xml:space="preserve" text-anchor="start" x="509.25" y="-194.15" font-family="Courier New" font-size="8.00"> | &#160;ε=0</text>
</g>
<!-- n1&#45;&gt;n0 -->
<g id="edge1" class="edge">
<title>n1&#45;&gt;n0:n</title>
<path fill="none" stroke="blue" d="M552.24,-208.39C660.15,-199.7 1054.04,-164.68 1101.34,-113.16"/>
<polygon fill="blue" stroke="blue" points="1104.39,-114.93 1105.37,-104.38 1098.02,-112.01 1104.39,-114.93"/>
</g>
<!-- n2 -->
<g id="node3" class="node">
<title>n2</title>
<polygon fill="#fff3e6" stroke="black" points="137,-102 83,-102 83,-16 137,-16 137,-102"/>
<text xml:space="preserve" text-anchor="start" x="94.25" y="-90.4" font-family="Courier New" font-size="8.00">&#45;</text>
<text xml:space="preserve" text-anchor="start" x="94.25" y="-80.65" font-family="Courier New" font-size="8.00">+</text>
<text xml:space="preserve" text-anchor="start" x="94.25" y="-70.9" font-family="Courier New" font-size="8.00">+</text>
<text xml:space="preserve" text-anchor="start" x="94.25" y="-61.15" font-family="Courier New" font-size="8.00">+</text>
<text xml:space="preserve" text-anchor="start" x="94.25" y="-51.4" font-family="Courier New" font-size="8.00">═════</text>
<text xml:space="preserve" text-anchor="start" x="94.25" y="-41.65" font-family="Courier New" font-size="8.00">(3,1)</text>
<text xml:space="preserve" text-anchor="start" x="94.25" y="-31.9" font-family="Courier New" font-size="8.00">r| </text>
<text xml:space="preserve" text-anchor="start" x="94.25" y="-22.15" font-family="Courier New" font-size="8.00">d| &#160;ε=0</text>
</g>
<!-- n1&#45;&gt;n2 -->
<g id="edge2" class="edge">
<title>n1&#45;&gt;n2:n</title>
<path fill="none" stroke="blue" d="M497.77,-209.33C409.77,-204.87 137.25,-185.34 111.9,-113.92"/>
<polygon fill="blue" stroke="blue" points="115.42,-113.74 110.26,-104.49 108.52,-114.94 115.42,-113.74"/>
</g>
<!-- n3 -->
<g id="node4" class="node">
<title>n3</title>
<polygon fill="#fff3e6" stroke="black" points="469,-102 415,-102 415,-16 469,-16 469,-102"/>
<text xml:space="preserve" text-anchor="start" x="426.25" y="-90.4" font-family="Courier New" font-size="8.00">&#45;</text>
<text xml:space="preserve" text-anchor="start" x="426.25" y="-80.65" font-family="Courier New" font-size="8.00">&#45;</text>
<text xml:space="preserve" text-anchor="start" x="426.25" y="-70.9" font-family="Courier New" font-size="8.00">&#45;</text>
<text xml:space="preserve" text-anchor="start" x="426.25" y="-61.15" font-family="Courier New" font-size="8.00">+</text>
<text xml:space="preserve" text-anchor="start" x="426.25" y="-51.4" font-family="Courier New" font-size="8.00">═════</text>
<text xml:space="preserve" text-anchor="start" x="426.25" y="-41.65" font-family="Courier New" font-size="8.00">(1,3)</text>
<text xml:space="preserve" text-anchor="start" x="426.25" y="-31.9" font-family="Courier New" font-size="8.00">s| </text>
<text xml:space="preserve" text-anchor="start" x="426.25" y="-22.15" font-family="Courier New" font-size="8.00">d| &#160;ε=0</text>
</g>
<!-- n1&#45;&gt;n3 -->
<g id="edge3" class="edge">
<title>n1&#45;&gt;n3:n</title>
<path fill="none" stroke="blue" d="M497.82,-191.68C476.07,-174.42 448.35,-146.66 442.94,-114.19"/>
<polygon fill="blue" stroke="blue" points="446.45,-114.18 442.13,-104.51 439.47,-114.77 446.45,-114.18"/>
</g>
<!-- n4 -->
<g id="node5" class="node">
<title>n4</title>
<polygon fill="#fff3e6" stroke="black" points="220,-102 166,-102 166,-16 220,-16 220,-102"/>
<text xml:space="preserve" text-anchor="start" x="177.25" y="-90.4" font-family="Courier New" font-size="8.00">=</text>
<text xml:space="preserve" text-anchor="start" x="177.25" y="-80.65" font-family="Courier New" font-size="8.00">+</text>
<text xml:space="preserve" text-anchor="start" x="177.25" y="-70.9" font-family="Courier New" font-size="8.00">+</text>
<text xml:space="preserve" text-anchor="start" x="177.25" y="-61.15" font-family="Courier New" font-size="8.00">+</text>
<text xml:space="preserve" text-anchor="start" x="177.25" y="-51.4" font-family="Courier New" font-size="8.00">═════</text>
<text xml:space="preserve" text-anchor="start" x="177.25" y="-41.65" font-family="Courier New" font-size="8.00">(3,1)</text>
<text xml:space="preserve" text-anchor="start" x="177.25" y="-31.9" font-family="Courier New" font-size="8.00">r| </text>
<text xml:space="preserve" text-anchor="start" x="177.25" y="-22.15" font-family="Courier New" font-size="8.00">c| &#160;ε=1</text>
</g>
<!-- n1&#45;&gt;n4 -->
<g id="edge4" class="edge">
<title>n1&#45;&gt;n4:n</title>
<path fill="none" stroke="blue" d="M497.55,-207.6C422.82,-198.98 219.71,-170.58 195.39,-114.24"/>
<polygon fill="blue" stroke="blue" points="198.82,-113.53 193.31,-104.48 191.97,-114.99 198.82,-113.53"/>
</g>
<!-- n5 -->
<g id="node6" class="node">
<title>n5</title>
<polygon fill="#fff3e6" stroke="black" points="552,-102 498,-102 498,-16 552,-16 552,-102"/>
<text xml:space="preserve" text-anchor="start" x="509.25" y="-90.4" font-family="Courier New" font-size="8.00">=</text>
<text xml:space="preserve" text-anchor="start" x="509.25" y="-80.65" font-family="Courier New" font-size="8.00">=</text>
<text xml:space="preserve" text-anchor="start" x="509.25" y="-70.9" font-family="Courier New" font-size="8.00">=</text>
<text xml:space="preserve" text-anchor="start" x="509.25" y="-61.15" font-family="Courier New" font-size="8.00">+</text>
<text xml:space="preserve" text-anchor="start" x="509.25" y="-51.4" font-family="Courier New" font-size="8.00">═════</text>
<text xml:space="preserve" text-anchor="start" x="509.25" y="-41.65" font-family="Courier New" font-size="8.00">(1,3)</text>
<text xml:space="preserve" text-anchor="start" x="509.25" y="-31.9" font-family="Courier New" font-size="8.00">s| </text>
<text xml:space="preserve" text-anchor="start" x="509.25" y="-22.15" font-family="Courier New" font-size="8.00">c| &#160;ε=1</text>
</g>
<!-- n1&#45;&gt;n5 -->
<g id="edge5" class="edge">
<title>n1&#45;&gt;n5:n</title>
<path fill="none" stroke="blue" d="M525,-187.85C525,-168.81 525,-140.56 525,-114.17"/>
<polygon fill="blue" stroke="blue" points="528.5,-114.51 525,-104.51 521.5,-114.51 528.5,-114.51"/>
</g>
<!-- n6 -->
<g id="node7" class="node">
<title>n6</title>
<polygon fill="#fff3e6" stroke="black" points="801,-102 747,-102 747,-16 801,-16 801,-102"/>
<text xml:space="preserve" text-anchor="start" x="758.25" y="-90.4" font-family="Courier New" font-size="8.00">+</text>
<text xml:space="preserve" text-anchor="start" x="758.25" y="-80.65" font-family="Courier New" font-size="8.00">+</text>
<text xml:space="preserve" text-anchor="start" x="758.25" y="-70.9" font-family="Courier New" font-size="8.00">+</text>
<text xml:space="preserve" text-anchor="start" x="758.25" y="-61.15" font-family="Courier New" font-size="8.00">+</text>
<text xml:space="preserve" text-anchor="start" x="758.25" y="-51.4" font-family="Courier New" font-size="8.00">═════</text>
<text xml:space="preserve" text-anchor="start" x="758.25" y="-41.65" font-family="Courier New" font-size="8.00">(4,0)</text>
<text xml:space="preserve" text-anchor="start" x="758.25" y="-31.9" font-family="Courier New" font-size="8.00">r| </text>
<text xml:space="preserve" text-anchor="start" x="758.25" y="-22.15" font-family="Courier New" font-size="8.00">r| &#160;ε=1</text>
</g>
<!-- n1&#45;&gt;n6 -->
<g id="edge6" class="edge">
<title>n1&#45;&gt;n6:n</title>
<path fill="none" stroke="blue" d="M552.12,-210.88C614.01,-210.26 761.25,-199.74 773.22,-114.37"/>
<polygon fill="blue" stroke="blue" points="776.71,-114.73 773.9,-104.51 769.72,-114.25 776.71,-114.73"/>
</g>
<!-- n1&#45;&gt;n7 -->
<g id="edge7" class="edge">
<title>n1&#45;&gt;n7:n</title>
<path fill="none" stroke="blue" d="M552.27,-209.02C670.38,-202.27 1134.18,-172.17 1184.56,-113.48"/>
<polygon fill="blue" stroke="blue" points="1187.72,-114.97 1188.41,-104.39 1181.28,-112.23 1187.72,-114.97"/>
</g>
<!-- n8 -->
<g id="node9" class="node">
<title>n8</title>
<polygon fill="#fff3e6" stroke="black" points="967,-102 913,-102 913,-16 967,-16 967,-102"/>
<text xml:space="preserve" text-anchor="start" x="924.25" y="-90.4" font-family="Courier New" font-size="8.00">=</text>
<text xml:space="preserve" text-anchor="start" x="924.25" y="-80.65" font-family="Courier New" font-size="8.00">=</text>
<text xml:space="preserve" text-anchor="start" x="924.25" y="-70.9" font-family="Courier New" font-size="8.00">=</text>
<text xml:space="preserve" text-anchor="start" x="924.25" y="-61.15" font-family="Courier New" font-size="8.00">=</text>
<text xml:space="preserve" text-anchor="start" x="924.25" y="-51.4" font-family="Courier New" font-size="8.00">═════</text>
<text xml:space="preserve" text-anchor="start" x="924.25" y="-41.65" font-family="Courier New" font-size="8.00">(0,4)</text>
<text xml:space="preserve" text-anchor="start" x="924.25" y="-31.9" font-family="Courier New" font-size="8.00">s| </text>
<text xml:space="preserve" text-anchor="start" x="924.25" y="-22.15" font-family="Courier New" font-size="8.00">s| &#160;ε=1</text>
</g>
<!-- n1&#45;&gt;n8 -->
<g id="edge8" class="edge">
<title>n1&#45;&gt;n8:n</title>
<path fill="none" stroke="blue" d="M552.23,-209.33C640.23,-204.87 912.75,-185.34 938.1,-113.92"/>
<polygon fill="blue" stroke="blue" points="941.48,-114.94 939.74,-104.49 934.58,-113.74 941.48,-114.94"/>
</g>
<!-- n12 -->
<g id="node13" class="node">
<title>n12</title>
<polygon fill="#f8f8f8" stroke="black" points="386,-82.5 332,-82.5 332,-35.5 386,-35.5 386,-82.5"/>
<text xml:space="preserve" text-anchor="start" x="356.75" y="-70.9" font-family="Courier New" font-size="8.00">&#45;</text>
<text xml:space="preserve" text-anchor="start" x="356.75" y="-61.15" font-family="Courier New" font-size="8.00">*</text>
<text xml:space="preserve" text-anchor="start" x="356.75" y="-51.4" font-family="Courier New" font-size="8.00">*</text>
<text xml:space="preserve" text-anchor="start" x="356.75" y="-41.65" font-family="Courier New" font-size="8.00">*</text>
</g>
<!-- n2&#45;&gt;n12 -->
<g id="edge30" class="edge">
<title>n2&#45;&gt;n12</title>
<path fill="none" stroke="#9933cc" d="M128.07,-106.19C136.98,-122.78 149.54,-139.62 166.5,-149 219.79,-178.46 250.33,-178.68 303.5,-149 327.09,-135.83 341.9,-108.05 350.23,-86.82"/>
<polygon fill="#9933cc" stroke="#9933cc" points="129.13,-105.95 126.82,-103.77 127.27,-106.92 129.13,-105.95"/>
<polygon fill="#9933cc" stroke="#9933cc" points="351.19,-87.26 351.27,-84.08 349.22,-86.51 351.19,-87.26"/>
</g>
<!-- n4&#45;&gt;n2 -->
<g id="edge10" class="edge">
<title>n4&#45;&gt;n2</title>
<path fill="none" stroke="green" d="M161.07,-59C154.6,-59 148.13,-59 141.66,-59"/>
<polygon fill="green" stroke="green" points="161.04,-60.05 164.04,-59 161.04,-57.95 161.04,-60.05"/>
<polygon fill="green" stroke="green" points="141.75,-57.95 138.75,-59 141.75,-60.05 141.75,-57.95"/>
</g>
<!-- n11 -->
<g id="node12" class="node">
<title>n11</title>
<polygon fill="#f8f8f8" stroke="black" points="303,-82.5 249,-82.5 249,-35.5 303,-35.5 303,-82.5"/>
<text xml:space="preserve" text-anchor="start" x="273.75" y="-70.9" font-family="Courier New" font-size="8.00">=</text>
<text xml:space="preserve" text-anchor="start" x="273.75" y="-61.15" font-family="Courier New" font-size="8.00">*</text>
<text xml:space="preserve" text-anchor="start" x="273.75" y="-51.4" font-family="Courier New" font-size="8.00">*</text>
<text xml:space="preserve" text-anchor="start" x="273.75" y="-41.65" font-family="Courier New" font-size="8.00">*</text>
</g>
<!-- n4&#45;&gt;n11 -->
<g id="edge11" class="edge">
<title>n4&#45;&gt;n11</title>
<path fill="none" stroke="#9933cc" d="M224.66,-59C231.13,-59 237.6,-59 244.07,-59"/>
<polygon fill="#9933cc" stroke="#9933cc" points="224.75,-57.95 221.75,-59 224.75,-60.05 224.75,-57.95"/>
<polygon fill="#9933cc" stroke="#9933cc" points="244.04,-60.05 247.04,-59 244.04,-57.95 244.04,-60.05"/>
</g>
<!-- n4&#45;&gt;n12 -->
<g id="edge9" class="edge">
<title>n4&#45;&gt;n12</title>
<path fill="none" stroke="red" d="M211.07,-106.19C219.98,-122.78 232.54,-139.62 249.5,-149 270.5,-160.61 282.54,-160.7 303.5,-149 327.09,-135.83 341.9,-108.05 350.23,-86.82"/>
<polygon fill="red" stroke="red" points="212.13,-105.95 209.82,-103.77 210.27,-106.92 212.13,-105.95"/>
<polygon fill="red" stroke="red" points="351.19,-87.26 351.27,-84.08 349.22,-86.51 351.19,-87.26"/>
</g>
<!-- n5&#45;&gt;n3 -->
<g id="edge16" class="edge">
<title>n5&#45;&gt;n3</title>
<path fill="none" stroke="green" d="M493.07,-59C486.6,-59 480.13,-59 473.66,-59"/>
<polygon fill="green" stroke="green" points="493.04,-60.05 496.04,-59 493.04,-57.95 493.04,-60.05"/>
<polygon fill="green" stroke="green" points="473.75,-57.95 470.75,-59 473.75,-60.05 473.75,-57.95"/>
</g>
<!-- n13 -->
<g id="node14" class="node">
<title>n13</title>
<polygon fill="#f8f8f8" stroke="black" points="635,-82.5 581,-82.5 581,-35.5 635,-35.5 635,-82.5"/>
<text xml:space="preserve" text-anchor="start" x="605.75" y="-70.9" font-family="Courier New" font-size="8.00">=</text>
<text xml:space="preserve" text-anchor="start" x="605.75" y="-61.15" font-family="Courier New" font-size="8.00">=</text>
<text xml:space="preserve" text-anchor="start" x="605.75" y="-51.4" font-family="Courier New" font-size="8.00">=</text>
<text xml:space="preserve" text-anchor="start" x="605.75" y="-41.65" font-family="Courier New" font-size="8.00">*</text>
</g>
<!-- n5&#45;&gt;n13 -->
<g id="edge17" class="edge">
<title>n5&#45;&gt;n13</title>
<path fill="none" stroke="#9933cc" d="M556.66,-59C563.13,-59 569.6,-59 576.07,-59"/>
<polygon fill="#9933cc" stroke="#9933cc" points="556.75,-57.95 553.75,-59 556.75,-60.05 556.75,-57.95"/>
<polygon fill="#9933cc" stroke="#9933cc" points="576.04,-60.05 579.04,-59 576.04,-57.95 576.04,-60.05"/>
</g>
<!-- n14 -->
<g id="node15" class="node">
<title>n14</title>
<polygon fill="#f8f8f8" stroke="black" points="718,-82.5 664,-82.5 664,-35.5 718,-35.5 718,-82.5"/>
<text xml:space="preserve" text-anchor="start" x="688.75" y="-70.9" font-family="Courier New" font-size="8.00">&#45;</text>
<text xml:space="preserve" text-anchor="start" x="688.75" y="-61.15" font-family="Courier New" font-size="8.00">&#45;</text>
<text xml:space="preserve" text-anchor="start" x="688.75" y="-51.4" font-family="Courier New" font-size="8.00">&#45;</text>
<text xml:space="preserve" text-anchor="start" x="688.75" y="-41.65" font-family="Courier New" font-size="8.00">*</text>
</g>
<!-- n5&#45;&gt;n14 -->
<g id="edge15" class="edge">
<title>n5&#45;&gt;n14</title>
<path fill="none" stroke="red" d="M543.07,-106.19C551.98,-122.78 564.54,-139.62 581.5,-149 602.5,-160.61 614.54,-160.7 635.5,-149 659.09,-135.83 673.9,-108.05 682.23,-86.82"/>
<polygon fill="red" stroke="red" points="544.13,-105.95 541.82,-103.77 542.27,-106.92 544.13,-105.95"/>
<polygon fill="red" stroke="red" points="683.19,-87.26 683.27,-84.08 681.22,-86.51 683.19,-87.26"/>
</g>
<!-- n15 -->
<g id="node16" class="node">
<title>n15</title>
<polygon fill="#f8f8f8" stroke="black" points="884,-82.5 830,-82.5 830,-35.5 884,-35.5 884,-82.5"/>
<text xml:space="preserve" text-anchor="start" x="854.75" y="-70.9" font-family="Courier New" font-size="8.00">*</text>
<text xml:space="preserve" text-anchor="start" x="854.75" y="-61.15" font-family="Courier New" font-size="8.00">*</text>
<text xml:space="preserve" text-anchor="start" x="854.75" y="-51.4" font-family="Courier New" font-size="8.00">*</text>
<text xml:space="preserve" text-anchor="start" x="854.75" y="-41.65" font-family="Courier New" font-size="8.00">*</text>
</g>
<!-- n6&#45;&gt;n15 -->
<g id="edge20" class="edge">
<title>n6&#45;&gt;n15</title>
<path fill="none" stroke="red" d="M805.09,-28.78C814.42,-25.14 823.76,-26.4 833.09,-32.54"/>
<polygon fill="red" stroke="red" points="804.89,-27.71 802.61,-29.93 805.77,-29.62 804.89,-27.71"/>
<polygon fill="red" stroke="red" points="832.25,-33.23 835.3,-34.14 833.48,-31.53 832.25,-33.23"/>
</g>
<!-- n6&#45;&gt;n15 -->
<g id="edge21" class="edge">
<title>n6&#45;&gt;n15</title>
<path fill="none" stroke="#9933cc" d="M805.09,-89.22C814.42,-92.86 823.76,-91.6 833.09,-85.46"/>
<polygon fill="#9933cc" stroke="#9933cc" points="805.77,-88.38 802.61,-88.07 804.89,-90.29 805.77,-88.38"/>
<polygon fill="#9933cc" stroke="#9933cc" points="833.48,-86.47 835.3,-83.86 832.25,-84.77 833.48,-86.47"/>
</g>
<!-- n7&#45;&gt;n9 -->
<g id="edge28" class="edge">
<title>n7&#45;&gt;n9</title>
<path fill="none" stroke="#9933cc" d="M1220.66,-59C1227.13,-59 1233.6,-59 1240.07,-59"/>
<polygon fill="#9933cc" stroke="#9933cc" points="1220.75,-57.95 1217.75,-59 1220.75,-60.05 1220.75,-57.95"/>
<polygon fill="#9933cc" stroke="#9933cc" points="1240.04,-60.05 1243.04,-59 1240.04,-57.95 1240.04,-60.05"/>
</g>
<!-- n16 -->
<g id="node17" class="node">
<title>n16</title>
<polygon fill="#f8f8f8" stroke="black" points="1050,-82.5 996,-82.5 996,-35.5 1050,-35.5 1050,-82.5"/>
<text xml:space="preserve" text-anchor="start" x="1020.75" y="-70.9" font-family="Courier New" font-size="8.00">&#45;</text>
<text xml:space="preserve" text-anchor="start" x="1020.75" y="-61.15" font-family="Courier New" font-size="8.00">&#45;</text>
<text xml:space="preserve" text-anchor="start" x="1020.75" y="-51.4" font-family="Courier New" font-size="8.00">&#45;</text>
<text xml:space="preserve" text-anchor="start" x="1020.75" y="-41.65" font-family="Courier New" font-size="8.00">&#45;</text>
</g>
<!-- n8&#45;&gt;n16 -->
<g id="edge22" class="edge">
<title>n8&#45;&gt;n16</title>
<path fill="none" stroke="red" d="M971.09,-28.78C980.42,-25.14 989.76,-26.4 999.09,-32.54"/>
<polygon fill="red" stroke="red" points="970.89,-27.71 968.61,-29.93 971.77,-29.62 970.89,-27.71"/>
<polygon fill="red" stroke="red" points="998.25,-33.23 1001.3,-34.14 999.48,-31.53 998.25,-33.23"/>
</g>
<!-- n8&#45;&gt;n16 -->
<g id="edge23" class="edge">
<title>n8&#45;&gt;n16</title>
<path fill="none" stroke="green" d="M971.09,-89.22C980.42,-92.86 989.76,-91.6 999.09,-85.46"/>
<polygon fill="green" stroke="green" points="971.77,-88.38 968.61,-88.07 970.89,-90.29 971.77,-88.38"/>
<polygon fill="green" stroke="green" points="999.48,-86.47 1001.3,-83.86 998.25,-84.77 999.48,-86.47"/>
</g>
<!-- n10&#45;&gt;n7 -->
<g id="edge18" class="edge">
<title>n10&#45;&gt;n7</title>
<path fill="none" stroke="red" d="M1346.23,-86.82C1337.9,-108.05 1323.09,-135.83 1299.5,-149 1278.54,-160.7 1266.5,-160.61 1245.5,-149 1228.54,-139.62 1215.98,-122.78 1207.07,-106.19"/>
<polygon fill="red" stroke="red" points="1347.19,-87.26 1347.27,-84.08 1345.22,-86.51 1347.19,-87.26"/>
<polygon fill="red" stroke="red" points="1208.13,-105.95 1205.82,-103.77 1206.27,-106.92 1208.13,-105.95"/>
</g>
<!-- n10&#45;&gt;n9 -->
<g id="edge19" class="edge">
<title>n10&#45;&gt;n9</title>
<path fill="none" stroke="green" d="M1323.07,-59C1316.6,-59 1310.13,-59 1303.66,-59"/>
<polygon fill="green" stroke="green" points="1323.04,-60.05 1326.04,-59 1323.04,-57.95 1323.04,-60.05"/>
<polygon fill="green" stroke="green" points="1303.75,-57.95 1300.75,-59 1303.75,-60.05 1303.75,-57.95"/>
</g>
<!-- n11&#45;&gt;n2 -->
<g id="edge26" class="edge">
<title>n11&#45;&gt;n2</title>
<path fill="none" stroke="red" d="M267.23,-86.82C258.9,-108.05 244.09,-135.83 220.5,-149 199.54,-160.7 187.5,-160.61 166.5,-149 149.54,-139.62 136.98,-122.78 128.07,-106.19"/>
<polygon fill="red" stroke="red" points="268.19,-87.26 268.27,-84.08 266.22,-86.51 268.19,-87.26"/>
<polygon fill="red" stroke="red" points="129.13,-105.95 126.82,-103.77 127.27,-106.92 129.13,-105.95"/>
</g>
<!-- n11&#45;&gt;n12 -->
<g id="edge27" class="edge">
<title>n11&#45;&gt;n12</title>
<path fill="none" stroke="green" d="M307.66,-59C314.13,-59 320.6,-59 327.07,-59"/>
<polygon fill="green" stroke="green" points="307.75,-57.95 304.75,-59 307.75,-60.05 307.75,-57.95"/>
<polygon fill="green" stroke="green" points="327.04,-60.05 330.04,-59 327.04,-57.95 327.04,-60.05"/>
</g>
<!-- n13&#45;&gt;n3 -->
<g id="edge29" class="edge">
<title>n13&#45;&gt;n3</title>
<path fill="none" stroke="red" d="M599.23,-86.82C590.9,-108.05 576.09,-135.83 552.5,-149 531.54,-160.7 519.5,-160.61 498.5,-149 481.54,-139.62 468.98,-122.78 460.07,-106.19"/>
<polygon fill="red" stroke="red" points="600.19,-87.26 600.27,-84.08 598.22,-86.51 600.19,-87.26"/>
<polygon fill="red" stroke="red" points="461.13,-105.95 458.82,-103.77 459.27,-106.92 461.13,-105.95"/>
</g>
<!-- n14&#45;&gt;n3 -->
<g id="edge25" class="edge">
<title>n14&#45;&gt;n3</title>
<path fill="none" stroke="#9933cc" d="M682.23,-86.82C673.9,-108.05 659.09,-135.83 635.5,-149 582.33,-178.68 551.79,-178.46 498.5,-149 481.54,-139.62 468.98,-122.78 460.07,-106.19"/>
<polygon fill="#9933cc" stroke="#9933cc" points="683.19,-87.26 683.27,-84.08 681.22,-86.51 683.19,-87.26"/>
<polygon fill="#9933cc" stroke="#9933cc" points="461.13,-105.95 458.82,-103.77 459.27,-106.92 461.13,-105.95"/>
</g>
<!-- n14&#45;&gt;n13 -->
<g id="edge24" class="edge">
<title>n14&#45;&gt;n13</title>
<path fill="none" stroke="green" d="M659.07,-59C652.6,-59 646.13,-59 639.66,-59"/>
<polygon fill="green" stroke="green" points="659.04,-60.05 662.04,-59 659.04,-57.95 659.04,-60.05"/>
<polygon fill="green" stroke="green" points="639.75,-57.95 636.75,-59 639.75,-60.05 639.75,-57.95"/>
</g>
<!-- gp_C_0 -->
<g id="node18" class="node">
<title>gp_C_0</title>
<text xml:space="preserve" text-anchor="middle" x="27" y="-207.05" font-family="Helvetica,sans-Serif" font-size="11.00" fill="#333333">Sp(0)</text>
</g>
<!-- gp_C_0&#45;&gt;n1 -->
<!-- gp_D_2 -->
<g id="node19" class="node">
<title>gp_D_2</title>
<text xml:space="preserve" text-anchor="middle" x="27" y="-54.55" font-family="Helvetica,sans-Serif" font-size="11.00" fill="#333333">SO(4)</text>
</g>
<!-- gp_C_0&#45;&gt;gp_D_2 -->
<!-- gp_D_2&#45;&gt;n0 -->
</g>
</svg>
