<?xml version="1.0" encoding="UTF-8" standalone="no"?>
<!DOCTYPE svg PUBLIC "-//W3C//DTD SVG 1.1//EN"
 "http://www.w3.org/Graphics/SVG/1.1/DTD/svg11.dtd">
<!-- Generated by graphviz version 13.1.2 (20250808.2320)
 -->
<!-- Title: Combined Lift Tree Pages: 1 -->
<svg width="2758pt" height="501pt"
 viewBox="0.00 0.00 2758.00 501.00" xmlns="http://www.w3.org/2000/svg" xmlns:xlink="http://www.w3.org/1999/xlink">
<g id="graph0" class="graph" transform="scale(2.08333 2.08333) rotate(0) translate(4 236.25)">
<title>Combined Lift Tree</title>
<polygon fill="white" stroke="none" points="-4,4 -4,-236.25 1320,-236.25 1320,4 -4,4"/>
<g id="clust1" class="cluster">
<title>cluster_ls_0</title>
<polygon fill="#fff3e6" stroke="#aaaaaa" points="8,-8 8,-107 80,-107 80,-8 8,-8"/>
<text xml:space="preserve" text-anchor="start" x="16" y="-95.4" font-family="Courier New" font-size="8.00">&#45;</text>
<text xml:space="preserve" text-anchor="start" x="16" y="-85.65" font-family="Courier New" font-size="8.00">&#45;</text>
<text xml:space="preserve" text-anchor="start" x="16" y="-75.9" font-family="Courier New" font-size="8.00">+</text>
<text xml:space="preserve" text-anchor="start" x="16" y="-66.15" font-family="Courier New" font-size="8.00">+</text>
</g>
<g id="clust2" class="cluster">
<title>cluster_ls_1</title>
<polygon fill="#e6f3ff" stroke="#aaaaaa" points="328,-154.5 328,-224.25 400,-224.25 400,-154.5 328,-154.5"/>
<text xml:space="preserve" text-anchor="start" x="336" y="-212.65" font-family="Courier New" font-size="8.00">(triv)</text>
</g>
<g id="clust3" class="cluster">
<title>cluster_ls_2</title>
<polygon fill="#fff3e6" stroke="#aaaaaa" points="88,-8 88,-107 160,-107 160,-8 88,-8"/>
<text xml:space="preserve" text-anchor="start" x="96" y="-95.4" font-family="Courier New" font-size="8.00">&#45;</text>
<text xml:space="preserve" text-anchor="start" x="96" y="-85.65" font-family="Courier New" font-size="8.00">+</text>
<text xml:space="preserve" text-anchor="start" x="96" y="-75.9" font-family="Courier New" font-size="8.00">+</text>
<text xml:space="preserve" text-anchor="start" x="96" y="-66.15" font-family="Courier New" font-size="8.00">+</text>
</g>
<g id="clust4" class="cluster">
<title>cluster_ls_3</title>
<polygon fill="#fff3e6" stroke="#aaaaaa" points="168,-8 168,-107 240,-107 240,-8 168,-8"/>
<text xml:space="preserve" text-anchor="start" x="176" y="-95.4" font-family="Courier New" font-size="8.00">&#45;</text>
<text xml:space="preserve" text-anchor="start" x="176" y="-85.65" font-family="Courier New" font-size="8.00">&#45;</text>
<text xml:space="preserve" text-anchor="start" x="176" y="-75.9" font-family="Courier New" font-size="8.00">&#45;</text>
<text xml:space="preserve" text-anchor="start" x="176" y="-66.15" font-family="Courier New" font-size="8.00">+</text>
</g>
<g id="clust5" class="cluster">
<title>cluster_ls_4</title>
<polygon fill="#fff3e6" stroke="#aaaaaa" points="248,-8 248,-107 320,-107 320,-8 248,-8"/>
<text xml:space="preserve" text-anchor="start" x="256" y="-95.4" font-family="Courier New" font-size="8.00">=</text>
<text xml:space="preserve" text-anchor="start" x="256" y="-85.65" font-family="Courier New" font-size="8.00">+</text>
<text xml:space="preserve" text-anchor="start" x="256" y="-75.9" font-family="Courier New" font-size="8.00">+</text>
<text xml:space="preserve" text-anchor="start" x="256" y="-66.15" font-family="Courier New" font-size="8.00">+</text>
</g>
<g id="clust6" class="cluster">
<title>cluster_ls_5</title>
<polygon fill="#fff3e6" stroke="#aaaaaa" points="328,-8 328,-107 400,-107 400,-8 328,-8"/>
<text xml:space="preserve" text-anchor="start" x="336" y="-95.4" font-family="Courier New" font-size="8.00">=</text>
<text xml:space="preserve" text-anchor="start" x="336" y="-85.65" font-family="Courier New" font-size="8.00">=</text>
<text xml:space="preserve" text-anchor="start" x="336" y="-75.9" font-family="Courier New" font-size="8.00">=</text>
<text xml:space="preserve" text-anchor="start" x="336" y="-66.15" font-family="Courier New" font-size="8.00">+</text>
</g>
<g id="clust7" class="cluster">
<title>cluster_ls_6</title>
<polygon fill="#fff3e6" stroke="#aaaaaa" points="408,-8 408,-107 480,-107 480,-8 408,-8"/>
<text xml:space="preserve" text-anchor="start" x="416" y="-95.4" font-family="Courier New" font-size="8.00">+</text>
<text xml:space="preserve" text-anchor="start" x="416" y="-85.65" font-family="Courier New" font-size="8.00">+</text>
<text xml:space="preserve" text-anchor="start" x="416" y="-75.9" font-family="Courier New" font-size="8.00">+</text>
<text xml:space="preserve" text-anchor="start" x="416" y="-66.15" font-family="Courier New" font-size="8.00">+</text>
</g>
<g id="clust8" class="cluster">
<title>cluster_ls_7</title>
<polygon fill="#fff3e6" stroke="#aaaaaa" points="488,-8 488,-107 560,-107 560,-8 488,-8"/>
<text xml:space="preserve" text-anchor="start" x="496" y="-95.4" font-family="Courier New" font-size="8.00">=</text>
<text xml:space="preserve" text-anchor="start" x="496" y="-85.65" font-family="Courier New" font-size="8.00">=</text>
<text xml:space="preserve" text-anchor="start" x="496" y="-75.9" font-family="Courier New" font-size="8.00">+</text>
<text xml:space="preserve" text-anchor="start" x="496" y="-66.15" font-family="Courier New" font-size="8.00">+</text>
</g>
<g id="clust9" class="cluster">
<title>cluster_ls_8</title>
<polygon fill="#fff3e6" stroke="#aaaaaa" points="568,-8 568,-107 640,-107 640,-8 568,-8"/>
<text xml:space="preserve" text-anchor="start" x="576" y="-95.4" font-family="Courier New" font-size="8.00">=</text>
<text xml:space="preserve" text-anchor="start" x="576" y="-85.65" font-family="Courier New" font-size="8.00">=</text>
<text xml:space="preserve" text-anchor="start" x="576" y="-75.9" font-family="Courier New" font-size="8.00">=</text>
<text xml:space="preserve" text-anchor="start" x="576" y="-66.15" font-family="Courier New" font-size="8.00">=</text>
</g>
<!-- d0 -->
<g id="node1" class="node">
<title>d0</title>
<polygon fill="white" stroke="black" points="72.25,-52 15.75,-52 15.75,-16 72.25,-16 72.25,-52"/>
<text xml:space="preserve" text-anchor="start" x="23.75" y="-39.73" font-family="Courier New" font-size="7.00">(2,2) ε=0</text>
<text xml:space="preserve" text-anchor="start" x="23.75" y="-31.48" font-family="Courier New" font-size="7.00">c|</text>
<text xml:space="preserve" text-anchor="start" x="23.75" y="-23.23" font-family="Courier New" font-size="7.00">d|</text>
</g>
<!-- d7 -->
<g id="node8" class="node">
<title>d7</title>
<polygon fill="white" stroke="black" points="552.25,-52 495.75,-52 495.75,-16 552.25,-16 552.25,-52"/>
<text xml:space="preserve" text-anchor="start" x="503.75" y="-39.73" font-family="Courier New" font-size="7.00">(2,2) ε=1</text>
<text xml:space="preserve" text-anchor="start" x="503.75" y="-31.48" font-family="Courier New" font-size="7.00">s|</text>
<text xml:space="preserve" text-anchor="start" x="503.75" y="-23.23" font-family="Courier New" font-size="7.00">r|</text>
</g>
<!-- d0&#45;&gt;d7 -->
<g id="edge13" class="edge">
<title>d0&#45;&gt;d7</title>
<path fill="none" stroke="green" d="M48.49,-56.34C54.47,-79.54 67.55,-114.64 94,-130.75 130.06,-152.71 437.94,-152.71 474,-130.75 500.45,-114.64 513.53,-79.54 519.51,-56.34"/>
<polygon fill="green" stroke="green" points="49.56,-56.28 47.82,-53.62 47.52,-56.79 49.56,-56.28"/>
<polygon fill="green" stroke="green" points="520.48,-56.79 520.18,-53.62 518.44,-56.28 520.48,-56.79"/>
</g>
<!-- g9 -->
<g id="node10" class="node">
<title>g9</title>
<polygon fill="#f8f8f8" stroke="black" points="708,-54.5 654,-54.5 654,-13.5 708,-13.5 708,-54.5"/>
<text xml:space="preserve" text-anchor="start" x="662" y="-43.85" font-family="Courier New" font-size="7.00">=</text>
<text xml:space="preserve" text-anchor="start" x="662" y="-35.6" font-family="Courier New" font-size="7.00">=</text>
<text xml:space="preserve" text-anchor="start" x="662" y="-27.35" font-family="Courier New" font-size="7.00">*</text>
<text xml:space="preserve" text-anchor="start" x="662" y="-19.1" font-family="Courier New" font-size="7.00">*</text>
</g>
<!-- d0&#45;&gt;g9 -->
<g id="edge12" class="edge">
<title>d0&#45;&gt;g9</title>
<path fill="none" stroke="red" d="M48.49,-56.34C54.47,-79.54 67.55,-114.64 94,-130.75 145.25,-161.95 583.14,-162.59 634,-130.75 658.88,-115.17 670.93,-82.24 676.52,-59.14"/>
<polygon fill="red" stroke="red" points="49.56,-56.28 47.82,-53.62 47.52,-56.79 49.56,-56.28"/>
<polygon fill="red" stroke="red" points="677.5,-59.58 677.15,-56.43 675.45,-59.11 677.5,-59.58"/>
</g>
<!-- g10 -->
<g id="node11" class="node">
<title>g10</title>
<polygon fill="#f8f8f8" stroke="black" points="784,-54.5 730,-54.5 730,-13.5 784,-13.5 784,-54.5"/>
<text xml:space="preserve" text-anchor="start" x="738" y="-43.85" font-family="Courier New" font-size="7.00">&#45;</text>
<text xml:space="preserve" text-anchor="start" x="738" y="-35.6" font-family="Courier New" font-size="7.00">&#45;</text>
<text xml:space="preserve" text-anchor="start" x="738" y="-27.35" font-family="Courier New" font-size="7.00">*</text>
<text xml:space="preserve" text-anchor="start" x="738" y="-19.1" font-family="Courier New" font-size="7.00">*</text>
</g>
<!-- d0&#45;&gt;g10 -->
<g id="edge14" class="edge">
<title>d0&#45;&gt;g10</title>
<path fill="none" stroke="#9933cc" d="M48.49,-56.34C54.47,-79.54 67.55,-114.64 94,-130.75 123.14,-148.49 678.94,-148.61 708,-130.75 733.22,-115.25 745.94,-82.3 752.01,-59.18"/>
<polygon fill="#9933cc" stroke="#9933cc" points="49.56,-56.28 47.82,-53.62 47.52,-56.79 49.56,-56.28"/>
<polygon fill="#9933cc" stroke="#9933cc" points="752.98,-59.61 752.7,-56.45 750.94,-59.1 752.98,-59.61"/>
</g>
<!-- d1 -->
<g id="node2" class="node">
<title>d1</title>
<polygon fill="white" stroke="black" points="392.25,-198.5 335.75,-198.5 335.75,-162.5 392.25,-162.5 392.25,-198.5"/>
<text xml:space="preserve" text-anchor="start" x="343.75" y="-181.97" font-family="Courier New" font-size="7.00">(0,0) ε=0</text>
</g>
<!-- d1&#45;&gt;d0 -->
<g id="edge1" class="edge">
<title>d1&#45;&gt;d0</title>
<path fill="none" stroke="#888888" stroke-dasharray="5,2" d="M335.67,-179.38C281.05,-177.74 159.81,-167.04 83,-107 67.38,-94.79 57.2,-74.51 51.17,-58.58"/>
<polygon fill="#888888" stroke="#888888" points="52.84,-58.03 49.5,-53.92 49.54,-59.22 52.84,-58.03"/>
</g>
<!-- d2 -->
<g id="node3" class="node">
<title>d2</title>
<polygon fill="white" stroke="black" points="152.25,-52 95.75,-52 95.75,-16 152.25,-16 152.25,-52"/>
<text xml:space="preserve" text-anchor="start" x="103.75" y="-39.73" font-family="Courier New" font-size="7.00">(3,1) ε=0</text>
<text xml:space="preserve" text-anchor="start" x="103.75" y="-31.48" font-family="Courier New" font-size="7.00">r|</text>
<text xml:space="preserve" text-anchor="start" x="103.75" y="-23.23" font-family="Courier New" font-size="7.00">d|</text>
</g>
<!-- d1&#45;&gt;d2 -->
<g id="edge2" class="edge">
<title>d1&#45;&gt;d2</title>
<path fill="none" stroke="#888888" stroke-dasharray="5,2" d="M335.46,-175.75C293.31,-168.9 213.91,-150.78 163,-107 148.06,-94.15 137.87,-74.11 131.66,-58.43"/>
<polygon fill="#888888" stroke="#888888" points="133.33,-57.92 129.93,-53.86 130.06,-59.16 133.33,-57.92"/>
</g>
<!-- d3 -->
<g id="node4" class="node">
<title>d3</title>
<polygon fill="white" stroke="black" points="232.25,-52 175.75,-52 175.75,-16 232.25,-16 232.25,-52"/>
<text xml:space="preserve" text-anchor="start" x="183.75" y="-39.73" font-family="Courier New" font-size="7.00">(1,3) ε=0</text>
<text xml:space="preserve" text-anchor="start" x="183.75" y="-31.48" font-family="Courier New" font-size="7.00">s|</text>
<text xml:space="preserve" text-anchor="start" x="183.75" y="-23.23" font-family="Courier New" font-size="7.00">d|</text>
</g>
<!-- d1&#45;&gt;d3 -->
<g id="edge3" class="edge">
<title>d1&#45;&gt;d3</title>
<path fill="none" stroke="#888888" stroke-dasharray="5,2" d="M335.38,-167.7C308.82,-155.61 269.51,-134.68 243,-107 229.55,-92.95 219.33,-73.35 212.74,-58.15"/>
<polygon fill="#888888" stroke="#888888" points="214.44,-57.68 210.89,-53.74 211.21,-59.03 214.44,-57.68"/>
</g>
<!-- d4 -->
<g id="node5" class="node">
<title>d4</title>
<polygon fill="white" stroke="black" points="312.25,-52 255.75,-52 255.75,-16 312.25,-16 312.25,-52"/>
<text xml:space="preserve" text-anchor="start" x="263.75" y="-39.73" font-family="Courier New" font-size="7.00">(3,1) ε=1</text>
<text xml:space="preserve" text-anchor="start" x="263.75" y="-31.48" font-family="Courier New" font-size="7.00">r|</text>
<text xml:space="preserve" text-anchor="start" x="263.75" y="-23.23" font-family="Courier New" font-size="7.00">c|</text>
</g>
<!-- d1&#45;&gt;d4 -->
<g id="edge4" class="edge">
<title>d1&#45;&gt;d4</title>
<path fill="none" stroke="#888888" stroke-dasharray="5,2" d="M354.14,-162.26C345.78,-147.61 333.5,-125.98 323,-107 313.88,-90.53 303.76,-71.83 296.12,-57.62"/>
<polygon fill="#888888" stroke="#888888" points="297.84,-57.12 293.93,-53.55 294.75,-58.78 297.84,-57.12"/>
</g>
<!-- d5 -->
<g id="node6" class="node">
<title>d5</title>
<polygon fill="white" stroke="black" points="392.25,-52 335.75,-52 335.75,-16 392.25,-16 392.25,-52"/>
<text xml:space="preserve" text-anchor="start" x="343.75" y="-39.73" font-family="Courier New" font-size="7.00">(1,3) ε=1</text>
<text xml:space="preserve" text-anchor="start" x="343.75" y="-31.48" font-family="Courier New" font-size="7.00">s|</text>
<text xml:space="preserve" text-anchor="start" x="343.75" y="-23.23" font-family="Courier New" font-size="7.00">c|</text>
</g>
<!-- d1&#45;&gt;d5 -->
<g id="edge5" class="edge">
<title>d1&#45;&gt;d5</title>
<path fill="none" stroke="#888888" stroke-dasharray="5,2" d="M364,-162.07C364,-136.25 364,-87.77 364,-58.73"/>
<polygon fill="#888888" stroke="#888888" points="365.75,-59.01 364,-54.01 362.25,-59.01 365.75,-59.01"/>
</g>
<!-- d6 -->
<g id="node7" class="node">
<title>d6</title>
<polygon fill="white" stroke="black" points="472.25,-52 415.75,-52 415.75,-16 472.25,-16 472.25,-52"/>
<text xml:space="preserve" text-anchor="start" x="423.75" y="-39.73" font-family="Courier New" font-size="7.00">(4,0) ε=1</text>
<text xml:space="preserve" text-anchor="start" x="423.75" y="-31.48" font-family="Courier New" font-size="7.00">r|</text>
<text xml:space="preserve" text-anchor="start" x="423.75" y="-23.23" font-family="Courier New" font-size="7.00">r|</text>
</g>
<!-- d1&#45;&gt;d6 -->
<g id="edge6" class="edge">
<title>d1&#45;&gt;d6</title>
<path fill="none" stroke="#888888" stroke-dasharray="5,2" d="M373.86,-162.26C382.22,-147.61 394.5,-125.98 405,-107 414.12,-90.53 424.24,-71.83 431.88,-57.62"/>
<polygon fill="#888888" stroke="#888888" points="433.25,-58.78 434.07,-53.55 430.16,-57.12 433.25,-58.78"/>
</g>
<!-- d1&#45;&gt;d7 -->
<g id="edge7" class="edge">
<title>d1&#45;&gt;d7</title>
<path fill="none" stroke="#888888" stroke-dasharray="5,2" d="M392.62,-167.7C419.18,-155.61 458.49,-134.68 485,-107 498.45,-92.95 508.67,-73.35 515.26,-58.15"/>
<polygon fill="#888888" stroke="#888888" points="516.79,-59.03 517.11,-53.74 513.56,-57.68 516.79,-59.03"/>
</g>
<!-- d8 -->
<g id="node9" class="node">
<title>d8</title>
<polygon fill="white" stroke="black" points="632.25,-52 575.75,-52 575.75,-16 632.25,-16 632.25,-52"/>
<text xml:space="preserve" text-anchor="start" x="583.75" y="-39.73" font-family="Courier New" font-size="7.00">(0,4) ε=1</text>
<text xml:space="preserve" text-anchor="start" x="583.75" y="-31.48" font-family="Courier New" font-size="7.00">s|</text>
<text xml:space="preserve" text-anchor="start" x="583.75" y="-23.23" font-family="Courier New" font-size="7.00">s|</text>
</g>
<!-- d1&#45;&gt;d8 -->
<g id="edge8" class="edge">
<title>d1&#45;&gt;d8</title>
<path fill="none" stroke="#888888" stroke-dasharray="5,2" d="M392.54,-175.75C434.69,-168.9 514.09,-150.78 565,-107 579.94,-94.15 590.13,-74.11 596.34,-58.43"/>
<polygon fill="#888888" stroke="#888888" points="597.94,-59.16 598.07,-53.86 594.67,-57.92 597.94,-59.16"/>
</g>
<!-- g12 -->
<g id="node13" class="node">
<title>g12</title>
<polygon fill="#f8f8f8" stroke="black" points="936,-54.5 882,-54.5 882,-13.5 936,-13.5 936,-54.5"/>
<text xml:space="preserve" text-anchor="start" x="890" y="-43.85" font-family="Courier New" font-size="7.00">&#45;</text>
<text xml:space="preserve" text-anchor="start" x="890" y="-35.6" font-family="Courier New" font-size="7.00">*</text>
<text xml:space="preserve" text-anchor="start" x="890" y="-27.35" font-family="Courier New" font-size="7.00">*</text>
<text xml:space="preserve" text-anchor="start" x="890" y="-19.1" font-family="Courier New" font-size="7.00">*</text>
</g>
<!-- d2&#45;&gt;g12 -->
<g id="edge30" class="edge">
<title>d2&#45;&gt;g12</title>
<path fill="none" stroke="#9933cc" d="M128.49,-56.34C134.47,-79.54 147.55,-114.64 174,-130.75 206.55,-150.57 827.53,-150.7 860,-130.75 885.22,-115.25 897.94,-82.3 904.01,-59.18"/>
<polygon fill="#9933cc" stroke="#9933cc" points="129.56,-56.28 127.82,-53.62 127.52,-56.79 129.56,-56.28"/>
<polygon fill="#9933cc" stroke="#9933cc" points="904.98,-59.61 904.7,-56.45 902.94,-59.1 904.98,-59.61"/>
</g>
<!-- d4&#45;&gt;d2 -->
<g id="edge10" class="edge">
<title>d4&#45;&gt;d2</title>
<path fill="none" stroke="green" d="M279.51,-56.34C273.53,-79.54 260.45,-114.64 234,-130.75 211.22,-144.62 196.78,-144.62 174,-130.75 147.55,-114.64 134.47,-79.54 128.49,-56.34"/>
<polygon fill="green" stroke="green" points="280.48,-56.79 280.18,-53.62 278.44,-56.28 280.48,-56.79"/>
<polygon fill="green" stroke="green" points="129.56,-56.28 127.82,-53.62 127.52,-56.79 129.56,-56.28"/>
</g>
<!-- g11 -->
<g id="node12" class="node">
<title>g11</title>
<polygon fill="#f8f8f8" stroke="black" points="860,-54.5 806,-54.5 806,-13.5 860,-13.5 860,-54.5"/>
<text xml:space="preserve" text-anchor="start" x="814" y="-43.85" font-family="Courier New" font-size="7.00">=</text>
<text xml:space="preserve" text-anchor="start" x="814" y="-35.6" font-family="Courier New" font-size="7.00">*</text>
<text xml:space="preserve" text-anchor="start" x="814" y="-27.35" font-family="Courier New" font-size="7.00">*</text>
<text xml:space="preserve" text-anchor="start" x="814" y="-19.1" font-family="Courier New" font-size="7.00">*</text>
</g>
<!-- d4&#45;&gt;g11 -->
<g id="edge11" class="edge">
<title>d4&#45;&gt;g11</title>
<path fill="none" stroke="#9933cc" d="M288.49,-56.34C294.47,-79.54 307.55,-114.64 334,-130.75 376.71,-156.75 741.4,-156.93 784,-130.75 809.22,-115.25 821.94,-82.3 828.01,-59.18"/>
<polygon fill="#9933cc" stroke="#9933cc" points="289.56,-56.28 287.82,-53.62 287.52,-56.79 289.56,-56.28"/>
<polygon fill="#9933cc" stroke="#9933cc" points="828.98,-59.61 828.7,-56.45 826.94,-59.1 828.98,-59.61"/>
</g>
<!-- d4&#45;&gt;g12 -->
<g id="edge9" class="edge">
<title>d4&#45;&gt;g12</title>
<path fill="none" stroke="red" d="M288.49,-56.34C294.47,-79.54 307.55,-114.64 334,-130.75 383.92,-161.14 810.21,-161.35 860,-130.75 885.22,-115.25 897.94,-82.3 904.01,-59.18"/>
<polygon fill="red" stroke="red" points="289.56,-56.28 287.82,-53.62 287.52,-56.79 289.56,-56.28"/>
<polygon fill="red" stroke="red" points="904.98,-59.61 904.7,-56.45 902.94,-59.1 904.98,-59.61"/>
</g>
<!-- d5&#45;&gt;d3 -->
<g id="edge16" class="edge">
<title>d5&#45;&gt;d3</title>
<path fill="none" stroke="green" d="M359.51,-56.34C353.53,-79.54 340.45,-114.64 314,-130.75 291.22,-144.62 276.78,-144.62 254,-130.75 227.55,-114.64 214.47,-79.54 208.49,-56.34"/>
<polygon fill="green" stroke="green" points="360.48,-56.79 360.18,-53.62 358.44,-56.28 360.48,-56.79"/>
<polygon fill="green" stroke="green" points="209.56,-56.28 207.82,-53.62 207.52,-56.79 209.56,-56.28"/>
</g>
<!-- g13 -->
<g id="node14" class="node">
<title>g13</title>
<polygon fill="#f8f8f8" stroke="black" points="1012,-54.5 958,-54.5 958,-13.5 1012,-13.5 1012,-54.5"/>
<text xml:space="preserve" text-anchor="start" x="966" y="-43.85" font-family="Courier New" font-size="7.00">=</text>
<text xml:space="preserve" text-anchor="start" x="966" y="-35.6" font-family="Courier New" font-size="7.00">=</text>
<text xml:space="preserve" text-anchor="start" x="966" y="-27.35" font-family="Courier New" font-size="7.00">=</text>
<text xml:space="preserve" text-anchor="start" x="966" y="-19.1" font-family="Courier New" font-size="7.00">*</text>
</g>
<!-- d5&#45;&gt;g13 -->
<g id="edge17" class="edge">
<title>d5&#45;&gt;g13</title>
<path fill="none" stroke="#9933cc" d="M368.49,-56.34C374.47,-79.54 387.55,-114.64 414,-130.75 463.54,-160.91 886.58,-161.12 936,-130.75 961.22,-115.25 973.94,-82.3 980.01,-59.18"/>
<polygon fill="#9933cc" stroke="#9933cc" points="369.56,-56.28 367.82,-53.62 367.52,-56.79 369.56,-56.28"/>
<polygon fill="#9933cc" stroke="#9933cc" points="980.98,-59.61 980.7,-56.45 978.94,-59.1 980.98,-59.61"/>
</g>
<!-- g14 -->
<g id="node15" class="node">
<title>g14</title>
<polygon fill="#f8f8f8" stroke="black" points="1088,-54.5 1034,-54.5 1034,-13.5 1088,-13.5 1088,-54.5"/>
<text xml:space="preserve" text-anchor="start" x="1042" y="-43.85" font-family="Courier New" font-size="7.00">&#45;</text>
<text xml:space="preserve" text-anchor="start" x="1042" y="-35.6" font-family="Courier New" font-size="7.00">&#45;</text>
<text xml:space="preserve" text-anchor="start" x="1042" y="-27.35" font-family="Courier New" font-size="7.00">&#45;</text>
<text xml:space="preserve" text-anchor="start" x="1042" y="-19.1" font-family="Courier New" font-size="7.00">*</text>
</g>
<!-- d5&#45;&gt;g14 -->
<g id="edge15" class="edge">
<title>d5&#45;&gt;g14</title>
<path fill="none" stroke="red" d="M368.49,-56.34C374.47,-79.54 387.55,-114.64 414,-130.75 442.38,-148.03 983.69,-148.14 1012,-130.75 1037.22,-115.25 1049.94,-82.3 1056.01,-59.18"/>
<polygon fill="red" stroke="red" points="369.56,-56.28 367.82,-53.62 367.52,-56.79 369.56,-56.28"/>
<polygon fill="red" stroke="red" points="1056.98,-59.61 1056.7,-56.45 1054.94,-59.1 1056.98,-59.61"/>
</g>
<!-- g15 -->
<g id="node16" class="node">
<title>g15</title>
<polygon fill="#f8f8f8" stroke="black" points="1164,-54.5 1110,-54.5 1110,-13.5 1164,-13.5 1164,-54.5"/>
<text xml:space="preserve" text-anchor="start" x="1118" y="-43.85" font-family="Courier New" font-size="7.00">*</text>
<text xml:space="preserve" text-anchor="start" x="1118" y="-35.6" font-family="Courier New" font-size="7.00">*</text>
<text xml:space="preserve" text-anchor="start" x="1118" y="-27.35" font-family="Courier New" font-size="7.00">*</text>
<text xml:space="preserve" text-anchor="start" x="1118" y="-19.1" font-family="Courier New" font-size="7.00">*</text>
</g>
<!-- d6&#45;&gt;g15 -->
<g id="edge20" class="edge">
<title>d6&#45;&gt;g15</title>
<path fill="none" stroke="red" d="M448.69,-56.27C454.48,-77.55 466.63,-108.46 490.33,-122.83 518.9,-140.15 1063.18,-140.28 1091.67,-122.83 1114.23,-109.02 1126.01,-80.04 1131.84,-58.93"/>
<polygon fill="red" stroke="red" points="449.77,-56.25 447.99,-53.61 447.74,-56.78 449.77,-56.25"/>
<polygon fill="red" stroke="red" points="1132.79,-59.45 1132.54,-56.28 1130.76,-58.91 1132.79,-59.45"/>
</g>
<!-- d6&#45;&gt;g15 -->
<g id="edge21" class="edge">
<title>d6&#45;&gt;g15</title>
<path fill="none" stroke="#9933cc" d="M448.36,-56.56C454.54,-81.61 468.51,-120.85 497.67,-138.67 525.48,-155.66 1056.59,-155.77 1084.33,-138.67 1112.33,-121.41 1125.97,-84.22 1132.22,-59.14"/>
<polygon fill="#9933cc" stroke="#9933cc" points="449.43,-56.52 447.72,-53.84 447.39,-57 449.43,-56.52"/>
<polygon fill="#9933cc" stroke="#9933cc" points="1133.2,-59.55 1132.88,-56.39 1131.16,-59.06 1133.2,-59.55"/>
</g>
<!-- d7&#45;&gt;g9 -->
<g id="edge28" class="edge">
<title>d7&#45;&gt;g9</title>
<path fill="none" stroke="#9933cc" d="M528.49,-56.34C534.47,-79.54 547.55,-114.64 574,-130.75 596.78,-144.62 611.4,-144.9 634,-130.75 658.88,-115.17 670.93,-82.24 676.52,-59.14"/>
<polygon fill="#9933cc" stroke="#9933cc" points="529.56,-56.28 527.82,-53.62 527.52,-56.79 529.56,-56.28"/>
<polygon fill="#9933cc" stroke="#9933cc" points="677.5,-59.58 677.15,-56.43 675.45,-59.11 677.5,-59.58"/>
</g>
<!-- g16 -->
<g id="node17" class="node">
<title>g16</title>
<polygon fill="#f8f8f8" stroke="black" points="1240,-54.5 1186,-54.5 1186,-13.5 1240,-13.5 1240,-54.5"/>
<text xml:space="preserve" text-anchor="start" x="1194" y="-43.85" font-family="Courier New" font-size="7.00">&#45;</text>
<text xml:space="preserve" text-anchor="start" x="1194" y="-35.6" font-family="Courier New" font-size="7.00">&#45;</text>
<text xml:space="preserve" text-anchor="start" x="1194" y="-27.35" font-family="Courier New" font-size="7.00">&#45;</text>
<text xml:space="preserve" text-anchor="start" x="1194" y="-19.1" font-family="Courier New" font-size="7.00">&#45;</text>
</g>
<!-- d8&#45;&gt;g16 -->
<g id="edge22" class="edge">
<title>d8&#45;&gt;g16</title>
<path fill="none" stroke="red" d="M608.69,-56.27C614.48,-77.55 626.63,-108.46 650.33,-122.83 674.91,-137.73 1143.16,-137.84 1167.67,-122.83 1190.23,-109.02 1202.01,-80.04 1207.84,-58.93"/>
<polygon fill="red" stroke="red" points="609.77,-56.25 607.99,-53.61 607.74,-56.78 609.77,-56.25"/>
<polygon fill="red" stroke="red" points="1208.79,-59.45 1208.54,-56.28 1206.76,-58.91 1208.79,-59.45"/>
</g>
<!-- d8&#45;&gt;g16 -->
<g id="edge23" class="edge">
<title>d8&#45;&gt;g16</title>
<path fill="none" stroke="green" d="M608.36,-56.56C614.54,-81.61 628.51,-120.85 657.67,-138.67 681.5,-153.23 1136.56,-153.32 1160.33,-138.67 1188.33,-121.41 1201.97,-84.22 1208.22,-59.14"/>
<polygon fill="green" stroke="green" points="609.43,-56.52 607.72,-53.84 607.39,-57 609.43,-56.52"/>
<polygon fill="green" stroke="green" points="1209.2,-59.55 1208.88,-56.39 1207.16,-59.06 1209.2,-59.55"/>
</g>
<!-- g10&#45;&gt;d7 -->
<g id="edge18" class="edge">
<title>g10&#45;&gt;d7</title>
<path fill="none" stroke="red" d="M752.01,-59.18C745.94,-82.3 733.22,-115.25 708,-130.75 657.26,-161.93 624.87,-161.72 574,-130.75 547.55,-114.64 534.47,-79.54 528.49,-56.34"/>
<polygon fill="red" stroke="red" points="752.98,-59.61 752.7,-56.45 750.94,-59.1 752.98,-59.61"/>
<polygon fill="red" stroke="red" points="529.56,-56.28 527.82,-53.62 527.52,-56.79 529.56,-56.28"/>
</g>
<!-- g10&#45;&gt;g9 -->
<g id="edge19" class="edge">
<title>g10&#45;&gt;g9</title>
<path fill="none" stroke="green" d="M725.1,-34C720.95,-34 716.79,-34 712.64,-34"/>
<polygon fill="green" stroke="green" points="725.1,-35.05 728.1,-34 725.1,-32.95 725.1,-35.05"/>
<polygon fill="green" stroke="green" points="712.83,-32.95 709.83,-34 712.83,-35.05 712.83,-32.95"/>
</g>
<!-- g11&#45;&gt;d2 -->
<g id="edge26" class="edge">
<title>g11&#45;&gt;d2</title>
<path fill="none" stroke="red" d="M828.01,-59.18C821.94,-82.3 809.22,-115.25 784,-130.75 755.13,-148.49 202.95,-148.37 174,-130.75 147.55,-114.64 134.47,-79.54 128.49,-56.34"/>
<polygon fill="red" stroke="red" points="828.98,-59.61 828.7,-56.45 826.94,-59.1 828.98,-59.61"/>
<polygon fill="red" stroke="red" points="129.56,-56.28 127.82,-53.62 127.52,-56.79 129.56,-56.28"/>
</g>
<!-- g11&#45;&gt;g12 -->
<g id="edge27" class="edge">
<title>g11&#45;&gt;g12</title>
<path fill="none" stroke="green" d="M864.64,-34C868.79,-34 872.95,-34 877.1,-34"/>
<polygon fill="green" stroke="green" points="864.83,-32.95 861.83,-34 864.83,-35.05 864.83,-32.95"/>
<polygon fill="green" stroke="green" points="877.1,-35.05 880.1,-34 877.1,-32.95 877.1,-35.05"/>
</g>
<!-- g13&#45;&gt;d3 -->
<g id="edge29" class="edge">
<title>g13&#45;&gt;d3</title>
<path fill="none" stroke="red" d="M980.01,-59.18C973.94,-82.3 961.22,-115.25 936,-130.75 903.72,-150.59 286.36,-150.45 254,-130.75 227.55,-114.64 214.47,-79.54 208.49,-56.34"/>
<polygon fill="red" stroke="red" points="980.98,-59.61 980.7,-56.45 978.94,-59.1 980.98,-59.61"/>
<polygon fill="red" stroke="red" points="209.56,-56.28 207.82,-53.62 207.52,-56.79 209.56,-56.28"/>
</g>
<!-- g14&#45;&gt;d3 -->
<g id="edge25" class="edge">
<title>g14&#45;&gt;d3</title>
<path fill="none" stroke="#9933cc" d="M1056.01,-59.18C1049.94,-82.3 1037.22,-115.25 1012,-130.75 976.12,-152.8 289.97,-152.65 254,-130.75 227.55,-114.64 214.47,-79.54 208.49,-56.34"/>
<polygon fill="#9933cc" stroke="#9933cc" points="1056.98,-59.61 1056.7,-56.45 1054.94,-59.1 1056.98,-59.61"/>
<polygon fill="#9933cc" stroke="#9933cc" points="209.56,-56.28 207.82,-53.62 207.52,-56.79 209.56,-56.28"/>
</g>
<!-- g14&#45;&gt;g13 -->
<g id="edge24" class="edge">
<title>g14&#45;&gt;g13</title>
<path fill="none" stroke="green" d="M1029.1,-34C1024.95,-34 1020.79,-34 1016.64,-34"/>
<polygon fill="green" stroke="green" points="1029.1,-35.05 1032.1,-34 1029.1,-32.95 1029.1,-35.05"/>
<polygon fill="green" stroke="green" points="1016.83,-32.95 1013.83,-34 1016.83,-35.05 1016.83,-32.95"/>
</g>
<!-- gp_C_0 -->
<g id="node18" class="node">
<title>gp_C_0</title>
<text xml:space="preserve" text-anchor="middle" x="1289" y="-176.05" font-family="Helvetica,sans-Serif" font-size="11.00" fill="#333333">Sp(0)</text>
</g>
<!-- gp_C_0&#45;&gt;d1 -->
<!-- gp_D_2 -->
<g id="node19" class="node">
<title>gp_D_2</title>
<text xml:space="preserve" text-anchor="middle" x="1289" y="-29.55" font-family="Helvetica,sans-Serif" font-size="11.00" fill="#333333">SO(4)</text>
</g>
<!-- gp_C_0&#45;&gt;gp_D_2 -->
<!-- gp_D_2&#45;&gt;d0 -->
</g>
</svg>
