<?xml version="1.0" encoding="UTF-8" standalone="no"?>
<!DOCTYPE svg PUBLIC "-//W3C//DTD SVG 1.1//EN"
 "http://www.w3.org/Graphics/SVG/1.1/DTD/svg11.dtd">
<!-- Generated by graphviz version 13.1.2 (20250808.2320)
 -->
<!-- Title: Extended PBP Tree Pages: 1 -->
<svg width="1444pt" height="290pt"
 viewBox="0.00 0.00 1444.00 290.00" xmlns="http://www.w3.org/2000/svg" xmlns:xlink="http://www.w3.org/1999/xlink">
<g id="graph0" class="graph" transform="scale(2.08333 2.08333) rotate(0) translate(4 135.25)">
<title>Extended PBP Tree</title>
<polygon fill="white" stroke="none" points="-4,4 -4,-135.25 689.25,-135.25 689.25,4 -4,4"/>
<!-- e0 -->
<g id="node1" class="node">
<title>e0</title>
<polygon fill="#fff3e6" stroke="black" points="606.25,-37.25 549.75,-37.25 549.75,0 606.25,0 606.25,-37.25"/>
<text xml:space="preserve" text-anchor="start" x="557.75" y="-25.65" font-family="Courier New" font-size="8.00">(2,2) ε=0</text>
<text xml:space="preserve" text-anchor="start" x="557.75" y="-15.9" font-family="Courier New" font-size="8.00">c|</text>
<text xml:space="preserve" text-anchor="start" x="557.75" y="-6.15" font-family="Courier New" font-size="8.00">d|</text>
</g>
<!-- e1 -->
<g id="node2" class="node">
<title>e1</title>
<polygon fill="#e6f3ff" stroke="black" points="369.25,-131.25 312.75,-131.25 312.75,-95.25 369.25,-95.25 369.25,-131.25"/>
<text xml:space="preserve" text-anchor="start" x="320.75" y="-115.03" font-family="Courier New" font-size="8.00">(0,0) ε=0</text>
</g>
<!-- e1&#45;&gt;e0 -->
<g id="edge1" class="edge">
<title>e1&#45;&gt;e0</title>
<path fill="none" stroke="blue" d="M369.56,-101.9C408.05,-87.83 478.58,-61.63 538,-37.25 538.36,-37.1 538.71,-36.96 539.07,-36.81"/>
<polygon fill="blue" stroke="blue" points="540.43,-40.03 548.28,-32.91 537.7,-33.59 540.43,-40.03"/>
</g>
<!-- e2 -->
<g id="node3" class="node">
<title>e2</title>
<polygon fill="#fff3e6" stroke="black" points="685.25,-37.25 628.75,-37.25 628.75,0 685.25,0 685.25,-37.25"/>
<text xml:space="preserve" text-anchor="start" x="636.75" y="-25.65" font-family="Courier New" font-size="8.00">(3,1) ε=0</text>
<text xml:space="preserve" text-anchor="start" x="636.75" y="-15.9" font-family="Courier New" font-size="8.00">r|</text>
<text xml:space="preserve" text-anchor="start" x="636.75" y="-6.15" font-family="Courier New" font-size="8.00">d|</text>
</g>
<!-- e1&#45;&gt;e2 -->
<g id="edge2" class="edge">
<title>e1&#45;&gt;e2</title>
<path fill="none" stroke="blue" d="M369.64,-105.96C420.26,-94.52 528.53,-68.56 617,-37.25 617.23,-37.17 617.47,-37.08 617.7,-37"/>
<polygon fill="blue" stroke="blue" points="618.9,-40.29 626.96,-33.4 616.37,-33.76 618.9,-40.29"/>
</g>
<!-- e3 -->
<g id="node4" class="node">
<title>e3</title>
<polygon fill="#fff3e6" stroke="black" points="132.25,-37.25 75.75,-37.25 75.75,0 132.25,0 132.25,-37.25"/>
<text xml:space="preserve" text-anchor="start" x="83.75" y="-25.65" font-family="Courier New" font-size="8.00">(1,3) ε=0</text>
<text xml:space="preserve" text-anchor="start" x="83.75" y="-15.9" font-family="Courier New" font-size="8.00">s|</text>
<text xml:space="preserve" text-anchor="start" x="83.75" y="-6.15" font-family="Courier New" font-size="8.00">d|</text>
</g>
<!-- e1&#45;&gt;e3 -->
<g id="edge3" class="edge">
<title>e1&#45;&gt;e3</title>
<path fill="none" stroke="blue" d="M312.44,-101.9C273.95,-87.83 203.42,-61.63 144,-37.25 143.64,-37.1 143.29,-36.96 142.93,-36.81"/>
<polygon fill="blue" stroke="blue" points="144.3,-33.59 133.72,-32.91 141.57,-40.03 144.3,-33.59"/>
</g>
<!-- e4 -->
<g id="node5" class="node">
<title>e4</title>
<polygon fill="#fff3e6" stroke="black" points="211.25,-37.25 154.75,-37.25 154.75,0 211.25,0 211.25,-37.25"/>
<text xml:space="preserve" text-anchor="start" x="162.75" y="-25.65" font-family="Courier New" font-size="8.00">(3,1) ε=1</text>
<text xml:space="preserve" text-anchor="start" x="162.75" y="-15.9" font-family="Courier New" font-size="8.00">r|</text>
<text xml:space="preserve" text-anchor="start" x="162.75" y="-6.15" font-family="Courier New" font-size="8.00">c|</text>
</g>
<!-- e1&#45;&gt;e4 -->
<g id="edge4" class="edge">
<title>e1&#45;&gt;e4</title>
<path fill="none" stroke="blue" d="M312.39,-95.48C286.96,-80.57 249.59,-58.66 221.54,-42.22"/>
<polygon fill="blue" stroke="blue" points="223.37,-39.23 212.97,-37.2 219.83,-45.27 223.37,-39.23"/>
</g>
<!-- e5 -->
<g id="node6" class="node">
<title>e5</title>
<polygon fill="#fff3e6" stroke="black" points="290.25,-37.25 233.75,-37.25 233.75,0 290.25,0 290.25,-37.25"/>
<text xml:space="preserve" text-anchor="start" x="241.75" y="-25.65" font-family="Courier New" font-size="8.00">(1,3) ε=1</text>
<text xml:space="preserve" text-anchor="start" x="241.75" y="-15.9" font-family="Courier New" font-size="8.00">s|</text>
<text xml:space="preserve" text-anchor="start" x="241.75" y="-6.15" font-family="Courier New" font-size="8.00">c|</text>
</g>
<!-- e1&#45;&gt;e5 -->
<g id="edge5" class="edge">
<title>e1&#45;&gt;e5</title>
<path fill="none" stroke="blue" d="M326.14,-94.83C314.48,-81.16 298.06,-61.9 284.75,-46.3"/>
<polygon fill="blue" stroke="blue" points="287.47,-44.09 278.31,-38.75 282.14,-48.63 287.47,-44.09"/>
</g>
<!-- e6 -->
<g id="node7" class="node">
<title>e6</title>
<polygon fill="#fff3e6" stroke="black" points="369.25,-37.25 312.75,-37.25 312.75,0 369.25,0 369.25,-37.25"/>
<text xml:space="preserve" text-anchor="start" x="320.75" y="-25.65" font-family="Courier New" font-size="8.00">(4,0) ε=1</text>
<text xml:space="preserve" text-anchor="start" x="320.75" y="-15.9" font-family="Courier New" font-size="8.00">r|</text>
<text xml:space="preserve" text-anchor="start" x="320.75" y="-6.15" font-family="Courier New" font-size="8.00">r|</text>
</g>
<!-- e1&#45;&gt;e6 -->
<g id="edge6" class="edge">
<title>e1&#45;&gt;e6</title>
<path fill="none" stroke="blue" d="M341,-94.83C341,-81.93 341,-64.04 341,-48.96"/>
<polygon fill="blue" stroke="blue" points="344.5,-49.11 341,-39.11 337.5,-49.11 344.5,-49.11"/>
</g>
<!-- e7 -->
<g id="node8" class="node">
<title>e7</title>
<polygon fill="#fff3e6" stroke="black" points="448.25,-37.25 391.75,-37.25 391.75,0 448.25,0 448.25,-37.25"/>
<text xml:space="preserve" text-anchor="start" x="399.75" y="-25.65" font-family="Courier New" font-size="8.00">(2,2) ε=1</text>
<text xml:space="preserve" text-anchor="start" x="399.75" y="-15.9" font-family="Courier New" font-size="8.00">s|</text>
<text xml:space="preserve" text-anchor="start" x="399.75" y="-6.15" font-family="Courier New" font-size="8.00">r|</text>
</g>
<!-- e1&#45;&gt;e7 -->
<g id="edge7" class="edge">
<title>e1&#45;&gt;e7</title>
<path fill="none" stroke="blue" d="M355.86,-94.83C367.52,-81.16 383.94,-61.9 397.25,-46.3"/>
<polygon fill="blue" stroke="blue" points="399.86,-48.63 403.69,-38.75 394.53,-44.09 399.86,-48.63"/>
</g>
<!-- e8 -->
<g id="node9" class="node">
<title>e8</title>
<polygon fill="#fff3e6" stroke="black" points="527.25,-37.25 470.75,-37.25 470.75,0 527.25,0 527.25,-37.25"/>
<text xml:space="preserve" text-anchor="start" x="478.75" y="-25.65" font-family="Courier New" font-size="8.00">(0,4) ε=1</text>
<text xml:space="preserve" text-anchor="start" x="478.75" y="-15.9" font-family="Courier New" font-size="8.00">s|</text>
<text xml:space="preserve" text-anchor="start" x="478.75" y="-6.15" font-family="Courier New" font-size="8.00">s|</text>
</g>
<!-- e1&#45;&gt;e8 -->
<g id="edge8" class="edge">
<title>e1&#45;&gt;e8</title>
<path fill="none" stroke="blue" d="M369.61,-95.48C395.04,-80.57 432.41,-58.66 460.46,-42.22"/>
<polygon fill="blue" stroke="blue" points="462.17,-45.27 469.03,-37.2 458.63,-39.23 462.17,-45.27"/>
</g>
<!-- gp_C_0 -->
<g id="node10" class="node">
<title>gp_C_0</title>
<text xml:space="preserve" text-anchor="middle" x="27" y="-108.8" font-family="Helvetica,sans-Serif" font-size="11.00" fill="#333333">Sp(0)</text>
</g>
<!-- gp_C_0&#45;&gt;e1 -->
<!-- gp_D_2 -->
<g id="node11" class="node">
<title>gp_D_2</title>
<text xml:space="preserve" text-anchor="middle" x="27" y="-14.18" font-family="Helvetica,sans-Serif" font-size="11.00" fill="#333333">SO(4)</text>
</g>
<!-- gp_C_0&#45;&gt;gp_D_2 -->
<!-- gp_D_2&#45;&gt;e0 -->
</g>
</svg>
