<?xml version="1.0" encoding="UTF-8" standalone="no"?>
<!DOCTYPE svg PUBLIC "-//W3C//DTD SVG 1.1//EN"
 "http://www.w3.org/Graphics/SVG/1.1/DTD/svg11.dtd">
<!-- Generated by graphviz version 13.1.2 (20250808.2320)
 -->
<!-- Title: Combined Lift Tree Pages: 1 -->
<svg width="3388pt" height="1126pt"
 viewBox="0.00 0.00 3388.00 1126.00" xmlns="http://www.w3.org/2000/svg" xmlns:xlink="http://www.w3.org/1999/xlink">
<g id="graph0" class="graph" transform="scale(2.08333 2.08333) rotate(0) translate(4 536.68)">
<title>Combined Lift Tree</title>
<polygon fill="white" stroke="none" points="-4,4 -4,-536.68 1622,-536.68 1622,4 -4,4"/>
<g id="clust1" class="cluster">
<title>cluster_orbit_3</title>
<polygon fill="#ffe6e6" stroke="#999999" stroke-width="0.8" stroke-dasharray="1,5" points="1282,-100 1282,-260 1368,-260 1368,-100 1282,-100"/>
</g>
<g id="clust2" class="cluster">
<title>cluster_orbit_4</title>
<polygon fill="#ffe6e6" stroke="#999999" stroke-width="0.8" stroke-dasharray="1,5" points="62,-100 62,-260 260,-260 260,-100 62,-100"/>
</g>
<g id="clust3" class="cluster">
<title>cluster_orbit_5</title>
<polygon fill="#ffe6e6" stroke="#999999" stroke-width="0.8" stroke-dasharray="1,5" points="657,-100 657,-260 827,-260 827,-100 657,-100"/>
</g>
<g id="clust4" class="cluster">
<title>cluster_orbit_6</title>
<polygon fill="#ffe6e6" stroke="#999999" stroke-width="0.8" stroke-dasharray="1,5" points="267,-316 267,-476 353,-476 353,-316 267,-316"/>
</g>
<g id="clust5" class="cluster">
<title>cluster_orbit_9</title>
<polygon fill="#ffe6e6" stroke="#999999" stroke-width="0.8" stroke-dasharray="1,5" points="1067,-316 1067,-476 1153,-476 1153,-316 1067,-316"/>
</g>
<g id="clust6" class="cluster">
<title>cluster_orbit_12</title>
<polygon fill="#ffe6e6" stroke="#999999" stroke-width="0.8" stroke-dasharray="1,5" points="360,-100 360,-260 585,-260 585,-100 360,-100"/>
</g>
<g id="clust7" class="cluster">
<title>cluster_orbit_15</title>
<polygon fill="#ffe6e6" stroke="#999999" stroke-width="0.8" stroke-dasharray="1,5" points="835,-100 835,-260 1060,-260 1060,-100 835,-100"/>
</g>
<g id="clust8" class="cluster">
<title>cluster_orbit_18</title>
<polygon fill="#ffe6e6" stroke="#999999" stroke-width="0.8" stroke-dasharray="1,5" points="1160,-100 1160,-260 1274,-260 1274,-100 1160,-100"/>
</g>
<g id="clust9" class="cluster">
<title>cluster_orbit_19</title>
<polygon fill="#ffe6e6" stroke="#999999" stroke-width="0.8" stroke-dasharray="1,5" points="1440,-100 1440,-260 1610,-260 1610,-100 1440,-100"/>
</g>
<!-- d0 -->
<g id="node1" class="node">
<title>d0</title>
<polygon fill="white" stroke="black" points="417.25,-468 360.75,-468 360.75,-432 417.25,-432 417.25,-468"/>
<text xml:space="preserve" text-anchor="middle" x="389" y="-447.48" font-family="Courier New" font-size="7.00">(0,0) ε=0</text>
</g>
<!-- d14 -->
<g id="node15" class="node">
<title>d14</title>
<polygon fill="white" stroke="black" points="345,-360 275,-360 275,-324 345,-324 345,-360"/>
<text xml:space="preserve" text-anchor="middle" x="310" y="-339.48" font-family="Courier New" font-size="7.00">(1,0) B+ ε=1</text>
</g>
<!-- d0&#45;&gt;d14 -->
<g id="edge25" class="edge">
<title>d0&#45;&gt;d14</title>
<path fill="none" stroke="#888888" stroke-dasharray="5,2" d="M376.31,-431.97C362.85,-413.92 341.55,-385.33 326.73,-365.45"/>
<polygon fill="#888888" stroke="#888888" points="328.22,-364.52 323.83,-361.55 325.41,-366.61 328.22,-364.52"/>
</g>
<!-- d18 -->
<g id="node19" class="node">
<title>d18</title>
<polygon fill="white" stroke="black" points="1145,-360 1075,-360 1075,-324 1145,-324 1145,-360"/>
<text xml:space="preserve" text-anchor="middle" x="1110" y="-339.48" font-family="Courier New" font-size="7.00">(0,1) B&#45; ε=1</text>
</g>
<!-- d0&#45;&gt;d18 -->
<g id="edge18" class="edge">
<title>d0&#45;&gt;d18</title>
<path fill="none" stroke="#888888" stroke-dasharray="5,2" d="M417.71,-444.78C529.6,-428.33 936.77,-368.47 1068.54,-349.09"/>
<polygon fill="#888888" stroke="#888888" points="1068.42,-350.88 1073.11,-348.42 1067.91,-347.42 1068.42,-350.88"/>
</g>
<!-- d1 -->
<g id="node2" class="node">
<title>d1</title>
<polygon fill="white" stroke="black" points="156.75,-36 73.25,-36 73.25,0 156.75,0 156.75,-36"/>
<text xml:space="preserve" text-anchor="middle" x="115" y="-15.47" font-family="Courier New" font-size="7.00">(3,3) ε=0 ℘={1}</text>
</g>
<!-- d2 -->
<g id="node3" class="node">
<title>d2</title>
<polygon fill="white" stroke="black" points="458.75,-36 375.25,-36 375.25,0 458.75,0 458.75,-36"/>
<text xml:space="preserve" text-anchor="middle" x="417" y="-15.47" font-family="Courier New" font-size="7.00">(3,3) ε=0 ℘={1}</text>
</g>
<!-- d3 -->
<g id="node4" class="node">
<title>d3</title>
<polygon fill="white" stroke="black" points="1360,-144 1290,-144 1290,-108 1360,-108 1360,-144"/>
<text xml:space="preserve" text-anchor="middle" x="1325" y="-123.47" font-family="Courier New" font-size="7.00">(3,2) B&#45; ε=1</text>
</g>
<!-- g4 -->
<g id="node5" class="node">
<title>g4</title>
<polygon fill="#f0f0f0" stroke="black" points="1357.75,-252 1292.25,-252 1292.25,-216 1357.75,-216 1357.75,-252"/>
<text xml:space="preserve" text-anchor="middle" x="1325" y="-231.47" font-family="Courier New" font-size="7.00">&#45;+&#45; * &#160;&#160;* &#160;</text>
</g>
<!-- d3&#45;&gt;g4 -->
<g id="edge45" class="edge">
<title>d3&#45;&gt;g4</title>
<path fill="none" stroke="red" d="M1325,-148.84C1325,-167.23 1325,-193.39 1325,-211.64"/>
<polygon fill="red" stroke="red" points="1326.05,-148.85 1325,-145.85 1323.95,-148.85 1326.05,-148.85"/>
<polygon fill="red" stroke="red" points="1323.95,-211.46 1325,-214.46 1326.05,-211.46 1323.95,-211.46"/>
</g>
<!-- d3&#45;&gt;g4 -->
<g id="edge46" class="edge">
<title>d3&#45;&gt;g4</title>
<path fill="none" stroke="#9933cc" d="M1333.62,-148.37C1336.13,-166.79 1336.13,-193.24 1333.62,-211.64"/>
<polygon fill="#9933cc" stroke="#9933cc" points="1334.72,-148.65 1333.24,-145.84 1332.65,-148.96 1334.72,-148.65"/>
<polygon fill="#9933cc" stroke="#9933cc" points="1332.6,-211.35 1333.19,-214.47 1334.68,-211.67 1332.6,-211.35"/>
</g>
<!-- d44 -->
<g id="node45" class="node">
<title>d44</title>
<polygon fill="white" stroke="black" points="1353.25,-36 1296.75,-36 1296.75,0 1353.25,0 1353.25,-36"/>
<text xml:space="preserve" text-anchor="middle" x="1325" y="-15.47" font-family="Courier New" font-size="7.00">(3,3) ε=0</text>
</g>
<!-- d3&#45;&gt;d44 -->
<g id="edge29" class="edge">
<title>d3&#45;&gt;d44</title>
<path fill="none" stroke="#888888" stroke-dasharray="5,2" d="M1325,-107.97C1325,-90.3 1325,-62.54 1325,-42.73"/>
<polygon fill="#888888" stroke="#888888" points="1326.75,-42.85 1325,-37.85 1323.25,-42.85 1326.75,-42.85"/>
</g>
<!-- g4&#45;&gt;d3 -->
<!-- g5 -->
<g id="node6" class="node">
<title>g5</title>
<polygon fill="#f0f0f0" stroke="black" points="143.75,-252 78.25,-252 78.25,-216 143.75,-216 143.75,-252"/>
<text xml:space="preserve" text-anchor="middle" x="111" y="-231.47" font-family="Courier New" font-size="7.00">*=* * &#160;&#160;* &#160;</text>
</g>
<!-- d6 -->
<g id="node7" class="node">
<title>d6</title>
<polygon fill="white" stroke="black" points="167.5,-144 70.5,-144 70.5,-108 167.5,-108 167.5,-144"/>
<text xml:space="preserve" text-anchor="middle" x="119" y="-123.47" font-family="Courier New" font-size="7.00">(4,1) B+ ε=1 ℘={0}</text>
</g>
<!-- g5&#45;&gt;d6 -->
<!-- g5&#45;&gt;d6 -->
<g id="edge62" class="edge">
<title>g5&#45;&gt;d6</title>
<path fill="none" stroke="red" d="M116.92,-211.64C119.54,-193.39 121.53,-167.23 121.69,-148.84"/>
<polygon fill="red" stroke="red" points="115.9,-211.35 116.49,-214.47 117.98,-211.66 115.9,-211.35"/>
<polygon fill="red" stroke="red" points="122.74,-148.85 121.69,-145.85 120.64,-148.85 122.74,-148.85"/>
</g>
<!-- g8 -->
<g id="node9" class="node">
<title>g8</title>
<polygon fill="#f0f0f0" stroke="black" points="223.75,-252 158.25,-252 158.25,-216 223.75,-216 223.75,-252"/>
<text xml:space="preserve" text-anchor="middle" x="191" y="-231.47" font-family="Courier New" font-size="7.00">+&#45;+ * &#160;&#160;* &#160;</text>
</g>
<!-- g5&#45;&gt;g8 -->
<g id="edge63" class="edge">
<title>g5&#45;&gt;g8</title>
<path fill="none" stroke="green" d="M148.47,-234C150.17,-234 151.86,-234 153.56,-234"/>
<polygon fill="green" stroke="green" points="148.64,-232.95 145.64,-234 148.64,-235.05 148.64,-232.95"/>
<polygon fill="green" stroke="green" points="153.53,-235.05 156.53,-234 153.53,-232.95 153.53,-235.05"/>
</g>
<!-- d6&#45;&gt;d1 -->
<g id="edge35" class="edge">
<title>d6&#45;&gt;d1</title>
<path fill="none" stroke="#888888" stroke-dasharray="5,2" d="M118.36,-107.97C117.69,-90.3 116.64,-62.54 115.9,-42.73"/>
<polygon fill="#888888" stroke="#888888" points="117.65,-42.78 115.71,-37.85 114.15,-42.92 117.65,-42.78"/>
</g>
<!-- d7 -->
<g id="node8" class="node">
<title>d7</title>
<polygon fill="white" stroke="black" points="252,-144 182,-144 182,-108 252,-108 252,-144"/>
<text xml:space="preserve" text-anchor="middle" x="217" y="-123.47" font-family="Courier New" font-size="7.00">(4,1) B+ ε=1</text>
</g>
<!-- d7&#45;&gt;g5 -->
<g id="edge49" class="edge">
<title>d7&#45;&gt;g5</title>
<path fill="none" stroke="#9933cc" d="M196.93,-147.07C177.99,-166.01 149.75,-194.25 130.88,-213.12"/>
<polygon fill="#9933cc" stroke="#9933cc" points="197.21,-148.27 198.59,-145.41 195.73,-146.79 197.21,-148.27"/>
<polygon fill="#9933cc" stroke="#9933cc" points="130.48,-212.04 129.1,-214.9 131.96,-213.52 130.48,-212.04"/>
</g>
<!-- d7&#45;&gt;d6 -->
<g id="edge48" class="edge">
<title>d7&#45;&gt;d6</title>
<path fill="none" stroke="green" d="M177.03,-126C175.34,-126 173.65,-126 171.96,-126"/>
<polygon fill="green" stroke="green" points="176.99,-127.05 179.99,-126 176.99,-124.95 176.99,-127.05"/>
<polygon fill="green" stroke="green" points="172.13,-124.95 169.13,-126 172.13,-127.05 172.13,-124.95"/>
</g>
<!-- d7&#45;&gt;g8 -->
<g id="edge47" class="edge">
<title>d7&#45;&gt;g8</title>
<path fill="none" stroke="red" d="M211.76,-148.37C207.24,-166.79 200.75,-193.24 196.24,-211.64"/>
<polygon fill="red" stroke="red" points="212.69,-148.97 212.39,-145.81 210.65,-148.47 212.69,-148.97"/>
<polygon fill="red" stroke="red" points="195.23,-211.34 195.54,-214.5 197.27,-211.84 195.23,-211.34"/>
</g>
<!-- d43 -->
<g id="node44" class="node">
<title>d43</title>
<polygon fill="white" stroke="black" points="245.25,-36 188.75,-36 188.75,0 245.25,0 245.25,-36"/>
<text xml:space="preserve" text-anchor="middle" x="217" y="-15.47" font-family="Courier New" font-size="7.00">(3,3) ε=0</text>
</g>
<!-- d7&#45;&gt;d43 -->
<g id="edge33" class="edge">
<title>d7&#45;&gt;d43</title>
<path fill="none" stroke="#888888" stroke-dasharray="5,2" d="M217,-107.97C217,-90.3 217,-62.54 217,-42.73"/>
<polygon fill="#888888" stroke="#888888" points="218.75,-42.85 217,-37.85 215.25,-42.85 218.75,-42.85"/>
</g>
<!-- g8&#45;&gt;d6 -->
<!-- g8&#45;&gt;d6 -->
<g id="edge68" class="edge">
<title>g8&#45;&gt;d6</title>
<path fill="none" stroke="#9933cc" d="M181.11,-212.14C169.7,-193.42 151.13,-166.09 137.16,-147.48"/>
<polygon fill="#9933cc" stroke="#9933cc" points="180.18,-212.64 182.63,-214.67 181.98,-211.56 180.18,-212.64"/>
<polygon fill="#9933cc" stroke="#9933cc" points="138.34,-147.31 135.7,-145.55 136.67,-148.57 138.34,-147.31"/>
</g>
<!-- g9 -->
<g id="node10" class="node">
<title>g9</title>
<polygon fill="#f0f0f0" stroke="black" points="737.75,-252 672.25,-252 672.25,-216 737.75,-216 737.75,-252"/>
<text xml:space="preserve" text-anchor="middle" x="705" y="-231.47" font-family="Courier New" font-size="7.00">+&#45;+ = &#160;&#160;* &#160;</text>
</g>
<!-- g10 -->
<g id="node11" class="node">
<title>g10</title>
<polygon fill="#f0f0f0" stroke="black" points="817.75,-252 752.25,-252 752.25,-216 817.75,-216 817.75,-252"/>
<text xml:space="preserve" text-anchor="middle" x="785" y="-231.47" font-family="Courier New" font-size="7.00">*=* &#45; &#160;&#160;* &#160;</text>
</g>
<!-- g9&#45;&gt;g10 -->
<g id="edge51" class="edge">
<title>g9&#45;&gt;g10</title>
<path fill="none" stroke="green" d="M742.47,-234C744.17,-234 745.86,-234 747.56,-234"/>
<polygon fill="green" stroke="green" points="742.64,-232.95 739.64,-234 742.64,-235.05 742.64,-232.95"/>
<polygon fill="green" stroke="green" points="747.53,-235.05 750.53,-234 747.53,-232.95 747.53,-235.05"/>
</g>
<!-- d11 -->
<g id="node12" class="node">
<title>d11</title>
<polygon fill="white" stroke="black" points="819,-144 749,-144 749,-108 819,-108 819,-144"/>
<text xml:space="preserve" text-anchor="middle" x="784" y="-123.47" font-family="Courier New" font-size="7.00">(3,2) B+ ε=1</text>
</g>
<!-- g9&#45;&gt;d11 -->
<!-- g9&#45;&gt;d11 -->
<g id="edge52" class="edge">
<title>g9&#45;&gt;d11</title>
<path fill="none" stroke="#9933cc" d="M724.42,-212.64C739.59,-194.06 759.97,-166.73 772.65,-147.97"/>
<polygon fill="#9933cc" stroke="#9933cc" points="723.73,-211.82 722.63,-214.8 725.35,-213.15 723.73,-211.82"/>
<polygon fill="#9933cc" stroke="#9933cc" points="773.44,-148.68 774.24,-145.6 771.7,-147.51 773.44,-148.68"/>
</g>
<!-- d12 -->
<g id="node13" class="node">
<title>d12</title>
<polygon fill="white" stroke="black" points="735,-144 665,-144 665,-108 735,-108 735,-144"/>
<text xml:space="preserve" text-anchor="middle" x="700" y="-123.47" font-family="Courier New" font-size="7.00">(3,2) B+ ε=0</text>
</g>
<!-- g9&#45;&gt;d12 -->
<g id="edge50" class="edge">
<title>g9&#45;&gt;d12</title>
<path fill="none" stroke="red" d="M703.99,-211.64C703.13,-193.39 701.9,-167.23 701.03,-148.84"/>
<polygon fill="red" stroke="red" points="702.94,-211.51 704.13,-214.46 705.03,-211.41 702.94,-211.51"/>
<polygon fill="red" stroke="red" points="702.08,-148.8 700.89,-145.85 699.98,-148.9 702.08,-148.8"/>
</g>
<!-- g10&#45;&gt;d11 -->
<!-- g10&#45;&gt;d11 -->
<g id="edge76" class="edge">
<title>g10&#45;&gt;d11</title>
<path fill="none" stroke="red" d="M789.11,-211.64C790.19,-193.24 789.94,-166.79 788.51,-148.37"/>
<polygon fill="red" stroke="red" points="788.07,-211.4 788.92,-214.46 790.17,-211.54 788.07,-211.4"/>
<polygon fill="red" stroke="red" points="789.6,-148.75 788.3,-145.85 787.51,-148.93 789.6,-148.75"/>
</g>
<!-- g10&#45;&gt;d12 -->
<g id="edge77" class="edge">
<title>g10&#45;&gt;d12</title>
<path fill="none" stroke="#9933cc" d="M768.67,-212.64C753.65,-193.91 731.5,-166.28 716.44,-147.51"/>
<polygon fill="#9933cc" stroke="#9933cc" points="767.7,-213.1 770.4,-214.79 769.34,-211.79 767.7,-213.1"/>
<polygon fill="#9933cc" stroke="#9933cc" points="717.55,-147.2 714.85,-145.52 715.91,-148.52 717.55,-147.2"/>
</g>
<!-- d20 -->
<g id="node21" class="node">
<title>d20</title>
<polygon fill="white" stroke="black" points="812.25,-36 755.75,-36 755.75,0 812.25,0 812.25,-36"/>
<text xml:space="preserve" text-anchor="middle" x="784" y="-15.47" font-family="Courier New" font-size="7.00">(3,3) ε=0</text>
</g>
<!-- d11&#45;&gt;d20 -->
<g id="edge41" class="edge">
<title>d11&#45;&gt;d20</title>
<path fill="none" stroke="#888888" stroke-dasharray="5,2" d="M784,-107.97C784,-90.3 784,-62.54 784,-42.73"/>
<polygon fill="#888888" stroke="#888888" points="785.75,-42.85 784,-37.85 782.25,-42.85 785.75,-42.85"/>
</g>
<!-- d12&#45;&gt;d11 -->
<g id="edge78" class="edge">
<title>d12&#45;&gt;d11</title>
<path fill="none" stroke="green" d="M739.59,-126C741.2,-126 742.82,-126 744.44,-126"/>
<polygon fill="green" stroke="green" points="739.95,-124.95 736.95,-126 739.95,-127.05 739.95,-124.95"/>
<polygon fill="green" stroke="green" points="744.2,-127.05 747.2,-126 744.2,-124.95 744.2,-127.05"/>
</g>
<!-- d39 -->
<g id="node40" class="node">
<title>d39</title>
<polygon fill="white" stroke="black" points="728.25,-36 671.75,-36 671.75,0 728.25,0 728.25,-36"/>
<text xml:space="preserve" text-anchor="middle" x="700" y="-15.47" font-family="Courier New" font-size="7.00">(3,3) ε=0</text>
</g>
<!-- d12&#45;&gt;d39 -->
<g id="edge22" class="edge">
<title>d12&#45;&gt;d39</title>
<path fill="none" stroke="#888888" stroke-dasharray="5,2" d="M700,-107.97C700,-90.3 700,-62.54 700,-42.73"/>
<polygon fill="#888888" stroke="#888888" points="701.75,-42.85 700,-37.85 698.25,-42.85 701.75,-42.85"/>
</g>
<!-- g13 -->
<g id="node14" class="node">
<title>g13</title>
<polygon fill="#f0f0f0" stroke="black" points="337,-468 283,-468 283,-432 337,-432 337,-468"/>
<text xml:space="preserve" text-anchor="middle" x="310" y="-447.48" font-family="Courier New" font-size="7.00">*</text>
</g>
<!-- g13&#45;&gt;d14 -->
<!-- g13&#45;&gt;d14 -->
<g id="edge53" class="edge">
<title>g13&#45;&gt;d14</title>
<path fill="none" stroke="red" d="M310,-427.64C310,-409.39 310,-383.23 310,-364.84"/>
<polygon fill="red" stroke="red" points="308.95,-427.46 310,-430.46 311.05,-427.46 308.95,-427.46"/>
<polygon fill="red" stroke="red" points="311.05,-364.85 310,-361.85 308.95,-364.85 311.05,-364.85"/>
</g>
<!-- g13&#45;&gt;d14 -->
<g id="edge54" class="edge">
<title>g13&#45;&gt;d14</title>
<path fill="none" stroke="#9933cc" d="M318.62,-427.64C321.13,-409.24 321.13,-382.79 318.62,-364.37"/>
<polygon fill="#9933cc" stroke="#9933cc" points="317.6,-427.35 318.19,-430.47 319.68,-427.67 317.6,-427.35"/>
<polygon fill="#9933cc" stroke="#9933cc" points="319.72,-364.65 318.24,-361.84 317.65,-364.96 319.72,-364.65"/>
</g>
<!-- d19 -->
<g id="node20" class="node">
<title>d19</title>
<polygon fill="white" stroke="black" points="649.25,-252 592.75,-252 592.75,-216 649.25,-216 649.25,-252"/>
<text xml:space="preserve" text-anchor="middle" x="621" y="-231.47" font-family="Courier New" font-size="7.00">(1,1) ε=0</text>
</g>
<!-- d14&#45;&gt;d19 -->
<g id="edge24" class="edge">
<title>d14&#45;&gt;d19</title>
<path fill="none" stroke="#888888" stroke-dasharray="5,2" d="M345.32,-335C399.65,-324.83 506.04,-301.22 588,-260 590.38,-258.8 592.77,-257.42 595.11,-255.95"/>
<polygon fill="#888888" stroke="#888888" points="596.03,-257.44 599.2,-253.19 594.07,-254.53 596.03,-257.44"/>
</g>
<!-- d32 -->
<g id="node33" class="node">
<title>d32</title>
<polygon fill="white" stroke="black" points="351.75,-252 268.25,-252 268.25,-216 351.75,-216 351.75,-252"/>
<text xml:space="preserve" text-anchor="middle" x="310" y="-231.47" font-family="Courier New" font-size="7.00">(1,1) ε=1 ℘={0}</text>
</g>
<!-- d14&#45;&gt;d32 -->
<g id="edge28" class="edge">
<title>d14&#45;&gt;d32</title>
<path fill="none" stroke="#888888" stroke-dasharray="5,2" d="M310,-323.97C310,-306.3 310,-278.54 310,-258.73"/>
<polygon fill="#888888" stroke="#888888" points="311.75,-258.85 310,-253.85 308.25,-258.85 311.75,-258.85"/>
</g>
<!-- d15 -->
<g id="node16" class="node">
<title>d15</title>
<polygon fill="white" stroke="black" points="1258.75,-36 1175.25,-36 1175.25,0 1258.75,0 1258.75,-36"/>
<text xml:space="preserve" text-anchor="middle" x="1217" y="-15.47" font-family="Courier New" font-size="7.00">(3,3) ε=0 ℘={1}</text>
</g>
<!-- d16 -->
<g id="node17" class="node">
<title>d16</title>
<polygon fill="white" stroke="black" points="1595.25,-36 1538.75,-36 1538.75,0 1595.25,0 1595.25,-36"/>
<text xml:space="preserve" text-anchor="middle" x="1567" y="-15.47" font-family="Courier New" font-size="7.00">(3,3) ε=0</text>
</g>
<!-- g17 -->
<g id="node18" class="node">
<title>g17</title>
<polygon fill="#f0f0f0" stroke="black" points="1137,-468 1083,-468 1083,-432 1137,-432 1137,-468"/>
<text xml:space="preserve" text-anchor="middle" x="1110" y="-447.48" font-family="Courier New" font-size="7.00">&#45;</text>
</g>
<!-- g17&#45;&gt;d18 -->
<!-- g17&#45;&gt;d18 -->
<g id="edge55" class="edge">
<title>g17&#45;&gt;d18</title>
<path fill="none" stroke="red" d="M1110,-427.64C1110,-409.39 1110,-383.23 1110,-364.84"/>
<polygon fill="red" stroke="red" points="1108.95,-427.46 1110,-430.46 1111.05,-427.46 1108.95,-427.46"/>
<polygon fill="red" stroke="red" points="1111.05,-364.85 1110,-361.85 1108.95,-364.85 1111.05,-364.85"/>
</g>
<!-- g17&#45;&gt;d18 -->
<g id="edge56" class="edge">
<title>g17&#45;&gt;d18</title>
<path fill="none" stroke="green" d="M1118.62,-427.64C1121.13,-409.24 1121.13,-382.79 1118.62,-364.37"/>
<polygon fill="green" stroke="green" points="1117.6,-427.35 1118.19,-430.47 1119.68,-427.67 1117.6,-427.35"/>
<polygon fill="green" stroke="green" points="1119.72,-364.65 1118.24,-361.84 1117.65,-364.96 1119.72,-364.65"/>
</g>
<!-- d26 -->
<g id="node27" class="node">
<title>d26</title>
<polygon fill="white" stroke="black" points="1151.75,-252 1068.25,-252 1068.25,-216 1151.75,-216 1151.75,-252"/>
<text xml:space="preserve" text-anchor="middle" x="1110" y="-231.47" font-family="Courier New" font-size="7.00">(1,1) ε=1 ℘={0}</text>
</g>
<!-- d18&#45;&gt;d26 -->
<g id="edge21" class="edge">
<title>d18&#45;&gt;d26</title>
<path fill="none" stroke="#888888" stroke-dasharray="5,2" d="M1110,-323.97C1110,-306.3 1110,-278.54 1110,-258.73"/>
<polygon fill="#888888" stroke="#888888" points="1111.75,-258.85 1110,-253.85 1108.25,-258.85 1111.75,-258.85"/>
</g>
<!-- d40 -->
<g id="node41" class="node">
<title>d40</title>
<polygon fill="white" stroke="black" points="1432.25,-252 1375.75,-252 1375.75,-216 1432.25,-216 1432.25,-252"/>
<text xml:space="preserve" text-anchor="middle" x="1404" y="-231.47" font-family="Courier New" font-size="7.00">(1,1) ε=0</text>
</g>
<!-- d18&#45;&gt;d40 -->
<g id="edge17" class="edge">
<title>d18&#45;&gt;d40</title>
<path fill="none" stroke="#888888" stroke-dasharray="5,2" d="M1145.27,-334.14C1196.86,-323.22 1295.04,-299.03 1371,-260 1373.37,-258.78 1375.75,-257.39 1378.09,-255.9"/>
<polygon fill="#888888" stroke="#888888" points="1379.01,-257.39 1382.17,-253.14 1377.05,-254.49 1379.01,-257.39"/>
</g>
<!-- d19&#45;&gt;d7 -->
<g id="edge34" class="edge">
<title>d19&#45;&gt;d7</title>
<path fill="none" stroke="#888888" stroke-dasharray="5,2" d="M592.39,-217.75C590.92,-217.13 589.45,-216.54 588,-216 472.12,-172.97 328.04,-145.38 258.45,-133.59"/>
<polygon fill="#888888" stroke="#888888" points="259.07,-131.92 253.85,-132.81 258.49,-135.37 259.07,-131.92"/>
</g>
<!-- d19&#45;&gt;d11 -->
<g id="edge42" class="edge">
<title>d19&#45;&gt;d11</title>
<path fill="none" stroke="#888888" stroke-dasharray="5,2" d="M647.55,-215.73C676.12,-197.16 721.55,-167.61 752.05,-147.78"/>
<polygon fill="#888888" stroke="#888888" points="752.68,-149.45 755.92,-145.26 750.77,-146.52 752.68,-149.45"/>
</g>
<!-- d19&#45;&gt;d12 -->
<g id="edge23" class="edge">
<title>d19&#45;&gt;d12</title>
<path fill="none" stroke="#888888" stroke-dasharray="5,2" d="M633.69,-215.97C647.15,-197.92 668.45,-169.33 683.27,-149.45"/>
<polygon fill="#888888" stroke="#888888" points="684.59,-150.61 686.17,-145.55 681.78,-148.52 684.59,-150.61"/>
</g>
<!-- g21 -->
<g id="node22" class="node">
<title>g21</title>
<polygon fill="#f0f0f0" stroke="black" points="488.75,-252 423.25,-252 423.25,-216 488.75,-216 488.75,-252"/>
<text xml:space="preserve" text-anchor="middle" x="456" y="-231.47" font-family="Courier New" font-size="7.00">+&#45;+ &#45; &#160;&#160;* &#160;</text>
</g>
<!-- d23 -->
<g id="node24" class="node">
<title>d23</title>
<polygon fill="white" stroke="black" points="576.5,-144 479.5,-144 479.5,-108 576.5,-108 576.5,-144"/>
<text xml:space="preserve" text-anchor="middle" x="528" y="-123.47" font-family="Courier New" font-size="7.00">(3,2) B+ ε=1 ℘={0}</text>
</g>
<!-- g21&#45;&gt;d23 -->
<!-- d24 -->
<g id="node25" class="node">
<title>d24</title>
<polygon fill="white" stroke="black" points="465.5,-144 368.5,-144 368.5,-108 465.5,-108 465.5,-144"/>
<text xml:space="preserve" text-anchor="middle" x="417" y="-123.47" font-family="Courier New" font-size="7.00">(3,2) B+ ε=0 ℘={0}</text>
</g>
<!-- g21&#45;&gt;d24 -->
<g id="edge67" class="edge">
<title>g21&#45;&gt;d24</title>
<path fill="none" stroke="#9933cc" d="M448.23,-211.89C441.46,-193.48 431.68,-166.89 424.87,-148.39"/>
<polygon fill="#9933cc" stroke="#9933cc" points="447.19,-212.1 449.21,-214.55 449.16,-211.37 447.19,-212.1"/>
<polygon fill="#9933cc" stroke="#9933cc" points="425.92,-148.21 423.9,-145.76 423.95,-148.94 425.92,-148.21"/>
</g>
<!-- g22 -->
<g id="node23" class="node">
<title>g22</title>
<polygon fill="#f0f0f0" stroke="black" points="568.75,-252 503.25,-252 503.25,-216 568.75,-216 568.75,-252"/>
<text xml:space="preserve" text-anchor="middle" x="536" y="-231.47" font-family="Courier New" font-size="7.00">*=* = &#160;&#160;* &#160;</text>
</g>
<!-- g22&#45;&gt;g21 -->
<g id="edge58" class="edge">
<title>g22&#45;&gt;g21</title>
<path fill="none" stroke="green" d="M498.56,-234C496.86,-234 495.17,-234 493.47,-234"/>
<polygon fill="green" stroke="green" points="498.53,-235.05 501.53,-234 498.53,-232.95 498.53,-235.05"/>
<polygon fill="green" stroke="green" points="493.64,-232.95 490.64,-234 493.64,-235.05 493.64,-232.95"/>
</g>
<!-- g22&#45;&gt;d23 -->
<!-- g22&#45;&gt;d23 -->
<g id="edge59" class="edge">
<title>g22&#45;&gt;d23</title>
<path fill="none" stroke="#9933cc" d="M538.7,-211.64C538.56,-193.24 536.57,-166.79 533.92,-148.37"/>
<polygon fill="#9933cc" stroke="#9933cc" points="537.65,-211.45 538.69,-214.46 539.75,-211.46 537.65,-211.45"/>
<polygon fill="#9933cc" stroke="#9933cc" points="535.03,-148.65 533.54,-145.84 532.95,-148.96 535.03,-148.65"/>
</g>
<!-- g22&#45;&gt;d24 -->
<g id="edge57" class="edge">
<title>g22&#45;&gt;d24</title>
<path fill="none" stroke="red" d="M513.42,-212.88C492.27,-194.05 460.86,-166.06 439.68,-147.2"/>
<polygon fill="red" stroke="red" points="512.55,-213.52 515.49,-214.73 513.94,-211.95 512.55,-213.52"/>
<polygon fill="red" stroke="red" points="440.44,-146.48 437.51,-145.27 439.05,-148.05 440.44,-146.48"/>
</g>
<!-- d23&#45;&gt;g21 -->
<g id="edge60" class="edge">
<title>d23&#45;&gt;g21</title>
<path fill="none" stroke="red" d="M518.04,-147.97C506.6,-166.73 488.02,-194.06 474.07,-212.64"/>
<polygon fill="red" stroke="red" points="518.8,-148.75 519.44,-145.64 517,-147.66 518.8,-148.75"/>
<polygon fill="red" stroke="red" points="473.44,-211.74 472.46,-214.76 475.11,-213.01 473.44,-211.74"/>
</g>
<!-- d23&#45;&gt;d24 -->
<g id="edge61" class="edge">
<title>d23&#45;&gt;d24</title>
<path fill="none" stroke="green" d="M474.78,-126C473.35,-126 471.92,-126 470.49,-126"/>
<polygon fill="green" stroke="green" points="474.56,-127.05 477.56,-126 474.56,-124.95 474.56,-127.05"/>
<polygon fill="green" stroke="green" points="470.51,-124.95 467.51,-126 470.51,-127.05 470.51,-124.95"/>
</g>
<!-- d41 -->
<g id="node42" class="node">
<title>d41</title>
<polygon fill="white" stroke="black" points="569.75,-36 486.25,-36 486.25,0 569.75,0 569.75,-36"/>
<text xml:space="preserve" text-anchor="middle" x="528" y="-15.47" font-family="Courier New" font-size="7.00">(3,3) ε=0 ℘={1}</text>
</g>
<!-- d23&#45;&gt;d41 -->
<g id="edge43" class="edge">
<title>d23&#45;&gt;d41</title>
<path fill="none" stroke="#888888" stroke-dasharray="5,2" d="M528,-107.97C528,-90.3 528,-62.54 528,-42.73"/>
<polygon fill="#888888" stroke="#888888" points="529.75,-42.85 528,-37.85 526.25,-42.85 529.75,-42.85"/>
</g>
<!-- d24&#45;&gt;d2 -->
<g id="edge26" class="edge">
<title>d24&#45;&gt;d2</title>
<path fill="none" stroke="#888888" stroke-dasharray="5,2" d="M417,-107.97C417,-90.3 417,-62.54 417,-42.73"/>
<polygon fill="#888888" stroke="#888888" points="418.75,-42.85 417,-37.85 415.25,-42.85 418.75,-42.85"/>
</g>
<!-- d25 -->
<g id="node26" class="node">
<title>d25</title>
<polygon fill="white" stroke="black" points="933.75,-36 850.25,-36 850.25,0 933.75,0 933.75,-36"/>
<text xml:space="preserve" text-anchor="middle" x="892" y="-15.47" font-family="Courier New" font-size="7.00">(3,3) ε=0 ℘={1}</text>
</g>
<!-- d27 -->
<g id="node28" class="node">
<title>d27</title>
<polygon fill="white" stroke="black" points="940.5,-144 843.5,-144 843.5,-108 940.5,-108 940.5,-144"/>
<text xml:space="preserve" text-anchor="middle" x="892" y="-123.47" font-family="Courier New" font-size="7.00">(2,3) B&#45; ε=0 ℘={0}</text>
</g>
<!-- d26&#45;&gt;d27 -->
<g id="edge20" class="edge">
<title>d26&#45;&gt;d27</title>
<path fill="none" stroke="#888888" stroke-dasharray="5,2" d="M1074.49,-215.73C1035.81,-196.93 974.02,-166.88 933.22,-147.04"/>
<polygon fill="#888888" stroke="#888888" points="934.48,-145.71 929.22,-145.1 932.95,-148.86 934.48,-145.71"/>
</g>
<!-- d28 -->
<g id="node29" class="node">
<title>d28</title>
<polygon fill="white" stroke="black" points="1051.5,-144 954.5,-144 954.5,-108 1051.5,-108 1051.5,-144"/>
<text xml:space="preserve" text-anchor="middle" x="1003" y="-123.47" font-family="Courier New" font-size="7.00">(2,3) B+ ε=1 ℘={0}</text>
</g>
<!-- d26&#45;&gt;d28 -->
<g id="edge40" class="edge">
<title>d26&#45;&gt;d28</title>
<path fill="none" stroke="#888888" stroke-dasharray="5,2" d="M1092.81,-215.97C1074.36,-197.69 1044.99,-168.6 1024.9,-148.69"/>
<polygon fill="#888888" stroke="#888888" points="1026.36,-147.68 1021.58,-145.41 1023.9,-150.17 1026.36,-147.68"/>
</g>
<!-- d34 -->
<g id="node35" class="node">
<title>d34</title>
<polygon fill="white" stroke="black" points="1265.5,-144 1168.5,-144 1168.5,-108 1265.5,-108 1265.5,-144"/>
<text xml:space="preserve" text-anchor="middle" x="1217" y="-123.47" font-family="Courier New" font-size="7.00">(3,2) B&#45; ε=1 ℘={0}</text>
</g>
<!-- d26&#45;&gt;d34 -->
<g id="edge32" class="edge">
<title>d26&#45;&gt;d34</title>
<path fill="none" stroke="#888888" stroke-dasharray="5,2" d="M1127.19,-215.97C1145.64,-197.69 1175.01,-168.6 1195.1,-148.69"/>
<polygon fill="#888888" stroke="#888888" points="1196.1,-150.17 1198.42,-145.41 1193.64,-147.68 1196.1,-150.17"/>
</g>
<!-- d27&#45;&gt;d25 -->
<g id="edge19" class="edge">
<title>d27&#45;&gt;d25</title>
<path fill="none" stroke="#888888" stroke-dasharray="5,2" d="M892,-107.97C892,-90.3 892,-62.54 892,-42.73"/>
<polygon fill="#888888" stroke="#888888" points="893.75,-42.85 892,-37.85 890.25,-42.85 893.75,-42.85"/>
</g>
<!-- d27&#45;&gt;d28 -->
<g id="edge65" class="edge">
<title>d27&#45;&gt;d28</title>
<path fill="none" stroke="green" d="M945.49,-126C946.92,-126 948.35,-126 949.78,-126"/>
<polygon fill="green" stroke="green" points="945.51,-124.95 942.51,-126 945.51,-127.05 945.51,-124.95"/>
<polygon fill="green" stroke="green" points="949.56,-127.05 952.56,-126 949.56,-124.95 949.56,-127.05"/>
</g>
<!-- g29 -->
<g id="node30" class="node">
<title>g29</title>
<polygon fill="#f0f0f0" stroke="black" points="916.75,-252 851.25,-252 851.25,-216 916.75,-216 916.75,-252"/>
<text xml:space="preserve" text-anchor="middle" x="884" y="-231.47" font-family="Courier New" font-size="7.00">&#45;+&#45; = &#160;&#160;* &#160;</text>
</g>
<!-- d27&#45;&gt;g29 -->
<g id="edge64" class="edge">
<title>d27&#45;&gt;g29</title>
<path fill="none" stroke="red" d="M894.69,-148.84C894.53,-167.23 892.54,-193.39 889.92,-211.64"/>
<polygon fill="red" stroke="red" points="895.74,-148.85 894.69,-145.85 893.64,-148.85 895.74,-148.85"/>
<polygon fill="red" stroke="red" points="888.9,-211.35 889.49,-214.47 890.98,-211.66 888.9,-211.35"/>
</g>
<!-- g30 -->
<g id="node31" class="node">
<title>g30</title>
<polygon fill="#f0f0f0" stroke="black" points="996.75,-252 931.25,-252 931.25,-216 996.75,-216 996.75,-252"/>
<text xml:space="preserve" text-anchor="middle" x="964" y="-231.47" font-family="Courier New" font-size="7.00">&#45;+&#45; &#45; &#160;&#160;* &#160;</text>
</g>
<!-- d27&#45;&gt;g30 -->
<g id="edge66" class="edge">
<title>d27&#45;&gt;g30</title>
<path fill="none" stroke="#9933cc" d="M910.16,-147.48C924.13,-166.09 942.7,-193.42 954.11,-212.14"/>
<polygon fill="#9933cc" stroke="#9933cc" points="911.34,-147.31 908.7,-145.55 909.67,-148.57 911.34,-147.31"/>
<polygon fill="#9933cc" stroke="#9933cc" points="953.18,-212.64 955.63,-214.67 954.98,-211.56 953.18,-212.64"/>
</g>
<!-- d28&#45;&gt;g29 -->
<g id="edge72" class="edge">
<title>d28&#45;&gt;g29</title>
<path fill="none" stroke="#9933cc" d="M980.32,-147.2C959.14,-166.06 927.73,-194.05 906.58,-212.88"/>
<polygon fill="#9933cc" stroke="#9933cc" points="980.95,-148.05 982.49,-145.27 979.56,-146.48 980.95,-148.05"/>
<polygon fill="#9933cc" stroke="#9933cc" points="906.06,-211.95 904.51,-214.73 907.45,-213.52 906.06,-211.95"/>
</g>
<!-- d28&#45;&gt;g30 -->
<g id="edge71" class="edge">
<title>d28&#45;&gt;g30</title>
<path fill="none" stroke="red" d="M995.13,-148.39C988.32,-166.89 978.54,-193.48 971.77,-211.89"/>
<polygon fill="red" stroke="red" points="996.05,-148.94 996.1,-145.76 994.08,-148.21 996.05,-148.94"/>
<polygon fill="red" stroke="red" points="970.84,-211.37 970.79,-214.55 972.81,-212.1 970.84,-211.37"/>
</g>
<!-- d42 -->
<g id="node43" class="node">
<title>d42</title>
<polygon fill="white" stroke="black" points="1044.75,-36 961.25,-36 961.25,0 1044.75,0 1044.75,-36"/>
<text xml:space="preserve" text-anchor="middle" x="1003" y="-15.47" font-family="Courier New" font-size="7.00">(3,3) ε=0 ℘={1}</text>
</g>
<!-- d28&#45;&gt;d42 -->
<g id="edge39" class="edge">
<title>d28&#45;&gt;d42</title>
<path fill="none" stroke="#888888" stroke-dasharray="5,2" d="M1003,-107.97C1003,-90.3 1003,-62.54 1003,-42.73"/>
<polygon fill="#888888" stroke="#888888" points="1004.75,-42.85 1003,-37.85 1001.25,-42.85 1004.75,-42.85"/>
</g>
<!-- g29&#45;&gt;d27 -->
<!-- g30&#45;&gt;d27 -->
<!-- g30&#45;&gt;g29 -->
<g id="edge81" class="edge">
<title>g30&#45;&gt;g29</title>
<path fill="none" stroke="green" d="M926.56,-234C924.86,-234 923.17,-234 921.47,-234"/>
<polygon fill="green" stroke="green" points="926.53,-235.05 929.53,-234 926.53,-232.95 926.53,-235.05"/>
<polygon fill="green" stroke="green" points="921.64,-232.95 918.64,-234 921.64,-235.05 921.64,-232.95"/>
</g>
<!-- d31 -->
<g id="node32" class="node">
<title>d31</title>
<polygon fill="white" stroke="black" points="1511.25,-36 1454.75,-36 1454.75,0 1511.25,0 1511.25,-36"/>
<text xml:space="preserve" text-anchor="middle" x="1483" y="-15.47" font-family="Courier New" font-size="7.00">(3,3) ε=0</text>
</g>
<!-- d32&#45;&gt;d6 -->
<g id="edge36" class="edge">
<title>d32&#45;&gt;d6</title>
<path fill="none" stroke="#888888" stroke-dasharray="5,2" d="M278.89,-215.73C245.27,-197.08 191.74,-167.37 156,-147.53"/>
<polygon fill="#888888" stroke="#888888" points="156.96,-146.07 151.74,-145.17 155.26,-149.13 156.96,-146.07"/>
</g>
<!-- d32&#45;&gt;d23 -->
<g id="edge44" class="edge">
<title>d32&#45;&gt;d23</title>
<path fill="none" stroke="#888888" stroke-dasharray="5,2" d="M345.51,-215.73C384.19,-196.93 445.98,-166.88 486.78,-147.04"/>
<polygon fill="#888888" stroke="#888888" points="487.05,-148.86 490.78,-145.1 485.52,-145.71 487.05,-148.86"/>
</g>
<!-- d32&#45;&gt;d24 -->
<g id="edge27" class="edge">
<title>d32&#45;&gt;d24</title>
<path fill="none" stroke="#888888" stroke-dasharray="5,2" d="M327.19,-215.97C345.64,-197.69 375.01,-168.6 395.1,-148.69"/>
<polygon fill="#888888" stroke="#888888" points="396.1,-150.17 398.42,-145.41 393.64,-147.68 396.1,-150.17"/>
</g>
<!-- g33 -->
<g id="node34" class="node">
<title>g33</title>
<polygon fill="#f0f0f0" stroke="black" points="1249.75,-252 1184.25,-252 1184.25,-216 1249.75,-216 1249.75,-252"/>
<text xml:space="preserve" text-anchor="middle" x="1217" y="-231.47" font-family="Courier New" font-size="7.00">=*= * &#160;&#160;* &#160;</text>
</g>
<!-- g33&#45;&gt;d34 -->
<!-- d34&#45;&gt;d15 -->
<g id="edge31" class="edge">
<title>d34&#45;&gt;d15</title>
<path fill="none" stroke="#888888" stroke-dasharray="5,2" d="M1217,-107.97C1217,-90.3 1217,-62.54 1217,-42.73"/>
<polygon fill="#888888" stroke="#888888" points="1218.75,-42.85 1217,-37.85 1215.25,-42.85 1218.75,-42.85"/>
</g>
<!-- d34&#45;&gt;g33 -->
<g id="edge69" class="edge">
<title>d34&#45;&gt;g33</title>
<path fill="none" stroke="red" d="M1217,-148.84C1217,-167.23 1217,-193.39 1217,-211.64"/>
<polygon fill="red" stroke="red" points="1218.05,-148.85 1217,-145.85 1215.95,-148.85 1218.05,-148.85"/>
<polygon fill="red" stroke="red" points="1215.95,-211.46 1217,-214.46 1218.05,-211.46 1215.95,-211.46"/>
</g>
<!-- d34&#45;&gt;g33 -->
<g id="edge70" class="edge">
<title>d34&#45;&gt;g33</title>
<path fill="none" stroke="#9933cc" d="M1225.62,-148.37C1228.13,-166.79 1228.13,-193.24 1225.62,-211.64"/>
<polygon fill="#9933cc" stroke="#9933cc" points="1226.72,-148.65 1225.24,-145.84 1224.65,-148.96 1226.72,-148.65"/>
<polygon fill="#9933cc" stroke="#9933cc" points="1224.6,-211.35 1225.19,-214.47 1226.68,-211.67 1224.6,-211.35"/>
</g>
<!-- d35 -->
<g id="node36" class="node">
<title>d35</title>
<polygon fill="white" stroke="black" points="1602,-144 1532,-144 1532,-108 1602,-108 1602,-144"/>
<text xml:space="preserve" text-anchor="middle" x="1567" y="-123.47" font-family="Courier New" font-size="7.00">(2,3) B&#45; ε=0</text>
</g>
<!-- d35&#45;&gt;d16 -->
<g id="edge15" class="edge">
<title>d35&#45;&gt;d16</title>
<path fill="none" stroke="#888888" stroke-dasharray="5,2" d="M1567,-107.97C1567,-90.3 1567,-62.54 1567,-42.73"/>
<polygon fill="#888888" stroke="#888888" points="1568.75,-42.85 1567,-37.85 1565.25,-42.85 1568.75,-42.85"/>
</g>
<!-- d37 -->
<g id="node38" class="node">
<title>d37</title>
<polygon fill="white" stroke="black" points="1518,-144 1448,-144 1448,-108 1518,-108 1518,-144"/>
<text xml:space="preserve" text-anchor="middle" x="1483" y="-123.47" font-family="Courier New" font-size="7.00">(2,3) B+ ε=1</text>
</g>
<!-- d35&#45;&gt;d37 -->
<g id="edge82" class="edge">
<title>d35&#45;&gt;d37</title>
<path fill="none" stroke="green" d="M1527.44,-126C1525.82,-126 1524.2,-126 1522.59,-126"/>
<polygon fill="green" stroke="green" points="1527.2,-127.05 1530.2,-126 1527.2,-124.95 1527.2,-127.05"/>
<polygon fill="green" stroke="green" points="1522.95,-124.95 1519.95,-126 1522.95,-127.05 1522.95,-124.95"/>
</g>
<!-- g36 -->
<g id="node37" class="node">
<title>g36</title>
<polygon fill="#f0f0f0" stroke="black" points="1520.75,-252 1455.25,-252 1455.25,-216 1520.75,-216 1520.75,-252"/>
<text xml:space="preserve" text-anchor="middle" x="1488" y="-231.47" font-family="Courier New" font-size="7.00">=*= &#45; &#160;&#160;* &#160;</text>
</g>
<!-- g36&#45;&gt;d35 -->
<!-- g36&#45;&gt;d35 -->
<g id="edge75" class="edge">
<title>g36&#45;&gt;d35</title>
<path fill="none" stroke="#9933cc" d="M1507.42,-212.64C1522.59,-194.06 1542.97,-166.73 1555.65,-147.97"/>
<polygon fill="#9933cc" stroke="#9933cc" points="1506.73,-211.82 1505.63,-214.8 1508.35,-213.15 1506.73,-211.82"/>
<polygon fill="#9933cc" stroke="#9933cc" points="1556.44,-148.68 1557.24,-145.6 1554.7,-147.51 1556.44,-148.68"/>
</g>
<!-- g36&#45;&gt;d37 -->
<g id="edge73" class="edge">
<title>g36&#45;&gt;d37</title>
<path fill="none" stroke="red" d="M1486.99,-211.64C1486.13,-193.39 1484.9,-167.23 1484.03,-148.84"/>
<polygon fill="red" stroke="red" points="1485.94,-211.51 1487.13,-214.46 1488.03,-211.41 1485.94,-211.51"/>
<polygon fill="red" stroke="red" points="1485.08,-148.8 1483.89,-145.85 1482.98,-148.9 1485.08,-148.8"/>
</g>
<!-- g38 -->
<g id="node39" class="node">
<title>g38</title>
<polygon fill="#f0f0f0" stroke="black" points="1600.75,-252 1535.25,-252 1535.25,-216 1600.75,-216 1600.75,-252"/>
<text xml:space="preserve" text-anchor="middle" x="1568" y="-231.47" font-family="Courier New" font-size="7.00">=*= = &#160;&#160;* &#160;</text>
</g>
<!-- g36&#45;&gt;g38 -->
<g id="edge74" class="edge">
<title>g36&#45;&gt;g38</title>
<path fill="none" stroke="green" d="M1525.47,-234C1527.17,-234 1528.86,-234 1530.56,-234"/>
<polygon fill="green" stroke="green" points="1525.64,-232.95 1522.64,-234 1525.64,-235.05 1525.64,-232.95"/>
<polygon fill="green" stroke="green" points="1530.53,-235.05 1533.53,-234 1530.53,-232.95 1530.53,-235.05"/>
</g>
<!-- d37&#45;&gt;d31 -->
<g id="edge37" class="edge">
<title>d37&#45;&gt;d31</title>
<path fill="none" stroke="#888888" stroke-dasharray="5,2" d="M1483,-107.97C1483,-90.3 1483,-62.54 1483,-42.73"/>
<polygon fill="#888888" stroke="#888888" points="1484.75,-42.85 1483,-37.85 1481.25,-42.85 1484.75,-42.85"/>
</g>
<!-- g38&#45;&gt;d35 -->
<!-- g38&#45;&gt;d35 -->
<g id="edge79" class="edge">
<title>g38&#45;&gt;d35</title>
<path fill="none" stroke="red" d="M1572.11,-211.64C1573.19,-193.24 1572.94,-166.79 1571.51,-148.37"/>
<polygon fill="red" stroke="red" points="1571.07,-211.4 1571.92,-214.46 1573.17,-211.54 1571.07,-211.4"/>
<polygon fill="red" stroke="red" points="1572.6,-148.75 1571.3,-145.85 1570.51,-148.93 1572.6,-148.75"/>
</g>
<!-- g38&#45;&gt;d37 -->
<g id="edge80" class="edge">
<title>g38&#45;&gt;d37</title>
<path fill="none" stroke="#9933cc" d="M1551.67,-212.64C1536.65,-193.91 1514.5,-166.28 1499.44,-147.51"/>
<polygon fill="#9933cc" stroke="#9933cc" points="1550.7,-213.1 1553.4,-214.79 1552.34,-211.79 1550.7,-213.1"/>
<polygon fill="#9933cc" stroke="#9933cc" points="1500.55,-147.2 1497.85,-145.52 1498.91,-148.52 1500.55,-147.2"/>
</g>
<!-- d40&#45;&gt;d3 -->
<g id="edge30" class="edge">
<title>d40&#45;&gt;d3</title>
<path fill="none" stroke="#888888" stroke-dasharray="5,2" d="M1391.31,-215.97C1377.85,-197.92 1356.55,-169.33 1341.73,-149.45"/>
<polygon fill="#888888" stroke="#888888" points="1343.22,-148.52 1338.83,-145.55 1340.41,-150.61 1343.22,-148.52"/>
</g>
<!-- d40&#45;&gt;d35 -->
<g id="edge16" class="edge">
<title>d40&#45;&gt;d35</title>
<path fill="none" stroke="#888888" stroke-dasharray="5,2" d="M1430.55,-215.73C1459.12,-197.16 1504.55,-167.61 1535.05,-147.78"/>
<polygon fill="#888888" stroke="#888888" points="1535.68,-149.45 1538.92,-145.26 1533.77,-146.52 1535.68,-149.45"/>
</g>
<!-- d40&#45;&gt;d37 -->
<g id="edge38" class="edge">
<title>d40&#45;&gt;d37</title>
<path fill="none" stroke="#888888" stroke-dasharray="5,2" d="M1416.69,-215.97C1430.15,-197.92 1451.45,-169.33 1466.27,-149.45"/>
<polygon fill="#888888" stroke="#888888" points="1467.59,-150.61 1469.17,-145.55 1464.78,-148.52 1467.59,-150.61"/>
</g>
<!-- gp_M_0 -->
<g id="node46" class="node">
<title>gp_M_0</title>
<text xml:space="preserve" text-anchor="middle" x="27" y="-445.55" font-family="Helvetica,sans-Serif" font-size="11.00" fill="#333333">Mp(0)</text>
</g>
<!-- gp_M_0&#45;&gt;d0 -->
<!-- gp_B_0 -->
<g id="node47" class="node">
<title>gp_B_0</title>
<text xml:space="preserve" text-anchor="middle" x="27" y="-337.55" font-family="Helvetica,sans-Serif" font-size="11.00" fill="#333333">O(1)</text>
</g>
<!-- gp_M_0&#45;&gt;gp_B_0 -->
<!-- gp_B_0&#45;&gt;d14 -->
<!-- gp_M_1 -->
<g id="node48" class="node">
<title>gp_M_1</title>
<text xml:space="preserve" text-anchor="middle" x="27" y="-229.55" font-family="Helvetica,sans-Serif" font-size="11.00" fill="#333333">Mp(2)</text>
</g>
<!-- gp_B_0&#45;&gt;gp_M_1 -->
<!-- gp_M_1&#45;&gt;d19 -->
<!-- gp_B_2 -->
<g id="node49" class="node">
<title>gp_B_2</title>
<text xml:space="preserve" text-anchor="middle" x="27" y="-121.55" font-family="Helvetica,sans-Serif" font-size="11.00" fill="#333333">O(5)</text>
</g>
<!-- gp_M_1&#45;&gt;gp_B_2 -->
<!-- gp_B_2&#45;&gt;d3 -->
<!-- gp_M_3 -->
<g id="node50" class="node">
<title>gp_M_3</title>
<text xml:space="preserve" text-anchor="middle" x="27" y="-13.55" font-family="Helvetica,sans-Serif" font-size="11.00" fill="#333333">Mp(6)</text>
</g>
<!-- gp_B_2&#45;&gt;gp_M_3 -->
<!-- gp_M_3&#45;&gt;d1 -->
</g>
</svg>
