<?xml version="1.0" encoding="UTF-8" standalone="no"?>
<!DOCTYPE svg PUBLIC "-//W3C//DTD SVG 1.1//EN"
 "http://www.w3.org/Graphics/SVG/1.1/DTD/svg11.dtd">
<!-- Generated by graphviz version 13.1.2 (20250808.2320)
 -->
<!-- Title: Extended PBP Tree Pages: 1 -->
<svg width="2906pt" height="875pt"
 viewBox="0.00 0.00 2906.00 875.00" xmlns="http://www.w3.org/2000/svg" xmlns:xlink="http://www.w3.org/1999/xlink">
<g id="graph0" class="graph" transform="scale(2.08333 2.08333) rotate(0) translate(4 416)">
<title>Extended PBP Tree</title>
<polygon fill="white" stroke="none" points="-4,4 -4,-416 1390.88,-416 1390.88,4 -4,4"/>
<!-- e0 -->
<g id="node1" class="node">
<title>e0</title>
<polygon fill="#e6ffe6" stroke="black" points="922.25,-36 865.75,-36 865.75,0 922.25,0 922.25,-36"/>
<text xml:space="preserve" text-anchor="start" x="873.75" y="-20.15" font-family="Courier New" font-size="8.00">(3,3) ε=0</text>
<text xml:space="preserve" text-anchor="start" x="873.75" y="-10.4" font-family="Courier New" font-size="8.00">cc|d</text>
</g>
<!-- e1 -->
<g id="node2" class="node">
<title>e1</title>
<polygon fill="#ffe6f3" stroke="black" points="935,-130 865,-130 865,-94 935,-94 935,-130"/>
<text xml:space="preserve" text-anchor="start" x="873" y="-114.15" font-family="Courier New" font-size="8.00">(2,3) B&#45; ε=0</text>
<text xml:space="preserve" text-anchor="start" x="873" y="-104.4" font-family="Courier New" font-size="8.00">c|d</text>
</g>
<!-- e1&#45;&gt;e0 -->
<g id="edge1" class="edge">
<title>e1&#45;&gt;e0</title>
<path fill="none" stroke="blue" d="M898.87,-93.7C898.03,-80.72 896.85,-62.66 895.86,-47.56"/>
<polygon fill="blue" stroke="blue" points="899.37,-47.49 895.22,-37.74 892.38,-47.94 899.37,-47.49"/>
</g>
<!-- e2 -->
<g id="node3" class="node">
<title>e2</title>
<polygon fill="#e6ffe6" stroke="black" points="836.25,-224 779.75,-224 779.75,-188 836.25,-188 836.25,-224"/>
<text xml:space="preserve" text-anchor="start" x="787.75" y="-208.15" font-family="Courier New" font-size="8.00">(1,1) ε=0</text>
<text xml:space="preserve" text-anchor="start" x="787.75" y="-198.4" font-family="Courier New" font-size="8.00">c|</text>
</g>
<!-- e2&#45;&gt;e1 -->
<g id="edge2" class="edge">
<title>e2&#45;&gt;e1</title>
<path fill="none" stroke="blue" d="M825.3,-187.7C839.31,-173.69 859.23,-153.77 874.97,-138.03"/>
<polygon fill="blue" stroke="blue" points="877.11,-140.84 881.7,-131.3 872.16,-135.89 877.11,-140.84"/>
</g>
<!-- e16 -->
<g id="node17" class="node">
<title>e16</title>
<polygon fill="#ffe6f3" stroke="black" points="843,-130 773,-130 773,-94 843,-94 843,-130"/>
<text xml:space="preserve" text-anchor="start" x="781" y="-114.15" font-family="Courier New" font-size="8.00">(3,2) B&#45; ε=1</text>
<text xml:space="preserve" text-anchor="start" x="781" y="-104.4" font-family="Courier New" font-size="8.00">c|r</text>
</g>
<!-- e2&#45;&gt;e16 -->
<g id="edge16" class="edge">
<title>e2&#45;&gt;e16</title>
<path fill="none" stroke="blue" d="M808,-187.7C808,-174.72 808,-156.66 808,-141.56"/>
<polygon fill="blue" stroke="blue" points="811.5,-141.74 808,-131.74 804.5,-141.74 811.5,-141.74"/>
</g>
<!-- e24 -->
<g id="node25" class="node">
<title>e24</title>
<polygon fill="#ffe6e6" stroke="black" points="1027,-130 957,-130 957,-94 1027,-94 1027,-130"/>
<text xml:space="preserve" text-anchor="start" x="965" y="-114.15" font-family="Courier New" font-size="8.00">(2,3) B+ ε=1</text>
<text xml:space="preserve" text-anchor="start" x="965" y="-104.4" font-family="Courier New" font-size="8.00">c|s</text>
</g>
<!-- e2&#45;&gt;e24 -->
<g id="edge24" class="edge">
<title>e2&#45;&gt;e24</title>
<path fill="none" stroke="blue" d="M836.75,-190.62C866.24,-175.88 912.55,-152.73 946.92,-135.54"/>
<polygon fill="blue" stroke="blue" points="948.44,-138.69 955.82,-131.09 945.31,-132.43 948.44,-138.69"/>
</g>
<!-- e3 -->
<g id="node4" class="node">
<title>e3</title>
<polygon fill="#ffe6f3" stroke="black" points="690,-318 620,-318 620,-282 690,-282 690,-318"/>
<text xml:space="preserve" text-anchor="start" x="628" y="-301.77" font-family="Courier New" font-size="8.00">(0,1) B&#45; ε=1</text>
</g>
<!-- e3&#45;&gt;e2 -->
<g id="edge3" class="edge">
<title>e3&#45;&gt;e2</title>
<path fill="none" stroke="blue" d="M683.78,-281.7C708.03,-267.11 742.95,-246.12 769.59,-230.1"/>
<polygon fill="blue" stroke="blue" points="771.29,-233.16 778.05,-225.01 767.68,-227.16 771.29,-233.16"/>
</g>
<!-- e7 -->
<g id="node8" class="node">
<title>e7</title>
<polygon fill="#e6ffe6" stroke="black" points="1200.12,-224 1115.88,-224 1115.88,-188 1200.12,-188 1200.12,-224"/>
<text xml:space="preserve" text-anchor="start" x="1123.88" y="-208.15" font-family="Courier New" font-size="8.00">(1,1) ε=1 ℘={0}</text>
<text xml:space="preserve" text-anchor="start" x="1123.88" y="-198.4" font-family="Courier New" font-size="8.00">c|</text>
</g>
<!-- e3&#45;&gt;e7 -->
<g id="edge7" class="edge">
<title>e3&#45;&gt;e7</title>
<path fill="none" stroke="blue" d="M690.37,-292.53C777.23,-276.64 1001.45,-235.63 1104.62,-216.76"/>
<polygon fill="blue" stroke="blue" points="1105,-220.25 1114.21,-215.01 1103.74,-213.37 1105,-220.25"/>
</g>
<!-- e4 -->
<g id="node5" class="node">
<title>e4</title>
<polygon fill="#e6ffe6" stroke="black" points="437.25,-412 380.75,-412 380.75,-376 437.25,-376 437.25,-412"/>
<text xml:space="preserve" text-anchor="start" x="388.75" y="-395.77" font-family="Courier New" font-size="8.00">(0,0) ε=0</text>
</g>
<!-- e4&#45;&gt;e3 -->
<g id="edge4" class="edge">
<title>e4&#45;&gt;e3</title>
<path fill="none" stroke="blue" d="M437.7,-382.27C479.85,-366.5 558.94,-336.93 609.18,-318.13"/>
<polygon fill="blue" stroke="blue" points="610.2,-321.49 618.34,-314.71 607.74,-314.94 610.2,-321.49"/>
</g>
<!-- e11 -->
<g id="node12" class="node">
<title>e11</title>
<polygon fill="#ffe6e6" stroke="black" points="444,-318 374,-318 374,-282 444,-282 444,-318"/>
<text xml:space="preserve" text-anchor="start" x="382" y="-301.77" font-family="Courier New" font-size="8.00">(1,0) B+ ε=1</text>
</g>
<!-- e4&#45;&gt;e11 -->
<g id="edge11" class="edge">
<title>e4&#45;&gt;e11</title>
<path fill="none" stroke="blue" d="M409,-375.7C409,-362.72 409,-344.66 409,-329.56"/>
<polygon fill="blue" stroke="blue" points="412.5,-329.74 409,-319.74 405.5,-329.74 412.5,-329.74"/>
</g>
<!-- e5 -->
<g id="node6" class="node">
<title>e5</title>
<polygon fill="#e6ffe6" stroke="black" points="1380.12,-36 1295.88,-36 1295.88,0 1380.12,0 1380.12,-36"/>
<text xml:space="preserve" text-anchor="start" x="1303.88" y="-20.15" font-family="Courier New" font-size="8.00">(3,3) ε=0 ℘={1}</text>
<text xml:space="preserve" text-anchor="start" x="1303.88" y="-10.4" font-family="Courier New" font-size="8.00">cc|d</text>
</g>
<!-- e6 -->
<g id="node7" class="node">
<title>e6</title>
<polygon fill="#ffe6f3" stroke="black" points="1386.88,-130 1289.12,-130 1289.12,-94 1386.88,-94 1386.88,-130"/>
<text xml:space="preserve" text-anchor="start" x="1297.12" y="-114.15" font-family="Courier New" font-size="8.00">(2,3) B&#45; ε=0 ℘={0}</text>
<text xml:space="preserve" text-anchor="start" x="1297.12" y="-104.4" font-family="Courier New" font-size="8.00">c|d</text>
</g>
<!-- e6&#45;&gt;e5 -->
<g id="edge5" class="edge">
<title>e6&#45;&gt;e5</title>
<path fill="none" stroke="blue" d="M1338,-93.7C1338,-80.72 1338,-62.66 1338,-47.56"/>
<polygon fill="blue" stroke="blue" points="1341.5,-47.74 1338,-37.74 1334.5,-47.74 1341.5,-47.74"/>
</g>
<!-- e7&#45;&gt;e6 -->
<g id="edge6" class="edge">
<title>e7&#45;&gt;e6</title>
<path fill="none" stroke="blue" d="M1191.86,-187.7C1220.68,-172.96 1262.29,-151.7 1293.74,-135.62"/>
<polygon fill="blue" stroke="blue" points="1295.33,-138.74 1302.64,-131.07 1292.14,-132.51 1295.33,-138.74"/>
</g>
<!-- e18 -->
<g id="node19" class="node">
<title>e18</title>
<polygon fill="#ffe6f3" stroke="black" points="1146.88,-130 1049.12,-130 1049.12,-94 1146.88,-94 1146.88,-130"/>
<text xml:space="preserve" text-anchor="start" x="1057.12" y="-114.15" font-family="Courier New" font-size="8.00">(3,2) B&#45; ε=1 ℘={0}</text>
<text xml:space="preserve" text-anchor="start" x="1057.12" y="-104.4" font-family="Courier New" font-size="8.00">c|r</text>
</g>
<!-- e7&#45;&gt;e18 -->
<g id="edge18" class="edge">
<title>e7&#45;&gt;e18</title>
<path fill="none" stroke="blue" d="M1146.71,-187.7C1137.91,-174.2 1125.54,-155.23 1115.46,-139.78"/>
<polygon fill="blue" stroke="blue" points="1118.46,-137.96 1110.06,-131.49 1112.59,-141.78 1118.46,-137.96"/>
</g>
<!-- e26 -->
<g id="node27" class="node">
<title>e26</title>
<polygon fill="#ffe6e6" stroke="black" points="1266.88,-130 1169.12,-130 1169.12,-94 1266.88,-94 1266.88,-130"/>
<text xml:space="preserve" text-anchor="start" x="1177.12" y="-114.15" font-family="Courier New" font-size="8.00">(2,3) B+ ε=1 ℘={0}</text>
<text xml:space="preserve" text-anchor="start" x="1177.12" y="-104.4" font-family="Courier New" font-size="8.00">c|s</text>
</g>
<!-- e7&#45;&gt;e26 -->
<g id="edge26" class="edge">
<title>e7&#45;&gt;e26</title>
<path fill="none" stroke="blue" d="M1169.29,-187.7C1178.09,-174.2 1190.46,-155.23 1200.54,-139.78"/>
<polygon fill="blue" stroke="blue" points="1203.41,-141.78 1205.94,-131.49 1197.54,-137.96 1203.41,-141.78"/>
</g>
<!-- e8 -->
<g id="node9" class="node">
<title>e8</title>
<polygon fill="#e6ffe6" stroke="black" points="292.25,-36 235.75,-36 235.75,0 292.25,0 292.25,-36"/>
<text xml:space="preserve" text-anchor="start" x="243.75" y="-20.15" font-family="Courier New" font-size="8.00">(3,3) ε=0</text>
<text xml:space="preserve" text-anchor="start" x="243.75" y="-10.4" font-family="Courier New" font-size="8.00">sc|d</text>
</g>
<!-- e9 -->
<g id="node10" class="node">
<title>e9</title>
<polygon fill="#ffe6e6" stroke="black" points="299,-130 229,-130 229,-94 299,-94 299,-130"/>
<text xml:space="preserve" text-anchor="start" x="237" y="-114.15" font-family="Courier New" font-size="8.00">(3,2) B+ ε=0</text>
<text xml:space="preserve" text-anchor="start" x="237" y="-104.4" font-family="Courier New" font-size="8.00">c|d</text>
</g>
<!-- e9&#45;&gt;e8 -->
<g id="edge8" class="edge">
<title>e9&#45;&gt;e8</title>
<path fill="none" stroke="blue" d="M264,-93.7C264,-80.72 264,-62.66 264,-47.56"/>
<polygon fill="blue" stroke="blue" points="267.5,-47.74 264,-37.74 260.5,-47.74 267.5,-47.74"/>
</g>
<!-- e10 -->
<g id="node11" class="node">
<title>e10</title>
<polygon fill="#e6ffe6" stroke="black" points="338.25,-224 281.75,-224 281.75,-188 338.25,-188 338.25,-224"/>
<text xml:space="preserve" text-anchor="start" x="289.75" y="-208.15" font-family="Courier New" font-size="8.00">(1,1) ε=0</text>
<text xml:space="preserve" text-anchor="start" x="289.75" y="-198.4" font-family="Courier New" font-size="8.00">s|</text>
</g>
<!-- e10&#45;&gt;e9 -->
<g id="edge9" class="edge">
<title>e10&#45;&gt;e9</title>
<path fill="none" stroke="blue" d="M301.35,-187.7C294.67,-174.33 285.29,-155.59 277.61,-140.22"/>
<polygon fill="blue" stroke="blue" points="280.89,-138.96 273.29,-131.58 274.63,-142.09 280.89,-138.96"/>
</g>
<!-- e20 -->
<g id="node21" class="node">
<title>e20</title>
<polygon fill="#ffe6e6" stroke="black" points="391,-130 321,-130 321,-94 391,-94 391,-130"/>
<text xml:space="preserve" text-anchor="start" x="329" y="-114.15" font-family="Courier New" font-size="8.00">(4,1) B+ ε=1</text>
<text xml:space="preserve" text-anchor="start" x="329" y="-104.4" font-family="Courier New" font-size="8.00">c|r</text>
</g>
<!-- e10&#45;&gt;e20 -->
<g id="edge20" class="edge">
<title>e10&#45;&gt;e20</title>
<path fill="none" stroke="blue" d="M318.65,-187.7C325.33,-174.33 334.71,-155.59 342.39,-140.22"/>
<polygon fill="blue" stroke="blue" points="345.37,-142.09 346.71,-131.58 339.11,-138.96 345.37,-142.09"/>
</g>
<!-- e28 -->
<g id="node29" class="node">
<title>e28</title>
<polygon fill="#ffe6e6" stroke="black" points="207,-130 137,-130 137,-94 207,-94 207,-130"/>
<text xml:space="preserve" text-anchor="start" x="145" y="-114.15" font-family="Courier New" font-size="8.00">(3,2) B+ ε=1</text>
<text xml:space="preserve" text-anchor="start" x="145" y="-104.4" font-family="Courier New" font-size="8.00">.|.</text>
</g>
<!-- e10&#45;&gt;e28 -->
<g id="edge28" class="edge">
<title>e10&#45;&gt;e28</title>
<path fill="none" stroke="blue" d="M284.04,-187.7C262.36,-173.24 231.23,-152.49 207.29,-136.52"/>
<polygon fill="blue" stroke="blue" points="209.36,-133.7 199.1,-131.07 205.48,-139.53 209.36,-133.7"/>
</g>
<!-- e11&#45;&gt;e10 -->
<g id="edge10" class="edge">
<title>e11&#45;&gt;e10</title>
<path fill="none" stroke="blue" d="M390.38,-281.7C375.31,-267.69 353.87,-247.77 336.93,-232.03"/>
<polygon fill="blue" stroke="blue" points="339.35,-229.5 329.65,-225.26 334.59,-234.63 339.35,-229.5"/>
</g>
<!-- e14 -->
<g id="node15" class="node">
<title>e14</title>
<polygon fill="#e6ffe6" stroke="black" points="564.12,-224 479.88,-224 479.88,-188 564.12,-188 564.12,-224"/>
<text xml:space="preserve" text-anchor="start" x="487.88" y="-208.15" font-family="Courier New" font-size="8.00">(1,1) ε=1 ℘={0}</text>
<text xml:space="preserve" text-anchor="start" x="487.88" y="-198.4" font-family="Courier New" font-size="8.00">s|</text>
</g>
<!-- e11&#45;&gt;e14 -->
<g id="edge14" class="edge">
<title>e11&#45;&gt;e14</title>
<path fill="none" stroke="blue" d="M430.25,-281.7C447.69,-267.5 472.6,-247.22 492.06,-231.38"/>
<polygon fill="blue" stroke="blue" points="494.12,-234.21 499.67,-225.18 489.7,-228.78 494.12,-234.21"/>
</g>
<!-- e12 -->
<g id="node13" class="node">
<title>e12</title>
<polygon fill="#e6ffe6" stroke="black" points="624.12,-36 539.88,-36 539.88,0 624.12,0 624.12,-36"/>
<text xml:space="preserve" text-anchor="start" x="547.88" y="-20.15" font-family="Courier New" font-size="8.00">(3,3) ε=0 ℘={1}</text>
<text xml:space="preserve" text-anchor="start" x="547.88" y="-10.4" font-family="Courier New" font-size="8.00">sc|d</text>
</g>
<!-- e13 -->
<g id="node14" class="node">
<title>e13</title>
<polygon fill="#ffe6e6" stroke="black" points="630.88,-130 533.12,-130 533.12,-94 630.88,-94 630.88,-130"/>
<text xml:space="preserve" text-anchor="start" x="541.12" y="-114.15" font-family="Courier New" font-size="8.00">(3,2) B+ ε=0 ℘={0}</text>
<text xml:space="preserve" text-anchor="start" x="541.12" y="-104.4" font-family="Courier New" font-size="8.00">c|d</text>
</g>
<!-- e13&#45;&gt;e12 -->
<g id="edge12" class="edge">
<title>e13&#45;&gt;e12</title>
<path fill="none" stroke="blue" d="M582,-93.7C582,-80.72 582,-62.66 582,-47.56"/>
<polygon fill="blue" stroke="blue" points="585.5,-47.74 582,-37.74 578.5,-47.74 585.5,-47.74"/>
</g>
<!-- e14&#45;&gt;e13 -->
<g id="edge13" class="edge">
<title>e14&#45;&gt;e13</title>
<path fill="none" stroke="blue" d="M533.29,-187.7C542.09,-174.2 554.46,-155.23 564.54,-139.78"/>
<polygon fill="blue" stroke="blue" points="567.41,-141.78 569.94,-131.49 561.54,-137.96 567.41,-141.78"/>
</g>
<!-- e22 -->
<g id="node23" class="node">
<title>e22</title>
<polygon fill="#ffe6e6" stroke="black" points="750.88,-130 653.12,-130 653.12,-94 750.88,-94 750.88,-130"/>
<text xml:space="preserve" text-anchor="start" x="661.12" y="-114.15" font-family="Courier New" font-size="8.00">(4,1) B+ ε=1 ℘={0}</text>
<text xml:space="preserve" text-anchor="start" x="661.12" y="-104.4" font-family="Courier New" font-size="8.00">c|r</text>
</g>
<!-- e14&#45;&gt;e22 -->
<g id="edge22" class="edge">
<title>e14&#45;&gt;e22</title>
<path fill="none" stroke="blue" d="M555.86,-187.7C584.68,-172.96 626.29,-151.7 657.74,-135.62"/>
<polygon fill="blue" stroke="blue" points="659.33,-138.74 666.64,-131.07 656.14,-132.51 659.33,-138.74"/>
</g>
<!-- e30 -->
<g id="node31" class="node">
<title>e30</title>
<polygon fill="#ffe6e6" stroke="black" points="510.88,-130 413.12,-130 413.12,-94 510.88,-94 510.88,-130"/>
<text xml:space="preserve" text-anchor="start" x="421.12" y="-114.15" font-family="Courier New" font-size="8.00">(3,2) B+ ε=1 ℘={0}</text>
<text xml:space="preserve" text-anchor="start" x="421.12" y="-104.4" font-family="Courier New" font-size="8.00">.|.</text>
</g>
<!-- e14&#45;&gt;e30 -->
<g id="edge30" class="edge">
<title>e14&#45;&gt;e30</title>
<path fill="none" stroke="blue" d="M510.71,-187.7C501.91,-174.2 489.54,-155.23 479.46,-139.78"/>
<polygon fill="blue" stroke="blue" points="482.46,-137.96 474.06,-131.49 476.59,-141.78 482.46,-137.96"/>
</g>
<!-- e15 -->
<g id="node16" class="node">
<title>e15</title>
<polygon fill="#e6ffe6" stroke="black" points="836.25,-36 779.75,-36 779.75,0 836.25,0 836.25,-36"/>
<text xml:space="preserve" text-anchor="start" x="787.75" y="-20.15" font-family="Courier New" font-size="8.00">(3,3) ε=0</text>
<text xml:space="preserve" text-anchor="start" x="787.75" y="-10.4" font-family="Courier New" font-size="8.00">cc|r</text>
</g>
<!-- e16&#45;&gt;e15 -->
<g id="edge15" class="edge">
<title>e16&#45;&gt;e15</title>
<path fill="none" stroke="blue" d="M808,-93.7C808,-80.72 808,-62.66 808,-47.56"/>
<polygon fill="blue" stroke="blue" points="811.5,-47.74 808,-37.74 804.5,-47.74 811.5,-47.74"/>
</g>
<!-- e17 -->
<g id="node18" class="node">
<title>e17</title>
<polygon fill="#e6ffe6" stroke="black" points="1140.12,-36 1055.88,-36 1055.88,0 1140.12,0 1140.12,-36"/>
<text xml:space="preserve" text-anchor="start" x="1063.88" y="-20.15" font-family="Courier New" font-size="8.00">(3,3) ε=0 ℘={1}</text>
<text xml:space="preserve" text-anchor="start" x="1063.88" y="-10.4" font-family="Courier New" font-size="8.00">cc|r</text>
</g>
<!-- e18&#45;&gt;e17 -->
<g id="edge17" class="edge">
<title>e18&#45;&gt;e17</title>
<path fill="none" stroke="blue" d="M1098,-93.7C1098,-80.72 1098,-62.66 1098,-47.56"/>
<polygon fill="blue" stroke="blue" points="1101.5,-47.74 1098,-37.74 1094.5,-47.74 1101.5,-47.74"/>
</g>
<!-- e19 -->
<g id="node20" class="node">
<title>e19</title>
<polygon fill="#e6ffe6" stroke="black" points="384.25,-36 327.75,-36 327.75,0 384.25,0 384.25,-36"/>
<text xml:space="preserve" text-anchor="start" x="335.75" y="-20.15" font-family="Courier New" font-size="8.00">(3,3) ε=0</text>
<text xml:space="preserve" text-anchor="start" x="335.75" y="-10.4" font-family="Courier New" font-size="8.00">sc|r</text>
</g>
<!-- e20&#45;&gt;e19 -->
<g id="edge19" class="edge">
<title>e20&#45;&gt;e19</title>
<path fill="none" stroke="blue" d="M356,-93.7C356,-80.72 356,-62.66 356,-47.56"/>
<polygon fill="blue" stroke="blue" points="359.5,-47.74 356,-37.74 352.5,-47.74 359.5,-47.74"/>
</g>
<!-- e21 -->
<g id="node22" class="node">
<title>e21</title>
<polygon fill="#e6ffe6" stroke="black" points="744.12,-36 659.88,-36 659.88,0 744.12,0 744.12,-36"/>
<text xml:space="preserve" text-anchor="start" x="667.88" y="-20.15" font-family="Courier New" font-size="8.00">(3,3) ε=0 ℘={1}</text>
<text xml:space="preserve" text-anchor="start" x="667.88" y="-10.4" font-family="Courier New" font-size="8.00">sc|r</text>
</g>
<!-- e22&#45;&gt;e21 -->
<g id="edge21" class="edge">
<title>e22&#45;&gt;e21</title>
<path fill="none" stroke="blue" d="M702,-93.7C702,-80.72 702,-62.66 702,-47.56"/>
<polygon fill="blue" stroke="blue" points="705.5,-47.74 702,-37.74 698.5,-47.74 705.5,-47.74"/>
</g>
<!-- e23 -->
<g id="node24" class="node">
<title>e23</title>
<polygon fill="#e6ffe6" stroke="black" points="1020.25,-36 963.75,-36 963.75,0 1020.25,0 1020.25,-36"/>
<text xml:space="preserve" text-anchor="start" x="971.75" y="-20.15" font-family="Courier New" font-size="8.00">(3,3) ε=0</text>
<text xml:space="preserve" text-anchor="start" x="971.75" y="-10.4" font-family="Courier New" font-size="8.00">.c|.</text>
</g>
<!-- e24&#45;&gt;e23 -->
<g id="edge23" class="edge">
<title>e24&#45;&gt;e23</title>
<path fill="none" stroke="blue" d="M992,-93.7C992,-80.72 992,-62.66 992,-47.56"/>
<polygon fill="blue" stroke="blue" points="995.5,-47.74 992,-37.74 988.5,-47.74 995.5,-47.74"/>
</g>
<!-- e25 -->
<g id="node26" class="node">
<title>e25</title>
<polygon fill="#e6ffe6" stroke="black" points="1260.12,-36 1175.88,-36 1175.88,0 1260.12,0 1260.12,-36"/>
<text xml:space="preserve" text-anchor="start" x="1183.88" y="-20.15" font-family="Courier New" font-size="8.00">(3,3) ε=0 ℘={1}</text>
<text xml:space="preserve" text-anchor="start" x="1183.88" y="-10.4" font-family="Courier New" font-size="8.00">.c|.</text>
</g>
<!-- e26&#45;&gt;e25 -->
<g id="edge25" class="edge">
<title>e26&#45;&gt;e25</title>
<path fill="none" stroke="blue" d="M1218,-93.7C1218,-80.72 1218,-62.66 1218,-47.56"/>
<polygon fill="blue" stroke="blue" points="1221.5,-47.74 1218,-37.74 1214.5,-47.74 1221.5,-47.74"/>
</g>
<!-- e27 -->
<g id="node28" class="node">
<title>e27</title>
<polygon fill="#e6ffe6" stroke="black" points="200.25,-36 143.75,-36 143.75,0 200.25,0 200.25,-36"/>
<text xml:space="preserve" text-anchor="start" x="151.75" y="-20.15" font-family="Courier New" font-size="8.00">(3,3) ε=0</text>
<text xml:space="preserve" text-anchor="start" x="151.75" y="-10.4" font-family="Courier New" font-size="8.00">.s|.</text>
</g>
<!-- e28&#45;&gt;e27 -->
<g id="edge27" class="edge">
<title>e28&#45;&gt;e27</title>
<path fill="none" stroke="blue" d="M172,-93.7C172,-80.72 172,-62.66 172,-47.56"/>
<polygon fill="blue" stroke="blue" points="175.5,-47.74 172,-37.74 168.5,-47.74 175.5,-47.74"/>
</g>
<!-- e29 -->
<g id="node30" class="node">
<title>e29</title>
<polygon fill="#e6ffe6" stroke="black" points="504.12,-36 419.88,-36 419.88,0 504.12,0 504.12,-36"/>
<text xml:space="preserve" text-anchor="start" x="427.88" y="-20.15" font-family="Courier New" font-size="8.00">(3,3) ε=0 ℘={1}</text>
<text xml:space="preserve" text-anchor="start" x="427.88" y="-10.4" font-family="Courier New" font-size="8.00">.s|.</text>
</g>
<!-- e30&#45;&gt;e29 -->
<g id="edge29" class="edge">
<title>e30&#45;&gt;e29</title>
<path fill="none" stroke="blue" d="M462,-93.7C462,-80.72 462,-62.66 462,-47.56"/>
<polygon fill="blue" stroke="blue" points="465.5,-47.74 462,-37.74 458.5,-47.74 465.5,-47.74"/>
</g>
<!-- gp_B_0 -->
<g id="node32" class="node">
<title>gp_B_0</title>
<text xml:space="preserve" text-anchor="middle" x="27" y="-295.55" font-family="Helvetica,sans-Serif" font-size="11.00" fill="#333333">O(1)</text>
</g>
<!-- gp_B_0&#45;&gt;e3 -->
<!-- gp_M_0 -->
<g id="node33" class="node">
<title>gp_M_0</title>
<text xml:space="preserve" text-anchor="middle" x="88" y="-389.55" font-family="Helvetica,sans-Serif" font-size="11.00" fill="#333333">Mp(0)</text>
</g>
<!-- gp_B_0&#45;&gt;gp_M_0 -->
<!-- gp_M_0&#45;&gt;e4 -->
<!-- gp_M_1 -->
<g id="node34" class="node">
<title>gp_M_1</title>
<text xml:space="preserve" text-anchor="middle" x="88" y="-201.55" font-family="Helvetica,sans-Serif" font-size="11.00" fill="#333333">Mp(2)</text>
</g>
<!-- gp_M_0&#45;&gt;gp_M_1 -->
<!-- gp_M_1&#45;&gt;e2 -->
<!-- gp_B_2 -->
<g id="node35" class="node">
<title>gp_B_2</title>
<text xml:space="preserve" text-anchor="middle" x="88" y="-107.55" font-family="Helvetica,sans-Serif" font-size="11.00" fill="#333333">O(5)</text>
</g>
<!-- gp_M_1&#45;&gt;gp_B_2 -->
<!-- gp_B_2&#45;&gt;e1 -->
<!-- gp_M_3 -->
<g id="node36" class="node">
<title>gp_M_3</title>
<text xml:space="preserve" text-anchor="middle" x="88" y="-13.55" font-family="Helvetica,sans-Serif" font-size="11.00" fill="#333333">Mp(6)</text>
</g>
<!-- gp_B_2&#45;&gt;gp_M_3 -->
<!-- gp_M_3&#45;&gt;e0 -->
</g>
</svg>
