<?xml version="1.0" encoding="UTF-8" standalone="no"?>
<!DOCTYPE svg PUBLIC "-//W3C//DTD SVG 1.1//EN"
 "http://www.w3.org/Graphics/SVG/1.1/DTD/svg11.dtd">
<!-- Generated by graphviz version 13.1.2 (20250808.2320)
 -->
<!-- Title: Lifting Tree Pages: 1 -->
<svg width="888pt" height="669pt"
 viewBox="0.00 0.00 888.00 669.00" xmlns="http://www.w3.org/2000/svg" xmlns:xlink="http://www.w3.org/1999/xlink">
<g id="graph0" class="graph" transform="scale(2.08333 2.08333) rotate(0) translate(4 317)">
<title>Lifting Tree</title>
<polygon fill="white" stroke="none" points="-4,4 -4,-317 422,-317 422,4 -4,4"/>
<g id="clust2" class="cluster">
<title>cluster_tw_0</title>
<polygon fill="none" stroke="#999999" stroke-width="0.8" stroke-dasharray="1,5" points="249,-125 249,-188 410,-188 410,-125 249,-125"/>
</g>
<g id="clust3" class="cluster">
<title>cluster_tw_1</title>
<polygon fill="none" stroke="#999999" stroke-width="0.8" stroke-dasharray="1,5" points="75,-125 75,-188 236,-188 236,-125 75,-125"/>
</g>
<!-- n0 -->
<g id="node1" class="node">
<title>n0</title>
<polygon fill="#e6ffe6" stroke="black" points="139,-47 85,-47 85,0 139,0 139,-47"/>
<text xml:space="preserve" text-anchor="start" x="96.25" y="-35.4" font-family="Courier New" font-size="8.00">+&#45;</text>
<text xml:space="preserve" text-anchor="start" x="96.25" y="-25.65" font-family="Courier New" font-size="8.00">═════</text>
<text xml:space="preserve" text-anchor="start" x="96.25" y="-15.9" font-family="Courier New" font-size="8.00">(1,1)</text>
<text xml:space="preserve" text-anchor="start" x="96.25" y="-6.15" font-family="Courier New" font-size="8.00">c| &#160;ε=0</text>
</g>
<!-- n1 -->
<g id="node2" class="node">
<title>n1</title>
<polygon fill="#ffe6e6" stroke="black" points="144.5,-180 83.5,-180 83.5,-133 144.5,-133 144.5,-180"/>
<text xml:space="preserve" text-anchor="start" x="91.5" y="-168.4" font-family="Courier New" font-size="8.00">=</text>
<text xml:space="preserve" text-anchor="start" x="91.5" y="-158.65" font-family="Courier New" font-size="8.00">═════</text>
<text xml:space="preserve" text-anchor="start" x="91.5" y="-148.9" font-family="Courier New" font-size="8.00">(0,1)</text>
<text xml:space="preserve" text-anchor="start" x="91.5" y="-139.15" font-family="Courier New" font-size="8.00"> | &#160;B&#45; ε=1</text>
</g>
<!-- n1&#45;&gt;n0 -->
<g id="edge1" class="edge">
<title>n1&#45;&gt;n0:n</title>
<path fill="none" stroke="blue" d="M113.33,-132.64C112.82,-113.43 112.19,-84.92 112.03,-58.27"/>
<polygon fill="blue" stroke="blue" points="115.53,-58.5 112,-48.51 108.53,-58.52 115.53,-58.5"/>
</g>
<!-- n7 -->
<g id="node8" class="node">
<title>n7</title>
<polygon fill="#f8f8f8" stroke="black" points="228,-174.5 174,-174.5 174,-138.5 228,-138.5 228,-174.5"/>
<text xml:space="preserve" text-anchor="start" x="198.75" y="-153.78" font-family="Courier New" font-size="8.00">&#45;</text>
</g>
<!-- n1&#45;&gt;n7 -->
<g id="edge9" class="edge">
<title>n1&#45;&gt;n7</title>
<path fill="none" stroke="red" d="M148.99,-139.55C155.85,-138.46 162.71,-138.69 169.57,-140.23"/>
<polygon fill="red" stroke="red" points="149.15,-138.45 146.41,-140.06 149.56,-140.51 149.15,-138.45"/>
<polygon fill="red" stroke="red" points="169.21,-141.22 172.38,-140.97 169.74,-139.19 169.21,-141.22"/>
</g>
<!-- n1&#45;&gt;n7 -->
<g id="edge10" class="edge">
<title>n1&#45;&gt;n7</title>
<path fill="none" stroke="green" d="M148.99,-173.45C155.85,-174.54 162.71,-174.31 169.57,-172.77"/>
<polygon fill="green" stroke="green" points="149.56,-172.49 146.41,-172.94 149.15,-174.55 149.56,-172.49"/>
<polygon fill="green" stroke="green" points="169.74,-173.81 172.38,-172.03 169.21,-171.78 169.74,-173.81"/>
</g>
<!-- n2 -->
<g id="node3" class="node">
<title>n2</title>
<polygon fill="#e6ffe6" stroke="black" points="228,-313 174,-313 174,-266 228,-266 228,-313"/>
<text xml:space="preserve" text-anchor="start" x="185.25" y="-301.4" font-family="Courier New" font-size="8.00">(triv)</text>
<text xml:space="preserve" text-anchor="start" x="185.25" y="-291.65" font-family="Courier New" font-size="8.00">═════</text>
<text xml:space="preserve" text-anchor="start" x="185.25" y="-281.9" font-family="Courier New" font-size="8.00">(0,0)</text>
<text xml:space="preserve" text-anchor="start" x="185.25" y="-272.15" font-family="Courier New" font-size="8.00"> | &#160;ε=0</text>
</g>
<!-- n5 -->
<g id="node6" class="node">
<title>n5</title>
<polygon fill="#ffe6e6" stroke="black" points="401.5,-180 340.5,-180 340.5,-133 401.5,-133 401.5,-180"/>
<text xml:space="preserve" text-anchor="start" x="348.5" y="-168.4" font-family="Courier New" font-size="8.00">+</text>
<text xml:space="preserve" text-anchor="start" x="348.5" y="-158.65" font-family="Courier New" font-size="8.00">═════</text>
<text xml:space="preserve" text-anchor="start" x="348.5" y="-148.9" font-family="Courier New" font-size="8.00">(1,0)</text>
<text xml:space="preserve" text-anchor="start" x="348.5" y="-139.15" font-family="Courier New" font-size="8.00"> | &#160;B+ ε=1</text>
</g>
<!-- n2&#45;&gt;n5 -->
<g id="edge5" class="edge">
<title>n2&#45;&gt;n5:n</title>
<path fill="none" stroke="blue" d="M228.31,-284.13C273.55,-275.26 360.07,-250.8 370.05,-192.32"/>
<polygon fill="blue" stroke="blue" points="373.53,-192.77 370.87,-182.51 366.55,-192.18 373.53,-192.77"/>
</g>
<!-- n2&#45;&gt;n7 -->
<g id="edge2" class="edge">
<title>n2&#45;&gt;n7:n</title>
<path fill="none" stroke="blue" d="M201,-265.56C201,-245.49 201,-215.23 201,-187.01"/>
<polygon fill="blue" stroke="blue" points="204.5,-187.01 201,-177.01 197.5,-187.01 204.5,-187.01"/>
</g>
<!-- n3 -->
<g id="node4" class="node">
<title>n3</title>
<polygon fill="#e6ffe6" stroke="black" points="228,-43.5 174,-43.5 174,-3.5 228,-3.5 228,-43.5"/>
<text xml:space="preserve" text-anchor="start" x="185.25" y="-32.9" font-family="Courier New" font-size="8.00">*=</text>
<text xml:space="preserve" text-anchor="start" x="185.25" y="-24.9" font-family="Courier New" font-size="8.00">═════</text>
<text xml:space="preserve" text-anchor="start" x="185.25" y="-16.9" font-family="Courier New" font-size="8.00">(1,1)</text>
<text xml:space="preserve" text-anchor="start" x="185.25" y="-8.9" font-family="Courier New" font-size="8.00" fill="red">c</text>
<text xml:space="preserve" text-anchor="start" x="189.75" y="-8.9" font-family="Courier New" font-size="8.00">| &#160;ε=1</text>
</g>
<!-- n4 -->
<g id="node5" class="node">
<title>n4</title>
<polygon fill="#e6ffe6" stroke="black" points="398,-47 344,-47 344,0 398,0 398,-47"/>
<text xml:space="preserve" text-anchor="start" x="355.25" y="-35.4" font-family="Courier New" font-size="8.00">&#45;+</text>
<text xml:space="preserve" text-anchor="start" x="355.25" y="-25.65" font-family="Courier New" font-size="8.00">═════</text>
<text xml:space="preserve" text-anchor="start" x="355.25" y="-15.9" font-family="Courier New" font-size="8.00">(1,1)</text>
<text xml:space="preserve" text-anchor="start" x="355.25" y="-6.15" font-family="Courier New" font-size="8.00">s| &#160;ε=0</text>
</g>
<!-- n5&#45;&gt;n4 -->
<g id="edge4" class="edge">
<title>n5&#45;&gt;n4:n</title>
<path fill="none" stroke="blue" d="M371,-132.64C371,-113.43 371,-84.91 371,-58.27"/>
<polygon fill="blue" stroke="blue" points="374.5,-58.51 371,-48.51 367.5,-58.51 374.5,-58.51"/>
</g>
<!-- n8 -->
<g id="node9" class="node">
<title>n8</title>
<polygon fill="#f8f8f8" stroke="black" points="311,-174.5 257,-174.5 257,-138.5 311,-138.5 311,-174.5"/>
<text xml:space="preserve" text-anchor="start" x="281.75" y="-153.78" font-family="Courier New" font-size="8.00">*</text>
</g>
<!-- n5&#45;&gt;n8 -->
<g id="edge7" class="edge">
<title>n5&#45;&gt;n8</title>
<path fill="none" stroke="red" d="M335.88,-143.5C329.01,-142.68 322.13,-142.87 315.26,-144.07"/>
<polygon fill="red" stroke="red" points="335.54,-144.51 338.66,-143.92 335.85,-142.43 335.54,-144.51"/>
<polygon fill="red" stroke="red" points="315.4,-142.97 312.67,-144.6 315.82,-145.03 315.4,-142.97"/>
</g>
<!-- n5&#45;&gt;n8 -->
<g id="edge8" class="edge">
<title>n5&#45;&gt;n8</title>
<path fill="none" stroke="#9933cc" d="M335.88,-169.5C329.01,-170.32 322.13,-170.13 315.26,-168.93"/>
<polygon fill="#9933cc" stroke="#9933cc" points="335.85,-170.57 338.66,-169.08 335.54,-168.49 335.85,-170.57"/>
<polygon fill="#9933cc" stroke="#9933cc" points="315.82,-167.97 312.67,-168.4 315.4,-170.03 315.82,-167.97"/>
</g>
<!-- n6 -->
<g id="node7" class="node">
<title>n6</title>
<polygon fill="#e6ffe6" stroke="black" points="311,-43.5 257,-43.5 257,-3.5 311,-3.5 311,-43.5"/>
<text xml:space="preserve" text-anchor="start" x="268.25" y="-32.9" font-family="Courier New" font-size="8.00">=*</text>
<text xml:space="preserve" text-anchor="start" x="268.25" y="-24.9" font-family="Courier New" font-size="8.00">═════</text>
<text xml:space="preserve" text-anchor="start" x="268.25" y="-16.9" font-family="Courier New" font-size="8.00">(1,1)</text>
<text xml:space="preserve" text-anchor="start" x="268.25" y="-8.9" font-family="Courier New" font-size="8.00" fill="red">s</text>
<text xml:space="preserve" text-anchor="start" x="272.75" y="-8.9" font-family="Courier New" font-size="8.00">| &#160;ε=1</text>
</g>
<!-- n7&#45;&gt;n3 -->
<g id="edge3" class="edge">
<title>n7&#45;&gt;n3:n</title>
<path fill="none" stroke="blue" d="M201,-138.2C201,-118.83 201,-86.2 201,-55.95"/>
<polygon fill="blue" stroke="blue" points="204.5,-56.01 201,-46.01 197.5,-56.01 204.5,-56.01"/>
</g>
<!-- n8&#45;&gt;n6 -->
<g id="edge6" class="edge">
<title>n8&#45;&gt;n6:n</title>
<path fill="none" stroke="blue" d="M284,-138.2C284,-118.83 284,-86.2 284,-55.95"/>
<polygon fill="blue" stroke="blue" points="287.5,-56.01 284,-46.01 280.5,-56.01 287.5,-56.01"/>
</g>
<!-- gp_M_0 -->
<g id="node10" class="node">
<title>gp_M_0</title>
<text xml:space="preserve" text-anchor="middle" x="27" y="-285.05" font-family="Helvetica,sans-Serif" font-size="11.00" fill="#333333">Mp(0)</text>
</g>
<!-- gp_M_0&#45;&gt;n2 -->
<!-- gp_B_0 -->
<g id="node11" class="node">
<title>gp_B_0</title>
<text xml:space="preserve" text-anchor="middle" x="27" y="-152.05" font-family="Helvetica,sans-Serif" font-size="11.00" fill="#333333">O(1)</text>
</g>
<!-- gp_M_0&#45;&gt;gp_B_0 -->
<!-- gp_B_0&#45;&gt;n1 -->
<!-- gp_M_1 -->
<g id="node12" class="node">
<title>gp_M_1</title>
<text xml:space="preserve" text-anchor="middle" x="27" y="-19.05" font-family="Helvetica,sans-Serif" font-size="11.00" fill="#333333">Mp(2)</text>
</g>
<!-- gp_B_0&#45;&gt;gp_M_1 -->
<!-- gp_M_1&#45;&gt;n0 -->
</g>
</svg>
