<?xml version="1.0" encoding="UTF-8" standalone="no"?>
<!DOCTYPE svg PUBLIC "-//W3C//DTD SVG 1.1//EN"
 "http://www.w3.org/Graphics/SVG/1.1/DTD/svg11.dtd">
<!-- Generated by graphviz version 13.1.2 (20250808.2320)
 -->
<!-- Title: Combined Lift Tree Pages: 1 -->
<svg width="1469pt" height="679pt"
 viewBox="0.00 0.00 1469.00 679.00" xmlns="http://www.w3.org/2000/svg" xmlns:xlink="http://www.w3.org/1999/xlink">
<g id="graph0" class="graph" transform="scale(2.08333 2.08333) rotate(0) translate(4 322)">
<title>Combined Lift Tree</title>
<polygon fill="white" stroke="none" points="-4,4 -4,-322 701,-322 701,4 -4,4"/>
<g id="clust1" class="cluster">
<title>cluster_tw_0</title>
<polygon fill="none" stroke="#bbbbbb" stroke-width="0.8" stroke-dasharray="5,2" points="435,-86 435,-232 570,-232 570,-86 435,-86"/>
</g>
<g id="clust2" class="cluster">
<title>cluster_tw_1</title>
<polygon fill="none" stroke="#bbbbbb" stroke-width="0.8" stroke-dasharray="5,2" points="230,-86 230,-232 365,-232 365,-86 230,-86"/>
</g>
<!-- ls0 -->
<g id="node1" class="node">
<title>ls0</title>
<polygon fill="#e6ffe6" stroke="black" points="222,-130 168,-130 168,-94 222,-94 222,-130"/>
<text xml:space="preserve" text-anchor="start" x="176" y="-113.6" font-family="Courier New" font-size="7.00">(1,1)</text>
<text xml:space="preserve" text-anchor="start" x="176" y="-105.35" font-family="Courier New" font-size="7.00">+&#45;</text>
</g>
<!-- d1 -->
<g id="node2" class="node">
<title>d1</title>
<polygon fill="white" stroke="black" points="222,-36 168,-36 168,0 222,0 222,-36"/>
<text xml:space="preserve" text-anchor="start" x="188.25" y="-19.6" font-family="Courier New" font-size="7.00">ε=0</text>
<text xml:space="preserve" text-anchor="start" x="188.25" y="-11.35" font-family="Courier New" font-size="7.00">c| </text>
</g>
<!-- ls0&#45;&gt;d1 -->
<g id="edge1" class="edge">
<title>ls0&#45;&gt;d1</title>
<path fill="none" stroke="#aaaaaa" d="M195,-93.7C195,-78.92 195,-57.56 195,-41.47"/>
<polygon fill="#aaaaaa" stroke="#aaaaaa" points="196.4,-41.74 195,-37.74 193.6,-41.74 196.4,-41.74"/>
</g>
<!-- ls2 -->
<g id="node3" class="node">
<title>ls2</title>
<polygon fill="#ffe6e6" stroke="black" points="357,-224 303,-224 303,-188 357,-188 357,-224"/>
<text xml:space="preserve" text-anchor="start" x="311" y="-207.6" font-family="Courier New" font-size="7.00">(0,1)</text>
<text xml:space="preserve" text-anchor="start" x="311" y="-199.35" font-family="Courier New" font-size="7.00">=</text>
</g>
<!-- ls2&#45;&gt;ls0 -->
<g id="edge18" class="edge">
<title>ls2&#45;&gt;ls0</title>
<path fill="none" stroke="blue" d="M304.61,-187.7C283.39,-173.24 252.94,-152.49 229.52,-136.52"/>
<polygon fill="blue" stroke="blue" points="231.76,-133.82 221.53,-131.08 227.82,-139.6 231.76,-133.82"/>
</g>
<!-- d3 -->
<g id="node4" class="node">
<title>d3</title>
<polygon fill="white" stroke="black" points="357,-130 303,-130 303,-94 357,-94 357,-130"/>
<text xml:space="preserve" text-anchor="start" x="316.5" y="-113.6" font-family="Courier New" font-size="7.00">B&#45; ε=1</text>
<text xml:space="preserve" text-anchor="start" x="316.5" y="-105.35" font-family="Courier New" font-size="7.00"> | </text>
</g>
<!-- ls2&#45;&gt;d3 -->
<g id="edge2" class="edge">
<title>ls2&#45;&gt;d3</title>
<path fill="none" stroke="#aaaaaa" d="M330,-187.7C330,-172.92 330,-151.56 330,-135.47"/>
<polygon fill="#aaaaaa" stroke="#aaaaaa" points="331.4,-135.74 330,-131.74 328.6,-135.74 331.4,-135.74"/>
</g>
<!-- g14 -->
<g id="node15" class="node">
<title>g14</title>
<polygon fill="#f0f0f0" stroke="black" points="292,-224 238,-224 238,-188 292,-188 292,-224"/>
<text xml:space="preserve" text-anchor="start" x="246" y="-203.47" font-family="Courier New" font-size="7.00">&#45;</text>
</g>
<!-- ls2&#45;&gt;g14 -->
<g id="edge8" class="edge">
<title>ls2&#45;&gt;g14</title>
<path fill="none" stroke="red" d="M298.36,-192.51C297.88,-192.5 297.4,-192.5 296.92,-192.5"/>
<polygon fill="red" stroke="red" points="298.12,-193.54 301.19,-192.73 298.28,-191.45 298.12,-193.54"/>
<polygon fill="red" stroke="red" points="296.85,-191.46 293.93,-192.72 297,-193.55 296.85,-191.46"/>
</g>
<!-- ls2&#45;&gt;g14 -->
<g id="edge9" class="edge">
<title>ls2&#45;&gt;g14</title>
<path fill="none" stroke="green" d="M298.36,-219.49C297.88,-219.5 297.4,-219.5 296.92,-219.5"/>
<polygon fill="green" stroke="green" points="298.28,-220.55 301.19,-219.27 298.12,-218.46 298.28,-220.55"/>
<polygon fill="green" stroke="green" points="297,-218.45 293.93,-219.28 296.85,-220.54 297,-218.45"/>
</g>
<!-- d3&#45;&gt;d1 -->
<g id="edge12" class="edge">
<title>d3&#45;&gt;d1</title>
<path fill="none" stroke="#888888" stroke-dasharray="5,2" d="M304.61,-93.7C282.17,-78.4 249.39,-56.07 225.53,-39.81"/>
<polygon fill="#888888" stroke="#888888" points="226.65,-38.45 221.53,-37.08 224.68,-41.34 226.65,-38.45"/>
</g>
<!-- d7 -->
<g id="node8" class="node">
<title>d7</title>
<polygon fill="white" stroke="black" points="157,-36 103,-36 103,0 157,0 157,-36"/>
<text xml:space="preserve" text-anchor="start" x="123.25" y="-19.35" font-family="Courier New" font-size="7.00">ε=1</text>
<text xml:space="preserve" text-anchor="start" x="123.25" y="-12.35" font-family="Courier New" font-size="7.00" fill="red">c</text>
<text xml:space="preserve" text-anchor="start" x="127.75" y="-12.35" font-family="Courier New" font-size="7.00">| </text>
</g>
<!-- d3&#45;&gt;d7 -->
<g id="edge14" class="edge">
<title>d3&#45;&gt;d7</title>
<path fill="none" stroke="#888888" stroke-dasharray="5,2" d="M302.6,-99.23C270.52,-85.33 215.7,-61.22 163.06,-35.98"/>
<polygon fill="#888888" stroke="#888888" points="163.94,-34.46 158.68,-33.87 162.43,-37.61 163.94,-34.46"/>
</g>
<!-- ls4 -->
<g id="node5" class="node">
<title>ls4</title>
<polygon fill="#e6ffe6" stroke="black" points="427,-318 373,-318 373,-282 427,-282 427,-318"/>
<text xml:space="preserve" text-anchor="start" x="381" y="-301.6" font-family="Courier New" font-size="7.00">(0,0)</text>
<text xml:space="preserve" text-anchor="start" x="381" y="-293.35" font-family="Courier New" font-size="7.00">(triv)</text>
</g>
<!-- d5 -->
<g id="node6" class="node">
<title>d5</title>
<polygon fill="white" stroke="black" points="427,-224 373,-224 373,-188 427,-188 427,-224"/>
<text xml:space="preserve" text-anchor="start" x="393.25" y="-207.6" font-family="Courier New" font-size="7.00">ε=0</text>
<text xml:space="preserve" text-anchor="start" x="393.25" y="-199.35" font-family="Courier New" font-size="7.00"> | </text>
</g>
<!-- ls4&#45;&gt;d5 -->
<g id="edge3" class="edge">
<title>ls4&#45;&gt;d5</title>
<path fill="none" stroke="#aaaaaa" d="M400,-281.7C400,-266.92 400,-245.56 400,-229.47"/>
<polygon fill="#aaaaaa" stroke="#aaaaaa" points="401.4,-229.74 400,-225.74 398.6,-229.74 401.4,-229.74"/>
</g>
<!-- ls10 -->
<g id="node11" class="node">
<title>ls10</title>
<polygon fill="#ffe6e6" stroke="black" points="497,-224 443,-224 443,-188 497,-188 497,-224"/>
<text xml:space="preserve" text-anchor="start" x="451" y="-207.6" font-family="Courier New" font-size="7.00">(1,0)</text>
<text xml:space="preserve" text-anchor="start" x="451" y="-199.35" font-family="Courier New" font-size="7.00">+</text>
</g>
<!-- ls4&#45;&gt;ls10 -->
<g id="edge22" class="edge">
<title>ls4&#45;&gt;ls10</title>
<path fill="none" stroke="blue" d="M413.17,-281.7C423.53,-268.07 438.15,-248.86 449.96,-233.34"/>
<polygon fill="blue" stroke="blue" points="452.71,-235.51 455.98,-225.43 447.14,-231.27 452.71,-235.51"/>
</g>
<!-- ls4&#45;&gt;g14 -->
<g id="edge19" class="edge">
<title>ls4&#45;&gt;g14</title>
<path fill="none" stroke="blue" d="M372.82,-281.85C352.08,-268.6 322.92,-249.6 298,-232 297.57,-231.7 297.15,-231.4 296.72,-231.09"/>
<polygon fill="blue" stroke="blue" points="298.94,-228.38 288.8,-225.31 294.81,-234.03 298.94,-228.38"/>
</g>
<!-- d5&#45;&gt;d3 -->
<g id="edge13" class="edge">
<title>d5&#45;&gt;d3</title>
<path fill="none" stroke="#888888" stroke-dasharray="5,2" d="M386.83,-187.7C375.49,-172.79 359.06,-151.19 346.78,-135.05"/>
<polygon fill="#888888" stroke="#888888" points="348.44,-134.35 344.02,-131.43 345.66,-136.47 348.44,-134.35"/>
</g>
<!-- d11 -->
<g id="node12" class="node">
<title>d11</title>
<polygon fill="white" stroke="black" points="497,-130 443,-130 443,-94 497,-94 497,-130"/>
<text xml:space="preserve" text-anchor="start" x="456.5" y="-113.6" font-family="Courier New" font-size="7.00">B+ ε=1</text>
<text xml:space="preserve" text-anchor="start" x="456.5" y="-105.35" font-family="Courier New" font-size="7.00"> | </text>
</g>
<!-- d5&#45;&gt;d11 -->
<g id="edge16" class="edge">
<title>d5&#45;&gt;d11</title>
<path fill="none" stroke="#888888" stroke-dasharray="5,2" d="M413.17,-187.7C424.51,-172.79 440.94,-151.19 453.22,-135.05"/>
<polygon fill="#888888" stroke="#888888" points="454.34,-136.47 455.98,-131.43 451.56,-134.35 454.34,-136.47"/>
</g>
<!-- ls6 -->
<g id="node7" class="node">
<title>ls6</title>
<polygon fill="#e6ffe6" stroke="black" points="157,-130 103,-130 103,-94 157,-94 157,-130"/>
<text xml:space="preserve" text-anchor="start" x="111" y="-113.6" font-family="Courier New" font-size="7.00">(1,1)</text>
<text xml:space="preserve" text-anchor="start" x="111" y="-105.35" font-family="Courier New" font-size="7.00">*=</text>
</g>
<!-- ls6&#45;&gt;d7 -->
<g id="edge4" class="edge">
<title>ls6&#45;&gt;d7</title>
<path fill="none" stroke="#aaaaaa" d="M130,-93.7C130,-78.92 130,-57.56 130,-41.47"/>
<polygon fill="#aaaaaa" stroke="#aaaaaa" points="131.4,-41.74 130,-37.74 128.6,-41.74 131.4,-41.74"/>
</g>
<!-- ls8 -->
<g id="node9" class="node">
<title>ls8</title>
<polygon fill="#e6ffe6" stroke="black" points="632,-130 578,-130 578,-94 632,-94 632,-130"/>
<text xml:space="preserve" text-anchor="start" x="586" y="-113.6" font-family="Courier New" font-size="7.00">(1,1)</text>
<text xml:space="preserve" text-anchor="start" x="586" y="-105.35" font-family="Courier New" font-size="7.00">&#45;+</text>
</g>
<!-- d9 -->
<g id="node10" class="node">
<title>d9</title>
<polygon fill="white" stroke="black" points="632,-36 578,-36 578,0 632,0 632,-36"/>
<text xml:space="preserve" text-anchor="start" x="598.25" y="-19.6" font-family="Courier New" font-size="7.00">ε=0</text>
<text xml:space="preserve" text-anchor="start" x="598.25" y="-11.35" font-family="Courier New" font-size="7.00">s| </text>
</g>
<!-- ls8&#45;&gt;d9 -->
<g id="edge5" class="edge">
<title>ls8&#45;&gt;d9</title>
<path fill="none" stroke="#aaaaaa" d="M605,-93.7C605,-78.92 605,-57.56 605,-41.47"/>
<polygon fill="#aaaaaa" stroke="#aaaaaa" points="606.4,-41.74 605,-37.74 603.6,-41.74 606.4,-41.74"/>
</g>
<!-- ls10&#45;&gt;ls8 -->
<g id="edge21" class="edge">
<title>ls10&#45;&gt;ls8</title>
<path fill="none" stroke="blue" d="M495.39,-187.7C516.61,-173.24 547.06,-152.49 570.48,-136.52"/>
<polygon fill="blue" stroke="blue" points="572.18,-139.6 578.47,-131.08 568.24,-133.82 572.18,-139.6"/>
</g>
<!-- ls10&#45;&gt;d11 -->
<g id="edge6" class="edge">
<title>ls10&#45;&gt;d11</title>
<path fill="none" stroke="#aaaaaa" d="M470,-187.7C470,-172.92 470,-151.56 470,-135.47"/>
<polygon fill="#aaaaaa" stroke="#aaaaaa" points="471.4,-135.74 470,-131.74 468.6,-135.74 471.4,-135.74"/>
</g>
<!-- g15 -->
<g id="node16" class="node">
<title>g15</title>
<polygon fill="#f0f0f0" stroke="black" points="562,-224 508,-224 508,-188 562,-188 562,-224"/>
<text xml:space="preserve" text-anchor="start" x="516" y="-203.47" font-family="Courier New" font-size="7.00">*</text>
</g>
<!-- ls10&#45;&gt;g15 -->
<g id="edge10" class="edge">
<title>ls10&#45;&gt;g15</title>
<path fill="none" stroke="red" d="M501.92,-192.5C502.4,-192.5 502.88,-192.5 503.36,-192.51"/>
<polygon fill="red" stroke="red" points="501.85,-191.46 498.93,-192.72 502,-193.55 501.85,-191.46"/>
<polygon fill="red" stroke="red" points="503.12,-193.54 506.19,-192.73 503.28,-191.45 503.12,-193.54"/>
</g>
<!-- ls10&#45;&gt;g15 -->
<g id="edge11" class="edge">
<title>ls10&#45;&gt;g15</title>
<path fill="none" stroke="#9933cc" d="M501.92,-219.5C502.4,-219.5 502.88,-219.5 503.36,-219.49"/>
<polygon fill="#9933cc" stroke="#9933cc" points="502,-218.45 498.93,-219.28 501.85,-220.54 502,-218.45"/>
<polygon fill="#9933cc" stroke="#9933cc" points="503.28,-220.55 506.19,-219.27 503.12,-218.46 503.28,-220.55"/>
</g>
<!-- d11&#45;&gt;d9 -->
<g id="edge15" class="edge">
<title>d11&#45;&gt;d9</title>
<path fill="none" stroke="#888888" stroke-dasharray="5,2" d="M495.39,-93.7C517.83,-78.4 550.61,-56.07 574.47,-39.81"/>
<polygon fill="#888888" stroke="#888888" points="575.32,-41.34 578.47,-37.08 573.35,-38.45 575.32,-41.34"/>
</g>
<!-- d13 -->
<g id="node14" class="node">
<title>d13</title>
<polygon fill="white" stroke="black" points="697,-36 643,-36 643,0 697,0 697,-36"/>
<text xml:space="preserve" text-anchor="start" x="663.25" y="-19.35" font-family="Courier New" font-size="7.00">ε=1</text>
<text xml:space="preserve" text-anchor="start" x="663.25" y="-12.35" font-family="Courier New" font-size="7.00" fill="red">s</text>
<text xml:space="preserve" text-anchor="start" x="667.75" y="-12.35" font-family="Courier New" font-size="7.00">| </text>
</g>
<!-- d11&#45;&gt;d13 -->
<g id="edge17" class="edge">
<title>d11&#45;&gt;d13</title>
<path fill="none" stroke="#888888" stroke-dasharray="5,2" d="M497.32,-99.48C529.61,-85.73 584.99,-61.66 637.14,-36.36"/>
<polygon fill="#888888" stroke="#888888" points="637.74,-38.02 641.47,-34.26 636.21,-34.87 637.74,-38.02"/>
</g>
<!-- ls12 -->
<g id="node13" class="node">
<title>ls12</title>
<polygon fill="#e6ffe6" stroke="black" points="697,-130 643,-130 643,-94 697,-94 697,-130"/>
<text xml:space="preserve" text-anchor="start" x="651" y="-113.6" font-family="Courier New" font-size="7.00">(1,1)</text>
<text xml:space="preserve" text-anchor="start" x="651" y="-105.35" font-family="Courier New" font-size="7.00">=*</text>
</g>
<!-- ls12&#45;&gt;d13 -->
<g id="edge7" class="edge">
<title>ls12&#45;&gt;d13</title>
<path fill="none" stroke="#aaaaaa" d="M670,-93.7C670,-78.92 670,-57.56 670,-41.47"/>
<polygon fill="#aaaaaa" stroke="#aaaaaa" points="671.4,-41.74 670,-37.74 668.6,-41.74 671.4,-41.74"/>
</g>
<!-- g14&#45;&gt;ls6 -->
<g id="edge20" class="edge">
<title>g14&#45;&gt;ls6</title>
<path fill="none" stroke="blue" d="M239.61,-187.7C218.39,-173.24 187.94,-152.49 164.52,-136.52"/>
<polygon fill="blue" stroke="blue" points="166.76,-133.82 156.53,-131.08 162.82,-139.6 166.76,-133.82"/>
</g>
<!-- g15&#45;&gt;ls12 -->
<g id="edge23" class="edge">
<title>g15&#45;&gt;ls12</title>
<path fill="none" stroke="blue" d="M560.39,-187.7C581.61,-173.24 612.06,-152.49 635.48,-136.52"/>
<polygon fill="blue" stroke="blue" points="637.18,-139.6 643.47,-131.08 633.24,-133.82 637.18,-139.6"/>
</g>
<!-- gp_M_0 -->
<g id="node17" class="node">
<title>gp_M_0</title>
<text xml:space="preserve" text-anchor="middle" x="27" y="-296.12" font-family="Helvetica,sans-Serif" font-size="10.00" fill="#333333">Mp(0)</text>
</g>
<!-- gp_M_0&#45;&gt;ls4 -->
<!-- gp_B_mid_0 -->
<g id="node18" class="node">
<title>gp_B_mid_0</title>
<text xml:space="preserve" text-anchor="middle" x="27" y="-202.12" font-family="Helvetica,sans-Serif" font-size="10.00" fill="#333333">O(1)</text>
</g>
<!-- gp_M_0&#45;&gt;gp_B_mid_0 -->
<!-- gp_B_mid_0&#45;&gt;ls2 -->
<!-- gp_B_bot_0 -->
<g id="node19" class="node">
<title>gp_B_bot_0</title>
</g>
<!-- gp_B_mid_0&#45;&gt;gp_B_bot_0 -->
<!-- gp_B_bot_0&#45;&gt;d3 -->
<!-- gp_M_bot_0 -->
<g id="node20" class="node">
<title>gp_M_bot_0</title>
</g>
<!-- gp_B_bot_0&#45;&gt;gp_M_bot_0 -->
<!-- gp_M_bot_0&#45;&gt;d5 -->
<!-- gp_M_1 -->
<g id="node21" class="node">
<title>gp_M_1</title>
<text xml:space="preserve" text-anchor="middle" x="65" y="-108.12" font-family="Helvetica,sans-Serif" font-size="10.00" fill="#333333">Mp(2)</text>
</g>
<!-- gp_M_bot_0&#45;&gt;gp_M_1 -->
<!-- gp_M_1&#45;&gt;ls0 -->
<!-- gp_M_bot_1 -->
<g id="node22" class="node">
<title>gp_M_bot_1</title>
</g>
<!-- gp_M_1&#45;&gt;gp_M_bot_1 -->
<!-- gp_M_bot_1&#45;&gt;d1 -->
</g>
</svg>
