<?xml version="1.0" encoding="UTF-8" standalone="no"?>
<!DOCTYPE svg PUBLIC "-//W3C//DTD SVG 1.1//EN"
 "http://www.w3.org/Graphics/SVG/1.1/DTD/svg11.dtd">
<!-- Generated by graphviz version 13.1.2 (20250808.2320)
 -->
<!-- Title: Extended PBP Tree Pages: 1 -->
<svg width="1023pt" height="483pt"
 viewBox="0.00 0.00 1023.00 483.00" xmlns="http://www.w3.org/2000/svg" xmlns:xlink="http://www.w3.org/1999/xlink">
<g id="graph0" class="graph" transform="scale(2.08333 2.08333) rotate(0) translate(4 228)">
<title>Extended PBP Tree</title>
<polygon fill="white" stroke="none" points="-4,4 -4,-228 487.12,-228 487.12,4 -4,4"/>
<!-- e0 -->
<g id="node1" class="node">
<title>e0</title>
<polygon fill="#e6ffe6" stroke="black" points="377.25,-36 320.75,-36 320.75,0 377.25,0 377.25,-36"/>
<text xml:space="preserve" text-anchor="start" x="328.75" y="-20.15" font-family="Courier New" font-size="8.00">(1,1) ε=0</text>
<text xml:space="preserve" text-anchor="start" x="328.75" y="-10.4" font-family="Courier New" font-size="8.00">c|</text>
</g>
<!-- e1 -->
<g id="node2" class="node">
<title>e1</title>
<polygon fill="#ffe6f3" stroke="black" points="361,-130 291,-130 291,-94 361,-94 361,-130"/>
<text xml:space="preserve" text-anchor="start" x="299" y="-113.78" font-family="Courier New" font-size="8.00">(0,1) B&#45; ε=1</text>
</g>
<!-- e1&#45;&gt;e0 -->
<g id="edge1" class="edge">
<title>e1&#45;&gt;e0</title>
<path fill="none" stroke="blue" d="M330.33,-93.7C333.6,-80.59 338.17,-62.31 341.97,-47.11"/>
<polygon fill="blue" stroke="blue" points="345.3,-48.25 344.33,-37.7 338.51,-46.55 345.3,-48.25"/>
</g>
<!-- e3 -->
<g id="node4" class="node">
<title>e3</title>
<polygon fill="#e6ffe6" stroke="black" points="483.12,-36 398.88,-36 398.88,0 483.12,0 483.12,-36"/>
<text xml:space="preserve" text-anchor="start" x="406.88" y="-20.15" font-family="Courier New" font-size="8.00">(1,1) ε=1 ℘={0}</text>
<text xml:space="preserve" text-anchor="start" x="406.88" y="-10.4" font-family="Courier New" font-size="8.00">c|</text>
</g>
<!-- e1&#45;&gt;e3 -->
<g id="edge3" class="edge">
<title>e1&#45;&gt;e3</title>
<path fill="none" stroke="blue" d="M347.63,-93.7C365.38,-79.5 390.72,-59.22 410.53,-43.38"/>
<polygon fill="blue" stroke="blue" points="412.66,-46.15 418.28,-37.17 408.29,-40.69 412.66,-46.15"/>
</g>
<!-- e2 -->
<g id="node3" class="node">
<title>e2</title>
<polygon fill="#e6ffe6" stroke="black" points="239.25,-224 182.75,-224 182.75,-188 239.25,-188 239.25,-224"/>
<text xml:space="preserve" text-anchor="start" x="190.75" y="-207.78" font-family="Courier New" font-size="8.00">(0,0) ε=0</text>
</g>
<!-- e2&#45;&gt;e1 -->
<g id="edge2" class="edge">
<title>e2&#45;&gt;e1</title>
<path fill="none" stroke="blue" d="M232.63,-187.7C250.38,-173.5 275.72,-153.22 295.53,-137.38"/>
<polygon fill="blue" stroke="blue" points="297.66,-140.15 303.28,-131.17 293.29,-134.69 297.66,-140.15"/>
</g>
<!-- e5 -->
<g id="node6" class="node">
<title>e5</title>
<polygon fill="#ffe6e6" stroke="black" points="246,-130 176,-130 176,-94 246,-94 246,-130"/>
<text xml:space="preserve" text-anchor="start" x="184" y="-113.78" font-family="Courier New" font-size="8.00">(1,0) B+ ε=1</text>
</g>
<!-- e2&#45;&gt;e5 -->
<g id="edge5" class="edge">
<title>e2&#45;&gt;e5</title>
<path fill="none" stroke="blue" d="M211,-187.7C211,-174.72 211,-156.66 211,-141.56"/>
<polygon fill="blue" stroke="blue" points="214.5,-141.74 211,-131.74 207.5,-141.74 214.5,-141.74"/>
</g>
<!-- e4 -->
<g id="node5" class="node">
<title>e4</title>
<polygon fill="#e6ffe6" stroke="black" points="193.25,-36 136.75,-36 136.75,0 193.25,0 193.25,-36"/>
<text xml:space="preserve" text-anchor="start" x="144.75" y="-20.15" font-family="Courier New" font-size="8.00">(1,1) ε=0</text>
<text xml:space="preserve" text-anchor="start" x="144.75" y="-10.4" font-family="Courier New" font-size="8.00">s|</text>
</g>
<!-- e5&#45;&gt;e4 -->
<g id="edge4" class="edge">
<title>e5&#45;&gt;e4</title>
<path fill="none" stroke="blue" d="M202.35,-93.7C195.67,-80.33 186.29,-61.59 178.61,-46.22"/>
<polygon fill="blue" stroke="blue" points="181.89,-44.96 174.29,-37.58 175.63,-48.09 181.89,-44.96"/>
</g>
<!-- e6 -->
<g id="node7" class="node">
<title>e6</title>
<polygon fill="#e6ffe6" stroke="black" points="299.12,-36 214.88,-36 214.88,0 299.12,0 299.12,-36"/>
<text xml:space="preserve" text-anchor="start" x="222.88" y="-20.15" font-family="Courier New" font-size="8.00">(1,1) ε=1 ℘={0}</text>
<text xml:space="preserve" text-anchor="start" x="222.88" y="-10.4" font-family="Courier New" font-size="8.00">s|</text>
</g>
<!-- e5&#45;&gt;e6 -->
<g id="edge6" class="edge">
<title>e5&#45;&gt;e6</title>
<path fill="none" stroke="blue" d="M219.65,-93.7C226.33,-80.33 235.71,-61.59 243.39,-46.22"/>
<polygon fill="blue" stroke="blue" points="246.37,-48.09 247.71,-37.58 240.11,-44.96 246.37,-48.09"/>
</g>
<!-- gp_B_0 -->
<g id="node8" class="node">
<title>gp_B_0</title>
<text xml:space="preserve" text-anchor="middle" x="27" y="-107.55" font-family="Helvetica,sans-Serif" font-size="11.00" fill="#333333">O(1)</text>
</g>
<!-- gp_B_0&#45;&gt;e1 -->
<!-- gp_M_0 -->
<g id="node9" class="node">
<title>gp_M_0</title>
<text xml:space="preserve" text-anchor="middle" x="88" y="-201.55" font-family="Helvetica,sans-Serif" font-size="11.00" fill="#333333">Mp(0)</text>
</g>
<!-- gp_B_0&#45;&gt;gp_M_0 -->
<!-- gp_M_0&#45;&gt;e2 -->
<!-- gp_M_1 -->
<g id="node10" class="node">
<title>gp_M_1</title>
<text xml:space="preserve" text-anchor="middle" x="88" y="-13.55" font-family="Helvetica,sans-Serif" font-size="11.00" fill="#333333">Mp(2)</text>
</g>
<!-- gp_M_0&#45;&gt;gp_M_1 -->
<!-- gp_M_1&#45;&gt;e0 -->
</g>
</svg>
